<svg id="Layer_1" data-name="Layer 1" xmlns="http://www.w3.org/2000/svg" viewBox="0 0 98.58 36.74"><title>americanexpress</title><path d="M25.49,16.55V15.3l-.6,1.25H19.7L19,15.21v1.35H9.34L8.19,13.85H6.25L5,16.56H0V8.36L3.73,0h7.06l1,2.37V0h8.64l1.9,4,1.86-4H51.47a4.64,4.64,0,0,1,2.37.64V0h6.87v.9A5.59,5.59,0,0,1,63.77,0H75.89L77,2.43V0h7.77l1.41,2.4V0h7.43V16.59H85.94L84.15,13.7v2.87H74.67l-1.33-3H71.48l-1.25,3H64.49a7.43,7.43,0,0,1-3.75-1.18v1.18H49.25V12.71a.43.43,0,0,0-.33-.51H48.4v4.38H25.49Z" fill="#fff"/><path d="M19.79,20.13h15L37,22.58l2.22-2.45H50.73a5.32,5.32,0,0,1,2.11.58v-.58H63.12a5.25,5.25,0,0,1,2.4.65v-.65H78.74v.6a4.47,4.47,0,0,1,2.21-.6h8.61v.6a5.26,5.26,0,0,1,2.23-.6h6.76v15.6a3.72,3.72,0,0,1-2.73,1H86.91v-.52a4.57,4.57,0,0,1-2.14.5H61.1v-4c0-.4-.17-.47-.53-.47h-.33v4.5h-7.4V32.27a5,5,0,0,1-2.19.44H48v4H38.84l-2-2.5-2.22,2.53H19.79Z" fill="#fff"/><polygon points="67.12 22.62 76.54 22.62 76.54 25.15 70 25.15 70 27.35 76.36 27.35 76.36 29.58 70 29.58 70 31.89 76.54 31.89 76.54 34.36 67.12 34.36 67.12 22.62" fill="#0078a9"/><path d="M94.74,27.21c3.54.18,3.84,2,3.84,3.84a3.43,3.43,0,0,1-3.47,3.39H88.84V31.91h4.72c.8,0,2,0,2-1.13,0-.54-.21-.88-1.06-1-.38,0-1.78-.13-2-.14-3.2-.08-4-1.68-4-3.61a3.24,3.24,0,0,1,3.07-3.4H98v2.58H93.61c-1,0-2.09-.12-2.09,1,0,.72.54.87,1.22.93C93,27.12,94.53,27.21,94.74,27.21Z" fill="#0078a9"/><path d="M83.89,27.21c3.54.18,3.84,2,3.84,3.84a3.43,3.43,0,0,1-3.47,3.39H78V31.91h4.72c.8,0,2,0,2-1.13,0-.54-.21-.88-1.06-1-.38,0-1.78-.13-2-.14-3.2-.08-3.94-1.68-3.94-3.61a3.23,3.23,0,0,1,3-3.4h6.43v2.58H82.73c-1,0-2.1-.12-2.1,1,0,.72.54.87,1.22.93C82.11,27.12,83.68,27.21,83.89,27.21Z" fill="#0078a9"/><path d="M49.71,22.65H39.6l-3.3,3.64-3.2-3.67H21.74V34.36h11l3.46-3.88,3.38,3.91h5.53v-4H49c1.49,0,4.22,0,4.22-4.17a3.25,3.25,0,0,0-3.47-3.57ZM31.22,31.9H24.58V29.58H31V27.35H24.6v-2.2h7l2.81,3.2Zm11,1.36-4.14-4.9,4.14-4.59v9.49ZM48.72,28H45.13V25.21h3.6a1.42,1.42,0,1,1,0,2.78Z" fill="#0078a9"/><path d="M63.64,29a3.21,3.21,0,0,0,2-3.25c0-2.51-2-3.14-3.46-3.14H54.69V34.39h2.88V30.21h3.77c1,0,1.39,1,1.41,2l.08,2.15h2.8L65.53,32C65.52,30.09,65,29.21,63.64,29Zm-2.49-1.21H57.56V25.21h3.6a1.38,1.38,0,0,1,1.59,1.35C62.75,27.3,62.33,27.83,61.15,27.83Z" fill="#0078a9"/><rect x="55.83" y="2.35" width="2.88" height="11.75" fill="#0078a9"/><polygon points="32.24 2.37 41.66 2.37 41.66 4.89 35.12 4.89 35.12 7.1 41.48 7.1 41.48 9.32 35.12 9.32 35.12 11.64 41.66 11.64 41.66 14.11 32.24 14.11 32.24 2.37" fill="#0078a9"/><path d="M52.33,8.76a3.2,3.2,0,0,0,2-3.25c0-2.52-2-3.14-3.46-3.14H43.38V14.11h2.88V10H50c1,0,1.39,1,1.42,2l.08,2.15h2.8l-.1-2.41C54.22,9.81,53.69,8.92,52.33,8.76ZM49.84,7.55H46.25V4.89h3.6a1.38,1.38,0,0,1,1.58,1.35c0,.78-.41,1.31-1.59,1.31Z" fill="#0078a9"/><path d="M25.59,2.37,22,10.21,18.52,2.34H14V13.65L9,2.34H5.16L0,14.08H3l1.12-2.62H10l1.14,2.62h5.8V5.37l3.85,8.71h2.62l3.94-8.57v8.57h2.88V2.37ZM5.28,9,7,4.86,8.79,9Z" fill="#0078a9"/><path d="M88.46,2.36v8.13L83.6,2.36H79.34v11l-4.91-11H70.62l-4,9.09H64.77c-.7-.14-1.78-.63-1.79-2.7V7.9c0-2.75,1.5-3,3.41-3h1.78V2.35H64.41c-1.31,0-4.16,1-4.26,5.82-.07,3.25,1.35,5.93,4.54,5.93h3.8l1.13-2.62h5.75l1.14,2.62H82.2V5.5l5.19,8.6h3.93V2.36ZM70.76,9l1.72-4.1L74.29,9H70.76Z" fill="#0078a9"/></svg>