<svg id="Layer_1" data-name="Layer 1" xmlns="http://www.w3.org/2000/svg" viewBox="0 0 74.96 45.02"><title>maestro</title><polygon points="52.41 45.02 53.57 44.99 54.72 44.91 55.84 44.77 56.95 44.56 58.05 44.31 59.12 44.01 60.16 43.66 61.19 43.25 62.19 42.8 63.16 42.3 64.1 41.76 65.02 41.17 65.9 40.54 66.75 39.88 67.58 39.17 68.36 38.42 69.1 37.63 69.81 36.81 70.48 35.96 71.11 35.08 71.69 34.16 72.23 33.22 72.74 32.25 73.19 31.25 73.59 30.22 73.94 29.18 74.25 28.11 74.5 27.02 74.7 25.9 74.84 24.78 74.93 23.63 74.96 22.47 74.93 21.31 74.84 20.18 74.7 19.06 74.5 17.95 74.25 16.87 73.94 15.8 73.59 14.76 73.19 13.74 72.74 12.75 72.23 11.78 71.69 10.84 71.11 9.92 70.48 9.04 69.81 8.19 69.1 7.38 68.36 6.59 67.58 5.85 66.75 5.14 65.9 4.48 65.02 3.85 64.1 3.26 63.16 2.72 62.19 2.22 61.19 1.77 60.16 1.37 59.12 1.01 58.05 0.71 56.95 0.46 55.84 0.26 54.72 0.12 53.57 0.03 52.41 0 51.25 0.03 50.1 0.12 48.98 0.26 47.86 0.46 46.77 0.71 45.7 1.01 44.65 1.37 43.63 1.77 42.63 2.22 41.66 2.72 40.73 3.26 39.81 3.85 38.93 4.48 38.08 5.14 37.27 5.85 36.49 6.59 35.74 7.38 35.03 8.19 34.36 9.04 33.74 9.92 33.15 10.84 32.61 11.78 32.11 12.75 31.67 13.74 31.26 14.76 30.91 15.8 30.61 16.87 30.36 17.95 30.16 19.06 30.02 20.18 29.93 21.31 29.9 22.47 29.93 23.63 30.02 24.78 30.16 25.9 30.36 27.02 30.61 28.11 30.91 29.18 31.26 30.22 31.67 31.25 32.11 32.25 32.61 33.22 33.15 34.16 33.74 35.08 34.36 35.96 35.03 36.81 35.74 37.63 36.49 38.42 37.27 39.17 38.08 39.88 38.93 40.54 39.81 41.17 40.73 41.76 41.66 42.3 42.63 42.8 43.63 43.25 44.65 43.66 45.7 44.01 46.77 44.31 47.86 44.56 48.98 44.77 50.1 44.91 51.25 44.99 52.41 45.02" fill="#ec1c2e"/><polygon points="22.55 45.02 23.71 44.99 24.86 44.91 25.98 44.77 27.09 44.56 28.19 44.31 29.25 44.01 30.3 43.66 31.32 43.25 32.32 42.8 33.29 42.3 34.23 41.76 35.15 41.17 36.03 40.54 36.88 39.88 37.69 39.17 38.48 38.42 39.22 37.63 39.93 36.81 40.59 35.96 41.22 35.08 41.81 34.16 42.35 33.22 42.84 32.25 43.29 31.25 43.69 30.22 44.05 29.18 44.34 28.11 44.6 27.02 44.8 25.9 44.94 24.78 45.02 23.63 45.05 22.47 45.02 21.31 44.94 20.18 44.8 19.06 44.6 17.95 44.34 16.87 44.05 15.8 43.69 14.76 43.29 13.74 42.84 12.75 42.35 11.78 41.81 10.84 41.22 9.92 40.59 9.04 39.93 8.19 39.22 7.38 38.48 6.59 37.69 5.85 36.88 5.14 36.03 4.48 35.15 3.85 34.23 3.26 33.29 2.72 32.32 2.22 31.32 1.77 30.3 1.37 29.25 1.01 28.19 0.71 27.09 0.46 25.98 0.26 24.86 0.12 23.71 0.03 22.55 0 21.39 0.03 20.24 0.12 19.12 0.26 18.01 0.46 16.91 0.71 15.84 1.01 14.79 1.37 13.77 1.77 12.77 2.22 11.8 2.72 10.85 3.26 9.94 3.85 9.05 4.48 8.2 5.14 7.38 5.85 6.61 6.59 5.86 7.38 5.15 8.19 4.48 9.04 3.85 9.92 3.26 10.84 2.72 11.78 2.22 12.75 1.77 13.74 1.37 14.76 1.01 15.8 0.71 16.87 0.46 17.95 0.26 19.06 0.12 20.18 0.03 21.31 0 22.47 0.03 23.63 0.12 24.78 0.26 25.9 0.46 27.02 0.71 28.11 1.01 29.18 1.37 30.22 1.77 31.25 2.22 32.25 2.72 33.22 3.26 34.16 3.85 35.08 4.48 35.96 5.15 36.81 5.86 37.63 6.61 38.42 7.38 39.17 8.2 39.88 9.05 40.54 9.94 41.17 10.85 41.76 11.8 42.3 12.77 42.8 13.77 43.25 14.79 43.66 15.84 44.01 16.91 44.31 18.01 44.56 19.12 44.77 20.24 44.91 21.39 44.99 22.55 45.02" fill="#0084c4"/><polygon points="34.7 8.57 46.12 8.57 46.12 7.32 35.81 7.32 34.7 8.57" fill="#ec1c2e"/><polygon points="32.91 11.24 46.12 11.24 46.12 9.99 33.71 9.99 32.91 11.24" fill="#ec1c2e"/><polygon points="31.57 13.95 46.12 13.95 46.12 12.69 32.19 12.69 31.57 13.95" fill="#ec1c2e"/><polygon points="30.7 16.61 46.12 16.61 46.12 15.36 31.09 15.36 30.7 16.61" fill="#ec1c2e"/><polygon points="30.13 19.28 46.12 19.28 46.12 18.02 30.36 18.02 30.13 19.28" fill="#ec1c2e"/><polygon points="30.01 24.45 46.12 24.45 46.12 23.19 29.9 23.19 30.01 24.45" fill="#ec1c2e"/><polygon points="30.4 27.27 46.12 27.27 46.12 26.01 30.17 26.01 30.4 27.27" fill="#ec1c2e"/><polygon points="31.16 29.56 46.12 29.56 46.12 28.3 30.77 28.3 31.16 29.56" fill="#ec1c2e"/><polygon points="32.3 32.34 46.12 32.34 46.12 31.08 31.69 31.08 32.3 32.34" fill="#ec1c2e"/><polygon points="33.91 35.16 46.12 35.16 46.12 33.9 33.06 33.9 33.91 35.16" fill="#ec1c2e"/><polygon points="35.92 37.86 46.01 37.86 46.01 36.6 34.81 36.6 35.92 37.86" fill="#ec1c2e"/><polygon points="71.25 36.3 71.32 36.09 71.43 35.91 71.57 35.75 71.73 35.61 71.92 35.51 72.12 35.44 72.33 35.42 72.55 35.44 72.76 35.51 72.94 35.61 73.11 35.75 73.24 35.91 73.34 36.09 73.41 36.3 73.18 36.3 73.14 36.16 73.06 36 72.95 35.87 72.83 35.76 72.68 35.68 72.51 35.63 72.33 35.61 72.15 35.63 71.98 35.68 71.83 35.76 71.7 35.87 71.6 36 71.52 36.16 71.47 36.3 71.25 36.3" fill="#ec1c2e"/><polygon points="71.95 36.3 71.95 36.03 72.37 36.03 72.46 36.04 72.54 36.04 72.62 36.07 72.68 36.09 72.72 36.13 72.76 36.18 72.78 36.23 72.79 36.3 72.6 36.3 72.6 36.3 72.59 36.26 72.58 36.23 72.55 36.2 72.52 36.18 72.49 36.16 72.45 36.16 72.41 36.15 72.37 36.15 72.14 36.15 72.14 36.3 71.95 36.3" fill="#ec1c2e"/><polygon points="71.24 36.49 71.25 36.3 71.25 36.3 71.47 36.3 71.47 36.33 71.45 36.49 71.24 36.49" fill="#ec1c2e"/><polygon points="71.95 36.49 71.95 36.3 72.14 36.3 72.14 36.45 72.33 36.45 72.4 36.45 72.46 36.45 72.5 36.44 72.54 36.43 72.56 36.41 72.58 36.38 72.6 36.35 72.6 36.3 72.79 36.3 72.79 36.3 72.78 36.36 72.77 36.42 72.75 36.47 72.72 36.49 71.95 36.49" fill="#ec1c2e"/><polygon points="73.2 36.49 73.19 36.33 73.18 36.3 73.41 36.3 73.41 36.3 73.43 36.49 73.2 36.49" fill="#ec1c2e"/><polygon points="71.24 36.49 71.23 36.52 71.25 36.75 71.32 36.95 71.43 37.13 71.57 37.29 71.73 37.42 71.92 37.52 72.12 37.57 72.33 37.6 72.55 37.57 72.76 37.52 72.94 37.42 73.11 37.29 73.24 37.13 73.34 36.95 73.41 36.75 73.43 36.52 73.43 36.49 73.2 36.49 73.2 36.52 73.19 36.72 73.14 36.89 73.06 37.05 72.95 37.18 72.83 37.29 72.68 37.38 72.51 37.43 72.33 37.44 72.15 37.43 71.98 37.38 71.83 37.29 71.7 37.18 71.6 37.05 71.52 36.89 71.47 36.72 71.45 36.52 71.45 36.49 71.24 36.49" fill="#ec1c2e"/><polygon points="71.95 36.49 71.95 36.95 72.14 36.95 72.14 36.57 72.33 36.57 72.56 36.95 72.75 36.95 72.48 36.57 72.54 36.56 72.61 36.55 72.66 36.53 72.71 36.5 72.72 36.49 71.95 36.49" fill="#ec1c2e"/><polygon points="47.53 20.57 47.38 20.57 47.24 20.55 47.1 20.53 46.97 20.52 46.84 20.49 46.7 20.47 46.56 20.45 46.41 20.43 46.26 20.41 46.1 20.4 45.91 20.38 45.71 20.37 45.49 20.37 45.25 20.38 44.97 20.4 44.68 20.42 44.46 20.45 44.26 20.49 44.08 20.55 43.91 20.62 43.77 20.7 43.63 20.79 43.52 20.89 43.44 21 43.37 21.11 43.32 21.24 43.3 21.36 43.3 21.5 43.33 21.64 43.38 21.78 43.46 21.92 43.57 22.06 43.78 22.25 44.03 22.41 44.33 22.54 44.65 22.65 44.98 22.76 45.33 22.88 45.68 23 46.02 23.15 46.34 23.33 46.65 23.54 46.91 23.82 47.13 24.14 47.3 24.54 47.41 25.01 47.45 25.57 47.41 26.24 47.33 26.74 47.2 27.18 47.03 27.58 46.81 27.93 46.56 28.25 46.29 28.51 45.98 28.74 45.66 28.94 45.32 29.1 44.97 29.24 44.6 29.35 44.24 29.43 43.88 29.49 43.52 29.52 43.18 29.55 42.85 29.56 42.39 29.56 41.98 29.55 41.6 29.54 41.25 29.53 40.93 29.52 40.65 29.5 40.39 29.48 40.15 29.45 39.93 29.42 39.72 29.39 39.53 29.35 39.34 29.3 39.16 29.25 38.98 29.19 38.8 29.13 38.62 29.06 39.08 26.74 39.18 26.76 39.31 26.8 39.46 26.83 39.63 26.88 39.83 26.91 40.05 26.97 40.29 27.01 40.54 27.05 40.81 27.09 41.09 27.13 41.38 27.16 41.68 27.19 41.98 27.2 42.3 27.21 42.61 27.21 42.92 27.2 43.22 27.14 43.46 27.06 43.65 26.94 43.8 26.81 43.91 26.66 43.99 26.49 44.06 26.33 44.1 26.17 44.12 26 44.12 25.85 44.08 25.71 44.02 25.59 43.94 25.47 43.83 25.37 43.71 25.27 43.57 25.18 43.41 25.1 43.24 25.02 43.06 24.94 42.86 24.87 42.67 24.79 42.47 24.71 42.26 24.63 42.04 24.54 41.84 24.45 41.63 24.35 41.42 24.24 41.22 24.13 41.03 24 40.85 23.86 40.68 23.7 40.53 23.53 40.39 23.33 40.26 23.13 40.16 22.9 40.07 22.65 40.01 22.38 39.97 22.08 39.96 21.76 39.99 21.41 40.01 21.2 40.04 20.99 40.07 20.79 40.11 20.6 40.16 20.41 40.21 20.23 40.27 20.06 40.34 19.89 40.42 19.73 40.5 19.58 40.6 19.43 40.7 19.29 40.81 19.16 40.93 19.04 41.06 18.92 41.2 18.81 41.35 18.7 41.5 18.61 41.67 18.52 41.85 18.43 42.03 18.35 42.23 18.28 42.44 18.22 42.66 18.16 42.9 18.11 43.15 18.07 43.4 18.03 43.66 18 43.94 17.98 44.24 17.96 44.54 17.95 44.86 17.95 45.25 17.95 45.61 17.95 45.93 17.96 46.22 17.98 46.48 17.99 46.72 18.01 46.93 18.03 47.12 18.04 47.29 18.07 47.44 18.09 47.58 18.1 47.69 18.13 47.8 18.14 47.9 18.16 47.98 18.17 48.06 18.18 47.53 20.57" fill="#fff"/><polyline points="47.53 20.57 47.53 20.57 47.38 20.57 47.24 20.55 47.1 20.53 46.97 20.52 46.84 20.49 46.7 20.47 46.56 20.45 46.41 20.43 46.26 20.41 46.1 20.4 45.91 20.38 45.71 20.37 45.49 20.37 45.25 20.38 44.97 20.4 44.68 20.42 44.68 20.42 44.46 20.45 44.26 20.49 44.08 20.55 43.91 20.62 43.77 20.7 43.63 20.79 43.52 20.89 43.44 21 43.37 21.11 43.32 21.24 43.3 21.36 43.3 21.5 43.33 21.64 43.38 21.78 43.46 21.92 43.57 22.06 43.57 22.06 43.78 22.25 44.03 22.41 44.33 22.54 44.65 22.65 44.98 22.76 45.33 22.88 45.68 23 46.02 23.15 46.34 23.33 46.65 23.54 46.91 23.82 47.13 24.14 47.3 24.54 47.41 25.01 47.45 25.57 47.41 26.24 47.41 26.24 47.33 26.74 47.2 27.18 47.03 27.58 46.81 27.93 46.56 28.25 46.29 28.51 45.98 28.74 45.66 28.94 45.32 29.1 44.97 29.24 44.6 29.35 44.24 29.43 43.88 29.49 43.52 29.52 43.18 29.55 42.85 29.56 42.85 29.56 42.39 29.56 41.98 29.55 41.6 29.54 41.25 29.53 40.93 29.52 40.65 29.5 40.39 29.48 40.15 29.45 39.93 29.42 39.72 29.39 39.53 29.35 39.34 29.3 39.16 29.25 38.98 29.19 38.8 29.13 38.62 29.06 39.08 26.74 39.08 26.74 39.18 26.76 39.31 26.8 39.46 26.83 39.63 26.88 39.83 26.91 40.05 26.97 40.29 27.01 40.54 27.05 40.81 27.09 41.09 27.13 41.38 27.16 41.68 27.19 41.98 27.2 42.3 27.21 42.61 27.21 42.92 27.2 42.92 27.2 43.22 27.14 43.46 27.06 43.65 26.94 43.8 26.81 43.91 26.66 43.99 26.49 44.06 26.33 44.1 26.17 44.1 26.17 44.12 26 44.12 25.85 44.08 25.71 44.02 25.59 43.94 25.47 43.83 25.37 43.71 25.27 43.57 25.18 43.41 25.1 43.24 25.02 43.06 24.94 42.86 24.87 42.67 24.79 42.47 24.71 42.26 24.63 42.04 24.54 41.84 24.45 41.63 24.35 41.42 24.24 41.22 24.13 41.03 24 40.85 23.86 40.68 23.7 40.53 23.53 40.39 23.33 40.26 23.13 40.16 22.9 40.07 22.65 40.01 22.38 39.97 22.08 39.96 21.76 39.99 21.41 39.99 21.41 40.01 21.2 40.04 20.99 40.07 20.79 40.11 20.6 40.16 20.41 40.21 20.23 40.27 20.06 40.34 19.89 40.42 19.73 40.5 19.58 40.6 19.43 40.7 19.29 40.81 19.16 40.93 19.04 41.06 18.92 41.2 18.81 41.35 18.7 41.5 18.61 41.67 18.52 41.85 18.43 42.03 18.35 42.23 18.28 42.44 18.22 42.66 18.16 42.9 18.11 43.15 18.07 43.4 18.03 43.66 18 43.94 17.98 44.24 17.96 44.54 17.95 44.86 17.95 44.86 17.95 45.25 17.95 45.61 17.95 45.93 17.96 46.22 17.98 46.48 17.99 46.72 18.01 46.93 18.03 47.12 18.04 47.29 18.07 47.44 18.09 47.58 18.1 47.69 18.13 47.8 18.14 47.9 18.16 47.98 18.17 48.06 18.18 47.53 20.57" fill="none" stroke="#fff" stroke-width="0.21"/><polygon points="49.97 15.62 52.94 15.62 52.48 18.21 54.31 18.21 53.89 20.57 52.02 20.54 51.04 26.43 51.02 26.56 51.02 26.67 51.04 26.77 51.07 26.86 51.11 26.93 51.16 27 51.23 27.06 51.31 27.11 51.39 27.15 51.48 27.19 51.59 27.22 51.69 27.23 51.81 27.25 51.93 27.26 52.05 27.27 52.18 27.27 52.41 27.27 52.62 27.25 52.81 27.23 52.98 27.19 53.1 27.15 53.2 27.11 53.26 27.08 53.28 27.08 52.98 29.1 52.9 29.14 52.82 29.18 52.74 29.21 52.66 29.25 52.58 29.28 52.49 29.31 52.4 29.34 52.3 29.37 52.19 29.4 52.08 29.42 51.96 29.44 51.82 29.47 51.68 29.49 51.53 29.51 51.37 29.53 51.19 29.56 50.39 29.56 49.97 29.52 49.59 29.48 49.26 29.42 48.97 29.34 48.72 29.25 48.52 29.14 48.35 29.02 48.21 28.87 48.09 28.72 48.01 28.55 47.96 28.36 47.93 28.16 47.92 27.94 47.93 27.71 47.95 27.46 47.99 27.2 49.97 15.62" fill="#fff"/><polyline points="49.97 15.62 52.94 15.62 52.48 18.21 54.31 18.21 53.89 20.57 52.02 20.54 51.04 26.43 51.04 26.43 51.02 26.56 51.02 26.67 51.04 26.77 51.07 26.86 51.11 26.93 51.16 27 51.23 27.06 51.31 27.11 51.39 27.15 51.48 27.19 51.59 27.22 51.69 27.23 51.81 27.25 51.93 27.26 52.05 27.27 52.18 27.27 52.18 27.27 52.41 27.27 52.62 27.25 52.81 27.23 52.98 27.19 53.1 27.15 53.2 27.11 53.26 27.08 53.28 27.08 52.98 29.1 52.98 29.1 52.9 29.14 52.82 29.18 52.74 29.21 52.66 29.25 52.58 29.28 52.49 29.31 52.4 29.34 52.3 29.37 52.19 29.4 52.08 29.42 51.96 29.44 51.82 29.47 51.68 29.49 51.53 29.51 51.37 29.53 51.19 29.56 50.39 29.56 50.39 29.56 49.97 29.52 49.59 29.48 49.26 29.42 48.97 29.34 48.72 29.25 48.52 29.14 48.35 29.02 48.21 28.87 48.09 28.72 48.01 28.55 47.96 28.36 47.93 28.16 47.92 27.94 47.93 27.71 47.95 27.46 47.99 27.2 49.97 15.62" fill="none" stroke="#fff" stroke-width="0.21"/><polygon points="31.89 24.61 31.85 24.79 31.84 24.98 31.86 25.18 31.9 25.37 31.96 25.57 32.05 25.77 32.15 25.96 32.28 26.14 32.42 26.32 32.58 26.49 32.75 26.64 32.94 26.78 33.13 26.9 33.34 27 33.56 27.07 33.79 27.12 34.05 27.16 34.32 27.2 34.59 27.23 34.87 27.24 35.15 27.25 35.42 27.25 35.71 27.23 35.99 27.21 36.28 27.17 36.58 27.11 36.87 27.04 37.17 26.94 37.46 26.83 37.77 26.7 38.08 26.54 38.39 26.36 37.93 28.99 37.76 29.07 37.59 29.16 37.43 29.22 37.27 29.28 37.11 29.34 36.95 29.39 36.78 29.42 36.59 29.46 36.4 29.48 36.19 29.5 35.96 29.52 35.72 29.53 35.45 29.55 35.15 29.55 34.83 29.56 34.48 29.56 34.22 29.56 33.95 29.54 33.69 29.52 33.42 29.5 33.15 29.46 32.88 29.41 32.62 29.36 32.35 29.3 32.09 29.21 31.83 29.13 31.58 29.04 31.33 28.93 31.09 28.8 30.85 28.67 30.63 28.52 30.41 28.36 30.2 28.18 30 27.99 29.81 27.78 29.64 27.56 29.47 27.31 29.33 27.06 29.19 26.79 29.07 26.5 28.97 26.19 28.89 25.86 28.82 25.52 28.78 25.15 28.75 24.77 28.75 24.37 28.76 23.94 28.8 23.5 28.82 23.34 28.84 23.16 28.88 22.98 28.91 22.79 28.95 22.59 29 22.39 29.06 22.17 29.12 21.95 29.19 21.72 29.27 21.5 29.37 21.27 29.47 21.04 29.59 20.81 29.72 20.58 29.86 20.35 30.01 20.13 30.18 19.92 30.35 19.7 30.55 19.49 30.76 19.3 30.98 19.11 31.23 18.93 31.49 18.77 31.77 18.61 32.06 18.48 32.38 18.35 32.71 18.24 33.07 18.16 33.45 18.08 33.85 18.03 34.26 18 34.7 17.98 34.91 17.98 35.12 18 35.33 18.01 35.55 18.04 35.76 18.07 35.98 18.11 36.2 18.16 36.41 18.22 36.63 18.29 36.84 18.37 37.05 18.46 37.25 18.56 37.44 18.68 37.63 18.81 37.81 18.95 37.99 19.11 38.15 19.28 38.31 19.46 38.45 19.67 38.57 19.89 38.69 20.12 38.8 20.37 38.88 20.65 38.95 20.94 39.01 21.25 39.05 21.57 39.06 21.92 39.06 22.29 39.04 22.68 39 23.1 38.94 23.53 38.85 23.99 38.73 24.64 31.04 24.64 31.5 22.59 36.11 22.59 36.13 22.3 36.13 22.05 36.12 21.8 36.07 21.58 36.01 21.38 35.94 21.2 35.84 21.03 35.73 20.88 35.61 20.75 35.47 20.64 35.32 20.55 35.16 20.48 34.99 20.42 34.81 20.37 34.63 20.35 34.44 20.34 34.23 20.34 34.04 20.37 33.85 20.41 33.67 20.47 33.5 20.55 33.34 20.65 33.18 20.76 33.04 20.88 32.91 21.03 32.79 21.19 32.68 21.36 32.57 21.54 32.49 21.73 32.41 21.94 32.35 22.16 32.3 22.39 31.89 24.61" fill="#fff"/><polyline points="31.89 24.61 31.89 24.61 31.85 24.79 31.84 24.98 31.86 25.18 31.9 25.37 31.96 25.57 32.05 25.77 32.15 25.96 32.28 26.14 32.42 26.32 32.58 26.49 32.75 26.64 32.94 26.78 33.13 26.9 33.34 27 33.56 27.07 33.79 27.12 33.79 27.12 34.05 27.16 34.32 27.2 34.59 27.23 34.87 27.24 35.15 27.25 35.42 27.25 35.71 27.23 35.99 27.21 36.28 27.17 36.58 27.11 36.87 27.04 37.17 26.94 37.46 26.83 37.77 26.7 38.08 26.54 38.39 26.36 37.93 28.99 37.93 28.99 37.76 29.07 37.59 29.16 37.43 29.22 37.27 29.28 37.11 29.34 36.95 29.39 36.78 29.42 36.59 29.46 36.4 29.48 36.19 29.5 35.96 29.52 35.72 29.53 35.45 29.55 35.15 29.55 34.83 29.56 34.48 29.56 34.48 29.56 34.22 29.56 33.95 29.54 33.69 29.52 33.42 29.5 33.15 29.46 32.88 29.41 32.62 29.36 32.35 29.3 32.09 29.21 31.83 29.13 31.58 29.04 31.33 28.93 31.09 28.8 30.85 28.67 30.63 28.52 30.41 28.36 30.2 28.18 30 27.99 29.81 27.78 29.64 27.56 29.47 27.31 29.33 27.06 29.19 26.79 29.07 26.5 28.97 26.19 28.89 25.86 28.82 25.52 28.78 25.15 28.75 24.77 28.75 24.37 28.76 23.94 28.8 23.5 28.8 23.5 28.82 23.34 28.84 23.16 28.88 22.98 28.91 22.79 28.95 22.59 29 22.39 29.06 22.17 29.12 21.95 29.19 21.72 29.27 21.5 29.37 21.27 29.47 21.04 29.59 20.81 29.72 20.58 29.86 20.35 30.01 20.13 30.18 19.92 30.35 19.7 30.55 19.49 30.76 19.3 30.98 19.11 31.23 18.93 31.49 18.77 31.77 18.61 32.06 18.48 32.38 18.35 32.71 18.24 33.07 18.16 33.45 18.08 33.85 18.03 34.26 18 34.7 17.98 34.7 17.98 34.91 17.98 35.12 18 35.33 18.01 35.55 18.04 35.76 18.07 35.98 18.11 36.2 18.16 36.41 18.22 36.63 18.29 36.84 18.37 37.05 18.46 37.25 18.56 37.44 18.68 37.63 18.81 37.81 18.95 37.99 19.11 38.15 19.28 38.31 19.46 38.45 19.67 38.57 19.89 38.69 20.12 38.8 20.37 38.88 20.65 38.95 20.94 39.01 21.25 39.05 21.57 39.06 21.92 39.06 22.29 39.04 22.68 39 23.1 38.94 23.53 38.85 23.99 38.73 24.64 31.04 24.64 31.5 22.59 36.11 22.59 36.11 22.59 36.13 22.3 36.13 22.05 36.12 21.8 36.07 21.58 36.01 21.38 35.94 21.2 35.84 21.03 35.73 20.88 35.61 20.75 35.47 20.64 35.32 20.55 35.16 20.48 34.99 20.42 34.81 20.37 34.63 20.35 34.44 20.34 34.44 20.34 34.23 20.34 34.04 20.37 33.85 20.41 33.67 20.47 33.5 20.55 33.34 20.65 33.18 20.76 33.04 20.88 32.91 21.03 32.79 21.19 32.68 21.36 32.57 21.54 32.49 21.73 32.41 21.94 32.35 22.16 32.3 22.39 31.89 24.61" fill="none" stroke="#fff" stroke-width="0.21"/><polygon points="27.77 27.2 27.35 29.56 24.68 29.56 24.71 29.33 24.74 29.11 24.77 28.91 24.8 28.73 24.83 28.57 24.85 28.44 24.88 28.35 24.91 28.3 24.77 28.46 24.59 28.62 24.39 28.78 24.16 28.93 23.92 29.07 23.65 29.2 23.37 29.32 23.08 29.43 22.78 29.52 22.47 29.61 22.16 29.67 21.85 29.71 21.54 29.73 21.23 29.74 20.94 29.72 20.65 29.67 20.27 29.59 19.94 29.47 19.64 29.32 19.37 29.17 19.13 29 18.93 28.81 18.75 28.61 18.61 28.39 18.48 28.16 18.38 27.93 18.3 27.7 18.23 27.45 18.18 27.22 18.15 26.97 18.14 26.74 18.13 26.51 18.16 26.09 18.23 25.7 18.33 25.32 18.46 24.97 18.64 24.64 18.83 24.32 19.06 24.04 19.3 23.76 19.58 23.52 19.86 23.3 20.18 23.11 20.5 22.93 20.84 22.79 21.19 22.67 21.54 22.58 21.91 22.51 21.92 22.51 21.97 22.5 22.05 22.5 22.16 22.48 22.29 22.47 22.44 22.45 22.6 22.43 22.78 22.42 22.96 22.4 23.14 22.38 23.32 22.36 23.5 22.35 23.66 22.33 23.81 22.33 23.95 22.32 24.07 22.32 24.2 22.32 24.32 22.32 24.45 22.32 24.58 22.33 24.71 22.33 24.83 22.33 24.95 22.33 25.06 22.33 25.17 22.34 25.26 22.34 25.35 22.35 25.42 22.35 25.48 22.36 25.52 22.36 25.55 22.36 25.56 22.36 25.58 22.28 25.63 22.11 25.67 21.9 25.67 21.71 25.66 21.58 25.63 21.45 25.6 21.34 25.55 21.23 25.49 21.12 25.41 21.03 25.34 20.94 25.25 20.85 25.15 20.77 25.06 20.71 24.95 20.66 24.84 20.6 24.72 20.57 24.59 20.54 24.46 20.52 24.34 20.5 24.04 20.49 23.72 20.5 23.38 20.51 23.05 20.53 22.7 20.55 22.36 20.58 22.02 20.62 21.69 20.66 21.37 20.71 21.07 20.75 20.8 20.8 20.54 20.86 20.31 20.92 20.11 20.98 19.96 21.04 19.85 21.11 20.61 18.59 20.83 18.49 21.07 18.39 21.31 18.31 21.56 18.24 21.82 18.19 22.08 18.15 22.36 18.11 22.65 18.08 22.95 18.07 23.25 18.05 23.56 18.04 23.89 18.04 24.23 18.04 24.57 18.04 24.92 18.05 25.29 18.06 25.6 18.09 25.92 18.13 26.25 18.21 26.58 18.31 26.91 18.43 27.25 18.59 27.56 18.77 27.85 18.98 28.13 19.21 28.37 19.47 28.58 19.76 28.74 20.08 28.86 20.43 28.93 20.8 28.93 21.2 28.88 21.64 27.77 27.2" fill="#fff"/><polyline points="27.77 27.2 27.35 29.56 24.68 29.56 24.68 29.56 24.71 29.33 24.74 29.11 24.77 28.91 24.8 28.73 24.83 28.57 24.85 28.44 24.88 28.35 24.91 28.3 24.91 28.3 24.77 28.46 24.59 28.62 24.39 28.78 24.16 28.93 23.92 29.07 23.65 29.2 23.37 29.32 23.08 29.43 22.78 29.52 22.47 29.61 22.16 29.67 21.85 29.71 21.54 29.73 21.23 29.74 20.94 29.72 20.65 29.67 20.65 29.67 20.27 29.59 19.94 29.47 19.64 29.32 19.37 29.17 19.13 29 18.93 28.81 18.75 28.61 18.61 28.39 18.48 28.16 18.38 27.93 18.3 27.7 18.23 27.45 18.18 27.22 18.15 26.97 18.14 26.74 18.13 26.51 18.13 26.51 18.16 26.09 18.23 25.7 18.33 25.32 18.46 24.97 18.64 24.64 18.83 24.32 19.06 24.04 19.3 23.76 19.58 23.52 19.86 23.3 20.18 23.11 20.5 22.93 20.84 22.79 21.19 22.67 21.54 22.58 21.91 22.51 21.91 22.51 21.92 22.51 21.97 22.5 22.05 22.5 22.16 22.48 22.29 22.47 22.44 22.45 22.6 22.43 22.78 22.42 22.96 22.4 23.14 22.38 23.32 22.36 23.5 22.35 23.66 22.33 23.81 22.33 23.95 22.32 24.07 22.32 24.07 22.32 24.2 22.32 24.32 22.32 24.45 22.32 24.58 22.33 24.71 22.33 24.83 22.33 24.95 22.33 25.06 22.33 25.17 22.34 25.26 22.34 25.35 22.35 25.42 22.35 25.48 22.36 25.52 22.36 25.55 22.36 25.56 22.36 25.56 22.36 25.58 22.28 25.63 22.11 25.67 21.9 25.67 21.71 25.67 21.71 25.66 21.58 25.63 21.45 25.6 21.34 25.55 21.23 25.49 21.12 25.41 21.03 25.34 20.94 25.25 20.85 25.15 20.77 25.06 20.71 24.95 20.66 24.84 20.6 24.72 20.57 24.59 20.54 24.46 20.52 24.34 20.5 24.34 20.5 24.04 20.49 23.72 20.5 23.38 20.51 23.05 20.53 22.7 20.55 22.36 20.58 22.02 20.62 21.69 20.66 21.37 20.71 21.07 20.75 20.8 20.8 20.54 20.86 20.31 20.92 20.11 20.98 19.96 21.04 19.85 21.11 20.61 18.59 20.61 18.59 20.83 18.49 21.07 18.39 21.31 18.31 21.56 18.24 21.82 18.19 22.08 18.15 22.36 18.11 22.65 18.08 22.95 18.07 23.25 18.05 23.56 18.04 23.89 18.04 24.23 18.04 24.57 18.04 24.92 18.05 25.29 18.06 25.29 18.06 25.6 18.09 25.92 18.13 26.25 18.21 26.58 18.31 26.91 18.43 27.25 18.59 27.56 18.77 27.85 18.98 28.13 19.21 28.37 19.47 28.58 19.76 28.74 20.08 28.86 20.43 28.93 20.8 28.93 21.2 28.88 21.64 27.77 27.2" fill="none" stroke="#fff" stroke-width="0.21"/><polygon points="25.22 24.41 25.21 24.35 25.17 24.31 25.09 24.27 25 24.25 24.87 24.24 24.74 24.23 24.58 24.23 24.42 24.23 24.25 24.24 24.07 24.27 23.9 24.29 23.73 24.32 23.57 24.35 23.41 24.38 23.28 24.41 23.16 24.45 23.1 24.46 23.01 24.5 22.9 24.53 22.78 24.58 22.65 24.64 22.51 24.7 22.37 24.78 22.23 24.87 22.09 24.97 21.96 25.08 21.83 25.2 21.72 25.33 21.62 25.47 21.54 25.63 21.48 25.8 21.45 25.97 21.43 26.34 21.48 26.62 21.57 26.84 21.71 27 21.87 27.11 22.04 27.19 22.22 27.23 22.4 27.23 22.73 27.23 23.02 27.2 23.29 27.14 23.53 27.08 23.75 27 23.95 26.91 24.13 26.81 24.29 26.7 24.43 26.59 24.55 26.46 24.65 26.34 24.74 26.22 24.81 26.09 24.87 25.97 24.92 25.86 24.95 25.75 24.99 25.58 25.03 25.41 25.06 25.23 25.1 25.05 25.13 24.87 25.16 24.71 25.19 24.55 25.22 24.41" fill="#0084c4"/><polygon points="5.45 29.56 2.55 29.56 4.99 15.62 10.02 15.62 10.51 23.92 13.94 15.62 19.16 15.62 16.72 29.56 13.83 29.56 15.65 19.12 15.54 19.12 11.24 29.56 8 29.56 7.97 29.12 7.9 27.96 7.8 26.31 7.69 24.43 7.58 22.53 7.49 20.85 7.42 19.63 7.39 19.12 7.38 19.12 7.35 19.12 7.32 19.12 7.29 19.12 7.26 19.12 7.24 19.12 7.24 19.12 7.27 19.12 5.45 29.56" fill="#fff"/><polyline points="5.45 29.56 2.55 29.56 4.99 15.62 10.02 15.62 10.51 23.92 13.94 15.62 19.16 15.62 16.72 29.56 13.83 29.56 15.65 19.12 15.54 19.12 11.24 29.56 8 29.56 8 29.56 7.97 29.12 7.9 27.96 7.8 26.31 7.69 24.43 7.58 22.53 7.49 20.85 7.42 19.63 7.39 19.12 7.39 19.12 7.38 19.12 7.35 19.12 7.32 19.12 7.29 19.12 7.26 19.12 7.24 19.12 7.24 19.12 7.27 19.12 5.45 29.56" fill="none" stroke="#fff" stroke-width="0.21"/><polygon points="53.78 29.56 56.79 29.56 56.79 29.56 57.82 23.54 57.86 23.3 57.91 23.07 57.97 22.85 58.05 22.63 58.13 22.42 58.23 22.22 58.35 22.02 58.5 21.84 58.67 21.68 58.86 21.53 59.09 21.39 59.34 21.28 59.64 21.18 59.97 21.11 60.34 21.06 60.75 21.03 60.79 21.03 60.83 21.04 60.89 21.05 60.95 21.05 61.01 21.05 61.05 21.06 61.08 21.07 61.09 21.07 61.1 21.03 61.13 20.9 61.17 20.71 61.23 20.46 61.3 20.19 61.38 19.89 61.48 19.6 61.59 19.32 61.67 19.11 61.77 18.91 61.86 18.71 61.97 18.52 62.06 18.37 62.13 18.24 62.18 18.16 62.2 18.13 62.18 18.13 62.14 18.12 62.09 18.11 62.02 18.1 61.94 18.08 61.85 18.07 61.77 18.06 61.7 18.06 61.37 18.08 61.08 18.12 60.8 18.18 60.55 18.24 60.32 18.33 60.1 18.43 59.9 18.55 59.71 18.67 59.52 18.81 59.35 18.97 59.2 19.13 59.04 19.31 58.88 19.49 58.73 19.69 58.58 19.9 58.42 20.12 58.77 18.21 55.76 18.18 53.78 29.56 53.78 29.56" fill="#fff"/><polyline points="53.78 29.56 56.79 29.56 56.79 29.56 57.82 23.54 57.82 23.54 57.86 23.3 57.91 23.07 57.97 22.85 58.05 22.63 58.13 22.42 58.23 22.22 58.35 22.02 58.5 21.84 58.67 21.68 58.86 21.53 59.09 21.39 59.34 21.28 59.64 21.18 59.97 21.11 60.34 21.06 60.75 21.03 60.75 21.03 60.79 21.03 60.83 21.04 60.89 21.05 60.95 21.05 61.01 21.05 61.05 21.06 61.08 21.07 61.09 21.07 61.09 21.07 61.1 21.03 61.13 20.9 61.17 20.71 61.23 20.46 61.3 20.19 61.38 19.89 61.48 19.6 61.59 19.32 61.59 19.32 61.67 19.11 61.77 18.91 61.86 18.71 61.97 18.52 62.06 18.37 62.13 18.24 62.18 18.16 62.2 18.13 62.2 18.13 62.18 18.13 62.14 18.12 62.09 18.11 62.02 18.1 61.94 18.08 61.85 18.07 61.77 18.06 61.7 18.06 61.7 18.06 61.37 18.08 61.08 18.12 60.8 18.18 60.55 18.24 60.32 18.33 60.1 18.43 59.9 18.55 59.71 18.67 59.52 18.81 59.35 18.97 59.2 19.13 59.04 19.31 58.88 19.49 58.73 19.69 58.58 19.9 58.42 20.12 58.77 18.21 55.76 18.18 53.78 29.56 53.78 29.56" fill="none" stroke="#fff" stroke-width="0.21"/><polygon points="66.8 18.06 67.14 18.07 67.46 18.09 67.78 18.12 68.09 18.16 68.39 18.22 68.68 18.3 68.95 18.38 69.22 18.47 69.48 18.58 69.73 18.7 69.97 18.83 70.19 18.97 70.42 19.12 70.62 19.29 70.81 19.46 71 19.64 71.18 19.83 71.34 20.04 71.49 20.25 71.63 20.47 71.76 20.7 71.87 20.94 71.98 21.19 72.07 21.45 72.15 21.71 72.22 21.98 72.28 22.26 72.32 22.55 72.35 22.84 72.37 23.14 72.38 23.45 72.37 23.76 72.35 24.14 72.3 24.5 72.25 24.85 72.18 25.19 72.11 25.52 72.01 25.83 71.91 26.13 71.8 26.42 71.67 26.69 71.53 26.96 71.38 27.21 71.22 27.45 71.05 27.68 70.86 27.89 70.67 28.09 70.47 28.28 70.27 28.46 70.05 28.63 69.82 28.79 69.59 28.93 69.35 29.06 69.1 29.18 68.85 29.29 68.58 29.39 68.31 29.47 68.03 29.55 67.75 29.61 67.47 29.66 67.17 29.7 66.88 29.73 66.58 29.74 66.27 29.75 65.97 29.74 65.67 29.73 65.38 29.7 65.09 29.65 64.81 29.6 64.53 29.54 64.26 29.47 64 29.38 63.74 29.28 63.5 29.17 63.26 29.05 63.03 28.92 62.81 28.78 62.6 28.62 62.4 28.46 62.2 28.28 62.02 28.1 61.85 27.9 61.69 27.69 61.54 27.47 61.4 27.24 61.27 27 61.16 26.74 61.05 26.48 60.97 26.21 60.89 25.92 60.82 25.63 60.77 25.32 60.73 25.01 60.71 24.68 60.7 24.34 60.71 23.99 60.73 23.64 60.77 23.3 60.82 22.96 60.89 22.64 60.96 22.33 61.05 22.03 61.14 21.74 61.26 21.46 61.37 21.19 61.51 20.93 61.66 20.68 61.81 20.44 61.97 20.22 62.15 20 62.34 19.8 62.53 19.6 62.73 19.41 62.95 19.24 63.17 19.08 63.4 18.93 63.64 18.8 63.9 18.67 64.16 18.55 64.42 18.45 64.69 18.36 64.97 18.28 65.26 18.21 65.56 18.16 65.86 18.12 66.17 18.08 66.49 18.07 66.8 18.06" fill="#fff"/><polyline points="66.8 18.06 66.8 18.06 67.14 18.07 67.46 18.09 67.78 18.12 68.09 18.16 68.39 18.22 68.68 18.3 68.95 18.38 69.22 18.47 69.48 18.58 69.73 18.7 69.97 18.83 70.19 18.97 70.42 19.12 70.62 19.29 70.81 19.46 71 19.64 71.18 19.83 71.34 20.04 71.49 20.25 71.63 20.47 71.76 20.7 71.87 20.94 71.98 21.19 72.07 21.45 72.15 21.71 72.22 21.98 72.28 22.26 72.32 22.55 72.35 22.84 72.37 23.14 72.38 23.45 72.37 23.76 72.37 23.76 72.35 24.14 72.3 24.5 72.25 24.85 72.18 25.19 72.11 25.52 72.01 25.83 71.91 26.13 71.8 26.42 71.67 26.69 71.53 26.96 71.38 27.21 71.22 27.45 71.05 27.68 70.86 27.89 70.67 28.09 70.47 28.28 70.27 28.46 70.05 28.63 69.82 28.79 69.59 28.93 69.35 29.06 69.1 29.18 68.85 29.29 68.58 29.39 68.31 29.47 68.03 29.55 67.75 29.61 67.47 29.66 67.17 29.7 66.88 29.73 66.58 29.74 66.27 29.75 66.27 29.75 65.97 29.74 65.67 29.73 65.38 29.7 65.09 29.65 64.81 29.6 64.53 29.54 64.26 29.47 64 29.38 63.74 29.28 63.5 29.17 63.26 29.05 63.03 28.92 62.81 28.78 62.6 28.62 62.4 28.46 62.2 28.28 62.02 28.1 61.85 27.9 61.69 27.69 61.54 27.47 61.4 27.24 61.27 27 61.16 26.74 61.05 26.48 60.97 26.21 60.89 25.92 60.82 25.63 60.77 25.32 60.73 25.01 60.71 24.68 60.7 24.34 60.71 23.99 60.71 23.99 60.73 23.64 60.77 23.3 60.82 22.96 60.89 22.64 60.96 22.33 61.05 22.03 61.14 21.74 61.26 21.46 61.37 21.19 61.51 20.93 61.66 20.68 61.81 20.44 61.97 20.22 62.15 20 62.34 19.8 62.53 19.6 62.73 19.41 62.95 19.24 63.17 19.08 63.4 18.93 63.64 18.8 63.9 18.67 64.16 18.55 64.42 18.45 64.69 18.36 64.97 18.28 65.26 18.21 65.56 18.16 65.86 18.12 66.17 18.08 66.49 18.07 66.8 18.06" fill="none" stroke="#fff" stroke-width="0.21"/><polygon points="71.23 28.99 72.1 28.99 72.1 29.1 71.76 29.1 71.76 29.82 71.57 29.82 71.57 29.1 71.23 29.1 71.23 28.99" fill="#fff"/><polyline points="71.23 28.99 72.1 28.99 72.1 29.1 71.76 29.1 71.76 29.82 71.57 29.82 71.57 29.1 71.23 29.1 71.23 28.99" fill="none" stroke="#fff" stroke-width="0.21"/><polygon points="72.21 28.99 72.48 28.99 72.79 29.63 72.79 29.63 73.09 28.99 73.36 28.99 73.36 29.82 73.17 29.82 73.17 29.18 73.17 29.18 72.86 29.82 72.71 29.82 72.4 29.18 72.4 29.18 72.4 29.82 72.21 29.82 72.21 28.99" fill="#fff"/><polyline points="72.21 28.99 72.48 28.99 72.79 29.63 72.79 29.63 73.09 28.99 73.36 28.99 73.36 29.82 73.17 29.82 73.17 29.18 73.17 29.18 72.86 29.82 72.71 29.82 72.4 29.18 72.4 29.18 72.4 29.82 72.21 29.82 72.21 28.99" fill="none" stroke="#fff" stroke-width="0.21"/><polygon points="64.44 23.5 64.4 23.91 64.38 24.3 64.38 24.64 64.4 24.97 64.44 25.27 64.51 25.52 64.59 25.76 64.69 25.97 64.82 26.16 64.96 26.31 65.12 26.45 65.29 26.55 65.47 26.63 65.68 26.69 65.89 26.72 66.12 26.74 66.38 26.73 66.62 26.7 66.85 26.65 67.07 26.57 67.28 26.46 67.48 26.33 67.66 26.17 67.84 25.99 68 25.78 68.14 25.54 68.28 25.28 68.4 24.99 68.51 24.67 68.61 24.32 68.69 23.95 68.75 23.54 68.79 23.22 68.81 22.92 68.81 22.62 68.79 22.34 68.75 22.08 68.69 21.83 68.61 21.6 68.51 21.39 68.39 21.2 68.26 21.03 68.11 20.88 67.94 20.77 67.74 20.67 67.54 20.61 67.31 20.57 67.07 20.57 66.77 20.6 66.49 20.65 66.23 20.74 65.98 20.85 65.76 21 65.56 21.16 65.37 21.34 65.21 21.55 65.05 21.77 64.92 22.01 64.8 22.25 64.7 22.5 64.61 22.75 64.54 23 64.49 23.25 64.44 23.5" fill="#ec1c2e"/></svg>