<svg id="Layer_1" data-name="Layer 1" xmlns="http://www.w3.org/2000/svg" viewBox="0 0 128 80">
    <defs>
        <clipPath id="clip-path">
            <rect width="128" height="80" rx="2" ry="2" fill="none"/>
        </clipPath>
        <clipPath id="clip-path-2">
            <rect x="5.3" y="10.7" width="117.3" height="16" rx="1" ry="1" fill="none"/>
        </clipPath>
        <clipPath id="clip-path-3">
            <rect x="18.7" y="37.3" width="93.3" height="28" fill="none"/>
        </clipPath>
        <clipPath id="clip-path-4">
            <path d="M99.5,51.3a1.91,1.91,0,1,0-1.7-1.9,1.69,1.69,0,0,0,1.47,1.89Zm-2.4,7.4,2.8-5.5a3.55,3.55,0,0,1-1,.2,3.65,3.65,0,0,1-3.51-3.79s0-.07,0-.11a4.1,4.1,0,0,1,8.2,0,6.92,6.92,0,0,1-1,3.4l-2.9,5.9H97.1Zm-8.5-7.9a1.55,1.55,0,0,0,1.6-1.7,1.61,1.61,0,0,0-1.52-1.7H88.6a1.7,1.7,0,1,0,0,3.4Zm0,5.8a1.8,1.8,0,1,0-1.8-1.8,1.68,1.68,0,0,0,1.55,1.8Zm0,2.2c-2.4,0-4.3-1.4-4.3-4a3.39,3.39,0,0,1,1.7-3A3.25,3.25,0,0,1,84.5,49a4.11,4.11,0,0,1,8.2,0,3.39,3.39,0,0,1-1.5,2.8,3.6,3.6,0,0,1,1.7,3,4,4,0,0,1-4,4ZM77.7,51.3A1.91,1.91,0,1,0,76,49.4C76,50.6,76.6,51.3,77.7,51.3Zm-2.4,7.4,2.8-5.5a3.55,3.55,0,0,1-1,.2,3.65,3.65,0,0,1-3.51-3.79s0-.07,0-.11a4.1,4.1,0,0,1,8.2,0,6.92,6.92,0,0,1-1,3.4l-2.9,5.9H75.3ZM62.8,45.4H61.1l.1,2.3-2-1.3-.9,1.5L60.4,49l-2.1,1.1.9,1.5,2-1.3-.1,2.3h1.7l-.1-2.3,2,1.3.9-1.5L63.5,49l2.1-1.1-.9-1.5-2,1.3Zm-10.2,0H50.9l.1,2.3-2-1.3-.9,1.5L50.2,49l-2.1,1.1.9,1.5,2-1.3-.1,2.3h1.7l-.1-2.3,2,1.3.9-1.5L53.3,49l2.1-1.1-.9-1.5-2,1.3Zm-10.2,0H40.7l.1,2.3-2-1.3L38,47.9,40,49l-2,1.1.9,1.5,2-1.3-.1,2.3h1.7l-.1-2.3,2,1.3.9-1.5L43.1,49l2.1-1.1-.9-1.5-2,1.3Zm-10.2,0H30.5l.1,2.3-2-1.3-.9,1.5L29.8,49l-2.1,1.1.9,1.5,2-1.3-.1,2.3h1.7l-.1-2.3,2,1.3.9-1.5L32.9,49,35,47.9l-.9-1.5-2,1.3Z"
                  fill="none"/>
        </clipPath>
    </defs>
    <title>security-code</title>
    <path id="SVGID" d="M0,2A2,2,0,0,1,2,0H126a2,2,0,0,1,2,2V78a2,2,0,0,1-2,2H2a2,2,0,0,1-2-2Z" fill="#d9d9d9"/>
    <g clip-path="url(#clip-path)">
        <path d="M0,2A2,2,0,0,1,2,0H126a2,2,0,0,1,2,2V78a2,2,0,0,1-2,2H2a2,2,0,0,1-2-2Z" fill="#d9d9d9" stroke="#cbcbcb"
              stroke-miterlimit="10" stroke-width="2"/>
    </g>
    <g clip-path="url(#clip-path-2)">
        <rect x="0.3" y="5.7" width="127.3" height="26"/>
    </g>
    <rect id="SVGID-2" x="18.7" y="37.3" width="93.3" height="28" fill="#fff"/>
    <g clip-path="url(#clip-path-3)">
        <rect x="18.7" y="37.3" width="93.3" height="28" fill="#fff" stroke="#d0021b" stroke-miterlimit="10"
              stroke-width="2"/>
    </g>
    <g clip-path="url(#clip-path-4)">
        <rect x="22.8" y="40.3" width="85.9" height="23.5"/>
    </g>
</svg>