<svg xmlns="http://www.w3.org/2000/svg" viewBox="0 0 94.46 148.65"><defs><style>.cls-1{fill:#ff3d51;}.cls-2{fill:#00aeff;}.cls-3{opacity:0.16;}.cls-4{fill:#ffd74f;}.cls-5{fill:#ffbd29;}.cls-6{fill:#fff;opacity:0.2;}</style></defs><title>medal</title><g id="Objects"><polygon class="cls-1" points="55.78 56.83 65.75 53.32 88.96 136.52 76.86 132.39 55.78 56.83"/><polygon class="cls-1" points="42.22 61.6 63.3 137.16 55.47 148.31 32.26 65.11 42.22 61.6"/><polygon class="cls-2" points="76.86 132.39 68.63 129.57 63.3 137.16 42.22 61.6 49 59.21 55.78 56.83 76.86 132.39"/><polygon class="cls-3" points="65.75 53.32 55.78 56.83 49 59.21 42.22 61.6 32.26 65.11 55.47 148.31 63.3 137.16 68.63 129.57 76.86 132.39 88.96 136.52 65.75 53.32"/><polygon class="cls-1" points="39.77 56.83 29.81 53.32 6.6 136.52 18.7 132.39 39.77 56.83"/><polygon class="cls-1" points="53.34 61.6 32.26 137.16 40.09 148.31 63.3 65.11 53.34 61.6"/><polygon class="cls-2" points="18.7 132.39 26.93 129.57 32.26 137.16 53.34 61.6 46.55 59.21 39.77 56.83 18.7 132.39"/><polygon class="cls-4" points="89.59 52.18 93.11 46.67 89.59 41.17 91.58 34.94 86.75 30.54 87.04 24 81.23 21.01 79.83 14.62 73.45 13.22 70.45 7.41 63.92 7.71 59.51 2.88 53.29 4.86 47.78 1.34 42.27 4.86 36.04 2.88 31.64 7.71 25.11 7.41 22.11 13.22 15.73 14.62 14.32 21.01 8.52 24 8.81 30.54 3.98 34.94 5.97 41.17 2.45 46.67 5.97 52.18 3.98 58.41 8.81 62.81 8.52 69.34 14.32 72.34 15.73 78.73 22.11 80.13 25.11 85.94 31.64 85.64 36.04 90.47 42.27 88.49 47.78 92 53.29 88.49 59.51 90.47 63.92 85.64 70.45 85.94 73.45 80.13 79.83 78.73 81.23 72.34 87.04 69.34 86.75 62.81 91.58 58.41 89.59 52.18"/><circle class="cls-5" cx="47.78" cy="46.67" r="36.87" transform="translate(-19.01 47.46) rotate(-45)"/><circle class="cls-4" cx="47.78" cy="46.67" r="33.8"/><polygon class="cls-5" points="47.78 24.08 54.58 39.7 71.53 41.34 58.78 52.63 62.46 69.27 47.78 60.63 33.1 69.27 36.78 52.63 24.02 41.34 40.98 39.7 47.78 24.08"/><polygon class="cls-6" points="47.78 1.34 42.27 4.86 36.04 2.88 31.64 7.71 25.11 7.41 22.11 13.22 15.73 14.62 14.32 21.01 8.52 24 8.81 30.54 3.98 34.94 5.97 41.17 2.45 46.67 5.97 52.18 3.98 58.41 8.81 62.81 8.52 69.34 14.32 72.34 15.73 78.73 22.11 80.13 25.11 85.94 31.64 85.64 36.04 90.47 42.27 88.49 47.78 92 47.78 1.34"/></g></svg>