<svg id="Layer_1" data-name="Layer 1" xmlns="http://www.w3.org/2000/svg" xmlns:xlink="http://www.w3.org/1999/xlink" width="145.6" height="152.2" viewBox="0 0 145.6 152.2">
  <defs>
    <clipPath id="clip-path">
      <path d="M109.5,125.8a35.44,35.44,0,0,0,1.3-9.7c0-20.8-17.3-37.7-38.7-37.7S33.4,95.3,33.4,116.1a36.15,36.15,0,0,0,1.3,9.8c10.7,8.2,23.7,10.9,37.4,10.8C85.4,136.8,98.6,134,109.5,125.8Z" fill="none"/>
    </clipPath>
  </defs>
  <title>owl-black</title>
  <g id="Objects">
    <path d="M63.9,146.5,60,142.9V133a2.4,2.4,0,0,0-4.8,0h0v9.6a2.65,2.65,0,0,0-.6.5l-3.5,4.1a2.27,2.27,0,1,0,3.5,2.9l1-1.2v1a2.3,2.3,0,1,0,4.6,0h0v-.8l.8.7a2.24,2.24,0,0,0,3.2-.1,2.58,2.58,0,0,0-.3-3.2Z" fill="#775246"/>
    <path d="M92.8,146.5l-3.9-3.6V133a2.4,2.4,0,0,0-4.8,0h0v9.6a2.65,2.65,0,0,0-.6.5L80,147.2a2.27,2.27,0,1,0,3.5,2.9h0l1-1.2v1a2.3,2.3,0,0,0,4.6,0v-.8l.8.7a2.24,2.24,0,0,0,3.2-.1,2.46,2.46,0,0,0-.3-3.2Z" fill="#775246"/>
    <path d="M127.7.1c-3.1-1.2-16,12.9-16,12.9C96.2,7.4,82.9,5.7,72.1,5.8,61.2,5.7,48,7.4,32.5,13c0,0-13-14.1-16-12.9S-2.1,84.1,27,118.3c11.9,14,28,18.4,45.2,18.2,16.7.1,33.3-4.3,45.2-18.2C146.3,84.1,130.8,1.3,127.7.1Z" fill="#383838"/>
    <path d="M100.2,18.8c-25.8,15-26.6,20.2-56.4,0-13.3-9-29,13-29,29A29,29,0,0,0,72,54.5a29,29,0,0,0,57.2-6.8C129.2,31.8,114.1,10.8,100.2,18.8Z" fill="#c4bc9e"/>
    <path d="M22.4,40a21.47,21.47,0,0,0-1.2,7,21.15,21.15,0,0,0,42.3.9V47a20.6,20.6,0,0,0-1.2-7Z" fill="#fff"/>
    <path d="M35.2,40A13.38,13.38,0,1,0,55,58a13.46,13.46,0,0,0,0-18Z" fill="#383838"/>
    <path d="M37.2,40A3.83,3.83,0,1,0,43,45a3.92,3.92,0,0,0,0-5Z" fill="#fff"/>
    <path d="M120.9,40a21.47,21.47,0,0,1,1.2,7,21.15,21.15,0,0,1-42.3.9V47A20.6,20.6,0,0,1,81,40Z" fill="#fff"/>
    <path d="M108.2,40A13.38,13.38,0,1,1,88.4,58a13.46,13.46,0,0,1,0-18Z" fill="#383838"/>
    <path d="M106.2,40a3.83,3.83,0,1,1-5.8,5,3.92,3.92,0,0,1,0-5Z" fill="#fff"/>
    <polygon points="64.5 56.2 72.1 66.7 72.1 49 64.5 56.2" fill="#684c42"/>
    <polygon points="72.1 49 72.1 66.7 79.7 56.2 72.1 49" fill="#775246"/>
    <path d="M109.5,125.8a35.44,35.44,0,0,0,1.3-9.7c0-20.8-17.3-37.7-38.7-37.7S33.4,95.3,33.4,116.1a36.15,36.15,0,0,0,1.3,9.8c10.7,8.2,23.7,10.9,37.4,10.8C85.4,136.8,98.6,134,109.5,125.8Z" fill="#c4bc9e"/>
    <g clip-path="url(#clip-path)">
      <g>
        <path d="M51.6,87.1c-.8.9-2,2-3.3,1.9s-2.2-1.4-3.1-2.2c-.2-.1-.9-.2-.8.2a4.26,4.26,0,0,0,3.8,3.3c2.1.3,3.9-1.1,5.3-2.5C54.2,86.9,52.2,86.4,51.6,87.1Z" fill="#775246"/>
        <path d="M62.8,87.1c-.8.9-2,2-3.3,1.9s-2.2-1.4-3.1-2.2c-.2-.1-.9-.2-.8.2a4.26,4.26,0,0,0,3.8,3.3c2.1.3,3.9-1.1,5.3-2.5C65.4,86.9,63.4,86.4,62.8,87.1Z" fill="#775246"/>
        <path d="M74,87.1c-.8.9-2,2-3.3,1.9s-2.2-1.4-3.1-2.2c-.2-.1-.9-.2-.8.2a4.26,4.26,0,0,0,3.8,3.3c2.1.3,3.9-1.1,5.3-2.5C76.7,86.9,74.6,86.4,74,87.1Z" fill="#775246"/>
        <path d="M85.3,87.1c-.8.9-2,2-3.3,1.9s-2.2-1.4-3.1-2.2c-.2-.1-.9-.2-.8.2a4.26,4.26,0,0,0,3.8,3.3c2.1.3,3.9-1.1,5.3-2.5C87.9,86.9,85.8,86.4,85.3,87.1Z" fill="#775246"/>
        <path d="M96.5,87.1c-.8.9-2,2-3.3,1.9s-2.2-1.4-3.1-2.2c-.2-.1-.9-.2-.8.2A4.25,4.25,0,0,0,93,90.3c2.1.3,3.9-1.1,5.3-2.5C99.1,86.9,97,86.4,96.5,87.1Z" fill="#775246"/>
        <path d="M58.3,81.4c-.8.9-2,2-3.3,1.9s-2.2-1.4-3.1-2.2c-.2-.1-.9-.2-.8.2a4.26,4.26,0,0,0,3.8,3.3c2.1.3,3.9-1.1,5.3-2.5C60.9,81.3,58.8,80.8,58.3,81.4Z" fill="#775246"/>
        <path d="M69.5,81.4c-.8.9-2,2-3.3,1.9s-2.2-1.5-3.1-2.2c-.2-.1-.9-.2-.8.2A4.25,4.25,0,0,0,66,84.6c2.1.3,3.9-1.1,5.3-2.5C72.1,81.3,70.1,80.8,69.5,81.4Z" fill="#775246"/>
        <path d="M80.7,81.4c-.8.9-2,2-3.3,1.9s-2.2-1.4-3.1-2.2c-.2-.1-.9-.2-.8.2a4.26,4.26,0,0,0,3.8,3.3c2.1.3,3.9-1.1,5.3-2.5C83.3,81.3,81.3,80.8,80.7,81.4Z" fill="#775246"/>
        <path d="M91.9,81.4c-.8.9-2,2-3.3,1.9s-2.2-1.4-3.1-2.2c-.2-.1-.9-.2-.8.2a4.26,4.26,0,0,0,3.8,3.3c2.1.3,3.9-1.1,5.3-2.5C94.5,81.3,92.5,80.8,91.9,81.4Z" fill="#775246"/>
        <path d="M103.1,81.4c-.8.9-2,2-3.3,1.9s-2.2-1.4-3.1-2.2c-.2-.1-.9-.2-.8.2a4.26,4.26,0,0,0,3.8,3.3c2.1.3,3.9-1.1,5.3-2.5C105.7,81.3,103.7,80.8,103.1,81.4Z" fill="#775246"/>
        <path d="M40.4,93c-.8.9-2,2-3.3,1.9S35,93.5,34,92.7c-.2-.1-.9-.2-.8.2A4.37,4.37,0,0,0,37,96.2c2.1.3,3.9-1.1,5.3-2.5C43,92.9,41,92.4,40.4,93Z" fill="#775246"/>
        <path d="M51.6,93c-.8.9-2,2-3.3,1.9s-2.2-1.4-3.1-2.2c-.2-.1-.9-.2-.8.2a4.26,4.26,0,0,0,3.8,3.3c2.1.3,3.9-1.1,5.3-2.5C54.2,92.9,52.2,92.4,51.6,93Z" fill="#775246"/>
        <path d="M62.8,93c-.8.9-2,2-3.3,1.9s-2.2-1.4-3.1-2.2c-.2-.1-.9-.2-.8.2a4.26,4.26,0,0,0,3.8,3.3c2.1.3,3.9-1.1,5.3-2.5C65.4,92.9,63.4,92.4,62.8,93Z" fill="#775246"/>
        <path d="M74,93c-.8.9-2,2-3.3,1.9s-2.2-1.4-3.1-2.2c-.2-.1-.9-.2-.8.2a4.26,4.26,0,0,0,3.8,3.3c2.1.3,3.9-1.1,5.3-2.5C76.7,92.9,74.6,92.4,74,93Z" fill="#775246"/>
        <path d="M85.3,93c-.8.9-2,2-3.3,1.9s-2.2-1.4-3.1-2.2c-.2-.1-.9-.2-.8.2a4.26,4.26,0,0,0,3.8,3.3c2.1.3,3.9-1.1,5.3-2.5C87.9,92.9,85.8,92.4,85.3,93Z" fill="#775246"/>
        <path d="M96.5,93c-.8.9-2,2-3.3,1.9s-2.2-1.4-3.1-2.2c-.2-.1-.9-.2-.8.2A4.25,4.25,0,0,0,93,96.2c2.1.3,3.9-1.1,5.3-2.5C99.1,92.9,97,92.4,96.5,93Z" fill="#775246"/>
        <path d="M107.7,93c-.8.9-2,2-3.3,1.9s-2.2-1.4-3.1-2.2c-.2-.1-.9-.2-.8.2a4.26,4.26,0,0,0,3.8,3.3c2.1.3,3.9-1.1,5.3-2.5C110.3,92.9,108.3,92.4,107.7,93Z" fill="#775246"/>
        <path d="M44.8,99c-.8.9-2,2-3.3,1.9s-2.2-1.4-3.1-2.2c-.2-.1-.9-.2-.8.2a4.26,4.26,0,0,0,3.8,3.3c2.1.3,3.9-1.1,5.3-2.5C47.4,98.9,45.4,98.4,44.8,99Z" fill="#775246"/>
        <path d="M56,99c-.8.9-2,2-3.3,1.9s-2.2-1.4-3.1-2.2c-.2-.1-.9-.2-.8.2a4.26,4.26,0,0,0,3.8,3.3c2.1.3,3.9-1.1,5.3-2.5C58.6,98.9,56.6,98.4,56,99Z" fill="#775246"/>
        <path d="M67.2,99c-.8.9-2,2-3.3,1.9s-2.2-1.4-3.1-2.2c-.2-.1-.9-.2-.8.2a4.26,4.26,0,0,0,3.8,3.3c2.1.3,3.9-1.1,5.3-2.5C69.8,98.9,67.8,98.4,67.2,99Z" fill="#775246"/>
        <path d="M78.4,99c-.8.9-2,2-3.3,1.9s-2.2-1.4-3.1-2.2c-.2-.1-.9-.2-.8.2a4.26,4.26,0,0,0,3.8,3.3c2.1.3,3.9-1.1,5.3-2.5C81.1,98.9,79,98.4,78.4,99Z" fill="#775246"/>
        <path d="M89.7,99c-.8.9-2,2-3.3,1.9s-2.2-1.4-3.1-2.2c-.2-.1-.9-.2-.8.2a4.26,4.26,0,0,0,3.8,3.3c2.1.3,3.9-1.1,5.3-2.5C92.3,98.9,90.3,98.4,89.7,99Z" fill="#775246"/>
        <path d="M100.9,99c-.8.9-2,2-3.3,1.9s-2.2-1.4-3.1-2.2c-.2-.1-.9-.2-.8.2a4.26,4.26,0,0,0,3.8,3.3c2.1.3,3.9-1.1,5.3-2.5C103.5,98.9,101.5,98.4,100.9,99Z" fill="#775246"/>
        <path d="M112.1,99c-.8.9-2,2-3.3,1.9s-2.2-1.4-3.1-2.2c-.2-.1-.9-.2-.8.2a4.26,4.26,0,0,0,3.8,3.3c2.1.3,3.9-1.1,5.3-2.5C114.7,98.9,112.7,98.4,112.1,99Z" fill="#775246"/>
        <path d="M40.2,105c-.8.9-2,2-3.3,1.9s-2.2-1.4-3.1-2.2c-.2-.1-.9-.2-.8.2a4.26,4.26,0,0,0,3.8,3.3c2.1.3,3.9-1.1,5.3-2.5C42.8,104.8,40.8,104.4,40.2,105Z" fill="#775246"/>
        <path d="M51.4,105c-.8.9-2,2-3.3,1.9s-2.2-1.4-3.1-2.2c-.2-.1-.9-.2-.8.2a4.37,4.37,0,0,0,3.8,3.3c2.1.3,3.9-1.1,5.3-2.5C54,104.8,52,104.4,51.4,105Z" fill="#775246"/>
        <path d="M62.6,105c-.8.9-2,2-3.3,1.9s-2.2-1.4-3.1-2.2c-.2-.1-.9-.2-.8.2a4.26,4.26,0,0,0,3.8,3.3c2.1.3,3.9-1.1,5.3-2.5C65.3,104.8,63.2,104.4,62.6,105Z" fill="#775246"/>
        <path d="M73.8,105c-.8.9-2,2-3.3,1.9s-2.2-1.4-3.1-2.2c-.2-.1-.9-.2-.8.2a4.26,4.26,0,0,0,3.8,3.3c2.1.3,3.9-1.1,5.3-2.5C76.5,104.8,74.4,104.4,73.8,105Z" fill="#775246"/>
        <path d="M85,105c-.8.9-2,2-3.3,1.9s-2.2-1.4-3.1-2.2c-.2-.1-.9-.2-.8.2a4.26,4.26,0,0,0,3.8,3.3c2.1.3,3.9-1.1,5.3-2.5C87.7,104.8,85.6,104.4,85,105Z" fill="#775246"/>
        <path d="M96.3,105c-.8.9-2,2-3.3,1.9s-2.2-1.4-3.1-2.2c-.2-.1-.9-.2-.8.2a4.26,4.26,0,0,0,3.8,3.3c2.1.3,3.9-1.1,5.3-2.5C98.9,104.8,96.8,104.4,96.3,105Z" fill="#775246"/>
        <path d="M107.5,105c-.8.9-2,2-3.3,1.9s-2.2-1.4-3.1-2.2c-.2-.1-.9-.2-.8.2a4.26,4.26,0,0,0,3.8,3.3c2.1.3,3.9-1.1,5.3-2.5C110.1,104.8,108.1,104.4,107.5,105Z" fill="#775246"/>
        <path d="M47,110.9c-.8.9-2,2-3.3,1.9s-2.2-1.4-3.1-2.2c-.2-.1-.9-.2-.8.2a4.26,4.26,0,0,0,3.8,3.3c2.1.3,3.9-1.1,5.3-2.5C49.6,110.8,47.6,110.3,47,110.9Z" fill="#775246"/>
        <path d="M58.2,110.9c-.8.9-2,2-3.3,1.9s-2.2-1.4-3.1-2.2c-.2-.1-.9-.2-.8.2a4.26,4.26,0,0,0,3.8,3.3c2.1.3,3.9-1.1,5.3-2.5C60.8,110.8,58.8,110.3,58.2,110.9Z" fill="#775246"/>
        <path d="M69.4,110.9c-.8.9-2,2-3.3,1.9s-2.2-1.4-3.1-2.2c-.2-.1-.9-.2-.8.2a4.26,4.26,0,0,0,3.8,3.3c2.1.3,3.9-1.1,5.3-2.5C72,110.8,70,110.3,69.4,110.9Z" fill="#775246"/>
        <path d="M80.6,110.9c-.8.9-2,2-3.3,1.9s-2.2-1.4-3.1-2.2c-.2-.1-.9-.2-.8.2a4.26,4.26,0,0,0,3.8,3.3c2.1.3,3.9-1.1,5.3-2.5C83.3,110.8,81.2,110.3,80.6,110.9Z" fill="#775246"/>
        <path d="M91.8,110.9c-.8.9-2,2-3.3,1.9s-2.2-1.4-3.1-2.2c-.2-.1-.9-.2-.8.2a4.26,4.26,0,0,0,3.8,3.3c2.1.3,3.9-1.1,5.3-2.5C94.5,110.8,92.4,110.3,91.8,110.9Z" fill="#775246"/>
        <path d="M103.1,110.9c-.8.9-2,2-3.3,1.9s-2.2-1.4-3.1-2.2c-.2-.1-.9-.2-.8.2a4.26,4.26,0,0,0,3.8,3.3c2.1.3,3.9-1.1,5.3-2.5C105.7,110.8,103.7,110.3,103.1,110.9Z" fill="#775246"/>
        <path d="M114.3,110.9c-.8.9-2,2-3.3,1.9s-2.2-1.4-3.1-2.2c-.2-.1-.9-.2-.8.2a4.26,4.26,0,0,0,3.8,3.3c2.1.3,3.9-1.1,5.3-2.5C116.9,110.8,114.9,110.3,114.3,110.9Z" fill="#775246"/>
        <path d="M40.2,116.9c-.8.9-2,2-3.3,1.9s-2.2-1.4-3.1-2.2c-.2-.1-.9-.2-.8.2a4.26,4.26,0,0,0,3.8,3.3c2.1.3,3.9-1.1,5.3-2.5C42.8,116.8,40.8,116.3,40.2,116.9Z" fill="#775246"/>
        <path d="M51.4,116.9c-.8.9-2,2-3.3,1.9s-2.2-1.4-3.1-2.2c-.2-.1-.9-.2-.8.2a4.26,4.26,0,0,0,3.8,3.3c2.1.3,3.9-1.1,5.3-2.5C54,116.8,52,116.3,51.4,116.9Z" fill="#775246"/>
        <path d="M62.6,116.9c-.8.9-2,2-3.3,1.9s-2.2-1.4-3.1-2.2c-.2-.1-.9-.2-.8.2a4.26,4.26,0,0,0,3.8,3.3c2.1.3,3.9-1.1,5.3-2.5C65.3,116.8,63.2,116.3,62.6,116.9Z" fill="#775246"/>
        <path d="M73.8,116.9c-.8.9-2,2-3.3,1.9s-2.2-1.4-3.1-2.2c-.2-.1-.9-.2-.8.2a4.26,4.26,0,0,0,3.8,3.3c2.1.3,3.9-1.1,5.3-2.5C76.5,116.8,74.4,116.3,73.8,116.9Z" fill="#775246"/>
        <path d="M85,116.9c-.8.9-2,2-3.3,1.9s-2.2-1.4-3.1-2.2c-.2-.1-.9-.2-.8.2a4.26,4.26,0,0,0,3.8,3.3c2.1.3,3.9-1.1,5.3-2.5C87.7,116.8,85.6,116.3,85,116.9Z" fill="#775246"/>
        <path d="M96.3,116.9c-.8.9-2,2-3.3,1.9s-2.2-1.4-3.1-2.2c-.2-.1-.9-.2-.8.2a4.26,4.26,0,0,0,3.8,3.3c2.1.3,3.9-1.1,5.3-2.5C98.9,116.8,96.8,116.3,96.3,116.9Z" fill="#775246"/>
        <path d="M107.5,116.9c-.8.9-2,2-3.3,1.9s-2.2-1.4-3.1-2.2c-.2-.1-.9-.2-.8.2a4.26,4.26,0,0,0,3.8,3.3c2.1.3,3.9-1.1,5.3-2.5C110.1,116.8,108.1,116.3,107.5,116.9Z" fill="#775246"/>
        <path d="M46.8,122.9c-.8.9-2,2-3.3,1.9s-2.2-1.4-3.1-2.2c-.2-.1-.9-.2-.8.2a4.05,4.05,0,0,0,3.8,3.2c2.1.3,3.9-1.1,5.3-2.5C49.4,122.8,47.4,122.3,46.8,122.9Z" fill="#775246"/>
        <path d="M58,122.9c-.8.9-2,2-3.3,1.9s-2.2-1.4-3.1-2.2c-.2-.1-.9-.2-.8.2a4.15,4.15,0,0,0,3.8,3.2c2.1.3,3.9-1.1,5.3-2.5C60.6,122.8,58.6,122.3,58,122.9Z" fill="#775246"/>
        <path d="M69.2,122.9c-.8.9-2,2-3.3,1.9s-2.2-1.4-3.1-2.2c-.2-.1-.9-.2-.8.2a4.05,4.05,0,0,0,3.8,3.2c2.1.3,3.9-1.1,5.3-2.5C71.8,122.8,69.8,122.3,69.2,122.9Z" fill="#775246"/>
        <path d="M80.4,122.9c-.8.9-2,2-3.3,1.9s-2.2-1.4-3.1-2.2c-.2-.1-.9-.2-.8.2a4,4,0,0,0,3.7,3.2c2.1.3,3.9-1.1,5.3-2.5C83.1,122.8,81,122.3,80.4,122.9Z" fill="#775246"/>
        <path d="M91.7,122.9c-.8.9-2,2-3.3,1.9s-2.2-1.4-3.1-2.2c-.2-.1-.9-.2-.8.2a4.05,4.05,0,0,0,3.8,3.2c2.1.3,3.9-1.1,5.3-2.5C94.3,122.8,92.2,122.3,91.7,122.9Z" fill="#775246"/>
        <path d="M102.9,122.9c-.8.9-2,2-3.3,1.9s-2.2-1.4-3.1-2.2c-.2-.1-.9-.2-.8.2a4.05,4.05,0,0,0,3.8,3.2c2.1.3,3.9-1.1,5.3-2.5C105.5,122.8,103.4,122.3,102.9,122.9Z" fill="#775246"/>
        <path d="M114.1,122.9c-.8.9-2,2-3.3,1.9s-2.2-1.4-3.1-2.2c-.2-.1-.9-.2-.8.2a4.26,4.26,0,0,0,3.8,3.3c2.1.3,3.9-1.1,5.3-2.5C116.7,122.8,114.7,122.3,114.1,122.9Z" fill="#775246"/>
        <path d="M37.4,127.4c-.8.9-2,2-3.3,1.9s-2.2-1.4-3.1-2.2c-.2-.1-.9-.2-.8.2a4.26,4.26,0,0,0,3.8,3.3c2.1.3,3.9-1.1,5.3-2.5C40,127.2,38,126.7,37.4,127.4Z" fill="#775246"/>
        <path d="M34.2,122.3c-.8.9-2,2-3.3,1.9s-2.2-1.4-3.1-2.2c-.2-.1-.9-.2-.8.2a4.26,4.26,0,0,0,3.8,3.3c2.1.3,3.9-1.1,5.3-2.5C36.8,122.2,34.8,121.7,34.2,122.3Z" fill="#775246"/>
        <path d="M35.9,110.9c-.8.9-2,2-3.3,1.9s-2.2-1.4-3.1-2.2c-.2-.1-.9-.2-.8.2a4.26,4.26,0,0,0,3.8,3.3c2.1.3,3.9-1.1,5.3-2.5C38.5,110.7,36.5,110.3,35.9,110.9Z" fill="#775246"/>
        <path d="M65.8,133.5c-.8.9-2,2-3.3,1.9s-2.2-1.4-3.1-2.2c-.2-.1-.9-.2-.8.2a4.26,4.26,0,0,0,3.8,3.3c2.1.3,3.9-1.1,5.3-2.5C68.5,133.4,66.4,132.9,65.8,133.5Z" fill="#775246"/>
        <path d="M53.2,133.5c-.8.9-2,2-3.3,1.9s-2.2-1.4-3.1-2.2c-.2-.1-.9-.2-.8.2a4.26,4.26,0,0,0,3.8,3.3c2.1.3,3.9-1.1,5.3-2.5C55.8,133.4,53.7,132.9,53.2,133.5Z" fill="#775246"/>
        <path d="M77.9,133.9c-.8.9-2,2-3.3,1.9s-2.2-1.4-3.1-2.2c-.2-.1-.9-.2-.8.2a4.26,4.26,0,0,0,3.8,3.3c2.1.3,3.9-1.1,5.3-2.5C80.5,133.8,78.4,133.3,77.9,133.9Z" fill="#775246"/>
        <path d="M89.1,133.5c-.8.9-2,2-3.3,1.9s-2.2-1.4-3.1-2.2c-.2-.1-.9-.2-.8.2a4.26,4.26,0,0,0,3.8,3.3c2.1.3,3.9-1.1,5.3-2.5C91.7,133.4,89.7,132.9,89.1,133.5Z" fill="#775246"/>
        <path d="M48.9,128.6c-.8.9-2,2-3.3,1.9s-2.2-1.4-3.1-2.2c-.2-.1-.9-.2-.8.2a4.26,4.26,0,0,0,3.8,3.3c2.1.3,3.9-1.1,5.3-2.5C51.5,128.5,49.5,128,48.9,128.6Z" fill="#775246"/>
        <path d="M60.6,128.9c-.8.9-2,2-3.3,1.9s-2.2-1.4-3.1-2.2c-.2-.1-.9-.2-.8.2a4.26,4.26,0,0,0,3.8,3.3c2.1.3,3.9-1.1,5.3-2.5C63.3,128.7,61.2,128.3,60.6,128.9Z" fill="#775246"/>
        <path d="M72.1,128.8c-.8.9-2,2-3.3,1.9s-2.2-1.4-3.1-2.2c-.2-.1-.9-.2-.8.2a4.26,4.26,0,0,0,3.8,3.3c2.1.3,3.9-1.1,5.3-2.5C74.8,128.7,72.7,128.2,72.1,128.8Z" fill="#775246"/>
        <path d="M83.5,128.6c-.8.9-2,2-3.3,1.9s-2.2-1.5-3.1-2.2c-.2-.1-.9-.2-.8.2a4.26,4.26,0,0,0,3.8,3.3c2.1.3,3.9-1.1,5.3-2.5C86.1,128.4,84.1,128,83.5,128.6Z" fill="#775246"/>
        <path d="M94.9,128.6c-.8.9-2,2-3.3,1.9s-2.2-1.4-3.1-2.2c-.2-.1-.9-.2-.8.2a4.26,4.26,0,0,0,3.8,3.3c2.1.3,3.9-1.1,5.3-2.5C97.5,128.4,95.5,128,94.9,128.6Z" fill="#775246"/>
        <path d="M106.4,128.2c-.8.9-2,2-3.3,1.9s-2.2-1.4-3.1-2.2c-.2-.1-.9-.2-.8.2a4.26,4.26,0,0,0,3.8,3.3c2.1.3,3.9-1.1,5.3-2.5C109,128.1,107,127.6,106.4,128.2Z" fill="#775246"/>
      </g>
    </g>
    <path d="M24,130.5s-38.2-20.1-14-72.7C10,57.8,40.3,101.8,24,130.5Z" fill="#242424"/>
    <path d="M119.7,130.5s39-20.1,14.9-72.7C134.6,57.8,103.4,101.8,119.7,130.5Z" fill="#242424"/>
  </g>
</svg>
