<svg id="Layer_1" data-name="Layer 1" xmlns="http://www.w3.org/2000/svg" xmlns:xlink="http://www.w3.org/1999/xlink" width="140.57" height="154.93" viewBox="0 0 140.57 154.93">
  <defs>
    <clipPath id="clip-path">
      <path d="M108.39,128.12a37.45,37.45,0,0,0,1.33-9.9c0-21.2-17.65-38.39-39.42-38.39S30.88,97,30.88,118.22a37.48,37.48,0,0,0,1.34,9.94c10.92,8.3,24.17,11.12,38.08,11C83.86,139.29,97.35,136.46,108.39,128.12Z" fill="none"/>
    </clipPath>
  </defs>
  <title>owl-blue</title>
  <g id="Layer_2" data-name="Layer 2">
    <g id="Objects">
      <path d="M62,149.18l-4-3.68V135.36a2.47,2.47,0,0,0-4.94,0v9.76a2.26,2.26,0,0,0-.63.52l-3.54,4.22a2.32,2.32,0,1,0,3.53,3h0l1-1.22v1a2.31,2.31,0,1,0,4.61,0v-.79l.77.71a2.33,2.33,0,0,0,3.2-3.38Z" fill="#f59a00"/>
      <path d="M91.45,149.18l-4-3.68V135.36a2.47,2.47,0,0,0-4.93,0v9.76a2.27,2.27,0,0,0-.63.52l-3.54,4.22a2.32,2.32,0,1,0,3.53,3l1-1.22v1a2.31,2.31,0,1,0,4.61,0v-.79l.77.71a2.3,2.3,0,0,0,3.13-3.38h.06Z" fill="#f59a00"/>
      <path d="M127,.07c-3.11-1.23-16.34,13.16-16.34,13.16C94.83,7.54,81.32,5.75,70.3,5.9,59.3,5.76,45.77,7.55,30,13.24c0,0-13.23-14.39-16.34-13.16S-5.29,85.6,24.28,120.36c12.08,14.21,28.53,18.69,46,18.55,17,.14,33.93-4.34,46-18.55C145.89,85.6,130.07,1.3,127,.07Z" fill="#7dbdca"/>
      <path d="M99,19.14A29.51,29.51,0,0,0,70.3,41.77a29.5,29.5,0,1,0,0,13.75A29.5,29.5,0,1,0,99,19.14Z" fill="#d1e8ec"/>
      <circle cx="100.48" cy="47.93" r="21.53" fill="#fff"/>
      <circle cx="97.76" cy="49.87" r="13.62" fill="#005560"/>
      <circle cx="102.82" cy="43.26" r="3.89" fill="#fff"/>
      <circle cx="40.12" cy="47.93" r="21.53" fill="#fff"/>
      <circle cx="42.84" cy="49.87" r="13.62" fill="#005560"/>
      <circle cx="37.79" cy="43.26" r="3.89" fill="#fff"/>
      <polygon points="62.57 57.21 70.3 67.88 70.3 49.87 62.57 57.21" fill="#12879f"/>
      <polygon points="70.3 49.87 70.3 67.88 78.03 57.21 70.3 49.87" fill="#007e97"/>
      <path d="M108.39,128.12a37.45,37.45,0,0,0,1.33-9.9c0-21.2-17.65-38.39-39.42-38.39S30.88,97,30.88,118.22a37.48,37.48,0,0,0,1.34,9.94c10.92,8.3,24.17,11.12,38.08,11C83.86,139.29,97.35,136.46,108.39,128.12Z" fill="#d1e8ec"/>
      <g clip-path="url(#clip-path)">
        <g>
          <polygon points="54.3 95.56 47.48 95.56 50.96 99.05 54.3 95.56" fill="#007e97"/>
          <polygon points="61.92 95.56 55.1 95.56 58.59 99.05 61.92 95.56" fill="#007e97"/>
          <polygon points="69.55 95.56 62.72 95.56 66.21 99.05 69.55 95.56" fill="#007e97"/>
          <polygon points="77.17 95.56 70.35 95.56 73.83 99.05 77.17 95.56" fill="#007e97"/>
          <polygon points="84.79 95.56 77.97 95.56 81.45 99.05 84.79 95.56" fill="#007e97"/>
          <polygon points="92.42 95.56 85.59 95.56 89.08 99.05 92.42 95.56" fill="#007e97"/>
          <polygon points="100.04 95.56 93.22 95.56 96.7 99.05 100.04 95.56" fill="#007e97"/>
          <polygon points="46.68 95.56 39.85 95.56 43.34 99.05 46.68 95.56" fill="#007e97"/>
          <polygon points="58.11 91 51.29 91 54.77 94.49 58.11 91" fill="#007e97"/>
          <polygon points="65.73 91 58.91 91 62.4 94.49 65.73 91" fill="#007e97"/>
          <polygon points="73.36 91 66.53 91 70.02 94.49 73.36 91" fill="#007e97"/>
          <polygon points="80.98 91 74.16 91 77.64 94.49 80.98 91" fill="#007e97"/>
          <polygon points="88.6 91 81.78 91 85.27 94.49 88.6 91" fill="#007e97"/>
          <polygon points="96.23 91 89.4 91 92.89 94.49 96.23 91" fill="#007e97"/>
          <polygon points="50.49 91 43.66 91 47.15 94.49 50.49 91" fill="#007e97"/>
          <polygon points="111.47 91 104.65 91 108.14 94.49 111.47 91" fill="#007e97"/>
          <polygon points="50.49 81.88 43.66 81.88 47.15 85.37 50.49 81.88" fill="#007e97"/>
          <polygon points="58.11 81.88 51.29 81.88 54.77 85.37 58.11 81.88" fill="#007e97"/>
          <polygon points="65.73 81.88 58.91 81.88 62.4 85.37 65.73 81.88" fill="#007e97"/>
          <polygon points="73.36 81.88 66.53 81.88 70.02 85.37 73.36 81.88" fill="#007e97"/>
          <polygon points="80.98 81.88 74.16 81.88 77.64 85.37 80.98 81.88" fill="#007e97"/>
          <polygon points="88.6 81.88 81.78 81.88 85.27 85.37 88.6 81.88" fill="#007e97"/>
          <polygon points="96.23 81.88 89.4 81.88 92.89 85.37 96.23 81.88" fill="#007e97"/>
          <polygon points="42.86 81.88 36.04 81.88 39.53 85.37 42.86 81.88" fill="#007e97"/>
          <polygon points="111.47 81.88 104.65 81.88 108.14 85.37 111.47 81.88" fill="#007e97"/>
          <polygon points="103.85 81.88 97.03 81.88 100.51 85.37 103.85 81.88" fill="#007e97"/>
          <polygon points="54.3 86.44 47.48 86.44 50.96 89.93 54.3 86.44" fill="#007e97"/>
          <polygon points="61.92 86.44 55.1 86.44 58.59 89.93 61.92 86.44" fill="#007e97"/>
          <polygon points="69.55 86.44 62.72 86.44 66.21 89.93 69.55 86.44" fill="#007e97"/>
          <polygon points="77.17 86.44 70.35 86.44 73.83 89.93 77.17 86.44" fill="#007e97"/>
          <polygon points="84.79 86.44 77.97 86.44 81.45 89.93 84.79 86.44" fill="#007e97"/>
          <polygon points="92.42 86.44 85.59 86.44 89.08 89.93 92.42 86.44" fill="#007e97"/>
          <polygon points="46.68 86.44 39.85 86.44 43.34 89.93 46.68 86.44" fill="#007e97"/>
          <polygon points="115.28 86.44 108.46 86.44 111.95 89.93 115.28 86.44" fill="#007e97"/>
          <polygon points="107.66 86.44 100.84 86.44 104.33 89.93 107.66 86.44" fill="#007e97"/>
          <polygon points="53.9 113.8 47.08 113.8 50.56 117.29 53.9 113.8" fill="#007e97"/>
          <polygon points="61.52 113.8 54.7 113.8 58.18 117.29 61.52 113.8" fill="#007e97"/>
          <polygon points="69.14 113.8 62.32 113.8 65.81 117.29 69.14 113.8" fill="#007e97"/>
          <polygon points="76.77 113.8 69.94 113.8 73.43 117.29 76.77 113.8" fill="#007e97"/>
          <polygon points="84.39 113.8 77.57 113.8 81.05 117.29 84.39 113.8" fill="#007e97"/>
          <polygon points="92.01 113.8 85.19 113.8 88.68 117.29 92.01 113.8" fill="#007e97"/>
          <polygon points="99.64 113.8 92.81 113.8 96.3 117.29 99.64 113.8" fill="#007e97"/>
          <polygon points="46.28 113.8 39.45 113.8 42.94 117.29 46.28 113.8" fill="#007e97"/>
          <polygon points="38.65 113.8 31.83 113.8 35.32 117.29 38.65 113.8" fill="#007e97"/>
          <polygon points="114.88 113.8 108.06 113.8 111.55 117.29 114.88 113.8" fill="#007e97"/>
          <polygon points="107.26 113.8 100.44 113.8 103.92 117.29 107.26 113.8" fill="#007e97"/>
          <polygon points="35.24 109.24 28.42 109.24 31.9 112.73 35.24 109.24" fill="#007e97"/>
          <polygon points="57.71 109.24 50.89 109.24 54.37 112.73 57.71 109.24" fill="#007e97"/>
          <polygon points="65.33 109.24 58.51 109.24 62 112.73 65.33 109.24" fill="#007e97"/>
          <polygon points="72.96 109.24 66.13 109.24 69.62 112.73 72.96 109.24" fill="#007e97"/>
          <polygon points="80.58 109.24 73.76 109.24 77.24 112.73 80.58 109.24" fill="#007e97"/>
          <polygon points="88.2 109.24 81.38 109.24 84.87 112.73 88.2 109.24" fill="#007e97"/>
          <polygon points="95.83 109.24 89 109.24 92.49 112.73 95.83 109.24" fill="#007e97"/>
          <polygon points="103.45 109.24 96.63 109.24 100.11 112.73 103.45 109.24" fill="#007e97"/>
          <polygon points="50.09 109.24 43.27 109.24 46.75 112.73 50.09 109.24" fill="#007e97"/>
          <polygon points="42.46 109.24 35.64 109.24 39.13 112.73 42.46 109.24" fill="#007e97"/>
          <polygon points="111.07 109.24 104.25 109.24 107.74 112.73 111.07 109.24" fill="#007e97"/>
          <polygon points="34.84 100.12 28.02 100.12 31.5 103.61 34.84 100.12" fill="#007e97"/>
          <polygon points="50.09 100.12 43.27 100.12 46.75 103.61 50.09 100.12" fill="#007e97"/>
          <polygon points="57.71 100.12 50.89 100.12 54.37 103.61 57.71 100.12" fill="#007e97"/>
          <polygon points="65.33 100.12 58.51 100.12 62 103.61 65.33 100.12" fill="#007e97"/>
          <polygon points="72.96 100.12 66.13 100.12 69.62 103.61 72.96 100.12" fill="#007e97"/>
          <polygon points="80.58 100.12 73.76 100.12 77.24 103.61 80.58 100.12" fill="#007e97"/>
          <polygon points="88.2 100.12 81.38 100.12 84.87 103.61 88.2 100.12" fill="#007e97"/>
          <polygon points="95.83 100.12 89 100.12 92.49 103.61 95.83 100.12" fill="#007e97"/>
          <polygon points="42.46 100.12 35.64 100.12 39.13 103.61 42.46 100.12" fill="#007e97"/>
          <polygon points="103.45 100.12 96.63 100.12 100.11 103.61 103.45 100.12" fill="#007e97"/>
          <polygon points="53.9 104.68 47.08 104.68 50.56 108.17 53.9 104.68" fill="#007e97"/>
          <polygon points="61.52 104.68 54.7 104.68 58.18 108.17 61.52 104.68" fill="#007e97"/>
          <polygon points="69.14 104.68 62.32 104.68 65.81 108.17 69.14 104.68" fill="#007e97"/>
          <polygon points="76.77 104.68 69.94 104.68 73.43 108.17 76.77 104.68" fill="#007e97"/>
          <polygon points="84.39 104.68 77.57 104.68 81.05 108.17 84.39 104.68" fill="#007e97"/>
          <polygon points="92.01 104.68 85.19 104.68 88.68 108.17 92.01 104.68" fill="#007e97"/>
          <polygon points="99.64 104.68 92.81 104.68 96.3 108.17 99.64 104.68" fill="#007e97"/>
          <polygon points="46.28 104.68 39.45 104.68 42.94 108.17 46.28 104.68" fill="#007e97"/>
          <polygon points="38.65 104.68 31.83 104.68 35.32 108.17 38.65 104.68" fill="#007e97"/>
          <polygon points="114.88 104.68 108.06 104.68 111.55 108.17 114.88 104.68" fill="#007e97"/>
          <polygon points="107.26 104.68 100.44 104.68 103.92 108.17 107.26 104.68" fill="#007e97"/>
          <polygon points="46.28 132.04 39.45 132.04 42.94 135.53 46.28 132.04" fill="#007e97"/>
          <polygon points="53.9 132.04 47.08 132.04 50.56 135.53 53.9 132.04" fill="#007e97"/>
          <polygon points="61.52 132.04 54.7 132.04 58.19 135.53 61.52 132.04" fill="#007e97"/>
          <polygon points="69.15 132.04 62.32 132.04 65.81 135.53 69.15 132.04" fill="#007e97"/>
          <polygon points="76.77 132.04 69.94 132.04 73.43 135.53 76.77 132.04" fill="#007e97"/>
          <polygon points="84.39 132.04 77.57 132.04 81.06 135.53 84.39 132.04" fill="#007e97"/>
          <polygon points="92.02 132.04 85.19 132.04 88.68 135.53 92.02 132.04" fill="#007e97"/>
          <polygon points="99.64 132.04 92.82 132.04 96.3 135.53 99.64 132.04" fill="#007e97"/>
          <polygon points="110.67 127.48 103.85 127.48 107.33 130.97 110.67 127.48" fill="#007e97"/>
          <polygon points="50.09 127.48 43.27 127.48 46.75 130.97 50.09 127.48" fill="#007e97"/>
          <polygon points="57.71 127.48 50.89 127.48 54.37 130.97 57.71 127.48" fill="#007e97"/>
          <polygon points="65.33 127.48 58.51 127.48 62 130.97 65.33 127.48" fill="#007e97"/>
          <polygon points="72.96 127.48 66.13 127.48 69.62 130.97 72.96 127.48" fill="#007e97"/>
          <polygon points="80.58 127.48 73.76 127.48 77.24 130.97 80.58 127.48" fill="#007e97"/>
          <polygon points="88.2 127.48 81.38 127.48 84.87 130.97 88.2 127.48" fill="#007e97"/>
          <polygon points="95.83 127.48 89 127.48 92.49 130.97 95.83 127.48" fill="#007e97"/>
          <polygon points="42.47 127.48 35.64 127.48 39.13 130.97 42.47 127.48" fill="#007e97"/>
          <polygon points="34.84 127.48 28.02 127.48 31.5 130.97 34.84 127.48" fill="#007e97"/>
          <polygon points="103.45 127.48 96.63 127.48 100.11 130.97 103.45 127.48" fill="#007e97"/>
          <polygon points="110.9 118.36 104.08 118.36 107.56 121.85 110.9 118.36" fill="#007e97"/>
          <polygon points="42.47 118.36 35.64 118.36 39.13 121.85 42.47 118.36" fill="#007e97"/>
          <polygon points="50.09 118.36 43.27 118.36 46.75 121.85 50.09 118.36" fill="#007e97"/>
          <polygon points="57.71 118.36 50.89 118.36 54.38 121.85 57.71 118.36" fill="#007e97"/>
          <polygon points="65.33 118.36 58.51 118.36 62 121.85 65.33 118.36" fill="#007e97"/>
          <polygon points="72.96 118.36 66.13 118.36 69.62 121.85 72.96 118.36" fill="#007e97"/>
          <polygon points="80.58 118.36 73.76 118.36 77.25 121.85 80.58 118.36" fill="#007e97"/>
          <polygon points="88.2 118.36 81.38 118.36 84.87 121.85 88.2 118.36" fill="#007e97"/>
          <polygon points="34.84 118.36 28.02 118.36 31.5 121.85 34.84 118.36" fill="#007e97"/>
          <polygon points="103.45 118.36 96.63 118.36 100.11 121.85 103.45 118.36" fill="#007e97"/>
          <polygon points="95.83 118.36 89 118.36 92.49 121.85 95.83 118.36" fill="#007e97"/>
          <polygon points="46.28 122.92 39.45 122.92 42.94 126.41 46.28 122.92" fill="#007e97"/>
          <polygon points="53.9 122.92 47.08 122.92 50.56 126.41 53.9 122.92" fill="#007e97"/>
          <polygon points="61.52 122.92 54.7 122.92 58.19 126.41 61.52 122.92" fill="#007e97"/>
          <polygon points="69.15 122.92 62.32 122.92 65.81 126.41 69.15 122.92" fill="#007e97"/>
          <polygon points="76.77 122.92 69.94 122.92 73.43 126.41 76.77 122.92" fill="#007e97"/>
          <polygon points="84.39 122.92 77.57 122.92 81.06 126.41 84.39 122.92" fill="#007e97"/>
          <polygon points="92.02 122.92 85.19 122.92 88.68 126.41 92.02 122.92" fill="#007e97"/>
          <polygon points="38.65 122.92 31.83 122.92 35.32 126.41 38.65 122.92" fill="#007e97"/>
          <polygon points="114.48 122.92 107.66 122.92 111.15 126.41 114.48 122.92" fill="#007e97"/>
          <polygon points="107.26 122.92 100.44 122.92 103.92 126.41 107.26 122.92" fill="#007e97"/>
          <polygon points="99.64 122.92 92.82 122.92 96.3 126.41 99.64 122.92" fill="#007e97"/>
        </g>
      </g>
      <path d="M29.62,130.18S-17.48,112.4,7.1,58.88C7.11,58.88,46.26,100.87,29.62,130.18Z" fill="#007e97"/>
      <path d="M110.94,130.18s47.1-17.78,22.52-71.3C133.46,58.88,94.31,100.87,110.94,130.18Z" fill="#007e97"/>
    </g>
  </g>
</svg>
