<svg id="Objects" xmlns="http://www.w3.org/2000/svg" xmlns:xlink="http://www.w3.org/1999/xlink" width="161.34" height="152.19" viewBox="0 0 161.34 152.19">
  <defs>
    <clipPath id="clip-path">
      <path d="M117.79,125.84a36.75,36.75,0,0,0,1.31-9.72c0-20.82-17.34-37.71-38.72-37.71S41.66,95.29,41.66,116.12A36.82,36.82,0,0,0,43,125.89c10.73,8.16,23.74,10.93,37.4,10.82C93.69,136.82,106.94,134,117.79,125.84Z" fill="none"/>
    </clipPath>
  </defs>
  <title>owl-red</title>
  <path d="M72.23,146.51l-3.89-3.61v-10a2.42,2.42,0,0,0-4.85,0h0v9.61a2.22,2.22,0,0,0-.62.51l-3.48,4.15a2.26,2.26,0,0,0,3.47,2.9l1-1.2v1a2.26,2.26,0,0,0,4.52,0h0v-.77l.75.7a2.26,2.26,0,0,0,3.1-3.29Z" fill="#775246"/>
  <path d="M101.15,146.51l-3.89-3.61v-10a2.43,2.43,0,0,0-4.85,0v9.61a2.22,2.22,0,0,0-.61.51l-3.48,4.15a2.26,2.26,0,0,0,3.47,2.9l1-1.2v1a2.26,2.26,0,1,0,4.53,0v-.77l.75.7a2.26,2.26,0,1,0,3.08-3.29Z" fill="#775246"/>
  <path d="M136,.07C133-1.14,120,13,120,13c-15.5-5.59-28.78-7.35-39.6-7.21C69.55,5.65,56.28,7.41,40.77,13c0,0-13-14.13-16-12.93s-18.6,84,10.45,118.15c11.87,14,28,18.36,45.2,18.22,16.71.14,33.33-4.27,45.2-18.22C154.62,84.08,139.09,1.28,136,.07Z" fill="#a3413e"/>
  <path d="M108.56,18.8A29,29,0,0,0,80.38,41a29,29,0,1,0,0,13.5A29,29,0,1,0,108.56,18.8Z" fill="#d68063"/>
  <circle cx="110.02" cy="47.08" r="21.15" fill="#fff"/>
  <path d="M128,49s-1.47-10.58-13.6-8.57c-11.35,1.89-19.61,12.09-19.61,12.09S117.23,38.67,128,49Z" fill="#684c42"/>
  <circle cx="50.72" cy="47.08" r="21.15" fill="#fff"/>
  <circle cx="53.4" cy="48.99" r="13.38" fill="#684c42"/>
  <circle cx="48.43" cy="42.49" r="3.82" fill="#fff"/>
  <polygon points="72.78 56.19 80.37 66.68 80.37 48.99 72.78 56.19" fill="#684c42"/>
  <polygon points="80.37 48.99 80.37 66.68 87.97 56.19 80.37 48.99" fill="#775246"/>
  <path d="M117.79,125.84a36.75,36.75,0,0,0,1.31-9.72c0-20.82-17.34-37.71-38.72-37.71S41.66,95.29,41.66,116.12A36.82,36.82,0,0,0,43,125.89c10.73,8.16,23.74,10.93,37.4,10.82C93.69,136.82,106.94,134,117.79,125.84Z" fill="#d1e8ec"/>
  <path d="M117.79,125.84a36.75,36.75,0,0,0,1.31-9.72c0-20.82-17.34-37.71-38.72-37.71S41.66,95.29,41.66,116.12A36.82,36.82,0,0,0,43,125.89c10.73,8.16,23.74,10.93,37.4,10.82C93.69,136.82,106.94,134,117.79,125.84Z" fill="#e89f8b"/>
  <g clip-path="url(#clip-path)">
    <g>
      <polygon points="64.65 93.87 57.95 93.87 61.38 97.29 64.65 93.87" fill="#d68063"/>
      <polygon points="72.14 93.87 65.44 93.87 68.86 97.29 72.14 93.87" fill="#d68063"/>
      <polygon points="79.63 93.87 72.93 93.87 76.35 97.29 79.63 93.87" fill="#d68063"/>
      <polygon points="87.12 93.87 80.42 93.87 83.84 97.29 87.12 93.87" fill="#d68063"/>
      <polygon points="94.61 93.87 87.9 93.87 91.33 97.29 94.61 93.87" fill="#d68063"/>
      <polygon points="102.09 93.87 95.39 93.87 98.82 97.29 102.09 93.87" fill="#d68063"/>
      <polygon points="109.58 93.87 102.88 93.87 106.3 97.29 109.58 93.87" fill="#d68063"/>
      <polygon points="57.16 93.87 50.46 93.87 53.89 97.29 57.16 93.87" fill="#d68063"/>
      <polygon points="68.4 89.39 61.7 89.39 65.12 92.81 68.4 89.39" fill="#d68063"/>
      <polygon points="75.88 89.39 69.18 89.39 72.61 92.81 75.88 89.39" fill="#d68063"/>
      <polygon points="83.37 89.39 76.67 89.39 80.09 92.81 83.37 89.39" fill="#d68063"/>
      <polygon points="90.86 89.39 84.16 89.39 87.58 92.81 90.86 89.39" fill="#d68063"/>
      <polygon points="98.35 89.39 91.65 89.39 95.07 92.81 98.35 89.39" fill="#d68063"/>
      <polygon points="105.84 89.39 99.13 89.39 102.56 92.81 105.84 89.39" fill="#d68063"/>
      <polygon points="60.91 89.39 54.21 89.39 57.63 92.81 60.91 89.39" fill="#d68063"/>
      <polygon points="120.81 89.39 114.11 89.39 117.53 92.81 120.81 89.39" fill="#d68063"/>
      <polygon points="60.91 80.43 54.21 80.43 57.63 83.86 60.91 80.43" fill="#d68063"/>
      <polygon points="68.4 80.43 61.7 80.43 65.12 83.86 68.4 80.43" fill="#d68063"/>
      <polygon points="75.89 80.43 69.18 80.43 72.61 83.86 75.89 80.43" fill="#d68063"/>
      <polygon points="83.37 80.43 76.67 80.43 80.09 83.86 83.37 80.43" fill="#d68063"/>
      <polygon points="90.86 80.43 84.16 80.43 87.58 83.86 90.86 80.43" fill="#d68063"/>
      <polygon points="98.35 80.43 91.65 80.43 95.07 83.86 98.35 80.43" fill="#d68063"/>
      <polygon points="105.84 80.43 99.13 80.43 102.56 83.86 105.84 80.43" fill="#d68063"/>
      <polygon points="53.42 80.43 46.72 80.43 50.14 83.86 53.42 80.43" fill="#d68063"/>
      <polygon points="120.81 80.43 114.11 80.43 117.53 83.86 120.81 80.43" fill="#d68063"/>
      <polygon points="113.32 80.43 106.62 80.43 110.05 83.86 113.32 80.43" fill="#d68063"/>
      <polygon points="64.65 84.91 57.95 84.91 61.38 88.33 64.65 84.91" fill="#d68063"/>
      <polygon points="72.14 84.91 65.44 84.91 68.86 88.33 72.14 84.91" fill="#d68063"/>
      <polygon points="79.63 84.91 72.93 84.91 76.35 88.33 79.63 84.91" fill="#d68063"/>
      <polygon points="87.12 84.91 80.42 84.91 83.84 88.33 87.12 84.91" fill="#d68063"/>
      <polygon points="94.61 84.91 87.9 84.91 91.33 88.33 94.61 84.91" fill="#d68063"/>
      <polygon points="102.09 84.91 95.39 84.91 98.82 88.33 102.09 84.91" fill="#d68063"/>
      <polygon points="57.16 84.91 50.46 84.91 53.89 88.33 57.16 84.91" fill="#d68063"/>
      <polygon points="124.56 84.91 117.86 84.91 121.28 88.33 124.56 84.91" fill="#d68063"/>
      <polygon points="117.07 84.91 110.37 84.91 113.79 88.33 117.07 84.91" fill="#d68063"/>
      <polygon points="64.26 111.78 57.56 111.78 60.98 115.21 64.26 111.78" fill="#d68063"/>
      <polygon points="71.75 111.78 65.05 111.78 68.47 115.21 71.75 111.78" fill="#d68063"/>
      <polygon points="79.23 111.78 72.53 111.78 75.96 115.21 79.23 111.78" fill="#d68063"/>
      <polygon points="86.72 111.78 80.02 111.78 83.44 115.21 86.72 111.78" fill="#d68063"/>
      <polygon points="94.21 111.78 87.51 111.78 90.93 115.21 94.21 111.78" fill="#d68063"/>
      <polygon points="101.7 111.78 95 111.78 98.42 115.21 101.7 111.78" fill="#d68063"/>
      <polygon points="109.19 111.78 102.48 111.78 105.91 115.21 109.19 111.78" fill="#d68063"/>
      <polygon points="56.77 111.78 50.07 111.78 53.49 115.21 56.77 111.78" fill="#d68063"/>
      <polygon points="49.28 111.78 42.58 111.78 46.01 115.21 49.28 111.78" fill="#d68063"/>
      <polygon points="124.16 111.78 117.46 111.78 120.88 115.21 124.16 111.78" fill="#d68063"/>
      <polygon points="116.67 111.78 109.97 111.78 113.4 115.21 116.67 111.78" fill="#d68063"/>
      <polygon points="45.93 107.31 39.23 107.31 42.66 110.73 45.93 107.31" fill="#d68063"/>
      <polygon points="68 107.31 61.3 107.31 64.73 110.73 68 107.31" fill="#d68063"/>
      <polygon points="75.49 107.31 68.79 107.31 72.21 110.73 75.49 107.31" fill="#d68063"/>
      <polygon points="82.98 107.31 76.28 107.31 79.7 110.73 82.98 107.31" fill="#d68063"/>
      <polygon points="90.47 107.31 83.77 107.31 87.19 110.73 90.47 107.31" fill="#d68063"/>
      <polygon points="97.95 107.31 91.25 107.31 94.68 110.73 97.95 107.31" fill="#d68063"/>
      <polygon points="105.44 107.31 98.74 107.31 102.17 110.73 105.44 107.31" fill="#d68063"/>
      <polygon points="112.93 107.31 106.23 107.31 109.65 110.73 112.93 107.31" fill="#d68063"/>
      <polygon points="60.52 107.31 53.81 107.31 57.24 110.73 60.52 107.31" fill="#d68063"/>
      <polygon points="53.03 107.31 46.33 107.31 49.75 110.73 53.03 107.31" fill="#d68063"/>
      <polygon points="120.42 107.31 113.72 107.31 117.14 110.73 120.42 107.31" fill="#d68063"/>
      <polygon points="45.54 98.35 38.84 98.35 42.26 101.77 45.54 98.35" fill="#d68063"/>
      <polygon points="60.52 98.35 53.81 98.35 57.24 101.77 60.52 98.35" fill="#d68063"/>
      <polygon points="68 98.35 61.3 98.35 64.73 101.77 68 98.35" fill="#d68063"/>
      <polygon points="75.49 98.35 68.79 98.35 72.21 101.77 75.49 98.35" fill="#d68063"/>
      <polygon points="82.98 98.35 76.28 98.35 79.7 101.77 82.98 98.35" fill="#d68063"/>
      <polygon points="90.47 98.35 83.77 98.35 87.19 101.77 90.47 98.35" fill="#d68063"/>
      <polygon points="97.95 98.35 91.25 98.35 94.68 101.77 97.95 98.35" fill="#d68063"/>
      <polygon points="105.44 98.35 98.74 98.35 102.17 101.77 105.44 98.35" fill="#d68063"/>
      <polygon points="53.03 98.35 46.33 98.35 49.75 101.77 53.03 98.35" fill="#d68063"/>
      <polygon points="112.93 98.35 106.23 98.35 109.65 101.77 112.93 98.35" fill="#d68063"/>
      <polygon points="64.26 102.83 57.56 102.83 60.98 106.25 64.26 102.83" fill="#d68063"/>
      <polygon points="71.75 102.83 65.05 102.83 68.47 106.25 71.75 102.83" fill="#d68063"/>
      <polygon points="79.23 102.83 72.53 102.83 75.96 106.25 79.23 102.83" fill="#d68063"/>
      <polygon points="86.72 102.83 80.02 102.83 83.44 106.25 86.72 102.83" fill="#d68063"/>
      <polygon points="94.21 102.83 87.51 102.83 90.93 106.25 94.21 102.83" fill="#d68063"/>
      <polygon points="101.7 102.83 95 102.83 98.42 106.25 101.7 102.83" fill="#d68063"/>
      <polygon points="109.19 102.83 102.48 102.83 105.91 106.25 109.19 102.83" fill="#d68063"/>
      <polygon points="56.77 102.83 50.07 102.83 53.49 106.25 56.77 102.83" fill="#d68063"/>
      <polygon points="49.28 102.83 42.58 102.83 46.01 106.25 49.28 102.83" fill="#d68063"/>
      <polygon points="124.16 102.83 117.46 102.83 120.88 106.25 124.16 102.83" fill="#d68063"/>
      <polygon points="116.67 102.83 109.97 102.83 113.4 106.25 116.67 102.83" fill="#d68063"/>
      <polygon points="56.77 129.7 50.07 129.7 53.49 133.12 56.77 129.7" fill="#d68063"/>
      <polygon points="64.26 129.7 57.56 129.7 60.98 133.12 64.26 129.7" fill="#d68063"/>
      <polygon points="71.75 129.7 65.05 129.7 68.47 133.12 71.75 129.7" fill="#d68063"/>
      <polygon points="79.24 129.7 72.53 129.7 75.96 133.12 79.24 129.7" fill="#d68063"/>
      <polygon points="86.72 129.7 80.02 129.7 83.45 133.12 86.72 129.7" fill="#d68063"/>
      <polygon points="94.21 129.7 87.51 129.7 90.93 133.12 94.21 129.7" fill="#d68063"/>
      <polygon points="101.7 129.7 95 129.7 98.42 133.12 101.7 129.7" fill="#d68063"/>
      <polygon points="109.19 129.7 102.49 129.7 105.91 133.12 109.19 129.7" fill="#d68063"/>
      <polygon points="120.03 125.22 113.32 125.22 116.75 128.64 120.03 125.22" fill="#d68063"/>
      <polygon points="60.52 125.22 53.81 125.22 57.24 128.64 60.52 125.22" fill="#d68063"/>
      <polygon points="68 125.22 61.3 125.22 64.73 128.64 68 125.22" fill="#d68063"/>
      <polygon points="75.49 125.22 68.79 125.22 72.22 128.64 75.49 125.22" fill="#d68063"/>
      <polygon points="82.98 125.22 76.28 125.22 79.7 128.64 82.98 125.22" fill="#d68063"/>
      <polygon points="90.47 125.22 83.77 125.22 87.19 128.64 90.47 125.22" fill="#d68063"/>
      <polygon points="97.95 125.22 91.25 125.22 94.68 128.64 97.95 125.22" fill="#d68063"/>
      <polygon points="105.44 125.22 98.74 125.22 102.17 128.64 105.44 125.22" fill="#d68063"/>
      <polygon points="53.03 125.22 46.33 125.22 49.75 128.64 53.03 125.22" fill="#d68063"/>
      <polygon points="45.54 125.22 38.84 125.22 42.26 128.64 45.54 125.22" fill="#d68063"/>
      <polygon points="112.93 125.22 106.23 125.22 109.65 128.64 112.93 125.22" fill="#d68063"/>
      <polygon points="120.25 116.26 113.55 116.26 116.97 119.69 120.25 116.26" fill="#d68063"/>
      <polygon points="53.03 116.26 46.33 116.26 49.75 119.69 53.03 116.26" fill="#d68063"/>
      <polygon points="60.52 116.26 53.81 116.26 57.24 119.69 60.52 116.26" fill="#d68063"/>
      <polygon points="68 116.26 61.3 116.26 64.73 119.69 68 116.26" fill="#d68063"/>
      <polygon points="75.49 116.26 68.79 116.26 72.21 119.69 75.49 116.26" fill="#d68063"/>
      <polygon points="82.98 116.26 76.28 116.26 79.7 119.69 82.98 116.26" fill="#d68063"/>
      <polygon points="90.47 116.26 83.77 116.26 87.19 119.69 90.47 116.26" fill="#d68063"/>
      <polygon points="97.95 116.26 91.25 116.26 94.68 119.69 97.95 116.26" fill="#d68063"/>
      <polygon points="45.54 116.26 38.84 116.26 42.26 119.69 45.54 116.26" fill="#d68063"/>
      <polygon points="112.93 116.26 106.23 116.26 109.65 119.69 112.93 116.26" fill="#d68063"/>
      <polygon points="105.44 116.26 98.74 116.26 102.17 119.69 105.44 116.26" fill="#d68063"/>
      <polygon points="56.77 120.74 50.07 120.74 53.49 124.17 56.77 120.74" fill="#d68063"/>
      <polygon points="64.26 120.74 57.56 120.74 60.98 124.17 64.26 120.74" fill="#d68063"/>
      <polygon points="71.75 120.74 65.05 120.74 68.47 124.17 71.75 120.74" fill="#d68063"/>
      <polygon points="79.24 120.74 72.53 120.74 75.96 124.17 79.24 120.74" fill="#d68063"/>
      <polygon points="86.72 120.74 80.02 120.74 83.45 124.17 86.72 120.74" fill="#d68063"/>
      <polygon points="94.21 120.74 87.51 120.74 90.93 124.17 94.21 120.74" fill="#d68063"/>
      <polygon points="101.7 120.74 95 120.74 98.42 124.17 101.7 120.74" fill="#d68063"/>
      <polygon points="49.28 120.74 42.58 120.74 46.01 124.17 49.28 120.74" fill="#d68063"/>
      <polygon points="123.77 120.74 117.07 120.74 120.49 124.17 123.77 120.74" fill="#d68063"/>
      <polygon points="116.67 120.74 109.97 120.74 113.4 124.17 116.67 120.74" fill="#d68063"/>
      <polygon points="109.19 120.74 102.49 120.74 105.91 124.17 109.19 120.74" fill="#d68063"/>
    </g>
  </g>
  <path d="M32.28,130.51s-38.13-20.14-14-72.71C18.3,57.83,48.62,101.75,32.28,130.51Z" fill="#d68063"/>
  <path d="M17,131.23s-39.07-32,1.32-73.4C18.3,57.83,42,109.59,17,131.23Z" fill="#e08d77"/>
  <path d="M128,130.51s39-20.14,14.87-72.71C142.91,57.83,111.7,101.75,128,130.51Z" fill="#d68063"/>
  <path d="M144.71,131.23s38.59-32-1.8-73.4C142.91,57.83,119.66,109.59,144.71,131.23Z" fill="#e08d77"/>
</svg>
