<svg id="Layer_1" data-name="Layer 1" xmlns="http://www.w3.org/2000/svg" xmlns:xlink="http://www.w3.org/1999/xlink" viewBox="0 0 1495 242"><defs><style>.cls-1{fill:none;}.cls-2{fill:#775246;}.cls-3{fill:#a3413e;}.cls-4{fill:#d68063;}.cls-5{fill:#fff;}.cls-6{fill:#684c42;}.cls-7{fill:#d1e8ec;}.cls-8{fill:#e89f8b;}.cls-9{clip-path:url(#clip-path);}.cls-10{fill:#e08d77;}.cls-11{fill:#39162e;}.cls-12{fill:#92162e;}.cls-13{fill:#daa1ae;}.cls-14{fill:#9e2844;}.cls-15{fill:#601336;}.cls-16{fill:#c97688;}.cls-17{clip-path:url(#clip-path-2);}.cls-18{fill:#fe8825;}.cls-19{fill:#f59a00;}.cls-20{fill:#fdc400;}.cls-21{fill:#ffefbf;}.cls-22{fill:#f5a112;}.cls-23{clip-path:url(#clip-path-3);}.cls-24{fill:#383838;}.cls-25{fill:#c4bc9e;}.cls-26{clip-path:url(#clip-path-4);}.cls-27{fill:#242424;}.cls-28{fill:#7dbdca;}.cls-29{fill:#005560;}.cls-30{fill:#12879f;}.cls-31{fill:#007e97;}.cls-32{clip-path:url(#clip-path-5);}</style><clipPath id="clip-path"><path class="cls-1" d="M184.07,200.18a57,57,0,0,0,2-15c0-32.18-26.81-58.29-59.86-58.29S66.37,153,66.37,185.15a57.13,57.13,0,0,0,2.07,15.11C85,212.87,105.15,217.15,126.26,217,146.81,217.15,167.29,212.8,184.07,200.18Z"/></clipPath><clipPath id="clip-path-2"><path class="cls-1" d="M1117.74,199.31a56.11,56.11,0,0,0,2-14.87c0-31.84-26.52-57.67-59.21-57.67s-59.23,25.76-59.23,57.67a56.23,56.23,0,0,0,2,14.94c16.42,12.47,36.3,16.7,57.19,16.55C1080.91,216.08,1101.15,211.83,1117.74,199.31Z"/></clipPath><clipPath id="clip-path-3"><path class="cls-1" d="M490.17,199.51a56.88,56.88,0,0,0,2-14.91c0-31.92-26.58-57.8-59.37-57.8s-59.36,25.88-59.36,57.8a56.53,56.53,0,0,0,2,15c16.45,12.51,36.39,16.75,57.34,16.59C453.22,216.33,473.55,212.06,490.17,199.51Z"/></clipPath><clipPath id="clip-path-4"><path class="cls-1" d="M1441,200a54.66,54.66,0,0,0,2-15c0-32.16-26.74-58.29-59.83-58.29s-59.82,26.13-59.82,58.29a55.81,55.81,0,0,0,2,15.15c16.54,12.67,36.64,16.85,57.81,16.69C1403.79,217.05,1424.19,212.72,1441,200Z"/></clipPath><clipPath id="clip-path-5"><path class="cls-1" d="M795.15,201.41a57.7,57.7,0,0,0,2.06-15.3c0-32.78-27.28-59.35-60.94-59.35s-60.94,26.54-60.94,59.35a57.74,57.74,0,0,0,2.07,15.36c16.88,12.84,37.37,17.2,58.87,17C757.23,218.68,778.09,214.31,795.15,201.41Z"/></clipPath></defs><title>owls-line</title><path class="cls-2" d="M113.63,232.13l-6-5.58V211.09a3.75,3.75,0,0,0-7.5,0h0V226a3.47,3.47,0,0,0-1,.79l-5.38,6.42a3.5,3.5,0,0,0,5.37,4.48h0l1.54-1.86v1.55a3.5,3.5,0,0,0,7,0h0v-1.19l1.16,1.08a3.49,3.49,0,0,0,4.79-5.09Z"/><path class="cls-2" d="M158.34,232.13l-6-5.58V211.09a3.76,3.76,0,0,0-7.5,0V226a3.25,3.25,0,0,0-.94.79l-5.38,6.42a3.49,3.49,0,0,0,5.36,4.48h0l1.55-1.86v1.55a3.5,3.5,0,0,0,7,0v-1.19l1.16,1.08a3.49,3.49,0,1,0,5.15-4.72,4.59,4.59,0,0,0-.39-.37Z"/><path class="cls-3" d="M212.22,5.75c-4.64-1.87-24.74,20-24.74,20-24-8.65-44.49-11.37-61.22-11.15C109.49,14.37,89,17.09,65,25.74c0,0-20.1-21.85-24.74-20S11.51,135.61,56.42,188.4C74.77,210,99.7,216.78,126.29,216.57c25.84.21,51.53-6.6,69.88-28.17C241,135.62,217,7.62,212.22,5.75Z"/><path class="cls-4" d="M169.8,34.7A44.85,44.85,0,0,0,126.23,69a44.84,44.84,0,1,0,0,20.87A44.83,44.83,0,1,0,169.8,34.7Z"/><circle class="cls-5" cx="172.05" cy="78.42" r="32.7"/><path class="cls-6" d="M199.85,81.39s-2.27-16.36-21-13.25c-17.54,2.92-30.31,18.69-30.31,18.69S183.2,65.42,199.85,81.39Z"/><circle class="cls-5" cx="80.38" cy="78.42" r="32.7"/><circle class="cls-6" cx="84.52" cy="81.37" r="20.68"/><circle class="cls-5" cx="76.84" cy="71.33" r="5.91"/><polygon class="cls-6" points="114.48 92.5 126.22 108.72 126.22 81.37 114.48 92.5"/><polygon class="cls-2" points="126.22 81.37 126.22 108.72 137.97 92.5 126.22 81.37"/><path class="cls-7" d="M184.07,200.18a57,57,0,0,0,2-15c0-32.18-26.81-58.29-59.86-58.29S66.37,153,66.37,185.15a57.13,57.13,0,0,0,2.07,15.11C85,212.87,105.15,217.15,126.26,217,146.81,217.15,167.29,212.8,184.07,200.18Z"/><path class="cls-8" d="M184.07,200.18a57,57,0,0,0,2-15c0-32.18-26.81-58.29-59.86-58.29S66.37,153,66.37,185.15a57.13,57.13,0,0,0,2.07,15.11C85,212.87,105.15,217.15,126.26,217,146.81,217.15,167.29,212.8,184.07,200.18Z"/><g class="cls-9"><polygon class="cls-4" points="101.91 150.76 91.56 150.76 96.86 156.04 101.91 150.76"/><polygon class="cls-4" points="113.49 150.76 103.14 150.76 108.42 156.04 113.49 150.76"/><polygon class="cls-4" points="125.07 150.76 114.72 150.76 120 156.04 125.07 150.76"/><polygon class="cls-4" points="136.65 150.76 126.29 150.76 131.58 156.04 136.65 150.76"/><polygon class="cls-4" points="148.23 150.76 137.86 150.76 143.16 156.04 148.23 150.76"/><polygon class="cls-4" points="159.79 150.76 149.44 150.76 154.74 156.04 159.79 150.76"/><polygon class="cls-4" points="171.37 150.76 161.02 150.76 166.3 156.04 171.37 150.76"/><polygon class="cls-4" points="90.33 150.76 79.98 150.76 85.28 156.04 90.33 150.76"/><polygon class="cls-4" points="107.71 143.83 97.35 143.83 102.64 149.12 107.71 143.83"/><polygon class="cls-4" points="119.28 143.83 108.92 143.83 114.22 149.12 119.28 143.83"/><polygon class="cls-4" points="130.85 143.83 120.5 143.83 125.78 149.12 130.85 143.83"/><polygon class="cls-4" points="142.43 143.83 132.08 143.83 137.36 149.12 142.43 143.83"/><polygon class="cls-4" points="154.01 143.83 143.66 143.83 148.94 149.12 154.01 143.83"/><polygon class="cls-4" points="165.59 143.83 155.22 143.83 160.52 149.12 165.59 143.83"/><polygon class="cls-4" points="96.13 143.83 85.77 143.83 91.06 149.12 96.13 143.83"/><polygon class="cls-4" points="188.73 143.83 178.38 143.83 183.66 149.12 188.73 143.83"/><polygon class="cls-4" points="96.13 129.98 85.77 129.98 91.06 135.28 96.13 129.98"/><polygon class="cls-4" points="107.71 129.98 97.35 129.98 102.64 135.28 107.71 129.98"/><polygon class="cls-4" points="119.29 129.98 108.92 129.98 114.22 135.28 119.29 129.98"/><polygon class="cls-4" points="130.85 129.98 120.5 129.98 125.78 135.28 130.85 129.98"/><polygon class="cls-4" points="142.43 129.98 132.08 129.98 137.36 135.28 142.43 129.98"/><polygon class="cls-4" points="154.01 129.98 143.66 129.98 148.94 135.28 154.01 129.98"/><polygon class="cls-4" points="165.59 129.98 155.22 129.98 160.52 135.28 165.59 129.98"/><polygon class="cls-4" points="84.55 129.98 74.19 129.98 79.48 135.28 84.55 129.98"/><polygon class="cls-4" points="188.73 129.98 178.38 129.98 183.66 135.28 188.73 129.98"/><polygon class="cls-4" points="177.16 129.98 166.8 129.98 172.1 135.28 177.16 129.98"/><polygon class="cls-4" points="101.91 136.91 91.56 136.91 96.86 142.19 101.91 136.91"/><polygon class="cls-4" points="113.49 136.91 103.14 136.91 108.42 142.19 113.49 136.91"/><polygon class="cls-4" points="125.07 136.91 114.72 136.91 120 142.19 125.07 136.91"/><polygon class="cls-4" points="136.65 136.91 126.29 136.91 131.58 142.19 136.65 136.91"/><polygon class="cls-4" points="148.23 136.91 137.86 136.91 143.16 142.19 148.23 136.91"/><polygon class="cls-4" points="159.79 136.91 149.44 136.91 154.74 142.19 159.79 136.91"/><polygon class="cls-4" points="90.33 136.91 79.98 136.91 85.28 142.19 90.33 136.91"/><polygon class="cls-4" points="194.53 136.91 184.17 136.91 189.46 142.19 194.53 136.91"/><polygon class="cls-4" points="182.95 136.91 172.59 136.91 177.88 142.19 182.95 136.91"/><polygon class="cls-4" points="101.31 178.44 90.95 178.44 96.24 183.75 101.31 178.44"/><polygon class="cls-4" points="112.89 178.44 102.53 178.44 107.82 183.75 112.89 178.44"/><polygon class="cls-4" points="124.45 178.44 114.1 178.44 119.4 183.75 124.45 178.44"/><polygon class="cls-4" points="136.03 178.44 125.67 178.44 130.96 183.75 136.03 178.44"/><polygon class="cls-4" points="147.61 178.44 137.25 178.44 142.54 183.75 147.61 178.44"/><polygon class="cls-4" points="159.19 178.44 148.83 178.44 154.12 183.75 159.19 178.44"/><polygon class="cls-4" points="170.77 178.44 160.4 178.44 165.7 183.75 170.77 178.44"/><polygon class="cls-4" points="89.73 178.44 79.37 178.44 84.66 183.75 89.73 178.44"/><polygon class="cls-4" points="78.15 178.44 67.8 178.44 73.1 183.75 78.15 178.44"/><polygon class="cls-4" points="193.91 178.44 183.56 178.44 188.84 183.75 193.91 178.44"/><polygon class="cls-4" points="182.33 178.44 171.98 178.44 177.28 183.75 182.33 178.44"/><polygon class="cls-4" points="72.97 171.53 62.62 171.53 67.92 176.82 72.97 171.53"/><polygon class="cls-4" points="107.09 171.53 96.73 171.53 102.04 176.82 107.09 171.53"/><polygon class="cls-4" points="118.67 171.53 108.31 171.53 113.6 176.82 118.67 171.53"/><polygon class="cls-4" points="130.25 171.53 119.89 171.53 125.18 176.82 130.25 171.53"/><polygon class="cls-4" points="141.83 171.53 131.47 171.53 136.76 176.82 141.83 171.53"/><polygon class="cls-4" points="153.39 171.53 143.04 171.53 148.34 176.82 153.39 171.53"/><polygon class="cls-4" points="164.97 171.53 154.62 171.53 159.92 176.82 164.97 171.53"/><polygon class="cls-4" points="176.55 171.53 166.19 171.53 171.48 176.82 176.55 171.53"/><polygon class="cls-4" points="95.53 171.53 85.16 171.53 90.46 176.82 95.53 171.53"/><polygon class="cls-4" points="83.95 171.53 73.59 171.53 78.88 176.82 83.95 171.53"/><polygon class="cls-4" points="188.13 171.53 177.77 171.53 183.06 176.82 188.13 171.53"/><polygon class="cls-4" points="72.37 157.68 62.01 157.68 67.3 162.97 72.37 157.68"/><polygon class="cls-4" points="95.53 157.68 85.16 157.68 90.46 162.97 95.53 157.68"/><polygon class="cls-4" points="107.09 157.68 96.73 157.68 102.04 162.97 107.09 157.68"/><polygon class="cls-4" points="118.67 157.68 108.31 157.68 113.6 162.97 118.67 157.68"/><polygon class="cls-4" points="130.25 157.68 119.89 157.68 125.18 162.97 130.25 157.68"/><polygon class="cls-4" points="141.83 157.68 131.47 157.68 136.76 162.97 141.83 157.68"/><polygon class="cls-4" points="153.39 157.68 143.04 157.68 148.34 162.97 153.39 157.68"/><polygon class="cls-4" points="164.97 157.68 154.62 157.68 159.92 162.97 164.97 157.68"/><polygon class="cls-4" points="83.95 157.68 73.59 157.68 78.88 162.97 83.95 157.68"/><polygon class="cls-4" points="176.55 157.68 166.19 157.68 171.48 162.97 176.55 157.68"/><polygon class="cls-4" points="101.31 164.61 90.95 164.61 96.24 169.9 101.31 164.61"/><polygon class="cls-4" points="112.89 164.61 102.53 164.61 107.82 169.9 112.89 164.61"/><polygon class="cls-4" points="124.45 164.61 114.1 164.61 119.4 169.9 124.45 164.61"/><polygon class="cls-4" points="136.03 164.61 125.67 164.61 130.96 169.9 136.03 164.61"/><polygon class="cls-4" points="147.61 164.61 137.25 164.61 142.54 169.9 147.61 164.61"/><polygon class="cls-4" points="159.19 164.61 148.83 164.61 154.12 169.9 159.19 164.61"/><polygon class="cls-4" points="170.77 164.61 160.4 164.61 165.7 169.9 170.77 164.61"/><polygon class="cls-4" points="89.73 164.61 79.37 164.61 84.66 169.9 89.73 164.61"/><polygon class="cls-4" points="78.15 164.61 67.8 164.61 73.1 169.9 78.15 164.61"/><polygon class="cls-4" points="193.91 164.61 183.56 164.61 188.84 169.9 193.91 164.61"/><polygon class="cls-4" points="182.33 164.61 171.98 164.61 177.28 169.9 182.33 164.61"/><polygon class="cls-4" points="89.73 206.15 79.37 206.15 84.66 211.44 89.73 206.15"/><polygon class="cls-4" points="101.31 206.15 90.95 206.15 96.24 211.44 101.31 206.15"/><polygon class="cls-4" points="112.89 206.15 102.53 206.15 107.82 211.44 112.89 206.15"/><polygon class="cls-4" points="124.47 206.15 114.1 206.15 119.4 211.44 124.47 206.15"/><polygon class="cls-4" points="136.03 206.15 125.67 206.15 130.98 211.44 136.03 206.15"/><polygon class="cls-4" points="147.61 206.15 137.25 206.15 142.54 211.44 147.61 206.15"/><polygon class="cls-4" points="159.19 206.15 148.83 206.15 154.12 211.44 159.19 206.15"/><polygon class="cls-4" points="170.77 206.15 160.41 206.15 165.7 211.44 170.77 206.15"/><polygon class="cls-4" points="187.53 199.22 177.16 199.22 182.46 204.51 187.53 199.22"/><polygon class="cls-4" points="95.53 199.22 85.16 199.22 90.46 204.51 95.53 199.22"/><polygon class="cls-4" points="107.09 199.22 96.73 199.22 102.04 204.51 107.09 199.22"/><polygon class="cls-4" points="118.67 199.22 108.31 199.22 113.62 204.51 118.67 199.22"/><polygon class="cls-4" points="130.25 199.22 119.89 199.22 125.18 204.51 130.25 199.22"/><polygon class="cls-4" points="141.83 199.22 131.47 199.22 136.76 204.51 141.83 199.22"/><polygon class="cls-4" points="153.39 199.22 143.04 199.22 148.34 204.51 153.39 199.22"/><polygon class="cls-4" points="164.97 199.22 154.62 199.22 159.92 204.51 164.97 199.22"/><polygon class="cls-4" points="83.95 199.22 73.59 199.22 78.88 204.51 83.95 199.22"/><polygon class="cls-4" points="72.37 199.22 62.01 199.22 67.3 204.51 72.37 199.22"/><polygon class="cls-4" points="176.55 199.22 166.19 199.22 171.48 204.51 176.55 199.22"/><polygon class="cls-4" points="187.87 185.37 177.51 185.37 182.8 190.67 187.87 185.37"/><polygon class="cls-4" points="83.95 185.37 73.59 185.37 78.88 190.67 83.95 185.37"/><polygon class="cls-4" points="95.53 185.37 85.16 185.37 90.46 190.67 95.53 185.37"/><polygon class="cls-4" points="107.09 185.37 96.73 185.37 102.04 190.67 107.09 185.37"/><polygon class="cls-4" points="118.67 185.37 108.31 185.37 113.6 190.67 118.67 185.37"/><polygon class="cls-4" points="130.25 185.37 119.89 185.37 125.18 190.67 130.25 185.37"/><polygon class="cls-4" points="141.83 185.37 131.47 185.37 136.76 190.67 141.83 185.37"/><polygon class="cls-4" points="153.39 185.37 143.04 185.37 148.34 190.67 153.39 185.37"/><polygon class="cls-4" points="72.37 185.37 62.01 185.37 67.3 190.67 72.37 185.37"/><polygon class="cls-4" points="176.55 185.37 166.19 185.37 171.48 190.67 176.55 185.37"/><polygon class="cls-4" points="164.97 185.37 154.62 185.37 159.92 190.67 164.97 185.37"/><polygon class="cls-4" points="89.73 192.3 79.37 192.3 84.66 197.6 89.73 192.3"/><polygon class="cls-4" points="101.31 192.3 90.95 192.3 96.24 197.6 101.31 192.3"/><polygon class="cls-4" points="112.89 192.3 102.53 192.3 107.82 197.6 112.89 192.3"/><polygon class="cls-4" points="124.47 192.3 114.1 192.3 119.4 197.6 124.47 192.3"/><polygon class="cls-4" points="136.03 192.3 125.67 192.3 130.98 197.6 136.03 192.3"/><polygon class="cls-4" points="147.61 192.3 137.25 192.3 142.54 197.6 147.61 192.3"/><polygon class="cls-4" points="159.19 192.3 148.83 192.3 154.12 197.6 159.19 192.3"/><polygon class="cls-4" points="78.15 192.3 67.8 192.3 73.1 197.6 78.15 192.3"/><polygon class="cls-4" points="193.31 192.3 182.95 192.3 188.24 197.6 193.31 192.3"/><polygon class="cls-4" points="182.33 192.3 171.98 192.3 177.28 197.6 182.33 192.3"/><polygon class="cls-4" points="170.77 192.3 160.41 192.3 165.7 197.6 170.77 192.3"/></g><path class="cls-4" d="M51.87,207.4S-7.07,176.26,30.23,95C30.26,95,77.13,162.94,51.87,207.4Z"/><path class="cls-10" d="M28.25,208.51S-32.15,159,30.29,95C30.26,95,66.9,175.06,28.25,208.51Z"/><path class="cls-4" d="M199.85,207.4s60.29-31.14,23-112.41C222.9,95,174.65,162.94,199.85,207.4Z"/><path class="cls-10" d="M225.68,208.51S285.34,159,222.9,95C222.9,95,187,175.06,225.68,208.51Z"/><path class="cls-11" d="M1048.06,231l-6-5.48V210.18a3.71,3.71,0,1,0-7.41,0h0v14.67a3.39,3.39,0,0,0-1,.78l-5.31,6.47a3.46,3.46,0,1,0,5.31,4.43h0l1.53-1.83v1.53a3.46,3.46,0,0,0,6.91,0V235l1.15,1.07a3.47,3.47,0,1,0,5-4.86,1.51,1.51,0,0,0-.23-.21Z"/><path class="cls-11" d="M1092.29,231l-6-5.48V210.18a3.72,3.72,0,0,0-7.42,0v14.67a3.31,3.31,0,0,0-.93.78l-5.32,6.47a3.46,3.46,0,0,0,5.31,4.43h0l1.53-1.83v1.53a3.46,3.46,0,1,0,6.92,0V235l1.15,1.07a3.46,3.46,0,0,0,4.71-5.07h0Z"/><path class="cls-12" d="M1145.62,7c-4.68-1.85-60.26,10.52-60.26,10.52s-8.3-2-24.83-1.77c-16.55-.22-22.12,1.39-22.12,1.39s-58.31-12-63-10.14-28.51,128.46,16,180.73c18.15,21.41,42.82,28.08,69.12,27.86,25.56.22,51-6.53,69.13-27.86C1174.06,135.44,1150.31,8.77,1145.62,7Z"/><path class="cls-13" d="M1125.84,41.58a49.3,49.3,0,0,0,11-20.7,50.93,50.93,0,0,0-14.46-1.17,37.76,37.76,0,0,0,.82-12.8s-60.21-4-62.7,62.7h0a.45.45,0,0,0-.09-.32c-2.65-66.37-62.7-62.37-62.7-62.37a38.26,38.26,0,0,0,.82,12.8,50.94,50.94,0,0,0-14.46,1.18,49.43,49.43,0,0,0,11,20.72,44.35,44.35,0,1,0,65.35,48.65,44.35,44.35,0,1,0,65.37-48.69Z"/><circle class="cls-5" cx="1105.86" cy="78.86" r="32.34"/><circle class="cls-5" cx="1015.18" cy="78.86" r="32.34"/><polygon class="cls-14" points="1048.9 93.1 1060.51 109.55 1060.51 81.78 1048.9 93.1"/><polygon class="cls-15" points="1060.51 81.78 1060.51 109.78 1072.03 92.85 1060.51 81.78"/><path class="cls-16" d="M1117.74,199.31a56.11,56.11,0,0,0,2-14.87c0-31.84-26.52-57.67-59.21-57.67s-59.23,25.76-59.23,57.67a56.23,56.23,0,0,0,2,14.94c16.42,12.47,36.3,16.7,57.19,16.55C1080.91,216.08,1101.15,211.83,1117.74,199.31Z"/><g class="cls-17"><path class="cls-12" d="M1054.32,148.06c-5.66-.47-11.17-2.38-16.7-1.53-2.51.42-4.45-1.71-6.73-1.27-7.85,1.53-9.42,1.18-13.76-4-.14-.17-.77-.12-.63.18a12.53,12.53,0,0,0,7.34,7.08c3.24,1.32,6.12-1.66,8.95-.74a8.94,8.94,0,0,0,6,.42c1.92-.81,4.26,0,6.27.36,3,.53,6.11,0,9.17,0C1054.56,148.51,1054.72,148.09,1054.32,148.06Z"/><path class="cls-12" d="M1058.91,159c-5.13-.78-12.83-3.37-17.53-.52-2.77,1.66-3.67-.54-6.25-.94-6-.94-9.7.11-14.29-3.41a1.43,1.43,0,0,0-1.71.17c-3.24,4.9-6.12.32-8-1.53-.13-.1-.65,0-.51.14,1.64,2.6,3.43,5.93,6.93,5.26.32,0,2.69-2.12,3.16-1.7a14.39,14.39,0,0,0,6.12,3.06,10.6,10.6,0,0,0,6.91,3.35c.43,0,.74-.41.26-.63a30.47,30.47,0,0,1-3.64-1.53,16.26,16.26,0,0,1-1.52-1,15,15,0,0,0,4.58-.29c1.75-.37,3.84,1.33,5.63,1.72a4.58,4.58,0,0,0,3-.91c4.16-2.34,12.61-1.2,16.68-.89C1059.07,159.49,1059.38,159.09,1058.91,159Z"/><path class="cls-12" d="M1101,147c-4.66-.46-9.17-.35-13.76-1.68a2.81,2.81,0,0,0-2.51.76,5.24,5.24,0,0,1-1.77-1.4c-.09-.11-.43,0-.31.12a10.34,10.34,0,0,0,1.62,1.62l-.29.2c-1.76,1.16-3.38-.14-5.26-.11-5,0-10,1-15,1.12-.31,0-.31.32,0,.32a98.62,98.62,0,0,0,12.75-.14c2.54-.29,4.59,1.53,7,1,2.08-.4,2.77-1.82,5.37-1.36a41.1,41.1,0,0,0,12.23,0C1101.37,147.48,1101.37,147,1101,147Z"/><path class="cls-12" d="M1112.08,154.06c-6.12,3.62-13.66,3.06-20.55,2.81-5.43-.15-10.59,1.53-16,.32a1.08,1.08,0,0,0-1,.28c-1.71,2.09-3.44,1.53-5.3,1.14-.13,0-.42.14-.2.23,2.11,1,3.06,1.75,5.27.81,2.71-1.14,5.17-.18,8-1a24.36,24.36,0,0,1,4.49-.76,2.74,2.74,0,0,0,3.23,1.52c.21,0,.18-.29,0-.35-.51-.2-1.06-.21-1.53-.39a3.11,3.11,0,0,1-1.13-.8,46.33,46.33,0,0,1,5.27,0,3.7,3.7,0,0,0,2.88,1.53c.21,0,.38-.23.14-.34a6.4,6.4,0,0,1-2.22-1.17c7,.38,14,1.42,20.67-2.63C1115.54,154.38,1113,153.48,1112.08,154.06Z"/><path class="cls-12" d="M1084.66,134.7c-7.86,1.1-15.91.45-23.83,1.36a42,42,0,0,1-7.93,0h0c0-.11-.34-.11-.33,0h0q-2.89-.27-5.78-.81a3,3,0,0,1-.24-.55c0-.14-.4-.11-.38,0v.39a52.2,52.2,0,0,1-12.48-4.05c-.12,0-.46,0-.26.18a33.18,33.18,0,0,0,13.59,5.56,3.91,3.91,0,0,0,1.67.85c.2,0,.75-.14.4-.33l-.29-.13,2.35.42c.68.1,1.35.18,2,.24a3.08,3.08,0,0,0,1.53,1.1c.14,0,.73,0,.47-.3l-.85-.74a41.35,41.35,0,0,0,11.8-1.68c6.12-1.53,12.58.63,18.72-1C1085.68,135.25,1085.23,134.62,1084.66,134.7Z"/><path class="cls-12" d="M1082.66,173.69a125.42,125.42,0,0,0-15.51-.21,2.52,2.52,0,0,1-1.62-1.53c0-.2-.57-.18-.57,0a2.64,2.64,0,0,0,.52,1.53h-1.82a16.85,16.85,0,0,1-2-.23,4.78,4.78,0,0,1-2.38-1.53c-.11-.12-.57,0-.46.14a4.92,4.92,0,0,0,1.65,1.77c-6.12.34-12.23.71-18.35.58a5.27,5.27,0,0,0-1-.26c-.1,0-.3,0-.3.14h0c-1.63,0-3.25-.12-4.89-.26a35.43,35.43,0,0,1-9.39-1.88c-1.53-.54-3-3.06-4.37-3.06-3,0-3.8.84-6.52-.24a12.32,12.32,0,0,0-3.93-1.53c-4.49,0-4.25,1.2-6.65-1.85-.08-.11-.51-.11-.46.09,1.73,7.9,4.94,1.92,10.25,4.23,1.34.6,6.63,0,7.06.72,1.33,2,3.84,2.85,6,3.55a48.43,48.43,0,0,0,15.89,1.85,4.46,4.46,0,0,0,2.61,0h1a3.59,3.59,0,0,0,2.46,2.3,6.94,6.94,0,0,0,5-.25c.57-.24.17-.78-.32-.73a9.8,9.8,0,0,1-3.7-.11,6.23,6.23,0,0,1-2.11-1.27l4.33-.15,3.06-.13a.27.27,0,0,0,.15.22,6,6,0,0,0,3.41,1.1c.29,0,.71-.29.34-.54a7.46,7.46,0,0,0-2.37-.84c8.33-.33,16.64-.87,25-1.13C1083,174.35,1083.27,173.74,1082.66,173.69Z"/><path class="cls-12" d="M1117.36,167.74c-4.59-.36-9.18.81-13.84,1.23-1.06.09-2.83-.26-3.77.35-3,2-3.31,2.09-5.85,2.46-.23,0-.37.34,0,.41,2.08.54,4.72.8,6.3-1.05,1.25-1.53,5-.8,6.65-1,3.53-.44,7.11-.85,10.6-1.52C1118,168.46,1118,167.82,1117.36,167.74Z"/><path class="cls-12" d="M1121.36,177c-3.47,3.35-3.3,3.91-9,3.05a1.4,1.4,0,0,0-1,.19c-3.45,2.31-12.84,3.78-16.62,3.85a1.29,1.29,0,0,0-.9.35,11.11,11.11,0,0,1-6.12,3.06,6.63,6.63,0,0,1-2.42-1.31c-.12-.13-.56,0-.38.15a5.71,5.71,0,0,0,2,1.28,33.23,33.23,0,0,1-3.87.25,1.31,1.31,0,0,0-.93.37c-5.11,5.21-12.71,7.89-19.48,3.93a1.5,1.5,0,0,0-1.53,0,23,23,0,0,1-20,2.05c-.27-.1-.75.19-.34.38a23.53,23.53,0,0,0,14.59,1.53c5.11-1,6.32-2,11.37-.84,4.11.91,8.61-.63,12.23-2.45a14.82,14.82,0,0,0,3.61-2.57l.15-.12a3.89,3.89,0,0,0,1.75,1.94,3.6,3.6,0,0,0,2.87.31c.35-.13.29-.45,0-.59-.61-.26-1.27-.33-1.88-.56a8.63,8.63,0,0,1-2.2-1.27h-.2c1.53-.93,3.81.12,5.47-.2,3.26-.63,5.34-4,8.6-4.08,3.9-.14,7.77-1.53,11.58-2.34,5.9-1.15,9.86-.29,13-6.12C1121.75,177,1121.44,177,1121.36,177Z"/><path class="cls-12" d="M1026.68,191.42a37.48,37.48,0,0,0-11.74-7.24c-1.87-.65-4,.55-6.32-.13-4-1.2-6.51-5.31-7-9.27,0-.17-.36-.17-.38,0a10.27,10.27,0,0,0,7.65,10.6,15.69,15.69,0,0,0,4.22,0,4.07,4.07,0,0,0,3.67,3.21c.32,0,1.16-.34.57-.64a8.89,8.89,0,0,1-3.19-2.48,2.93,2.93,0,0,1,.82.27c3.62,2,7.23,3.86,10.7,6.12C1026.07,192.06,1027.13,191.83,1026.68,191.42Z"/><path class="cls-12" d="M1038.41,193.56a12.6,12.6,0,0,1-8.68-2.1c-.17-.12-.71,0-.51.26,2,2.68,6.3,3.06,9.35,2.51C1039.16,194.12,1039,193.51,1038.41,193.56Z"/><path class="cls-12" d="M1027.71,206.73c-5.89.56-11.32-.92-13.67-6.87a4,4,0,0,0-1.95-.84c-1.8-.6-3-2.36-4.23-3.63a1.19,1.19,0,0,0-1.23-.18c-4.12,2-4.69-2.23-6.11-4.45-.22-.32-1.18-.29-1,.2.92,2.28,1.33,5.14,3.74,6.25a4.12,4.12,0,0,0,2.7-.26c1.85-.53,2.08,1.24,3.34,2.05,6.37,4.1,10,10.57,18.64,8.06C1028.15,207,1028,206.7,1027.71,206.73Z"/><path class="cls-12" d="M1036.56,208.9a4.6,4.6,0,0,1-2.64-1.18c-.37-.35-1.53,0-1.09.43l.52.4a10.81,10.81,0,0,1-2.09-.51,8.41,8.41,0,0,1-2.77-2c-.11-.1-.6-.09-.48.14a6,6,0,0,0,6,3.06.38.38,0,0,0,.23-.15,4.55,4.55,0,0,0,2.21.45C1036.85,209.49,1037.14,209,1036.56,208.9Z"/><path class="cls-12" d="M1075.51,210.64c-7.35-1.71-14.66,2.07-21.8-1.38a.5.5,0,0,0-.55,0c-2.34,2.6-3.72,1.41-6,1.21-.21,0-.52.2-.2.32,1.06.43,2.71,1.53,4,1.29.76-.19,3.06-2,3.55-1.53,1.72,1.36,4.58,1.31,6.59,1.33,4.81,0,9.51-.83,14.34-.6C1075.91,211.34,1076.05,210.79,1075.51,210.64Z"/><path class="cls-12" d="M1085.36,209.57a5.59,5.59,0,0,1-2.67,1.28,4,4,0,0,1-2.85-1.72h-.27a4,4,0,0,0,3.06,2.24,3.76,3.76,0,0,0,3.27-1.68C1086.08,209.54,1085.5,209.46,1085.36,209.57Z"/><path class="cls-12" d="M1096.33,206.68c-1.15.41-2,1.09-3.37.4a1,1,0,0,0-1.13.1,3.61,3.61,0,0,1-3.64,1.32,11.1,11.1,0,0,0-2.37-.26c-.14,0-.44.18-.2.32,2.37,1.25,5.36,1.67,7.11-.5a4.23,4.23,0,0,0,4.09-1C1097.22,206.8,1096.57,206.59,1096.33,206.68Z"/><path class="cls-12" d="M1103.67,205.88a15.72,15.72,0,0,1-2.17,0,7.53,7.53,0,0,1-2.76-.9c-.16-.09-.59,0-.35.23,1.39,1.1,3.87,2.22,5.55,1.07C1104.27,206.05,1103.85,205.9,1103.67,205.88Z"/><path class="cls-12" d="M1109.76,203.16a7,7,0,0,1-2,1,3.18,3.18,0,0,1-2.14-1.17s-.4-.09-.36,0a2.74,2.74,0,0,0,5.17.33C1110.55,203,1110,203,1109.76,203.16Z"/><path class="cls-12" d="M1116.59,200.33a7.78,7.78,0,0,1-2.78,1.65,7,7,0,0,1-3.18-.13c-.22,0-.63.17-.34.38a5,5,0,0,0,6.9-1.35l.17-.27C1117.62,200.23,1116.78,200.16,1116.59,200.33Z"/><path class="cls-12" d="M1119.73,198.56a17.48,17.48,0,0,0-2.21.87c-.18,0,0,.23.14.2.81-.21,1.64-.4,2.43-.67C1120.67,198.79,1120.09,198.41,1119.73,198.56Z"/><path class="cls-12" d="M1039.1,187.84a3.4,3.4,0,0,1-4.07-2.13c0-.17-.55-.15-.52,0a3.43,3.43,0,0,0,4,2.71,3.36,3.36,0,0,0,.76-.24C1039.73,188.08,1039.33,187.82,1039.1,187.84Z"/><path class="cls-12" d="M1042.88,189.23a2.83,2.83,0,0,1-2.16-2.66c0-.23-.52-.21-.52,0a2.62,2.62,0,0,0,2.23,3h.25C1042.88,189.49,1043.26,189.23,1042.88,189.23Z"/><path class="cls-12" d="M1048.8,189.14a19.93,19.93,0,0,1-2.88-2.2c-.09-.11-.5,0-.4.1a5.56,5.56,0,0,0,2.83,2.47C1048.66,189.61,1049.23,189.41,1048.8,189.14Z"/><path class="cls-12" d="M1055.5,188.62a12.55,12.55,0,0,1-3-1c-.21-.09-.7.15-.38.34a5.87,5.87,0,0,0,3.29,1.05C1055.79,189,1055.92,188.68,1055.5,188.62Z"/><path class="cls-12" d="M1083.38,170.42a15.22,15.22,0,0,1-1.53-.2,3.62,3.62,0,0,1-1.63-1.18c-.09-.1-.47-.12-.45.1,0,1.52,2.6,2.47,3.82,1.68C1083.79,170.73,1083.56,170.51,1083.38,170.42Z"/><path class="cls-12" d="M1086.86,170.53c-.49-.31-1.11-.26-1.63-.54a2.34,2.34,0,0,1-1-1.53c0-.14-.3-.09-.32,0a2,2,0,0,0,.67,2.08,2.33,2.33,0,0,0,2.24.42A.23.23,0,0,0,1086.86,170.53Z"/><path class="cls-12" d="M1048.69,168.36a6.79,6.79,0,0,1-2-1.53h-.17a6.79,6.79,0,0,0,2,1.53C1048.61,168.52,1048.8,168.43,1048.69,168.36Z"/><path class="cls-12" d="M1054.36,167.74a20.88,20.88,0,0,1-2.86-1c-.12,0-.41.09-.22.2a11.13,11.13,0,0,0,2.85,1.12C1054.39,168.16,1054.7,167.82,1054.36,167.74Z"/><path class="cls-12" d="M1069.05,155.59a1.54,1.54,0,0,1-1.15-.72c0-.11-.4,0-.32,0a1.54,1.54,0,0,0,1.43.81C1069.14,155.75,1069.26,155.59,1069.05,155.59Z"/><path class="cls-12" d="M1068.31,159.82a3.18,3.18,0,0,1-2.86-2.17c0-.2-.59-.17-.56,0a2.86,2.86,0,0,0,3.17,2.51h.25C1068.59,160.17,1068.56,159.88,1068.31,159.82Z"/><path class="cls-12" d="M1070.65,160.39a6,6,0,0,1-2.2-1.53c-.14-.12-.58,0-.41.17a4.6,4.6,0,0,0,2.44,1.53C1070.65,160.69,1070.9,160.48,1070.65,160.39Z"/><path class="cls-12" d="M1067.73,139.51a15,15,0,0,1-3.06-1c-.12,0-.41,0-.23.15a15.77,15.77,0,0,0,3.06,1C1067.87,139.76,1068,139.56,1067.73,139.51Z"/><path class="cls-12" d="M1083.34,186.88a11.71,11.71,0,0,1-3.28-.46c-.11,0-.37.09-.2.16a6.32,6.32,0,0,0,3.48.57C1083.56,187.14,1083.54,186.91,1083.34,186.88Z"/><path class="cls-12" d="M1093.93,191.13c-.68-.17-1.36-.23-2-.42a10,10,0,0,1-2.15-.94s-.28,0-.22.09a4.19,4.19,0,0,0,4.32,1.76C1094.1,191.55,1094.28,191.22,1093.93,191.13Z"/><path class="cls-12" d="M1108,189.23a62,62,0,0,1-10.89-.64c-.23,0-.55.23-.22.33a27.87,27.87,0,0,0,11.23.89C1108.67,189.8,1108.44,189.23,1108,189.23Z"/><path class="cls-12" d="M1112.39,188.77c-1.11-.15-2.22,0-3.32-.24-.14,0-.32.15-.12.2a9.54,9.54,0,0,0,3.45.27C1112.57,188.91,1112.55,188.77,1112.39,188.77Z"/><path class="cls-12" d="M1009.85,182.18a6.87,6.87,0,0,1-3.87-3.35c0-.14-.43-.11-.37,0a5.59,5.59,0,0,0,3.88,3.82C1009.86,182.81,1010.35,182.38,1009.85,182.18Z"/><path class="cls-12" d="M1023.09,190.87a5.12,5.12,0,0,1-2.63-1.82c0-.09-.31,0-.25,0a4.12,4.12,0,0,0,.94,1.53,3.51,3.51,0,0,0,1.53.76C1023,191.43,1023.64,191,1023.09,190.87Z"/><path class="cls-12" d="M1020.47,201.8a33.55,33.55,0,0,0-3.57-2.32s-.36,0-.32.09a4.12,4.12,0,0,0,3.36,2.9C1020.32,202.54,1020.93,202.15,1020.47,201.8Z"/><path class="cls-12" d="M1029.5,203.42a4.47,4.47,0,0,1-2.71-1.42c-.09-.09-.47,0-.37.11a3.25,3.25,0,0,0,3.06,1.66C1029.76,203.76,1029.88,203.45,1029.5,203.42Z"/><path class="cls-12" d="M1044.52,210.72a14.51,14.51,0,0,1-3.35-1.53c-.43-.31-1.53.14-.89.58a7.73,7.73,0,0,0,4,1.53C1044.65,211.31,1044.94,210.89,1044.52,210.72Z"/><path class="cls-12" d="M1040.85,152.3a7.28,7.28,0,0,1-2.76-1.62c-.15-.11-.55,0-.56.16a1.94,1.94,0,0,0,1,1.69,3.06,3.06,0,0,0,2.28.41C1041.35,152.86,1041.29,152.37,1040.85,152.3Z"/><path class="cls-12" d="M1047.77,152.42a9.74,9.74,0,0,1-2.55-1.44c-.12-.09-.49,0-.35.19a4.22,4.22,0,0,0,2.66,1.66C1047.85,152.89,1048.16,152.53,1047.77,152.42Z"/><path class="cls-12" d="M1060.08,154.59a15.94,15.94,0,0,1-6.11-1.44c-.28-.12-.92.22-.51.43a14.08,14.08,0,0,0,6.67,1.65C1060.71,155.23,1060.7,154.61,1060.08,154.59Z"/><path class="cls-12" d="M1078.44,198.88a5.33,5.33,0,0,1-2.51,0,4.46,4.46,0,0,1-2.16-1.91c0-.09-.32,0-.24,0,.93,1.67,3.18,3.32,5.1,2.09C1078.76,199,1078.44,198.88,1078.44,198.88Z"/><path class="cls-12" d="M1082.56,198.86a6.59,6.59,0,0,1-3.44-1.52c-.12-.11-.53,0-.36.13a4.57,4.57,0,0,0,3.8,1.53C1082.78,199.11,1082.76,198.9,1082.56,198.86Z"/><path class="cls-12" d="M1093.15,198.5a5.6,5.6,0,0,1-2.4-.29,5.5,5.5,0,0,1-1.69-1.53c-.09-.12-.53-.12-.5.09s0,.09,0,.14c-.63.15-1.25.32-1.88.46a11.42,11.42,0,0,1-2.48,0c-.11,0-.24.1-.12.2a4.31,4.31,0,0,0,4.59-.28,3.47,3.47,0,0,0,4.58,1.7h.13C1093.82,198.74,1093.41,198.51,1093.15,198.5Z"/><path class="cls-12" d="M1100.44,196.25c-1.53-.29-3.06,0-4.59-.26-.35,0-.64.35-.18.43a13.66,13.66,0,0,0,4.77.24C1100.79,196.6,1100.79,196.31,1100.44,196.25Z"/><path class="cls-12" d="M1069.76,206.05a2.16,2.16,0,0,1-1.39-.69c-.09,0-.38,0-.26.11a2.55,2.55,0,0,0,1.62.83C1070,206.28,1070,206.05,1069.76,206.05Z"/><path class="cls-12" d="M1060.92,209.62c-1-.33-2.06-.34-3.05-.57-.26,0-.45.24-.13.31,1,.23,2,.3,3.06.45C1060.94,209.83,1061.12,209.68,1060.92,209.62Z"/><path class="cls-12" d="M1072.82,184.78a2.94,2.94,0,0,1-2.61-.89c-.11-.1-.45-.09-.4.11.32,1.39,2,1.53,3.17,1.15C1073.27,185,1073.05,184.78,1072.82,184.78Z"/><path class="cls-12" d="M1085.3,182.91c-3.64,1.73-7.64,2.7-11.56,1.14-.2,0-.66.1-.37.32,3.8,2.86,8.84,1.33,12.57-.94C1086.46,183.11,1085.64,182.76,1085.3,182.91Z"/><path class="cls-12" d="M1074.44,176.35a10.44,10.44,0,0,0-1.37,0c-.51,0-.49.49,0,.52a9,9,0,0,0,1.27,0C1074.69,176.78,1074.8,176.38,1074.44,176.35Z"/><path class="cls-12" d="M1105.14,171a10,10,0,0,1-2-.69c-.15-.1-.67,0-.46.25a2.41,2.41,0,0,0,2.49.87C1105.38,171.34,1105.38,171.11,1105.14,171Z"/><path class="cls-12" d="M1108.13,170.63a1,1,0,0,0-.62.1c-.29.12-.26.38,0,.5a.94.94,0,0,0,.62,0C1108.65,171.18,1108.62,170.73,1108.13,170.63Z"/></g><path class="cls-16" d="M1156,87.21h0s-47.56,66.39-22.59,110.43a63.67,63.67,0,0,0,15.08-12,32.78,32.78,0,0,0,1.87,3.06,53.44,53.44,0,0,0,7.83,12,64,64,0,0,0,12.43-14.68,46.11,46.11,0,0,0,12.77,10.7S1229,137.23,1156,87.21Z"/><path class="cls-16" d="M964.85,87.21h0s47.58,66.39,22.59,110.43a63.9,63.9,0,0,1-15.11-11.93,35,35,0,0,1-1.86,3.06,53.44,53.44,0,0,1-7.83,12,64.32,64.32,0,0,1-12.44-14.68,46,46,0,0,1-12.77,10.7S891.86,137.23,964.85,87.21Z"/><circle class="cls-11" cx="1026.19" cy="78.86" r="18.31"/><circle class="cls-11" cx="1094.92" cy="78.86" r="18.31"/><circle class="cls-5" cx="1023.95" cy="73.02" r="8.76"/><circle class="cls-5" cx="1097.09" cy="73.02" r="8.76"/><path class="cls-18" d="M360.74,202.61s-60.12-26.72-23.1-107.38C337.64,95.23,385.78,158.46,360.74,202.61Z"/><path class="cls-18" d="M502.36,202.61s64.18-26.72,27.17-107.38C529.53,95.23,477.24,158.46,502.36,202.61Z"/><path class="cls-19" d="M420.32,231.21l-6-5.53V210.42a3.72,3.72,0,1,0-7.43,0v14.7a3.39,3.39,0,0,0-.95.78l-5.33,6.37A3.47,3.47,0,1,0,406,236.7h0l1.55-1.84v1.55a3.47,3.47,0,0,0,6.94,0v-1.19l1.16,1.07a3.46,3.46,0,0,0,4.63-5.08Z"/><path class="cls-19" d="M464.74,231.21l-6-5.53V210.42a3.72,3.72,0,1,0-7.44,0v14.7a3.21,3.21,0,0,0-.94.78L445,232.27a3.47,3.47,0,0,0,5.32,4.45l1.54-1.84v1.54a3.47,3.47,0,1,0,6.94,0h0v-1.19l1.16,1.07a3.46,3.46,0,0,0,4.64-5.07Z"/><path class="cls-20" d="M518.12,6.68c-4.64-1.85-24.61,19.82-24.61,19.82-23.77-8.58-44.13-11.27-60.71-11-16.59-.22-36.94,2.47-60.71,11.05,0,0-19.93-21.64-24.61-19.82s-28.51,128.79,16,181.14c18.2,21.4,43,28.14,69.31,27.94,25.61.2,51.11-6.54,69.3-27.94C546.67,135.47,522.8,8.52,518.12,6.68Z"/><path class="cls-21" d="M476,35.39c-21,10.93-58.84,15-86.42,0-21.64-11.7-44.43,19.9-44.43,44.43a44.43,44.43,0,0,0,87.64,10.34,44.43,44.43,0,0,0,87.58-10.34C520.39,55.3,497.79,24.06,476,35.39Z"/><circle class="cls-5" cx="478.26" cy="78.74" r="32.42"/><circle class="cls-6" cx="474.17" cy="81.66" r="20.5"/><circle class="cls-5" cx="481.79" cy="71.7" r="5.86"/><circle class="cls-5" cx="387.36" cy="78.74" r="32.42"/><circle class="cls-6" cx="391.46" cy="81.66" r="20.5"/><circle class="cls-5" cx="383.85" cy="71.7" r="5.86"/><polygon class="cls-22" points="421.17 92.71 432.81 108.79 432.81 81.66 421.17 92.71"/><polygon class="cls-18" points="432.81 81.66 432.81 108.79 444.45 92.71 432.81 81.66"/><path class="cls-7" d="M490.17,199.51a56.88,56.88,0,0,0,2-14.91c0-31.92-26.58-57.8-59.37-57.8s-59.36,25.88-59.36,57.8a56.53,56.53,0,0,0,2,15c16.45,12.51,36.39,16.75,57.34,16.59C453.22,216.33,473.55,212.06,490.17,199.51Z"/><path class="cls-21" d="M490.17,199.51a56.88,56.88,0,0,0,2-14.91c0-31.92-26.58-57.8-59.37-57.8s-59.36,25.88-59.36,57.8a56.53,56.53,0,0,0,2,15c16.45,12.51,36.39,16.75,57.34,16.59C453.22,216.33,473.55,212.06,490.17,199.51Z"/><g class="cls-23"><polygon class="cls-20" points="408.71 150.47 398.45 150.47 403.7 155.71 408.71 150.47"/><polygon class="cls-20" points="420.2 150.47 409.92 150.47 415.17 155.71 420.2 150.47"/><polygon class="cls-20" points="431.68 150.47 421.4 150.47 426.66 155.71 431.68 150.47"/><polygon class="cls-20" points="443.15 150.47 432.89 150.47 438.13 155.71 443.15 150.47"/><polygon class="cls-20" points="454.64 150.47 444.36 150.47 449.62 155.71 454.64 150.47"/><polygon class="cls-20" points="466.11 150.47 455.85 150.47 461.09 155.71 466.11 150.47"/><polygon class="cls-20" points="477.6 150.47 467.32 150.47 472.57 155.71 477.6 150.47"/><polygon class="cls-20" points="397.24 150.47 386.96 150.47 392.22 155.71 397.24 150.47"/><polygon class="cls-20" points="414.46 143.61 404.18 143.61 409.44 148.85 414.46 143.61"/><polygon class="cls-20" points="425.93 143.61 415.67 143.61 420.91 148.85 425.93 143.61"/><polygon class="cls-20" points="437.42 143.61 427.14 143.61 432.39 148.85 437.42 143.61"/><polygon class="cls-20" points="448.89 143.61 438.63 143.61 443.87 148.85 448.89 143.61"/><polygon class="cls-20" points="460.38 143.61 450.1 143.61 455.35 148.85 460.38 143.61"/><polygon class="cls-20" points="471.86 143.61 461.58 143.61 466.84 148.85 471.86 143.61"/><polygon class="cls-20" points="402.98 143.61 392.71 143.61 397.95 148.85 402.98 143.61"/><polygon class="cls-20" points="494.82 143.61 484.54 143.61 489.8 148.85 494.82 143.61"/><polygon class="cls-20" points="402.98 129.86 392.71 129.86 397.95 135.12 402.98 129.86"/><polygon class="cls-20" points="414.46 129.86 404.18 129.86 409.44 135.12 414.46 129.86"/><polygon class="cls-20" points="425.93 129.86 415.67 129.86 420.91 135.12 425.93 129.86"/><polygon class="cls-20" points="437.42 129.86 427.14 129.86 432.39 135.12 437.42 129.86"/><polygon class="cls-20" points="448.89 129.86 438.63 129.86 443.87 135.12 448.89 129.86"/><polygon class="cls-20" points="460.38 129.86 450.1 129.86 455.35 135.12 460.38 129.86"/><polygon class="cls-20" points="471.86 129.86 461.58 129.86 466.84 135.12 471.86 129.86"/><polygon class="cls-20" points="391.5 129.86 381.22 129.86 386.48 135.12 391.5 129.86"/><polygon class="cls-20" points="494.82 129.86 484.54 129.86 489.8 135.12 494.82 129.86"/><polygon class="cls-20" points="483.33 129.86 473.07 129.86 478.31 135.12 483.33 129.86"/><polygon class="cls-20" points="408.71 136.73 398.45 136.73 403.7 141.98 408.71 136.73"/><polygon class="cls-20" points="420.2 136.73 409.92 136.73 415.17 141.98 420.2 136.73"/><polygon class="cls-20" points="431.68 136.73 421.4 136.73 426.66 141.98 431.68 136.73"/><polygon class="cls-20" points="443.15 136.73 432.89 136.73 438.13 141.98 443.15 136.73"/><polygon class="cls-20" points="454.64 136.73 444.36 136.73 449.62 141.98 454.64 136.73"/><polygon class="cls-20" points="466.11 136.73 455.85 136.73 461.09 141.98 466.11 136.73"/><polygon class="cls-20" points="397.24 136.73 386.96 136.73 392.22 141.98 397.24 136.73"/><polygon class="cls-20" points="500.56 136.73 490.29 136.73 495.53 141.98 500.56 136.73"/><polygon class="cls-20" points="489.07 136.73 478.8 136.73 484.05 141.98 489.07 136.73"/><polygon class="cls-20" points="408.11 177.94 397.84 177.94 403.08 183.18 408.11 177.94"/><polygon class="cls-20" points="419.59 177.94 409.31 177.94 414.57 183.18 419.59 177.94"/><polygon class="cls-20" points="431.06 177.94 420.8 177.94 426.06 183.18 431.06 177.94"/><polygon class="cls-20" points="442.55 177.94 432.27 177.94 437.53 183.18 442.55 177.94"/><polygon class="cls-20" points="454.04 177.94 443.76 177.94 449.01 183.18 454.04 177.94"/><polygon class="cls-20" points="465.51 177.94 455.24 177.94 460.49 183.18 465.51 177.94"/><polygon class="cls-20" points="477 177.94 466.71 177.94 471.97 183.18 477 177.94"/><polygon class="cls-20" points="396.64 177.94 386.36 177.94 391.61 183.18 396.64 177.94"/><polygon class="cls-20" points="385.15 177.94 374.89 177.94 380.13 183.18 385.15 177.94"/><polygon class="cls-20" points="499.95 177.94 489.67 177.94 494.93 183.18 499.95 177.94"/><polygon class="cls-20" points="488.48 177.94 478.2 177.94 483.44 183.18 488.48 177.94"/><polygon class="cls-20" points="380.02 171.06 369.74 171.06 374.99 176.32 380.02 171.06"/><polygon class="cls-20" points="413.86 171.06 403.58 171.06 408.83 176.32 413.86 171.06"/><polygon class="cls-20" points="425.33 171.06 415.06 171.06 420.31 176.32 425.33 171.06"/><polygon class="cls-20" points="436.82 171.06 426.54 171.06 431.79 176.32 436.82 171.06"/><polygon class="cls-20" points="448.29 171.06 438.02 171.06 443.26 176.32 448.29 171.06"/><polygon class="cls-20" points="459.77 171.06 449.49 171.06 454.75 176.32 459.77 171.06"/><polygon class="cls-20" points="471.26 171.06 460.98 171.06 466.24 176.32 471.26 171.06"/><polygon class="cls-20" points="482.73 171.06 472.47 171.06 477.71 176.32 482.73 171.06"/><polygon class="cls-20" points="402.37 171.06 392.11 171.06 397.35 176.32 402.37 171.06"/><polygon class="cls-20" points="390.89 171.06 380.62 171.06 385.86 176.32 390.89 171.06"/><polygon class="cls-20" points="494.22 171.06 483.94 171.06 489.19 176.32 494.22 171.06"/><polygon class="cls-20" points="379.42 157.33 369.13 157.33 374.39 162.59 379.42 157.33"/><polygon class="cls-20" points="402.37 157.33 392.11 157.33 397.35 162.59 402.37 157.33"/><polygon class="cls-20" points="413.86 157.33 403.58 157.33 408.83 162.59 413.86 157.33"/><polygon class="cls-20" points="425.33 157.33 415.06 157.33 420.31 162.59 425.33 157.33"/><polygon class="cls-20" points="436.82 157.33 426.54 157.33 431.79 162.59 436.82 157.33"/><polygon class="cls-20" points="448.29 157.33 438.02 157.33 443.26 162.59 448.29 157.33"/><polygon class="cls-20" points="459.77 157.33 449.49 157.33 454.75 162.59 459.77 157.33"/><polygon class="cls-20" points="471.26 157.33 460.98 157.33 466.24 162.59 471.26 157.33"/><polygon class="cls-20" points="390.89 157.33 380.62 157.33 385.86 162.59 390.89 157.33"/><polygon class="cls-20" points="482.73 157.33 472.47 157.33 477.71 162.59 482.73 157.33"/><polygon class="cls-20" points="408.11 164.2 397.84 164.2 403.08 169.45 408.11 164.2"/><polygon class="cls-20" points="419.59 164.2 409.31 164.2 414.57 169.45 419.59 164.2"/><polygon class="cls-20" points="431.06 164.2 420.8 164.2 426.06 169.45 431.06 164.2"/><polygon class="cls-20" points="442.55 164.2 432.27 164.2 437.53 169.45 442.55 164.2"/><polygon class="cls-20" points="454.04 164.2 443.76 164.2 449.01 169.45 454.04 164.2"/><polygon class="cls-20" points="465.51 164.2 455.24 164.2 460.49 169.45 465.51 164.2"/><polygon class="cls-20" points="477 164.2 466.71 164.2 471.97 169.45 477 164.2"/><polygon class="cls-20" points="396.64 164.2 386.36 164.2 391.61 169.45 396.64 164.2"/><polygon class="cls-20" points="385.15 164.2 374.89 164.2 380.13 169.45 385.15 164.2"/><polygon class="cls-20" points="499.95 164.2 489.67 164.2 494.93 169.45 499.95 164.2"/><polygon class="cls-20" points="488.48 164.2 478.2 164.2 483.44 169.45 488.48 164.2"/><polygon class="cls-20" points="396.64 205.4 386.36 205.4 391.61 210.65 396.64 205.4"/><polygon class="cls-20" points="408.11 205.4 397.84 205.4 403.08 210.65 408.11 205.4"/><polygon class="cls-20" points="419.59 205.4 409.31 205.4 414.57 210.65 419.59 205.4"/><polygon class="cls-20" points="431.08 205.4 420.8 205.4 426.06 210.65 431.08 205.4"/><polygon class="cls-20" points="442.55 205.4 432.27 205.4 437.53 210.65 442.55 205.4"/><polygon class="cls-20" points="454.04 205.4 443.76 205.4 449.01 210.65 454.04 205.4"/><polygon class="cls-20" points="465.51 205.4 455.24 205.4 460.49 210.65 465.51 205.4"/><polygon class="cls-20" points="477 205.4 466.71 205.4 471.97 210.65 477 205.4"/><polygon class="cls-20" points="493.61 198.53 483.33 198.53 488.59 203.79 493.61 198.53"/><polygon class="cls-20" points="402.37 198.53 392.11 198.53 397.35 203.79 402.37 198.53"/><polygon class="cls-20" points="413.86 198.53 403.58 198.53 408.83 203.79 413.86 198.53"/><polygon class="cls-20" points="425.33 198.53 415.06 198.53 420.31 203.79 425.33 198.53"/><polygon class="cls-20" points="436.82 198.53 426.54 198.53 431.79 203.79 436.82 198.53"/><polygon class="cls-20" points="448.29 198.53 438.02 198.53 443.26 203.79 448.29 198.53"/><polygon class="cls-20" points="459.77 198.53 449.49 198.53 454.75 203.79 459.77 198.53"/><polygon class="cls-20" points="471.26 198.53 460.98 198.53 466.24 203.79 471.26 198.53"/><polygon class="cls-20" points="390.89 198.53 380.62 198.53 385.86 203.79 390.89 198.53"/><polygon class="cls-20" points="379.42 198.53 369.13 198.53 374.39 203.79 379.42 198.53"/><polygon class="cls-20" points="482.73 198.53 472.47 198.53 477.71 203.79 482.73 198.53"/><polygon class="cls-20" points="493.95 184.81 483.67 184.81 488.93 190.05 493.95 184.81"/><polygon class="cls-20" points="390.89 184.81 380.62 184.81 385.86 190.05 390.89 184.81"/><polygon class="cls-20" points="402.37 184.81 392.11 184.81 397.35 190.05 402.37 184.81"/><polygon class="cls-20" points="413.86 184.81 403.58 184.81 408.83 190.05 413.86 184.81"/><polygon class="cls-20" points="425.33 184.81 415.06 184.81 420.31 190.05 425.33 184.81"/><polygon class="cls-20" points="436.82 184.81 426.54 184.81 431.79 190.05 436.82 184.81"/><polygon class="cls-20" points="448.29 184.81 438.02 184.81 443.26 190.05 448.29 184.81"/><polygon class="cls-20" points="459.77 184.81 449.49 184.81 454.75 190.05 459.77 184.81"/><polygon class="cls-20" points="379.42 184.81 369.13 184.81 374.39 190.05 379.42 184.81"/><polygon class="cls-20" points="482.73 184.81 472.47 184.81 477.71 190.05 482.73 184.81"/><polygon class="cls-20" points="471.26 184.81 460.98 184.81 466.24 190.05 471.26 184.81"/><polygon class="cls-20" points="396.64 191.67 386.36 191.67 391.61 196.91 396.64 191.67"/><polygon class="cls-20" points="408.11 191.67 397.84 191.67 403.08 196.91 408.11 191.67"/><polygon class="cls-20" points="419.59 191.67 409.31 191.67 414.57 196.91 419.59 191.67"/><polygon class="cls-20" points="431.08 191.67 420.8 191.67 426.06 196.91 431.08 191.67"/><polygon class="cls-20" points="442.55 191.67 432.27 191.67 437.53 196.91 442.55 191.67"/><polygon class="cls-20" points="454.04 191.67 443.76 191.67 449.01 196.91 454.04 191.67"/><polygon class="cls-20" points="465.51 191.67 455.24 191.67 460.49 196.91 465.51 191.67"/><polygon class="cls-20" points="385.15 191.67 374.89 191.67 380.13 196.91 385.15 191.67"/><polygon class="cls-20" points="499.35 191.67 489.07 191.67 494.32 196.91 499.35 191.67"/><polygon class="cls-20" points="488.48 191.67 478.2 191.67 483.44 196.91 488.48 191.67"/><polygon class="cls-20" points="477 191.67 466.71 191.67 471.97 196.91 477 191.67"/></g><g id="Objects"><path class="cls-2" d="M1370.55,232l-6-5.56V211.17a3.71,3.71,0,0,0-7.42,0h0V226a4.1,4.1,0,0,0-.93.78l-5.41,6.34a3.51,3.51,0,0,0,5.41,4.48l1.55-1.86v1.55a3.56,3.56,0,0,0,7.11,0h0v-1.24l1.23,1.09a3.47,3.47,0,0,0,4.9-.11l0,0A4,4,0,0,0,1370.55,232Z"/><path class="cls-2" d="M1415.23,232l-6-5.56V211.17a3.71,3.71,0,0,0-7.42,0h0V226a4.1,4.1,0,0,0-.93.78l-5.41,6.34a3.51,3.51,0,0,0,5.41,4.48h0l1.54-1.86v1.55a3.56,3.56,0,0,0,7.12,0v-1.24l1.23,1.09a3.47,3.47,0,0,0,4.9-.11l0,0a3.81,3.81,0,0,0-.46-5Z"/><path class="cls-24" d="M1469.18,5.72c-4.79-1.86-24.74,19.94-24.74,19.94-24-8.66-44.52-11.29-61.22-11.13C1366.37,14.37,1346,17,1322,25.66c0,0-20.1-21.8-24.74-19.94s-28.75,129.86,16.23,182.73c18.4,21.64,43.29,28.44,69.88,28.13,25.82.16,51.48-6.64,69.88-28.13C1497.93,135.58,1474,7.57,1469.18,5.72Z"/><path class="cls-25" d="M1426.67,34.63c-39.89,23.19-41.13,31.22-87.2,0-20.56-13.92-44.83,20.09-44.83,44.83a44.83,44.83,0,0,0,88.43,10.36A44.83,44.83,0,0,0,1471.5,79.3C1471.5,54.72,1448.15,22.26,1426.67,34.63Z"/><path class="cls-5" d="M1306.39,67.4a33.24,33.24,0,0,0-1.85,10.82,32.7,32.7,0,0,0,65.39,1.39V78.22a31.89,31.89,0,0,0-1.86-10.82Z"/><path class="cls-24" d="M1326.18,67.4a20.68,20.68,0,0,0,30.36,28.1l.25-.27a20.82,20.82,0,0,0,0-27.83Z"/><path class="cls-5" d="M1329.27,67.4a5.92,5.92,0,0,0,8.78,7.95c.06-.07.13-.14.19-.22a6.08,6.08,0,0,0,0-7.73Z"/><path class="cls-5" d="M1458.67,67.4a33.24,33.24,0,0,1,1.85,10.82,32.7,32.7,0,1,1-65.39,1.39V78.22A31.88,31.88,0,0,1,1397,67.4Z"/><path class="cls-24" d="M1439,67.4a20.68,20.68,0,1,1-30.36,28.1l-.25-.27a20.82,20.82,0,0,1,0-27.83Z"/><path class="cls-5" d="M1435.94,67.4a5.92,5.92,0,0,1-8.77,7.95,2,2,0,0,1-.19-.22,6.05,6.05,0,0,1,0-7.73Z"/><polygon class="cls-6" points="1371.48 92.44 1383.22 108.68 1383.22 81.31 1371.48 92.44"/><polygon class="cls-2" points="1383.22 81.31 1383.22 108.68 1394.97 92.44 1383.22 81.31"/><path class="cls-25" d="M1441,200a54.66,54.66,0,0,0,2-15c0-32.16-26.74-58.29-59.83-58.29s-59.82,26.13-59.82,58.29a55.81,55.81,0,0,0,2,15.15c16.54,12.67,36.64,16.85,57.81,16.69C1403.79,217.05,1424.19,212.72,1441,200Z"/><g class="cls-26"><path class="cls-2" d="M1351.53,140.21c-1.23,1.4-3.09,3.1-5.1,2.94s-3.4-2.16-4.79-3.4c-.31-.15-1.39-.31-1.24.31a6.6,6.6,0,0,0,5.88,5.1c3.24.47,6-1.7,8.19-3.86C1355.55,139.91,1352.46,139.13,1351.53,140.21Z"/><path class="cls-2" d="M1368.85,140.21c-1.24,1.4-3.09,3.1-5.1,2.94s-3.41-2.16-4.8-3.4c-.31-.15-1.39-.31-1.23.31a6.57,6.57,0,0,0,5.87,5.1c3.25.47,6-1.7,8.19-3.86C1372.87,139.91,1369.78,139.13,1368.85,140.21Z"/><path class="cls-2" d="M1386.16,140.21c-1.23,1.4-3.09,3.1-5.1,2.94s-3.4-2.16-4.79-3.4c-.31-.15-1.39-.31-1.24.31a6.6,6.6,0,0,0,5.88,5.1c3.24.47,6-1.7,8.19-3.86C1390.34,139.91,1387.09,139.13,1386.16,140.21Z"/><path class="cls-2" d="M1403.63,140.21c-1.24,1.4-3.09,3.1-5.1,2.94s-3.4-2.16-4.79-3.4c-.31-.15-1.39-.31-1.24.31a6.58,6.58,0,0,0,5.88,5.1c3.24.47,6-1.7,8.19-3.86C1407.65,139.91,1404.4,139.13,1403.63,140.21Z"/><path class="cls-2" d="M1421,140.21c-1.24,1.4-3.1,3.1-5.11,2.94s-3.4-2.16-4.79-3.4c-.31-.15-1.39-.31-1.23.31a6.56,6.56,0,0,0,5.72,5.1c3.24.47,6-1.7,8.19-3.86C1425,139.91,1421.72,139.13,1421,140.21Z"/><path class="cls-2" d="M1361.89,131.4c-1.24,1.39-3.09,3.09-5.1,2.94s-3.4-2.16-4.79-3.4c-.31-.16-1.39-.31-1.24.31a6.58,6.58,0,0,0,5.87,5.1c3.25.46,6-1.7,8.2-3.87C1365.91,131.25,1362.66,130.48,1361.89,131.4Z"/><path class="cls-2" d="M1379.21,131.4c-1.24,1.39-3.1,3.09-5.11,2.94s-3.4-2.32-4.79-3.4c-.31-.16-1.39-.31-1.24.31a6.58,6.58,0,0,0,5.72,5.1c3.25.46,6-1.7,8.2-3.87C1383.22,131.25,1380.13,130.48,1379.21,131.4Z"/><path class="cls-2" d="M1396.52,131.4c-1.24,1.39-3.09,3.09-5.1,2.94s-3.4-2.16-4.79-3.4c-.31-.16-1.4-.31-1.24.31a6.58,6.58,0,0,0,5.87,5.1c3.25.46,6-1.7,8.2-3.87C1400.54,131.25,1397.45,130.48,1396.52,131.4Z"/><path class="cls-2" d="M1413.83,131.4c-1.23,1.39-3.09,3.09-5.1,2.94s-3.4-2.16-4.79-3.4c-.31-.16-1.39-.31-1.24.31a6.6,6.6,0,0,0,5.88,5.1c3.24.46,6-1.7,8.19-3.87C1417.85,131.25,1414.76,130.48,1413.83,131.4Z"/><path class="cls-2" d="M1431.15,131.4c-1.24,1.39-3.09,3.09-5.1,2.94s-3.4-2.16-4.79-3.4c-.31-.16-1.4-.31-1.24.31a6.58,6.58,0,0,0,5.87,5.1c3.25.46,6-1.7,8.2-3.87C1435.17,131.25,1432.08,130.48,1431.15,131.4Z"/><path class="cls-2" d="M1334.22,149.34c-1.24,1.39-3.09,3.09-5.1,2.93s-3.25-2.16-4.8-3.4c-.3-.15-1.39-.31-1.23.31a6.75,6.75,0,0,0,5.87,5.1c3.25.47,6-1.7,8.2-3.86C1338.24,149.18,1335.15,148.41,1334.22,149.34Z"/><path class="cls-2" d="M1351.53,149.34c-1.23,1.39-3.09,3.09-5.1,2.93s-3.4-2.16-4.79-3.4c-.31-.15-1.39-.31-1.24.31a6.6,6.6,0,0,0,5.88,5.1c3.24.47,6-1.7,8.19-3.86C1355.55,149.18,1352.46,148.41,1351.53,149.34Z"/><path class="cls-2" d="M1368.85,149.34c-1.24,1.39-3.09,3.09-5.1,2.93s-3.41-2.16-4.8-3.4c-.31-.15-1.39-.31-1.23.31a6.57,6.57,0,0,0,5.87,5.1c3.25.47,6-1.7,8.19-3.86C1372.87,149.18,1369.78,148.41,1368.85,149.34Z"/><path class="cls-2" d="M1386.16,149.34c-1.23,1.39-3.09,3.09-5.1,2.93s-3.4-2.16-4.79-3.4c-.31-.15-1.39-.31-1.24.31a6.6,6.6,0,0,0,5.88,5.1c3.24.47,6-1.7,8.19-3.86C1390.34,149.18,1387.09,148.41,1386.16,149.34Z"/><path class="cls-2" d="M1403.63,149.34c-1.24,1.39-3.09,3.09-5.1,2.93s-3.4-2.16-4.79-3.4c-.31-.15-1.39-.31-1.24.31a6.58,6.58,0,0,0,5.88,5.1c3.24.47,6-1.7,8.19-3.86C1407.65,149.18,1404.4,148.41,1403.63,149.34Z"/><path class="cls-2" d="M1421,149.34c-1.24,1.39-3.1,3.09-5.11,2.93s-3.4-2.16-4.79-3.4c-.31-.15-1.39-.31-1.23.31a6.55,6.55,0,0,0,5.72,5.1c3.24.47,6-1.7,8.19-3.86C1425,149.18,1421.72,148.41,1421,149.34Z"/><path class="cls-2" d="M1438.26,149.34c-1.24,1.39-3.09,3.09-5.1,2.93s-3.4-2.16-4.79-3.4c-.31-.15-1.39-.31-1.24.31a6.58,6.58,0,0,0,5.87,5.1c3.25.47,6-1.7,8.2-3.86C1442.28,149.18,1439.19,148.41,1438.26,149.34Z"/><path class="cls-2" d="M1341,158.61c-1.24,1.39-3.09,3.09-5.1,2.94s-3.4-2.17-4.79-3.4c-.31-.16-1.39-.31-1.24.31a6.58,6.58,0,0,0,5.87,5.1c3.25.46,6-1.7,8.2-3.87C1345,158.46,1342,157.68,1341,158.61Z"/><path class="cls-2" d="M1358.34,158.61c-1.24,1.39-3.1,3.09-5.11,2.94s-3.4-2.17-4.79-3.4c-.31-.16-1.39-.31-1.24.31a6.6,6.6,0,0,0,5.88,5.1c3.25.46,6-1.7,8.19-3.87C1362.35,158.46,1359.26,157.68,1358.34,158.61Z"/><path class="cls-2" d="M1375.65,158.61c-1.24,1.39-3.09,3.09-5.1,2.94s-3.4-2.17-4.79-3.4c-.31-.16-1.4-.31-1.24.31a6.58,6.58,0,0,0,5.87,5.1c3.25.46,6-1.7,8.2-3.87C1379.67,158.46,1376.58,157.68,1375.65,158.61Z"/><path class="cls-2" d="M1393,158.61c-1.23,1.39-3.09,3.09-5.1,2.94s-3.4-2.17-4.79-3.4c-.31-.16-1.39-.31-1.24.31a6.6,6.6,0,0,0,5.88,5.1c3.24.46,6-1.7,8.19-3.87C1397.14,158.46,1393.89,157.68,1393,158.61Z"/><path class="cls-2" d="M1410.43,158.61c-1.23,1.39-3.09,3.09-5.1,2.94s-3.4-2.17-4.79-3.4c-.31-.16-1.39-.31-1.24.31a6.6,6.6,0,0,0,5.88,5.1c3.24.46,6-1.7,8.19-3.87C1414.45,158.46,1411.36,157.68,1410.43,158.61Z"/><path class="cls-2" d="M1427.75,158.61c-1.24,1.39-3.09,3.09-5.1,2.94s-3.4-2.17-4.8-3.4c-.31-.16-1.39-.31-1.23.31a6.57,6.57,0,0,0,5.87,5.1c3.25.46,6-1.7,8.2-3.87C1431.77,158.46,1428.68,157.68,1427.75,158.61Z"/><path class="cls-2" d="M1445.06,158.61c-1.23,1.39-3.09,3.09-5.1,2.94s-3.4-2.17-4.79-3.4c-.31-.16-1.39-.31-1.24.31a6.6,6.6,0,0,0,5.88,5.1c3.24.46,6-1.7,8.19-3.87C1449.08,158.46,1446,157.68,1445.06,158.61Z"/><path class="cls-2" d="M1333.91,167.89c-1.24,1.39-3.09,3.09-5.1,2.93s-3.4-2.16-4.79-3.4c-.31-.15-1.4-.31-1.24.31a6.57,6.57,0,0,0,5.87,5.1c3.25.47,6-1.7,8.2-3.86C1337.93,167.58,1334.84,167,1333.91,167.89Z"/><path class="cls-2" d="M1351.22,167.89c-1.23,1.39-3.09,3.09-5.1,2.93s-3.4-2.16-4.79-3.4c-.31-.15-1.39-.31-1.24.31a6.77,6.77,0,0,0,5.88,5.1c3.24.47,6-1.7,8.19-3.86C1355.24,167.58,1352.15,167,1351.22,167.89Z"/><path class="cls-2" d="M1368.54,167.89c-1.24,1.39-3.09,3.09-5.1,2.93s-3.4-2.16-4.8-3.4c-.3-.15-1.39-.31-1.23.31a6.56,6.56,0,0,0,5.87,5.1c3.25.47,6-1.7,8.2-3.86C1372.71,167.58,1369.47,167,1368.54,167.89Z"/><path class="cls-2" d="M1385.85,167.89c-1.23,1.39-3.09,3.09-5.1,2.93s-3.4-2.16-4.79-3.4c-.31-.15-1.39-.31-1.24.31a6.58,6.58,0,0,0,5.88,5.1c3.24.47,6-1.7,8.19-3.86C1390,167.58,1386.78,167,1385.85,167.89Z"/><path class="cls-2" d="M1403.17,167.89c-1.24,1.39-3.09,3.09-5.1,2.93s-3.41-2.16-4.8-3.4c-.31-.15-1.39-.31-1.23.31a6.56,6.56,0,0,0,5.87,5.1c3.25.47,6-1.7,8.19-3.86C1407.34,167.58,1404.1,167,1403.17,167.89Z"/><path class="cls-2" d="M1420.64,167.89c-1.24,1.39-3.1,3.09-5.1,2.93s-3.41-2.16-4.8-3.4c-.31-.15-1.39-.31-1.23.31a6.56,6.56,0,0,0,5.87,5.1c3.25.47,6-1.7,8.19-3.86C1424.66,167.58,1421.41,167,1420.64,167.89Z"/><path class="cls-2" d="M1438,167.89c-1.24,1.39-3.09,3.09-5.1,2.93s-3.4-2.16-4.79-3.4c-.31-.15-1.39-.31-1.24.31a6.57,6.57,0,0,0,5.88,5.1c3.24.47,6-1.7,8.19-3.86C1442,167.58,1438.88,167,1438,167.89Z"/><path class="cls-2" d="M1344.42,177c-1.24,1.39-3.09,3.09-5.1,2.94s-3.4-2.17-4.79-3.41c-.31-.15-1.39-.3-1.24.31a6.59,6.59,0,0,0,5.88,5.11c3.24.46,6-1.71,8.19-3.87C1348.44,176.85,1345.35,176.08,1344.42,177Z"/><path class="cls-2" d="M1361.74,177c-1.24,1.39-3.1,3.09-5.11,2.94s-3.4-2.17-4.79-3.41c-.31-.15-1.39-.3-1.23.31a6.58,6.58,0,0,0,5.87,5.11c3.25.46,6-1.71,8.19-3.87C1365.76,176.85,1362.66,176.08,1361.74,177Z"/><path class="cls-2" d="M1379.05,177c-1.24,1.39-3.09,3.09-5.1,2.94s-3.4-2.17-4.79-3.41c-.31-.15-1.39-.3-1.24.31a6.59,6.59,0,0,0,5.87,5.11c3.25.46,6-1.71,8.2-3.87C1383.07,176.85,1380,176.08,1379.05,177Z"/><path class="cls-2" d="M1396.37,177c-1.24,1.39-3.1,3.09-5.11,2.94s-3.4-2.17-4.79-3.41c-.31-.15-1.39-.3-1.24.31a6.61,6.61,0,0,0,5.88,5.11c3.25.46,6-1.71,8.19-3.87C1400.54,176.85,1397.29,176.08,1396.37,177Z"/><path class="cls-2" d="M1413.68,177c-1.24,1.39-3.09,3.09-5.1,2.94s-3.4-2.17-4.79-3.41c-.31-.15-1.4-.3-1.24.31a6.59,6.59,0,0,0,5.87,5.11c3.25.46,6-1.71,8.2-3.87C1417.85,176.85,1414.61,176.08,1413.68,177Z"/><path class="cls-2" d="M1431.15,177c-1.24,1.39-3.09,3.09-5.1,2.94s-3.4-2.17-4.79-3.41c-.31-.15-1.4-.3-1.24.31a6.59,6.59,0,0,0,5.87,5.11c3.25.46,6-1.71,8.2-3.87C1435.17,176.85,1432.08,176.08,1431.15,177Z"/><path class="cls-2" d="M1448.46,177c-1.23,1.39-3.09,3.09-5.1,2.94s-3.4-2.17-4.79-3.41c-.31-.15-1.39-.3-1.24.31a6.61,6.61,0,0,0,5.88,5.11c3.24.46,6-1.71,8.19-3.87C1452.48,176.85,1449.39,176.08,1448.46,177Z"/><path class="cls-2" d="M1333.91,186.28c-1.24,1.4-3.09,3.1-5.1,2.94s-3.4-2.16-4.79-3.4c-.31-.15-1.4-.31-1.24.31a6.58,6.58,0,0,0,5.87,5.1c3.25.46,6-1.7,8.2-3.86C1337.93,186.13,1334.84,185.36,1333.91,186.28Z"/><path class="cls-2" d="M1351.22,186.28c-1.23,1.4-3.09,3.1-5.1,2.94s-3.4-2.16-4.79-3.4c-.31-.15-1.39-.31-1.24.31a6.6,6.6,0,0,0,5.88,5.1c3.24.46,6-1.7,8.19-3.86C1355.24,186.13,1352.15,185.36,1351.22,186.28Z"/><path class="cls-2" d="M1368.54,186.28c-1.24,1.4-3.09,3.1-5.1,2.94s-3.4-2.16-4.8-3.4c-.3-.15-1.39-.31-1.23.31a6.57,6.57,0,0,0,5.87,5.1c3.25.46,6-1.7,8.2-3.86C1372.71,186.13,1369.47,185.36,1368.54,186.28Z"/><path class="cls-2" d="M1385.85,186.28c-1.23,1.4-3.09,3.1-5.1,2.94s-3.4-2.16-4.79-3.4c-.31-.15-1.39-.31-1.24.31a6.6,6.6,0,0,0,5.88,5.1c3.24.46,6-1.7,8.19-3.86C1390,186.13,1386.78,185.36,1385.85,186.28Z"/><path class="cls-2" d="M1403.17,186.28c-1.24,1.4-3.09,3.1-5.1,2.94s-3.41-2.16-4.8-3.4c-.31-.15-1.39-.31-1.23.31a6.57,6.57,0,0,0,5.87,5.1c3.25.46,6-1.7,8.19-3.86C1407.34,186.13,1404.1,185.36,1403.17,186.28Z"/><path class="cls-2" d="M1420.64,186.28c-1.24,1.4-3.1,3.1-5.1,2.94s-3.41-2.16-4.8-3.4c-.31-.15-1.39-.31-1.23.31a6.57,6.57,0,0,0,5.87,5.1c3.25.46,6-1.7,8.19-3.86C1424.66,186.13,1421.41,185.36,1420.64,186.28Z"/><path class="cls-2" d="M1438,186.28c-1.24,1.4-3.09,3.1-5.1,2.94s-3.4-2.16-4.79-3.4c-.31-.15-1.39-.31-1.24.31a6.58,6.58,0,0,0,5.88,5.1c3.24.46,6-1.7,8.19-3.86C1442,186.13,1438.88,185.36,1438,186.28Z"/><path class="cls-2" d="M1344.11,195.56c-1.23,1.39-3.09,3.09-5.1,2.94s-3.4-2.17-4.79-3.4c-.31-.16-1.39-.31-1.24.3a6.26,6.26,0,0,0,5.88,4.95c3.24.47,6-1.7,8.19-3.86C1348.13,195.4,1345,194.63,1344.11,195.56Z"/><path class="cls-2" d="M1361.43,195.56c-1.24,1.39-3.09,3.09-5.1,2.94s-3.41-2.17-4.8-3.4c-.31-.16-1.39-.31-1.23.3a6.4,6.4,0,0,0,5.87,4.95c3.25.47,6-1.7,8.19-3.86C1365.45,195.4,1362.35,194.63,1361.43,195.56Z"/><path class="cls-2" d="M1378.74,195.56c-1.24,1.39-3.09,3.09-5.1,2.94s-3.4-2.17-4.79-3.4c-.31-.16-1.39-.31-1.24.3a6.26,6.26,0,0,0,5.88,4.95c3.24.47,6-1.7,8.19-3.86C1382.76,195.4,1379.67,194.63,1378.74,195.56Z"/><path class="cls-2" d="M1396.06,195.56c-1.24,1.39-3.1,3.09-5.11,2.94s-3.4-2.17-4.79-3.4c-.31-.16-1.39-.31-1.23.3a6.17,6.17,0,0,0,5.72,4.95c3.24.47,6-1.7,8.19-3.86C1400.23,195.4,1397,194.63,1396.06,195.56Z"/><path class="cls-2" d="M1413.53,195.56c-1.24,1.39-3.1,3.09-5.11,2.94s-3.4-2.17-4.79-3.4c-.31-.16-1.39-.31-1.24.3a6.26,6.26,0,0,0,5.88,4.95c3.25.47,6-1.7,8.19-3.86C1417.54,195.4,1414.3,194.63,1413.53,195.56Z"/><path class="cls-2" d="M1430.84,195.56c-1.24,1.39-3.09,3.09-5.1,2.94s-3.4-2.17-4.79-3.4c-.31-.16-1.4-.31-1.24.3a6.26,6.26,0,0,0,5.87,4.95c3.25.47,6-1.7,8.2-3.86C1434.86,195.4,1431.61,194.63,1430.84,195.56Z"/><path class="cls-2" d="M1448.15,195.56c-1.23,1.39-3.09,3.09-5.1,2.94s-3.4-2.17-4.79-3.4c-.31-.16-1.39-.31-1.24.3a6.61,6.61,0,0,0,5.88,5.11c3.24.46,6-1.7,8.19-3.87C1452.17,195.4,1449.08,194.63,1448.15,195.56Z"/><path class="cls-2" d="M1329.58,202.52c-1.24,1.39-3.09,3.09-5.1,2.93s-3.4-2.16-4.79-3.4c-.31-.15-1.39-.31-1.24.31a6.58,6.58,0,0,0,5.87,5.1c3.25.47,6-1.7,8.2-3.86C1333.6,202.21,1330.51,201.43,1329.58,202.52Z"/><path class="cls-2" d="M1324.63,194.63c-1.23,1.39-3.09,3.09-5.1,2.94s-3.4-2.17-4.79-3.4c-.31-.16-1.39-.31-1.24.31a6.6,6.6,0,0,0,5.88,5.1c3.24.46,6-1.7,8.19-3.87C1328.65,194.48,1325.56,193.7,1324.63,194.63Z"/><path class="cls-2" d="M1327.26,177c-1.24,1.39-3.09,3.09-5.1,2.94s-3.4-2.17-4.79-3.41c-.31-.15-1.39-.3-1.24.31A6.59,6.59,0,0,0,1322,182c3.24.46,6-1.71,8.19-3.87C1331.28,176.7,1328.19,176.08,1327.26,177Z"/><path class="cls-2" d="M1373.49,212c-1.24,1.39-3.1,3.09-5.11,2.93s-3.4-2.16-4.79-3.4c-.31-.15-1.39-.31-1.24.31a6.58,6.58,0,0,0,5.88,5.1c3.25.47,6-1.7,8.19-3.86C1377.66,211.79,1374.41,211,1373.49,212Z"/><path class="cls-2" d="M1354,212c-1.24,1.39-3.1,3.09-5.11,2.93s-3.4-2.16-4.79-3.4c-.31-.15-1.39-.31-1.23.31a6.56,6.56,0,0,0,5.87,5.1c3.25.47,6-1.7,8.19-3.86C1358,211.79,1354.78,211,1354,212Z"/><path class="cls-2" d="M1392.19,212.56c-1.24,1.4-3.09,3.1-5.1,2.94s-3.4-2.16-4.79-3.4c-.31-.15-1.39-.31-1.24.31a6.58,6.58,0,0,0,5.88,5.1c3.24.47,6-1.7,8.19-3.86C1396.21,212.41,1393,211.64,1392.19,212.56Z"/><path class="cls-2" d="M1409.51,212c-1.24,1.39-3.1,3.09-5.11,2.93s-3.4-2.16-4.79-3.4c-.31-.15-1.39-.31-1.23.31a6.56,6.56,0,0,0,5.87,5.1c3.25.47,6-1.7,8.19-3.86C1413.53,211.79,1410.43,211,1409.51,212Z"/><path class="cls-2" d="M1347.36,204.37c-1.24,1.39-3.09,3.09-5.1,2.94s-3.4-2.17-4.8-3.4c-.3-.16-1.39-.31-1.23.31a6.58,6.58,0,0,0,5.87,5.1c3.25.46,6-1.7,8.2-3.87C1351.38,204.22,1348.29,203.44,1347.36,204.37Z"/><path class="cls-2" d="M1365.45,204.84c-1.24,1.39-3.1,3.09-5.11,2.93s-3.4-2.16-4.79-3.4c-.31-.15-1.39-.31-1.23.31a6.57,6.57,0,0,0,5.87,5.1c3.25.47,6-1.7,8.19-3.86C1369.62,204.53,1366.37,203.91,1365.45,204.84Z"/><path class="cls-2" d="M1383.22,204.68c-1.23,1.39-3.09,3.09-5.1,2.94s-3.4-2.17-4.79-3.4c-.31-.16-1.39-.31-1.24.31a6.6,6.6,0,0,0,5.88,5.1c3.25.46,6-1.7,8.19-3.87C1387.4,204.53,1384.15,203.75,1383.22,204.68Z"/><path class="cls-2" d="M1400.85,204.37c-1.24,1.39-3.09,3.09-5.1,2.94s-3.4-2.32-4.8-3.4c-.3-.16-1.39-.31-1.23.31a6.57,6.57,0,0,0,5.87,5.1c3.25.46,6-1.7,8.2-3.87C1404.87,204.06,1401.78,203.44,1400.85,204.37Z"/><path class="cls-2" d="M1418.47,204.37c-1.23,1.39-3.09,3.09-5.1,2.94s-3.4-2.17-4.79-3.4c-.31-.16-1.39-.31-1.24.31a6.6,6.6,0,0,0,5.88,5.1c3.24.46,6-1.7,8.19-3.87C1422.49,204.06,1419.4,203.44,1418.47,204.37Z"/><path class="cls-2" d="M1436.25,203.75c-1.24,1.39-3.09,3.09-5.1,2.94s-3.4-2.16-4.79-3.4c-.31-.16-1.39-.31-1.24.31a6.58,6.58,0,0,0,5.87,5.1c3.25.46,6-1.7,8.2-3.86C1440.27,203.6,1437.18,202.83,1436.25,203.75Z"/></g><path class="cls-27" d="M1308.87,207.31s-59.06-31.07-21.65-112.39C1287.22,94.92,1334.06,162.94,1308.87,207.31Z"/><path class="cls-27" d="M1456.81,207.31s60.29-31.07,23-112.39C1479.85,94.92,1431.61,162.94,1456.81,207.31Z"/></g><g id="Layer_2" data-name="Layer 2"><g id="Objects-2" data-name="Objects"><path class="cls-19" d="M723.44,234l-6.19-5.69V212.6a3.82,3.82,0,0,0-7.63,0v15.09a3.62,3.62,0,0,0-1,.81L703.17,235a3.59,3.59,0,0,0,5.2,4.95,3.88,3.88,0,0,0,.26-.31h0l1.54-1.89v1.55a3.57,3.57,0,1,0,7.13.47,3.69,3.69,0,0,0,0-.47V238.1l1.19,1.1a3.6,3.6,0,0,0,5-5.23Z"/><path class="cls-19" d="M769,234l-6.19-5.69V212.6a3.82,3.82,0,0,0-7.62,0v15.09a3.44,3.44,0,0,0-1,.81L748.71,235a3.59,3.59,0,0,0,5.2,4.95,3.88,3.88,0,0,0,.26-.31l1.55-1.89v1.55a3.57,3.57,0,1,0,7.12.47,3.69,3.69,0,0,0,0-.47V238.1l1.19,1.1a3.56,3.56,0,1,0,4.84-5.23h.1Z"/><path class="cls-28" d="M823.92,3.45c-4.8-1.9-25.26,20.35-25.26,20.35-24.47-8.8-45.35-11.56-62.39-11.33-17-.22-37.92,2.55-62.3,11.34,0,0-20.45-22.24-25.26-20.34s-29.3,132.21,16.42,186c18.67,22,44.1,28.89,71.11,28.67,26.28.22,52.45-6.71,71.11-28.67C853.13,135.68,828.67,5.36,823.92,3.45Z"/><path class="cls-7" d="M780.64,32.94a45.61,45.61,0,0,0-44.37,35,45.61,45.61,0,1,0,0,21.26,45.61,45.61,0,1,0,44.37-56.24Z"/><circle class="cls-5" cx="782.93" cy="77.44" r="33.28"/><circle class="cls-29" cx="778.72" cy="80.44" r="21.06"/><circle class="cls-5" cx="786.54" cy="70.22" r="6.01"/><circle class="cls-5" cx="689.61" cy="77.44" r="33.28"/><circle class="cls-29" cx="693.82" cy="80.44" r="21.06"/><circle class="cls-5" cx="686.01" cy="70.22" r="6.01"/><polygon class="cls-30" points="724.32 91.79 736.27 108.28 736.27 80.44 724.32 91.79"/><polygon class="cls-31" points="736.27 80.44 736.27 108.28 748.22 91.79 736.27 80.44"/><path class="cls-7" d="M795.15,201.41a57.7,57.7,0,0,0,2.06-15.3c0-32.78-27.28-59.35-60.94-59.35s-60.94,26.54-60.94,59.35a57.74,57.74,0,0,0,2.07,15.36c16.88,12.84,37.37,17.2,58.87,17C757.23,218.68,778.09,214.31,795.15,201.41Z"/><g class="cls-32"><polygon class="cls-31" points="711.53 151.08 700.99 151.08 706.37 156.47 711.53 151.08"/><polygon class="cls-31" points="723.32 151.08 712.77 151.08 718.17 156.47 723.32 151.08"/><polygon class="cls-31" points="735.11 151.08 724.55 151.08 729.95 156.47 735.11 151.08"/><polygon class="cls-31" points="746.89 151.08 736.35 151.08 741.73 156.47 746.89 151.08"/><polygon class="cls-31" points="758.67 151.08 748.13 151.08 753.51 156.47 758.67 151.08"/><polygon class="cls-31" points="770.47 151.08 759.91 151.08 765.3 156.47 770.47 151.08"/><polygon class="cls-31" points="782.25 151.08 771.7 151.08 777.08 156.47 782.25 151.08"/><polygon class="cls-31" points="699.75 151.08 689.2 151.08 694.59 156.47 699.75 151.08"/><polygon class="cls-31" points="717.42 144.03 706.88 144.03 712.26 149.42 717.42 144.03"/><polygon class="cls-31" points="729.21 144.03 718.66 144.03 724.06 149.42 729.21 144.03"/><polygon class="cls-31" points="741 144.03 730.44 144.03 735.84 149.42 741 144.03"/><polygon class="cls-31" points="752.78 144.03 742.24 144.03 747.62 149.42 752.78 144.03"/><polygon class="cls-31" points="764.56 144.03 754.02 144.03 759.41 149.42 764.56 144.03"/><polygon class="cls-31" points="776.36 144.03 765.8 144.03 771.19 149.42 776.36 144.03"/><polygon class="cls-31" points="705.64 144.03 695.09 144.03 700.48 149.42 705.64 144.03"/><polygon class="cls-31" points="799.92 144.03 789.37 144.03 794.77 149.42 799.92 144.03"/><polygon class="cls-31" points="705.64 129.93 695.09 129.93 700.48 135.32 705.64 129.93"/><polygon class="cls-31" points="717.42 129.93 706.88 129.93 712.26 135.32 717.42 129.93"/><polygon class="cls-31" points="729.21 129.93 718.66 129.93 724.06 135.32 729.21 129.93"/><polygon class="cls-31" points="741 129.93 730.44 129.93 735.84 135.32 741 129.93"/><polygon class="cls-31" points="752.78 129.93 742.24 129.93 747.62 135.32 752.78 129.93"/><polygon class="cls-31" points="764.56 129.93 754.02 129.93 759.41 135.32 764.56 129.93"/><polygon class="cls-31" points="776.36 129.93 765.8 129.93 771.19 135.32 776.36 129.93"/><polygon class="cls-31" points="693.85 129.93 683.31 129.93 688.7 135.32 693.85 129.93"/><polygon class="cls-31" points="799.92 129.93 789.37 129.93 794.77 135.32 799.92 129.93"/><polygon class="cls-31" points="788.14 129.93 777.59 129.93 782.97 135.32 788.14 129.93"/><polygon class="cls-31" points="711.53 136.98 700.99 136.98 706.37 142.37 711.53 136.98"/><polygon class="cls-31" points="723.32 136.98 712.77 136.98 718.17 142.37 723.32 136.98"/><polygon class="cls-31" points="735.11 136.98 724.55 136.98 729.95 142.37 735.11 136.98"/><polygon class="cls-31" points="746.89 136.98 736.35 136.98 741.73 142.37 746.89 136.98"/><polygon class="cls-31" points="758.67 136.98 748.13 136.98 753.51 142.37 758.67 136.98"/><polygon class="cls-31" points="770.47 136.98 759.91 136.98 765.3 142.37 770.47 136.98"/><polygon class="cls-31" points="699.75 136.98 689.2 136.98 694.59 142.37 699.75 136.98"/><polygon class="cls-31" points="805.81 136.98 795.26 136.98 800.66 142.37 805.81 136.98"/><polygon class="cls-31" points="794.03 136.98 783.48 136.98 788.88 142.37 794.03 136.98"/><polygon class="cls-31" points="710.92 179.27 700.37 179.27 705.75 184.67 710.92 179.27"/><polygon class="cls-31" points="722.7 179.27 712.15 179.27 717.53 184.67 722.7 179.27"/><polygon class="cls-31" points="734.48 179.27 723.93 179.27 729.33 184.67 734.48 179.27"/><polygon class="cls-31" points="746.27 179.27 735.71 179.27 741.11 184.67 746.27 179.27"/><polygon class="cls-31" points="758.05 179.27 747.51 179.27 752.89 184.67 758.05 179.27"/><polygon class="cls-31" points="769.83 179.27 759.29 179.27 764.68 184.67 769.83 179.27"/><polygon class="cls-31" points="781.63 179.27 771.07 179.27 776.46 184.67 781.63 179.27"/><polygon class="cls-31" points="699.14 179.27 688.58 179.27 693.97 184.67 699.14 179.27"/><polygon class="cls-31" points="687.34 179.27 676.8 179.27 682.19 184.67 687.34 179.27"/><polygon class="cls-31" points="805.19 179.27 794.64 179.27 800.04 184.67 805.19 179.27"/><polygon class="cls-31" points="793.41 179.27 782.87 179.27 788.24 184.67 793.41 179.27"/><polygon class="cls-31" points="682.07 172.22 671.53 172.22 676.91 177.62 682.07 172.22"/><polygon class="cls-31" points="716.81 172.22 706.26 172.22 711.64 177.62 716.81 172.22"/><polygon class="cls-31" points="728.59 172.22 718.04 172.22 723.44 177.62 728.59 172.22"/><polygon class="cls-31" points="740.38 172.22 729.82 172.22 735.22 177.62 740.38 172.22"/><polygon class="cls-31" points="752.16 172.22 741.62 172.22 747 177.62 752.16 172.22"/><polygon class="cls-31" points="763.94 172.22 753.4 172.22 758.79 177.62 763.94 172.22"/><polygon class="cls-31" points="775.74 172.22 765.18 172.22 770.57 177.62 775.74 172.22"/><polygon class="cls-31" points="787.52 172.22 776.98 172.22 782.35 177.62 787.52 172.22"/><polygon class="cls-31" points="705.03 172.22 694.48 172.22 699.86 177.62 705.03 172.22"/><polygon class="cls-31" points="693.23 172.22 682.69 172.22 688.08 177.62 693.23 172.22"/><polygon class="cls-31" points="799.3 172.22 788.75 172.22 794.15 177.62 799.3 172.22"/><polygon class="cls-31" points="681.45 158.13 670.91 158.13 676.29 163.52 681.45 158.13"/><polygon class="cls-31" points="705.03 158.13 694.48 158.13 699.86 163.52 705.03 158.13"/><polygon class="cls-31" points="716.81 158.13 706.26 158.13 711.64 163.52 716.81 158.13"/><polygon class="cls-31" points="728.59 158.13 718.04 158.13 723.44 163.52 728.59 158.13"/><polygon class="cls-31" points="740.38 158.13 729.82 158.13 735.22 163.52 740.38 158.13"/><polygon class="cls-31" points="752.16 158.13 741.62 158.13 747 163.52 752.16 158.13"/><polygon class="cls-31" points="763.94 158.13 753.4 158.13 758.79 163.52 763.94 158.13"/><polygon class="cls-31" points="775.74 158.13 765.18 158.13 770.57 163.52 775.74 158.13"/><polygon class="cls-31" points="693.23 158.13 682.69 158.13 688.08 163.52 693.23 158.13"/><polygon class="cls-31" points="787.52 158.13 776.98 158.13 782.35 163.52 787.52 158.13"/><polygon class="cls-31" points="710.92 165.18 700.37 165.18 705.75 170.57 710.92 165.18"/><polygon class="cls-31" points="722.7 165.18 712.15 165.18 717.53 170.57 722.7 165.18"/><polygon class="cls-31" points="734.48 165.18 723.93 165.18 729.33 170.57 734.48 165.18"/><polygon class="cls-31" points="746.27 165.18 735.71 165.18 741.11 170.57 746.27 165.18"/><polygon class="cls-31" points="758.05 165.18 747.51 165.18 752.89 170.57 758.05 165.18"/><polygon class="cls-31" points="769.83 165.18 759.29 165.18 764.68 170.57 769.83 165.18"/><polygon class="cls-31" points="781.63 165.18 771.07 165.18 776.46 170.57 781.63 165.18"/><polygon class="cls-31" points="699.14 165.18 688.58 165.18 693.97 170.57 699.14 165.18"/><polygon class="cls-31" points="687.34 165.18 676.8 165.18 682.19 170.57 687.34 165.18"/><polygon class="cls-31" points="805.19 165.18 794.64 165.18 800.04 170.57 805.19 165.18"/><polygon class="cls-31" points="793.41 165.18 782.87 165.18 788.24 170.57 793.41 165.18"/><polygon class="cls-31" points="699.14 207.47 688.58 207.47 693.97 212.87 699.14 207.47"/><polygon class="cls-31" points="710.92 207.47 700.37 207.47 705.75 212.87 710.92 207.47"/><polygon class="cls-31" points="722.7 207.47 712.15 207.47 717.55 212.87 722.7 207.47"/><polygon class="cls-31" points="734.49 207.47 723.93 207.47 729.33 212.87 734.49 207.47"/><polygon class="cls-31" points="746.27 207.47 735.71 207.47 741.11 212.87 746.27 207.47"/><polygon class="cls-31" points="758.05 207.47 747.51 207.47 752.9 212.87 758.05 207.47"/><polygon class="cls-31" points="769.85 207.47 759.29 207.47 764.68 212.87 769.85 207.47"/><polygon class="cls-31" points="781.63 207.47 771.08 207.47 776.46 212.87 781.63 207.47"/><polygon class="cls-31" points="798.68 200.42 788.14 200.42 793.52 205.82 798.68 200.42"/><polygon class="cls-31" points="705.03 200.42 694.48 200.42 699.86 205.82 705.03 200.42"/><polygon class="cls-31" points="716.81 200.42 706.26 200.42 711.64 205.82 716.81 200.42"/><polygon class="cls-31" points="728.59 200.42 718.04 200.42 723.44 205.82 728.59 200.42"/><polygon class="cls-31" points="740.38 200.42 729.82 200.42 735.22 205.82 740.38 200.42"/><polygon class="cls-31" points="752.16 200.42 741.62 200.42 747 205.82 752.16 200.42"/><polygon class="cls-31" points="763.94 200.42 753.4 200.42 758.79 205.82 763.94 200.42"/><polygon class="cls-31" points="775.74 200.42 765.18 200.42 770.57 205.82 775.74 200.42"/><polygon class="cls-31" points="693.25 200.42 682.69 200.42 688.08 205.82 693.25 200.42"/><polygon class="cls-31" points="681.45 200.42 670.91 200.42 676.29 205.82 681.45 200.42"/><polygon class="cls-31" points="787.52 200.42 776.98 200.42 782.35 205.82 787.52 200.42"/><polygon class="cls-31" points="799.03 186.32 788.49 186.32 793.87 191.72 799.03 186.32"/><polygon class="cls-31" points="693.25 186.32 682.69 186.32 688.08 191.72 693.25 186.32"/><polygon class="cls-31" points="705.03 186.32 694.48 186.32 699.86 191.72 705.03 186.32"/><polygon class="cls-31" points="716.81 186.32 706.26 186.32 711.66 191.72 716.81 186.32"/><polygon class="cls-31" points="728.59 186.32 718.04 186.32 723.44 191.72 728.59 186.32"/><polygon class="cls-31" points="740.38 186.32 729.82 186.32 735.22 191.72 740.38 186.32"/><polygon class="cls-31" points="752.16 186.32 741.62 186.32 747.01 191.72 752.16 186.32"/><polygon class="cls-31" points="763.94 186.32 753.4 186.32 758.79 191.72 763.94 186.32"/><polygon class="cls-31" points="681.45 186.32 670.91 186.32 676.29 191.72 681.45 186.32"/><polygon class="cls-31" points="787.52 186.32 776.98 186.32 782.35 191.72 787.52 186.32"/><polygon class="cls-31" points="775.74 186.32 765.18 186.32 770.57 191.72 775.74 186.32"/><polygon class="cls-31" points="699.14 193.37 688.58 193.37 693.97 198.77 699.14 193.37"/><polygon class="cls-31" points="710.92 193.37 700.37 193.37 705.75 198.77 710.92 193.37"/><polygon class="cls-31" points="722.7 193.37 712.15 193.37 717.55 198.77 722.7 193.37"/><polygon class="cls-31" points="734.49 193.37 723.93 193.37 729.33 198.77 734.49 193.37"/><polygon class="cls-31" points="746.27 193.37 735.71 193.37 741.11 198.77 746.27 193.37"/><polygon class="cls-31" points="758.05 193.37 747.51 193.37 752.9 198.77 758.05 193.37"/><polygon class="cls-31" points="769.85 193.37 759.29 193.37 764.68 198.77 769.85 193.37"/><polygon class="cls-31" points="687.34 193.37 676.8 193.37 682.19 198.77 687.34 193.37"/><polygon class="cls-31" points="804.57 193.37 794.03 193.37 799.42 198.77 804.57 193.37"/><polygon class="cls-31" points="793.41 193.37 782.87 193.37 788.24 198.77 793.41 193.37"/><polygon class="cls-31" points="781.63 193.37 771.08 193.37 776.46 198.77 781.63 193.37"/></g><path class="cls-31" d="M673.38,204.6s-72.81-27.49-34.81-110.23C638.58,94.37,699.11,159.29,673.38,204.6Z"/><path class="cls-31" d="M799.1,204.6s72.81-27.49,34.81-110.23C833.91,94.37,773.39,159.29,799.1,204.6Z"/></g></g></svg>