<svg id="Layer_1" data-name="Layer 1" xmlns="http://www.w3.org/2000/svg" width="586.08" height="179.38" viewBox="0 0 586.08 179.38">
  <title>logo</title>
  <path d="M29.23,107.08l-6.9,16v53.64H0V2H22.33V77.63h.36L51.57,2H73.9L42.84,79.87,73.9,176.72H51Z" fill="#ffc709"/>
  <path d="M100.29,50.17h-.41V176.72H79.78V2h28l22.54,104.59h.41V2h19.9V176.72H127.69Z" fill="#ffc709"/>
  <path d="M160.79,43.93c0-28,12-43.93,33.9-43.93s33.9,16,33.9,43.93v90.86c0,28-12,43.93-33.9,43.93s-33.9-16-33.9-43.93Zm22.33,92.61c0,12.48,4.47,17.22,11.57,17.22s11.57-4.74,11.57-17.22V42.18c0-12.48-4.47-17.22-11.57-17.22s-11.57,4.74-11.57,17.22v94.36Z" fill="#ffc709"/>
  <path d="M288.69,83.62h-.41l-7.92,93.11H249.69L233.87,2h21.72l11.78,137.79h.41L278.34,2h21.52l11,138.79h.41L322.59,2h19.49L326.25,176.72H296.61Z" fill="#ffc709"/>
  <path d="M374.69,177.13H351.8V1.81h22.89V76.94h26V1.81H424V177.13H400.74V102h-26v75.14Z" fill="#f8981d"/>
  <path d="M458.42,1.81V137.05c0,12.52,4.58,17,11.87,17s11.87-4.51,11.87-17V1.81h21.66V135.3c0,28.05-11.66,44.08-34.15,44.08s-34.15-16-34.15-44.08V1.81h22.9Z" fill="#f8981d"/>
  <path d="M583.79,42.13v6.29c0,18-4.58,29.3-14.79,35.06V84c12.29,5.76,17.08,18.78,17.08,37.32v14.28c0,27-11.87,41.58-34.78,41.58h-36V1.81h34.57C573.58,1.81,583.79,15.08,583.79,42.13ZM538.18,26.85V73.19h9c8.54,0,13.75-4.51,13.75-18.53V44.88c0-12.52-3.54-18-11.66-18h-11Zm0,71.38v53.85H551.3c7.71,0,11.87-4.26,11.87-17.28V119.52c0-16.28-4.37-21.29-14.79-21.29Z" fill="#f8981d"/>
</svg>
