<svg id="Objects" xmlns="http://www.w3.org/2000/svg" xmlns:xlink="http://www.w3.org/1999/xlink" width="139.35" height="150.92" viewBox="0 0 139.35 150.92">
  <defs>
    <clipPath id="clip-path">
      <path d="M106.45,124.81a36.53,36.53,0,0,0,1.3-9.64c0-20.65-17.19-37.39-38.4-37.39s-38.4,16.74-38.4,37.39a36.49,36.49,0,0,0,1.31,9.69c10.64,8.09,23.54,10.83,37.09,10.73C82.55,135.69,95.7,132.93,106.45,124.81Z" fill="none"/>
    </clipPath>
  </defs>
  <title>owl-orange</title>
  <path d="M22.73,126.82S-16.16,109.53,7.79,57.36C7.79,57.36,38.93,98.26,22.73,126.82Z" fill="#fe8825"/>
  <path d="M114.34,126.82s41.51-17.29,17.57-69.46C131.91,57.36,98.09,98.26,114.34,126.82Z" fill="#fe8825"/>
  <path d="M61.27,145.32l-3.86-3.58v-9.87a2.4,2.4,0,1,0-4.81,0v9.51a2.22,2.22,0,0,0-.61.5L48.54,146A2.24,2.24,0,0,0,52,148.87l1-1.19v1a2.24,2.24,0,0,0,4.49,0v-.77l.75.69a2.24,2.24,0,0,0,3-3.28Z" fill="#f59a00"/>
  <path d="M90,145.32l-3.86-3.58v-9.87a2.4,2.4,0,1,0-4.81,0v9.51a2.2,2.2,0,0,0-.61.5L77.22,146a2.24,2.24,0,0,0,3.44,2.88l1-1.19v1a2.24,2.24,0,1,0,4.49,0h0v-.77l.75.69a2.24,2.24,0,0,0,3-3.28Z" fill="#f59a00"/>
  <path d="M124.53.08c-3-1.2-15.92,12.82-15.92,12.82C93.24,7.35,80.07,5.61,69.34,5.75c-10.73-.14-23.89,1.6-39.27,7.15,0,0-12.89-14-15.92-12.82S-4.29,83.39,24.51,117.25c11.77,13.84,27.79,18.2,44.83,18.07,16.57.13,33.06-4.23,44.83-18.07C143,83.39,127.56,1.27,124.53.08Z" fill="#fdc400"/>
  <path d="M97.3,18.65c-13.61,7.07-38.06,9.69-55.9,0-14-7.57-28.74,12.87-28.74,28.74a28.74,28.74,0,0,0,56.69,6.69A28.74,28.74,0,0,0,126,47.39C126,31.53,111.38,11.32,97.3,18.65Z" fill="#ffefbf"/>
  <circle cx="98.75" cy="46.69" r="20.97" fill="#fff"/>
  <circle cx="96.1" cy="48.58" r="13.26" fill="#684c42"/>
  <circle cx="101.03" cy="42.14" r="3.79" fill="#fff"/>
  <circle cx="39.95" cy="46.69" r="20.97" fill="#fff"/>
  <circle cx="42.6" cy="48.58" r="13.26" fill="#684c42"/>
  <circle cx="37.68" cy="42.14" r="3.79" fill="#fff"/>
  <polygon points="61.82 55.73 69.35 66.13 69.35 48.58 61.82 55.73" fill="#f5a112"/>
  <polygon points="69.35 48.58 69.35 66.13 76.88 55.73 69.35 48.58" fill="#fe8825"/>
  <path d="M106.45,124.81a36.53,36.53,0,0,0,1.3-9.64c0-20.65-17.19-37.39-38.4-37.39s-38.4,16.74-38.4,37.39a36.49,36.49,0,0,0,1.31,9.69c10.64,8.09,23.54,10.83,37.09,10.73C82.55,135.69,95.7,132.93,106.45,124.81Z" fill="#d1e8ec"/>
  <path d="M106.45,124.81a36.53,36.53,0,0,0,1.3-9.64c0-20.65-17.19-37.39-38.4-37.39s-38.4,16.74-38.4,37.39a36.49,36.49,0,0,0,1.31,9.69c10.64,8.09,23.54,10.83,37.09,10.73C82.55,135.69,95.7,132.93,106.45,124.81Z" fill="#ffefbf"/>
  <g clip-path="url(#clip-path)">
    <g>
      <polygon points="53.76 93.09 47.12 93.09 50.52 96.48 53.76 93.09" fill="#fdc400"/>
      <polygon points="61.19 93.09 54.54 93.09 57.94 96.48 61.19 93.09" fill="#fdc400"/>
      <polygon points="68.62 93.09 61.97 93.09 65.37 96.48 68.62 93.09" fill="#fdc400"/>
      <polygon points="76.04 93.09 69.4 93.09 72.79 96.48 76.04 93.09" fill="#fdc400"/>
      <polygon points="83.47 93.09 76.82 93.09 80.22 96.48 83.47 93.09" fill="#fdc400"/>
      <polygon points="90.89 93.09 84.25 93.09 87.64 96.48 90.89 93.09" fill="#fdc400"/>
      <polygon points="98.32 93.09 91.67 93.09 95.07 96.48 98.32 93.09" fill="#fdc400"/>
      <polygon points="46.34 93.09 39.69 93.09 43.09 96.48 46.34 93.09" fill="#fdc400"/>
      <polygon points="57.48 88.65 50.83 88.65 54.23 92.04 57.48 88.65" fill="#fdc400"/>
      <polygon points="64.9 88.65 58.26 88.65 61.65 92.04 64.9 88.65" fill="#fdc400"/>
      <polygon points="72.33 88.65 65.68 88.65 69.08 92.04 72.33 88.65" fill="#fdc400"/>
      <polygon points="79.75 88.65 73.11 88.65 76.5 92.04 79.75 88.65" fill="#fdc400"/>
      <polygon points="87.18 88.65 80.53 88.65 83.93 92.04 87.18 88.65" fill="#fdc400"/>
      <polygon points="94.61 88.65 87.96 88.65 91.36 92.04 94.61 88.65" fill="#fdc400"/>
      <polygon points="50.05 88.65 43.41 88.65 46.8 92.04 50.05 88.65" fill="#fdc400"/>
      <polygon points="109.46 88.65 102.81 88.65 106.21 92.04 109.46 88.65" fill="#fdc400"/>
      <polygon points="50.05 79.76 43.41 79.76 46.8 83.16 50.05 79.76" fill="#fdc400"/>
      <polygon points="57.48 79.76 50.83 79.76 54.23 83.16 57.48 79.76" fill="#fdc400"/>
      <polygon points="64.9 79.76 58.26 79.76 61.65 83.16 64.9 79.76" fill="#fdc400"/>
      <polygon points="72.33 79.76 65.68 79.76 69.08 83.16 72.33 79.76" fill="#fdc400"/>
      <polygon points="79.75 79.76 73.11 79.76 76.5 83.16 79.75 79.76" fill="#fdc400"/>
      <polygon points="87.18 79.76 80.53 79.76 83.93 83.16 87.18 79.76" fill="#fdc400"/>
      <polygon points="94.61 79.76 87.96 79.76 91.36 83.16 94.61 79.76" fill="#fdc400"/>
      <polygon points="42.63 79.76 35.98 79.76 39.38 83.16 42.63 79.76" fill="#fdc400"/>
      <polygon points="109.46 79.76 102.81 79.76 106.21 83.16 109.46 79.76" fill="#fdc400"/>
      <polygon points="102.03 79.76 95.39 79.76 98.78 83.16 102.03 79.76" fill="#fdc400"/>
      <polygon points="53.76 84.2 47.12 84.2 50.52 87.6 53.76 84.2" fill="#fdc400"/>
      <polygon points="61.19 84.2 54.54 84.2 57.94 87.6 61.19 84.2" fill="#fdc400"/>
      <polygon points="68.62 84.2 61.97 84.2 65.37 87.6 68.62 84.2" fill="#fdc400"/>
      <polygon points="76.04 84.2 69.4 84.2 72.79 87.6 76.04 84.2" fill="#fdc400"/>
      <polygon points="83.47 84.2 76.82 84.2 80.22 87.6 83.47 84.2" fill="#fdc400"/>
      <polygon points="90.89 84.2 84.25 84.2 87.64 87.6 90.89 84.2" fill="#fdc400"/>
      <polygon points="46.34 84.2 39.69 84.2 43.09 87.6 46.34 84.2" fill="#fdc400"/>
      <polygon points="113.17 84.2 106.53 84.2 109.92 87.6 113.17 84.2" fill="#fdc400"/>
      <polygon points="105.74 84.2 99.1 84.2 102.49 87.6 105.74 84.2" fill="#fdc400"/>
      <polygon points="53.37 110.86 46.73 110.86 50.12 114.25 53.37 110.86" fill="#fdc400"/>
      <polygon points="60.8 110.86 54.15 110.86 57.55 114.25 60.8 110.86" fill="#fdc400"/>
      <polygon points="68.22 110.86 61.58 110.86 64.98 114.25 68.22 110.86" fill="#fdc400"/>
      <polygon points="75.65 110.86 69 110.86 72.4 114.25 75.65 110.86" fill="#fdc400"/>
      <polygon points="83.08 110.86 76.43 110.86 79.83 114.25 83.08 110.86" fill="#fdc400"/>
      <polygon points="90.5 110.86 83.86 110.86 87.25 114.25 90.5 110.86" fill="#fdc400"/>
      <polygon points="97.93 110.86 91.28 110.86 94.68 114.25 97.93 110.86" fill="#fdc400"/>
      <polygon points="45.95 110.86 39.3 110.86 42.7 114.25 45.95 110.86" fill="#fdc400"/>
      <polygon points="38.52 110.86 31.88 110.86 35.27 114.25 38.52 110.86" fill="#fdc400"/>
      <polygon points="112.78 110.86 106.13 110.86 109.53 114.25 112.78 110.86" fill="#fdc400"/>
      <polygon points="105.36 110.86 98.71 110.86 102.1 114.25 105.36 110.86" fill="#fdc400"/>
      <polygon points="35.2 106.41 28.55 106.41 31.95 109.81 35.2 106.41" fill="#fdc400"/>
      <polygon points="57.09 106.41 50.44 106.41 53.84 109.81 57.09 106.41" fill="#fdc400"/>
      <polygon points="64.51 106.41 57.87 106.41 61.26 109.81 64.51 106.41" fill="#fdc400"/>
      <polygon points="71.94 106.41 65.29 106.41 68.69 109.81 71.94 106.41" fill="#fdc400"/>
      <polygon points="79.36 106.41 72.72 106.41 76.11 109.81 79.36 106.41" fill="#fdc400"/>
      <polygon points="86.79 106.41 80.14 106.41 83.54 109.81 86.79 106.41" fill="#fdc400"/>
      <polygon points="94.22 106.41 87.57 106.41 90.97 109.81 94.22 106.41" fill="#fdc400"/>
      <polygon points="101.64 106.41 95 106.41 98.39 109.81 101.64 106.41" fill="#fdc400"/>
      <polygon points="49.66 106.41 43.02 106.41 46.41 109.81 49.66 106.41" fill="#fdc400"/>
      <polygon points="42.23 106.41 35.59 106.41 38.98 109.81 42.23 106.41" fill="#fdc400"/>
      <polygon points="109.07 106.41 102.42 106.41 105.82 109.81 109.07 106.41" fill="#fdc400"/>
      <polygon points="34.81 97.53 28.16 97.53 31.56 100.93 34.81 97.53" fill="#fdc400"/>
      <polygon points="49.66 97.53 43.02 97.53 46.41 100.93 49.66 97.53" fill="#fdc400"/>
      <polygon points="57.09 97.53 50.44 97.53 53.84 100.93 57.09 97.53" fill="#fdc400"/>
      <polygon points="64.51 97.53 57.87 97.53 61.26 100.93 64.51 97.53" fill="#fdc400"/>
      <polygon points="71.94 97.53 65.29 97.53 68.69 100.93 71.94 97.53" fill="#fdc400"/>
      <polygon points="79.36 97.53 72.72 97.53 76.11 100.93 79.36 97.53" fill="#fdc400"/>
      <polygon points="86.79 97.53 80.14 97.53 83.54 100.93 86.79 97.53" fill="#fdc400"/>
      <polygon points="94.22 97.53 87.57 97.53 90.97 100.93 94.22 97.53" fill="#fdc400"/>
      <polygon points="42.23 97.53 35.59 97.53 38.98 100.93 42.23 97.53" fill="#fdc400"/>
      <polygon points="101.64 97.53 95 97.53 98.39 100.93 101.64 97.53" fill="#fdc400"/>
      <polygon points="53.37 101.97 46.73 101.97 50.12 105.37 53.37 101.97" fill="#fdc400"/>
      <polygon points="60.8 101.97 54.15 101.97 57.55 105.37 60.8 101.97" fill="#fdc400"/>
      <polygon points="68.22 101.97 61.58 101.97 64.98 105.37 68.22 101.97" fill="#fdc400"/>
      <polygon points="75.65 101.97 69 101.97 72.4 105.37 75.65 101.97" fill="#fdc400"/>
      <polygon points="83.08 101.97 76.43 101.97 79.83 105.37 83.08 101.97" fill="#fdc400"/>
      <polygon points="90.5 101.97 83.86 101.97 87.25 105.37 90.5 101.97" fill="#fdc400"/>
      <polygon points="97.93 101.97 91.28 101.97 94.68 105.37 97.93 101.97" fill="#fdc400"/>
      <polygon points="45.95 101.97 39.3 101.97 42.7 105.37 45.95 101.97" fill="#fdc400"/>
      <polygon points="38.52 101.97 31.88 101.97 35.27 105.37 38.52 101.97" fill="#fdc400"/>
      <polygon points="112.78 101.97 106.13 101.97 109.53 105.37 112.78 101.97" fill="#fdc400"/>
      <polygon points="105.36 101.97 98.71 101.97 102.1 105.37 105.36 101.97" fill="#fdc400"/>
      <polygon points="45.95 128.62 39.3 128.62 42.7 132.02 45.95 128.62" fill="#fdc400"/>
      <polygon points="53.37 128.62 46.73 128.62 50.12 132.02 53.37 128.62" fill="#fdc400"/>
      <polygon points="60.8 128.62 54.15 128.62 57.55 132.02 60.8 128.62" fill="#fdc400"/>
      <polygon points="68.23 128.62 61.58 128.62 64.98 132.02 68.23 128.62" fill="#fdc400"/>
      <polygon points="75.65 128.62 69 128.62 72.4 132.02 75.65 128.62" fill="#fdc400"/>
      <polygon points="83.08 128.62 76.43 128.62 79.83 132.02 83.08 128.62" fill="#fdc400"/>
      <polygon points="90.5 128.62 83.86 128.62 87.25 132.02 90.5 128.62" fill="#fdc400"/>
      <polygon points="97.93 128.62 91.28 128.62 94.68 132.02 97.93 128.62" fill="#fdc400"/>
      <polygon points="108.68 124.18 102.03 124.18 105.43 127.58 108.68 124.18" fill="#fdc400"/>
      <polygon points="49.66 124.18 43.02 124.18 46.41 127.58 49.66 124.18" fill="#fdc400"/>
      <polygon points="57.09 124.18 50.44 124.18 53.84 127.58 57.09 124.18" fill="#fdc400"/>
      <polygon points="64.51 124.18 57.87 124.18 61.26 127.58 64.51 124.18" fill="#fdc400"/>
      <polygon points="71.94 124.18 65.29 124.18 68.69 127.58 71.94 124.18" fill="#fdc400"/>
      <polygon points="79.36 124.18 72.72 124.18 76.11 127.58 79.36 124.18" fill="#fdc400"/>
      <polygon points="86.79 124.18 80.14 124.18 83.54 127.58 86.79 124.18" fill="#fdc400"/>
      <polygon points="94.22 124.18 87.57 124.18 90.97 127.58 94.22 124.18" fill="#fdc400"/>
      <polygon points="42.23 124.18 35.59 124.18 38.98 127.58 42.23 124.18" fill="#fdc400"/>
      <polygon points="34.81 124.18 28.16 124.18 31.56 127.58 34.81 124.18" fill="#fdc400"/>
      <polygon points="101.64 124.18 95 124.18 98.39 127.58 101.64 124.18" fill="#fdc400"/>
      <polygon points="108.9 115.3 102.25 115.3 105.65 118.69 108.9 115.3" fill="#fdc400"/>
      <polygon points="42.23 115.3 35.59 115.3 38.98 118.69 42.23 115.3" fill="#fdc400"/>
      <polygon points="49.66 115.3 43.02 115.3 46.41 118.69 49.66 115.3" fill="#fdc400"/>
      <polygon points="57.09 115.3 50.44 115.3 53.84 118.69 57.09 115.3" fill="#fdc400"/>
      <polygon points="64.51 115.3 57.87 115.3 61.26 118.69 64.51 115.3" fill="#fdc400"/>
      <polygon points="71.94 115.3 65.29 115.3 68.69 118.69 71.94 115.3" fill="#fdc400"/>
      <polygon points="79.36 115.3 72.72 115.3 76.11 118.69 79.36 115.3" fill="#fdc400"/>
      <polygon points="86.79 115.3 80.14 115.3 83.54 118.69 86.79 115.3" fill="#fdc400"/>
      <polygon points="34.81 115.3 28.16 115.3 31.56 118.69 34.81 115.3" fill="#fdc400"/>
      <polygon points="101.64 115.3 95 115.3 98.39 118.69 101.64 115.3" fill="#fdc400"/>
      <polygon points="94.22 115.3 87.57 115.3 90.97 118.69 94.22 115.3" fill="#fdc400"/>
      <polygon points="45.95 119.74 39.3 119.74 42.7 123.13 45.95 119.74" fill="#fdc400"/>
      <polygon points="53.37 119.74 46.73 119.74 50.12 123.13 53.37 119.74" fill="#fdc400"/>
      <polygon points="60.8 119.74 54.15 119.74 57.55 123.13 60.8 119.74" fill="#fdc400"/>
      <polygon points="68.23 119.74 61.58 119.74 64.98 123.13 68.23 119.74" fill="#fdc400"/>
      <polygon points="75.65 119.74 69 119.74 72.4 123.13 75.65 119.74" fill="#fdc400"/>
      <polygon points="83.08 119.74 76.43 119.74 79.83 123.13 83.08 119.74" fill="#fdc400"/>
      <polygon points="90.5 119.74 83.86 119.74 87.25 123.13 90.5 119.74" fill="#fdc400"/>
      <polygon points="38.52 119.74 31.88 119.74 35.27 123.13 38.52 119.74" fill="#fdc400"/>
      <polygon points="112.39 119.74 105.74 119.74 109.14 123.13 112.39 119.74" fill="#fdc400"/>
      <polygon points="105.36 119.74 98.71 119.74 102.1 123.13 105.36 119.74" fill="#fdc400"/>
      <polygon points="97.93 119.74 91.28 119.74 94.68 123.13 97.93 119.74" fill="#fdc400"/>
    </g>
  </g>
</svg>
