<svg id="Objects" xmlns="http://www.w3.org/2000/svg" xmlns:xlink="http://www.w3.org/1999/xlink" width="179.21" height="152.24" viewBox="0 0 179.21 152.24">
  <defs>
    <clipPath id="clip-path">
      <path d="M127.08,125.89a36.75,36.75,0,0,0,1.31-9.72c0-20.82-17.34-37.71-38.72-37.71S50.94,95.3,50.94,116.17a36.83,36.83,0,0,0,1.32,9.77C63,134.09,76,136.86,89.66,136.76,103,136.86,116.23,134.08,127.08,125.89Z" fill="none"/>
    </clipPath>
  </defs>
  <title>owl-pink</title>
  <path d="M81.52,146.58,77.63,143V133a2.42,2.42,0,0,0-4.85,0v9.59a2.22,2.22,0,0,0-.62.51l-3.47,4.23a2.26,2.26,0,0,0,3.47,2.9h0l1-1.2v1a2.26,2.26,0,0,0,4.52,0v-.8l.75.7a2.27,2.27,0,1,0,3.09-3.32Z" fill="#39162e"/>
  <path d="M110.44,146.58,106.55,143V133a2.43,2.43,0,0,0-4.85,0v9.59a2.22,2.22,0,0,0-.61.51l-3.48,4.23a2.26,2.26,0,0,0,3.47,2.9h0l1-1.2v1a2.26,2.26,0,1,0,4.53,0v-.8l.75.7a2.26,2.26,0,0,0,3.08-3.32Z" fill="#39162e"/>
  <path d="M145.31.12C142.25-1.09,105.91,7,105.91,7S100.48,5.7,89.67,5.84c-10.82-.14-14.46.91-14.46.91S37.08-1.09,34,.12s-18.64,84,10.44,118.18c11.87,14,28,18.36,45.2,18.22,16.71.14,33.33-4.27,45.2-18.22C163.91,84.13,148.38,1.3,145.31.12Z" fill="#92162e"/>
  <path d="M132.38,22.75a32.28,32.28,0,0,0,7.2-13.53,33.32,33.32,0,0,0-9.46-.77,24.84,24.84,0,0,0,.54-8.37s-39.37-2.63-41,41h0a.29.29,0,0,0-.06-.21C87.87-2.53,48.6.09,48.6.09a24.84,24.84,0,0,0,.54,8.37,33.32,33.32,0,0,0-9.46.77A32.29,32.29,0,0,0,46.9,22.78,29,29,0,1,0,89.63,54.59a29,29,0,1,0,42.75-31.84Z" fill="#daa1ae"/>
  <circle cx="119.31" cy="47.13" r="21.15" fill="#fff"/>
  <circle cx="60.02" cy="47.13" r="21.15" fill="#fff"/>
  <polygon points="82.07 56.44 89.66 67.2 89.66 49.04 82.07 56.44" fill="#9e2844"/>
  <polygon points="89.66 49.04 89.66 67.35 97.19 56.28 89.66 49.04" fill="#601336"/>
  <path d="M127.08,125.89a36.75,36.75,0,0,0,1.31-9.72c0-20.82-17.34-37.71-38.72-37.71S50.94,95.3,50.94,116.17a36.83,36.83,0,0,0,1.32,9.77C63,134.09,76,136.86,89.66,136.76,103,136.86,116.23,134.08,127.08,125.89Z" fill="#c97688"/>
  <g clip-path="url(#clip-path)">
    <g>
      <path d="M85.61,92.38c-3.7-.31-7.3-1.56-10.92-1-1.64.27-2.91-1.12-4.4-.83-5.13,1-6.16.77-9-2.65-.09-.11-.5-.08-.41.12a8.22,8.22,0,0,0,4.8,4.63c2.12.86,4-1.09,5.85-.49a5.85,5.85,0,0,0,3.93.28c1.26-.53,2.79,0,4.1.23,2,.35,4,0,6,0C85.77,92.67,85.87,92.4,85.61,92.38Z" fill="#92162e"/>
      <path d="M88.61,99.55c-3.35-.51-8.39-2.2-11.46-.34-1.81,1.09-2.4-.35-4.09-.61-3.92-.62-6.34.07-9.34-2.23a.93.93,0,0,0-1.12.11c-2.12,3.2-4,.21-5.22-1-.08-.07-.42,0-.33.09,1.07,1.7,2.24,3.88,4.53,3.44.21,0,1.76-1.39,2.07-1.11a9.39,9.39,0,0,0,4,2,6.93,6.93,0,0,0,4.52,2.19c.28,0,.48-.27.17-.41a20.37,20.37,0,0,1-2.38-1,10.23,10.23,0,0,1-1-.64,9.63,9.63,0,0,0,3-.19c1.14-.24,2.51.87,3.68,1.13a3,3,0,0,0,1.94-.6c2.72-1.53,8.25-.78,10.91-.58C88.72,99.85,88.92,99.59,88.61,99.55Z" fill="#92162e"/>
      <path d="M116.13,91.66c-3.05-.3-6-.23-9-1.1a1.84,1.84,0,0,0-1.64.5,3.48,3.48,0,0,1-1.16-.92c-.06-.07-.28,0-.2.08a6.39,6.39,0,0,0,1.06,1.06l-.19.13c-1.15.76-2.21-.09-3.44-.07-3.26,0-6.54.67-9.83.73-.2,0-.2.21,0,.21a64.41,64.41,0,0,0,8.34-.09c1.66-.19,3,1,4.55.68,1.36-.26,1.81-1.19,3.51-.89a27,27,0,0,0,8,0C116.38,92,116.38,91.69,116.13,91.66Z" fill="#92162e"/>
      <path d="M123.38,96.3c-4,2.37-8.93,2-13.44,1.84-3.55-.1-6.92,1-10.43.21a.7.7,0,0,0-.63.18c-1.12,1.37-2.25,1-3.47.75-.08,0-.27.09-.13.15,1.38.65,2,1.14,3.45.53,1.77-.75,3.38-.12,5.2-.63a16,16,0,0,1,2.94-.5,1.79,1.79,0,0,0,2.11,1c.14,0,.12-.19,0-.23-.33-.13-.69-.14-1-.26a2,2,0,0,1-.74-.52,30.22,30.22,0,0,1,3.45,0,2.41,2.41,0,0,0,1.88,1c.14,0,.25-.15.09-.22a4.14,4.14,0,0,1-1.45-.77c4.6.25,9.19.93,13.52-1.72C125.64,96.51,124,95.92,123.38,96.3Z" fill="#92162e"/>
      <path d="M105.45,83.64c-5.14.72-10.4.3-15.58.89a27.25,27.25,0,0,1-5.19,0v0c0-.07-.22-.07-.21,0h0A37.54,37.54,0,0,1,80.69,84a1.65,1.65,0,0,1-.16-.36c0-.09-.26-.07-.25,0v.26a34.5,34.5,0,0,1-8.16-2.65c-.08,0-.3,0-.17.12A21.73,21.73,0,0,0,80.84,85a2.5,2.5,0,0,0,1.09.56c.13,0,.49-.09.26-.22L82,85.26l1.54.27c.44.07.88.12,1.32.16a2,2,0,0,0,1,.72c.09,0,.48,0,.31-.2l-.56-.48a27.13,27.13,0,0,0,7.72-1.1c4-1,8.22.41,12.24-.62C106.12,84,105.82,83.59,105.45,83.64Z" fill="#92162e"/>
      <path d="M104.14,109.14A82.73,82.73,0,0,0,94,109a1.64,1.64,0,0,1-1.06-1c0-.13-.37-.12-.37,0a1.71,1.71,0,0,0,.34,1H91.72a10.6,10.6,0,0,1-1.3-.15,3.14,3.14,0,0,1-1.56-1c-.07-.08-.37,0-.3.09a3.26,3.26,0,0,0,1.08,1.16c-4,.22-8,.46-12,.38a3.33,3.33,0,0,0-.67-.17c-.06,0-.19,0-.19.09h0c-1.07,0-2.13-.08-3.2-.17A23.26,23.26,0,0,1,67.44,108c-1-.35-1.94-2-2.86-2-1.95,0-2.48.55-4.26-.16a8.22,8.22,0,0,0-2.57-1c-2.94,0-2.78.79-4.35-1.21-.05-.07-.33-.07-.3.06,1.13,5.17,3.23,1.26,6.7,2.77.88.39,4.34,0,4.62.47.87,1.28,2.51,1.86,3.9,2.32a31.75,31.75,0,0,0,10.39,1.21,2.9,2.9,0,0,0,1.71,0h.68a2.33,2.33,0,0,0,1.61,1.5A4.52,4.52,0,0,0,86,111.8c.37-.16.11-.51-.21-.48a6.44,6.44,0,0,1-2.42-.07,4,4,0,0,1-1.38-.83l2.83-.1,2-.08a.17.17,0,0,0,.1.14,3.89,3.89,0,0,0,2.23.72c.19,0,.46-.19.22-.35a4.72,4.72,0,0,0-1.55-.55c5.45-.22,10.88-.57,16.33-.74C104.38,109.57,104.54,109.17,104.14,109.14Z" fill="#92162e"/>
      <path d="M126.83,105.25c-3-.24-6,.53-9.05.8-.69.06-1.85-.17-2.46.23-2,1.3-2.17,1.37-3.83,1.61-.15,0-.24.22,0,.27,1.36.35,3.09.52,4.12-.69.82-1,3.26-.52,4.35-.65,2.31-.29,4.65-.56,6.93-1C127.22,105.72,127.25,105.3,126.83,105.25Z" fill="#92162e"/>
      <path d="M129.45,111.3c-2.27,2.19-2.16,2.56-5.9,2a.91.91,0,0,0-.64.12c-2.26,1.51-8.4,2.47-10.87,2.52a.84.84,0,0,0-.59.23,7.29,7.29,0,0,1-4,2,4.31,4.31,0,0,1-1.58-.86c-.08-.08-.37,0-.25.1a3.85,3.85,0,0,0,1.31.84,22.3,22.3,0,0,1-2.53.16.86.86,0,0,0-.61.24c-3.34,3.41-8.31,5.16-12.74,2.57a1,1,0,0,0-1,0A15,15,0,0,1,77,122.56c-.18-.06-.49.13-.22.25a15.39,15.39,0,0,0,9.54,1c3.34-.64,4.13-1.29,7.43-.55,2.69.6,5.63-.41,8-1.6a9.69,9.69,0,0,0,2.36-1.68l.1-.08a2.55,2.55,0,0,0,1.14,1.27,2.36,2.36,0,0,0,1.88.2c.23-.08.19-.29,0-.38-.4-.17-.83-.22-1.23-.37a5.68,5.68,0,0,1-1.44-.83h-.13c1-.61,2.49.08,3.58-.13,2.13-.41,3.49-2.6,5.62-2.67,2.55-.09,5.08-1,7.57-1.53,3.86-.75,6.45-.19,8.47-4C129.7,111.3,129.5,111.3,129.45,111.3Z" fill="#92162e"/>
      <path d="M67.54,120.73A24.46,24.46,0,0,0,59.86,116c-1.22-.43-2.6.36-4.13-.09-2.65-.78-4.26-3.47-4.55-6.06,0-.11-.24-.11-.25,0a6.71,6.71,0,0,0,5,6.93,10,10,0,0,0,2.76,0,2.66,2.66,0,0,0,2.4,2.1c.21,0,.76-.22.37-.42a5.72,5.72,0,0,1-2.08-1.62,1.9,1.9,0,0,1,.53.18c2.37,1.31,4.73,2.52,7,4C67.14,121.15,67.83,121,67.54,120.73Z" fill="#92162e"/>
      <path d="M75.21,122.13a8.27,8.27,0,0,1-5.68-1.37c-.11-.08-.46,0-.33.17,1.33,1.75,4.12,2,6.11,1.64C75.7,122.5,75.56,122.1,75.21,122.13Z" fill="#92162e"/>
      <path d="M68.21,130.74c-3.85.37-7.4-.6-8.94-4.49A2.57,2.57,0,0,0,58,125.7c-1.18-.39-1.93-1.54-2.77-2.37a.77.77,0,0,0-.8-.12c-2.7,1.34-3.07-1.46-4-2.91-.14-.21-.77-.19-.65.13.6,1.49.87,3.36,2.44,4.09a2.77,2.77,0,0,0,1.77-.17c1.21-.35,1.36.81,2.18,1.34,4.17,2.68,6.56,6.91,12.19,5.27C68.5,130.9,68.38,130.72,68.21,130.74Z" fill="#92162e"/>
      <path d="M74,132.16a3,3,0,0,1-1.73-.77c-.24-.23-1,0-.71.28a3.82,3.82,0,0,0,.34.26,7.19,7.19,0,0,1-1.37-.33,5.57,5.57,0,0,1-1.81-1.3c-.07-.07-.39-.06-.31.09a3.89,3.89,0,0,0,3.91,2,.26.26,0,0,0,.15-.1,3,3,0,0,0,1.44.3C74.19,132.55,74.38,132.2,74,132.16Z" fill="#92162e"/>
      <path d="M99.47,133.3c-4.81-1.12-9.59,1.35-14.26-.9a.31.31,0,0,0-.36,0c-1.53,1.7-2.43.92-3.92.79-.14,0-.34.13-.13.21.69.28,1.77,1,2.58.84.5-.12,2-1.29,2.32-1,1.13.89,3,.86,4.31.87,3.15,0,6.22-.54,9.38-.39C99.73,133.76,99.82,133.4,99.47,133.3Z" fill="#92162e"/>
      <path d="M105.91,132.6a3.71,3.71,0,0,1-1.75.84,2.59,2.59,0,0,1-1.86-1.13s-.23,0-.18,0a2.62,2.62,0,0,0,2,1.47,2.46,2.46,0,0,0,2.14-1.1C106.38,132.58,106,132.53,105.91,132.6Z" fill="#92162e"/>
      <path d="M113.08,130.71c-.75.27-1.34.71-2.2.26a.64.64,0,0,0-.74.07,2.37,2.37,0,0,1-2.38.86,7.19,7.19,0,0,0-1.55-.17c-.09,0-.29.12-.13.21,1.55.82,3.5,1.09,4.65-.33a2.76,2.76,0,0,0,2.67-.64C113.66,130.79,113.24,130.65,113.08,130.71Z" fill="#92162e"/>
      <path d="M117.88,130.19a11.21,11.21,0,0,1-1.42,0,5,5,0,0,1-1.8-.59c-.11-.06-.39,0-.23.15.91.72,2.53,1.45,3.63.7C118.27,130.3,118,130.2,117.88,130.19Z" fill="#92162e"/>
      <path d="M121.86,128.41a4.46,4.46,0,0,1-1.3.67,2.1,2.1,0,0,1-1.4-.76s-.26-.06-.23,0a1.79,1.79,0,0,0,3.38.21C122.38,128.3,122,128.3,121.86,128.41Z" fill="#92162e"/>
      <path d="M126.33,126.56a5.11,5.11,0,0,1-1.82,1.08,4.58,4.58,0,0,1-2.08-.09c-.14,0-.41.11-.22.25a3.25,3.25,0,0,0,4.51-.88l.11-.18C127,126.49,126.45,126.45,126.33,126.56Z" fill="#92162e"/>
      <path d="M128.38,125.4a12.33,12.33,0,0,0-1.44.57c-.12,0,0,.15.09.13.53-.14,1.07-.26,1.59-.44C129,125.55,128.62,125.3,128.38,125.4Z" fill="#92162e"/>
      <path d="M75.66,118.39A2.22,2.22,0,0,1,73,117c0-.11-.36-.1-.34,0a2.23,2.23,0,0,0,3.11,1.61C76.07,118.55,75.81,118.38,75.66,118.39Z" fill="#92162e"/>
      <path d="M78.13,119.3a1.85,1.85,0,0,1-1.41-1.74c0-.15-.34-.14-.34,0a1.71,1.71,0,0,0,1.46,1.93H78C78.13,119.47,78.38,119.3,78.13,119.3Z" fill="#92162e"/>
      <path d="M82,119.24a12.83,12.83,0,0,1-1.88-1.44c-.06-.07-.33,0-.26.07a3.6,3.6,0,0,0,1.85,1.61C81.91,119.55,82.28,119.42,82,119.24Z" fill="#92162e"/>
      <path d="M86.38,118.9a8.39,8.39,0,0,1-1.95-.66c-.14-.06-.46.1-.25.22a3.8,3.8,0,0,0,2.15.69C86.57,119.13,86.66,118.94,86.38,118.9Z" fill="#92162e"/>
      <path d="M104.61,107a9.75,9.75,0,0,1-1-.13,2.39,2.39,0,0,1-1.06-.77c-.06-.07-.31-.08-.3.06,0,1,1.7,1.62,2.5,1.1C104.88,107.2,104.73,107.06,104.61,107Z" fill="#92162e"/>
      <path d="M106.89,107.07c-.32-.2-.73-.17-1.07-.35a1.55,1.55,0,0,1-.67-1c0-.09-.2-.06-.21,0a1.34,1.34,0,0,0,.44,1.36,1.5,1.5,0,0,0,1.46.27C107,107.3,107,107.16,106.89,107.07Z" fill="#92162e"/>
      <path d="M81.93,105.65a4.44,4.44,0,0,1-1.33-1h-.11a4.45,4.45,0,0,0,1.33,1C81.88,105.76,82,105.7,81.93,105.65Z" fill="#92162e"/>
      <path d="M85.64,105.25a13.73,13.73,0,0,1-1.87-.63c-.08,0-.27.06-.15.13a7.27,7.27,0,0,0,1.87.73C85.66,105.52,85.86,105.3,85.64,105.25Z" fill="#92162e"/>
      <path d="M95.24,97.3a1,1,0,0,1-.75-.47c0-.07-.26,0-.21,0a1,1,0,0,0,.94.53C95.3,97.41,95.38,97.3,95.24,97.3Z" fill="#92162e"/>
      <path d="M94.76,100.07a2.08,2.08,0,0,1-1.87-1.42c0-.13-.39-.11-.37,0a1.87,1.87,0,0,0,2.08,1.64l.16,0C94.94,100.3,94.92,100.11,94.76,100.07Z" fill="#92162e"/>
      <path d="M96.29,100.44a3.92,3.92,0,0,1-1.44-1c-.09-.08-.38,0-.27.11a3,3,0,0,0,1.6,1C96.29,100.64,96.45,100.5,96.29,100.44Z" fill="#92162e"/>
      <path d="M94.38,86.79a10.14,10.14,0,0,1-2-.65c-.08,0-.27,0-.15.1a10.64,10.64,0,0,0,2,.68C94.47,86.95,94.55,86.82,94.38,86.79Z" fill="#92162e"/>
      <path d="M104.59,117.76a7.41,7.41,0,0,1-2.15-.3c-.07,0-.24.06-.13.11a4.19,4.19,0,0,0,2.28.37C104.73,117.93,104.72,117.78,104.59,117.76Z" fill="#92162e"/>
      <path d="M111.51,120.54c-.44-.11-.89-.15-1.33-.27a6.54,6.54,0,0,1-1.41-.62s-.18,0-.14.06a2.73,2.73,0,0,0,2.82,1.15C111.62,120.82,111.74,120.6,111.51,120.54Z" fill="#92162e"/>
      <path d="M120.71,119.3a40.28,40.28,0,0,1-7.12-.42c-.15,0-.36.15-.14.22a18.36,18.36,0,0,0,7.34.58C121.15,119.67,121,119.3,120.71,119.3Z" fill="#92162e"/>
      <path d="M123.58,119c-.72-.1-1.45,0-2.17-.16-.09,0-.21.1-.08.13a6.15,6.15,0,0,0,2.26.18C123.7,119.09,123.69,119,123.58,119Z" fill="#92162e"/>
      <path d="M56.53,114.69A4.49,4.49,0,0,1,54,112.5c0-.09-.28-.07-.24,0A3.66,3.66,0,0,0,56.3,115C56.54,115.1,56.86,114.82,56.53,114.69Z" fill="#92162e"/>
      <path d="M65.19,120.37a3.32,3.32,0,0,1-1.72-1.19c0-.06-.2,0-.16,0a2.59,2.59,0,0,0,.61,1,2.31,2.31,0,0,0,1,.5C65.14,120.74,65.55,120.48,65.19,120.37Z" fill="#92162e"/>
      <path d="M63.48,127.52A22.84,22.84,0,0,0,61.14,126s-.23,0-.21.06a2.7,2.7,0,0,0,2.2,1.9C63.38,128,63.78,127.75,63.48,127.52Z" fill="#92162e"/>
      <path d="M69.38,128.58a2.92,2.92,0,0,1-1.77-.93c-.06-.06-.31,0-.24.07a2.13,2.13,0,0,0,2,1.09C69.55,128.8,69.63,128.6,69.38,128.58Z" fill="#92162e"/>
      <path d="M79.2,133.35a9.49,9.49,0,0,1-2.19-1c-.28-.2-1,.09-.58.38a5,5,0,0,0,2.63,1C79.29,133.74,79.48,133.46,79.2,133.35Z" fill="#92162e"/>
      <path d="M76.8,95.15A4.69,4.69,0,0,1,75,94.09c-.1-.07-.36,0-.37.11a1.26,1.26,0,0,0,.65,1.1,2,2,0,0,0,1.49.27C77.13,95.52,77.09,95.2,76.8,95.15Z" fill="#92162e"/>
      <path d="M81.33,95.23a6.49,6.49,0,0,1-1.67-.94c-.08-.06-.32,0-.23.12a2.76,2.76,0,0,0,1.74,1.09C81.38,95.54,81.58,95.3,81.33,95.23Z" fill="#92162e"/>
      <path d="M89.38,96.65a10.51,10.51,0,0,1-4-.94c-.18-.08-.6.14-.33.28a9.21,9.21,0,0,0,4.36,1.08C89.79,97.07,89.78,96.66,89.38,96.65Z" fill="#92162e"/>
      <path d="M101.38,125.61a3.5,3.5,0,0,1-1.64,0,2.93,2.93,0,0,1-1.41-1.25c0-.06-.21,0-.16,0,.61,1.09,2.08,2.17,3.34,1.37C101.59,125.67,101.38,125.61,101.38,125.61Z" fill="#92162e"/>
      <path d="M104.08,125.6a4.27,4.27,0,0,1-2.25-1c-.08-.07-.35,0-.24.09a3,3,0,0,0,2.49,1C104.22,125.76,104.21,125.62,104.08,125.6Z" fill="#92162e"/>
      <path d="M111,125.36a3.64,3.64,0,0,1-1.57-.19,3.52,3.52,0,0,1-1.1-1c-.06-.08-.35-.08-.33.06s0,.06,0,.09c-.41.1-.82.21-1.23.3a7.1,7.1,0,0,1-1.62,0c-.07,0-.16.07-.08.13a2.81,2.81,0,0,0,3-.18,2.27,2.27,0,0,0,3,1.11l.08,0C111.44,125.52,111.17,125.37,111,125.36Z" fill="#92162e"/>
      <path d="M115.77,123.89c-1-.19-2,0-3-.17-.23,0-.42.23-.12.28a9,9,0,0,0,3.12.16C116,124.12,116,123.93,115.77,123.89Z" fill="#92162e"/>
      <path d="M95.71,130.3a1.44,1.44,0,0,1-.91-.45c-.06,0-.25,0-.17.07a1.66,1.66,0,0,0,1.06.54C95.84,130.45,95.89,130.3,95.71,130.3Z" fill="#92162e"/>
      <path d="M89.93,132.63c-.65-.21-1.35-.22-2-.37-.17,0-.29.16-.08.2.66.15,1.34.2,2,.3C89.94,132.77,90.06,132.67,89.93,132.63Z" fill="#92162e"/>
      <path d="M97.71,116.39a1.93,1.93,0,0,1-1.71-.58c-.07-.07-.29-.06-.26.07.21.91,1.34,1,2.07.75C98,116.56,97.86,116.39,97.71,116.39Z" fill="#92162e"/>
      <path d="M105.87,115.17c-2.38,1.13-5,1.76-7.56.74-.13,0-.43.07-.24.21,2.48,1.87,5.78.87,8.22-.61C106.63,115.3,106.09,115.07,105.87,115.17Z" fill="#92162e"/>
      <path d="M98.77,110.88a6.17,6.17,0,0,0-.9,0c-.33,0-.32.32,0,.34a5.71,5.71,0,0,0,.83,0C98.93,111.16,99,110.9,98.77,110.88Z" fill="#92162e"/>
      <path d="M118.84,107.38a6.58,6.58,0,0,1-1.32-.45c-.1-.07-.44,0-.3.16a1.57,1.57,0,0,0,1.63.57C119,107.6,119,107.45,118.84,107.38Z" fill="#92162e"/>
      <path d="M120.8,107.14a.65.65,0,0,0-.41.06c-.19.08-.17.25,0,.33a.64.64,0,0,0,.41,0C121.14,107.5,121.12,107.2,120.8,107.14Z" fill="#92162e"/>
    </g>
  </g>
  <path d="M152.1,52.59h0S121,96,137.33,124.8a41.9,41.9,0,0,0,9.86-7.82c.38.7.79,1.38,1.22,2a34.94,34.94,0,0,0,5.12,7.87,41.89,41.89,0,0,0,8.13-9.6,30.13,30.13,0,0,0,8.35,7S199.83,85.3,152.1,52.59Z" fill="#c97688"/>
  <path d="M27.11,52.59h0S58.22,96,41.88,124.8A41.9,41.9,0,0,1,32,117c-.38.7-.79,1.38-1.22,2a34.94,34.94,0,0,1-5.12,7.87,41.89,41.89,0,0,1-8.13-9.6,30.13,30.13,0,0,1-8.35,7S-20.62,85.3,27.11,52.59Z" fill="#c97688"/>
  <circle cx="67.22" cy="47.13" r="11.97" fill="#39162e"/>
  <circle cx="112.16" cy="47.13" r="11.97" fill="#39162e"/>
  <circle cx="65.75" cy="43.31" r="5.73" fill="#fff"/>
  <circle cx="113.58" cy="43.31" r="5.73" fill="#fff"/>
</svg>
