<svg id="Layer_1" data-name="Layer 1" xmlns="http://www.w3.org/2000/svg" xmlns:xlink="http://www.w3.org/1999/xlink" width="285.76" height="158.03" viewBox="0 0 285.76 158.03">
  <defs>
    <clipPath id="clip-path">
      <path d="M180.37,131a37.77,37.77,0,0,0,1.34-10c0-21.38-17.8-38.71-39.76-38.71S102.19,99.62,102.19,121a37.81,37.81,0,0,0,1.36,10c11,8.37,24.38,11.22,38.4,11.11C155.62,142.25,169.23,139.39,180.37,131Z" fill="none"/>
    </clipPath>
  </defs>
  <title>owl-green</title>
  <g id="Layer_2" data-name="Layer 2">
    <g id="Objects">
      <path d="M190.36,110.61c-1-.78-4.75-59.6,21.16-70.52s77.15-15,74.11-5S264,62.82,248.53,60s22.58,12.1,10,23.94-18.14,16.58-31.09,5-5.92-1.26-9.25,11.69S202.14,119.49,190.36,110.61Z" fill="#7b8516"/>
      <path d="M95.4,110.61c1-.78,4.75-59.6-21.16-70.52s-77.15-15-74.11-5,16,29,31.52,26.21-17,10.82-4.42,22.7,18.14,16.58,31.09,5,5.92-1.26,9.25,11.69S83.62,119.49,95.4,110.61Z" fill="#7b8516"/>
      <path d="M89.38,99c.8-.6,3.65-45.8-16.26-54.19S13.83,33.27,16.17,41s12.09,17.42,24,15.26S27.33,69.39,37,78.49s15.41,7,25.37-1.92,6.69,4.85,9.25,14.8S80.33,105.8,89.38,99Z" fill="#c1bc16" opacity="0.8" style="isolation: isolate"/>
      <path d="M193.55,99c-.8-.6-3.65-45.8,16.26-54.19s59.29-11.54,57-3.81-12.08,17.42-24,15.26,12.83,13.18,3.16,22.28-15.41,7-25.37-1.92-6.69,4.85-9.25,14.8S202.6,105.8,193.55,99Z" fill="#c1bc16" opacity="0.8" style="isolation: isolate"/>
      <path d="M199.09,1.85C198,1.41,195.59,2.94,193,5.1L194.1,0c-8.26,3.5-14.25,14.16-14.25,14.16h0a113,113,0,0,0-37.91-6.44c-10.57-.14-23.44,1.5-38.38,6.61C102.32,8.36,88.74,0,88.74,0l.66,3.89c-2-1.49-3.69-2.4-4.58-2-3.14,1.2-19.1,86.21,10.72,121.27,12.19,14.32,28.77,18.84,46.46,18.7,17.16.14,34.22-4.38,46.41-18.71C218.18,88.1,202.23,3.09,199.09,1.85Z" fill="#4b520d"/>
      <path d="M133.59,152.23l-4-3.71V138.29a2.5,2.5,0,0,0-5,0h0v9.85a2.26,2.26,0,0,0-.63.52l-3.57,4.26a2.33,2.33,0,0,0,3.56,3h0l1-1.23v1a2.32,2.32,0,0,0,4.64,0h0v-.79l.77.72a2.32,2.32,0,0,0,3.16-3.4Z" fill="#f59a00"/>
      <path d="M163.28,152.23l-4-3.71V138.29a2.5,2.5,0,0,0-5,0h0v9.85a2.26,2.26,0,0,0-.63.52l-3.57,4.26a2.33,2.33,0,0,0,3.56,3l1-1.23v1a2.32,2.32,0,1,0,4.65,0v-.79l.77.72a2.32,2.32,0,1,0,3.16-3.4Z" fill="#f59a00"/>
      <path d="M193.85,11.73l-3.51,1.92L191,11s-2.26,1-8.26,5.43a19.48,19.48,0,0,1-12.22,3.85C147.22,22,142.63,39.9,141.9,43.77a29.69,29.69,0,0,0-6.85-12.94c-4.19-5-11.1-9.72-22.45-10.55a19.48,19.48,0,0,1-12.22-3.85C94.38,12,92.12,11,92.12,11l.68,2.6-3.51-1.92s-16.07,38.52,0,57.11h0a29.75,29.75,0,0,0,52.71-11,29.75,29.75,0,0,0,58.66-5.51C202.95,33.53,193.85,11.73,193.85,11.73Z" fill="#7b8516"/>
      <circle cx="172.39" cy="50.11" r="21.71" fill="#fff"/>
      <circle cx="111.51" cy="50.11" r="21.71" fill="#fff"/>
      <path d="M100.81,56.58v-.69a10.73,10.73,0,1,1,21.46,0v.69h5.18v-.69a15.91,15.91,0,1,0-31.82,0h0v.69Z" fill="#4b520d"/>
      <path d="M161.69,56.58v-.69a10.73,10.73,0,0,1,21.46,0v.69h5.18v-.69a15.91,15.91,0,0,0-31.82,0h0v.69Z" fill="#4b520d"/>
      <polygon points="134.15 59.47 141.95 70.23 141.95 52.07 134.15 59.47" fill="#f7b038"/>
      <polygon points="141.95 52.07 141.95 70.23 149.75 59.47 141.95 52.07" fill="#f59a00"/>
      <path d="M180.37,131a37.77,37.77,0,0,0,1.34-10c0-21.38-17.8-38.71-39.76-38.71S102.19,99.62,102.19,121a37.81,37.81,0,0,0,1.36,10c11,8.37,24.38,11.22,38.4,11.11C155.62,142.25,169.23,139.39,180.37,131Z" fill="#fff"/>
      <path d="M180.37,131a37.77,37.77,0,0,0,1.34-10c0-21.38-17.8-38.71-39.76-38.71S102.19,99.62,102.19,121a37.81,37.81,0,0,0,1.36,10c11,8.37,24.38,11.22,38.4,11.11C155.62,142.25,169.23,139.39,180.37,131Z" fill="#7b8516" opacity="0.8" style="isolation: isolate"/>
      <g clip-path="url(#clip-path)">
        <g>
          <polygon points="123.04 96.72 115 96.72 119.11 100.83 123.04 96.72" fill="#7b8516"/>
          <polygon points="132.03 96.72 123.98 96.72 128.09 100.83 132.03 96.72" fill="#7b8516"/>
          <polygon points="141.01 96.72 132.97 96.72 137.08 100.83 141.01 96.72" fill="#7b8516"/>
          <polygon points="149.99 96.72 141.95 96.72 146.06 100.83 149.99 96.72" fill="#7b8516"/>
          <polygon points="158.97 96.72 150.93 96.72 155.04 100.83 158.97 96.72" fill="#7b8516"/>
          <polygon points="167.96 96.72 159.92 96.72 164.02 100.83 167.96 96.72" fill="#7b8516"/>
          <polygon points="176.94 96.72 168.9 96.72 173.01 100.83 176.94 96.72" fill="#7b8516"/>
          <polygon points="114.06 96.72 106.02 96.72 110.13 100.83 114.06 96.72" fill="#7b8516"/>
          <polygon points="127.53 91.35 119.5 91.35 123.6 95.46 127.53 91.35" fill="#7b8516"/>
          <polygon points="136.51 91.35 128.48 91.35 132.58 95.46 136.51 91.35" fill="#7b8516"/>
          <polygon points="145.5 91.35 137.46 91.35 141.57 95.46 145.5 91.35" fill="#7b8516"/>
          <polygon points="154.48 91.35 146.44 91.35 150.55 95.46 154.48 91.35" fill="#7b8516"/>
          <polygon points="163.46 91.35 155.42 91.35 159.53 95.46 163.46 91.35" fill="#7b8516"/>
          <polygon points="172.45 91.35 164.41 91.35 168.51 95.46 172.45 91.35" fill="#7b8516"/>
          <polygon points="118.55 91.35 110.51 91.35 114.62 95.46 118.55 91.35" fill="#7b8516"/>
          <polygon points="190.41 91.35 182.37 91.35 186.48 95.46 190.41 91.35" fill="#7b8516"/>
          <polygon points="118.55 80.61 110.51 80.61 114.62 84.71 118.55 80.61" fill="#7b8516"/>
          <polygon points="127.53 80.61 119.5 80.61 123.6 84.71 127.53 80.61" fill="#7b8516"/>
          <polygon points="136.52 80.61 128.48 80.61 132.58 84.71 136.52 80.61" fill="#7b8516"/>
          <polygon points="145.5 80.61 137.46 80.61 141.57 84.71 145.5 80.61" fill="#7b8516"/>
          <polygon points="154.48 80.61 146.44 80.61 150.55 84.71 154.48 80.61" fill="#7b8516"/>
          <polygon points="163.46 80.61 155.43 80.61 159.53 84.71 163.46 80.61" fill="#7b8516"/>
          <polygon points="172.45 80.61 164.41 80.61 168.51 84.71 172.45 80.61" fill="#7b8516"/>
          <polygon points="109.57 80.61 101.53 80.61 105.64 84.71 109.57 80.61" fill="#7b8516"/>
          <polygon points="190.41 80.61 182.37 80.61 186.48 84.71 190.41 80.61" fill="#7b8516"/>
          <polygon points="181.43 80.61 173.39 80.61 177.5 84.71 181.43 80.61" fill="#7b8516"/>
          <polygon points="123.04 85.98 115 85.98 119.11 90.09 123.04 85.98" fill="#7b8516"/>
          <polygon points="132.03 85.98 123.98 85.98 128.09 90.09 132.03 85.98" fill="#7b8516"/>
          <polygon points="141.01 85.98 132.97 85.98 137.08 90.09 141.01 85.98" fill="#7b8516"/>
          <polygon points="149.99 85.98 141.95 85.98 146.06 90.09 149.99 85.98" fill="#7b8516"/>
          <polygon points="158.97 85.98 150.93 85.98 155.04 90.09 158.97 85.98" fill="#7b8516"/>
          <polygon points="167.96 85.98 159.92 85.98 164.02 90.09 167.96 85.98" fill="#7b8516"/>
          <polygon points="114.06 85.98 106.02 85.98 110.13 90.09 114.06 85.98" fill="#7b8516"/>
          <polygon points="194.9 85.98 186.86 85.98 190.97 90.09 194.9 85.98" fill="#007e97"/>
          <polygon points="185.92 85.98 177.88 85.98 181.99 90.09 185.92 85.98" fill="#7b8516"/>
          <polygon points="122.57 118.22 114.53 118.22 118.64 122.33 122.57 118.22" fill="#7b8516"/>
          <polygon points="131.55 118.22 123.51 118.22 127.62 122.33 131.55 118.22" fill="#7b8516"/>
          <polygon points="140.53 118.22 132.5 118.22 136.6 122.33 140.53 118.22" fill="#7b8516"/>
          <polygon points="149.52 118.22 141.48 118.22 145.59 122.33 149.52 118.22" fill="#7b8516"/>
          <polygon points="158.5 118.22 150.46 118.22 154.57 122.33 158.5 118.22" fill="#7b8516"/>
          <polygon points="167.48 118.22 159.44 118.22 163.55 122.33 167.48 118.22" fill="#7b8516"/>
          <polygon points="176.47 118.22 168.43 118.22 172.53 122.33 176.47 118.22" fill="#7b8516"/>
          <polygon points="113.59 118.22 105.55 118.22 109.66 122.33 113.59 118.22" fill="#7b8516"/>
          <polygon points="104.6 118.22 96.56 118.22 100.67 122.33 104.6 118.22" fill="#7b8516"/>
          <polygon points="194.43 118.22 186.39 118.22 190.5 122.33 194.43 118.22" fill="#007e97"/>
          <polygon points="185.45 118.22 177.41 118.22 181.52 122.33 185.45 118.22" fill="#7b8516"/>
          <polygon points="100.58 112.84 92.55 112.84 96.65 116.95 100.58 112.84" fill="#7b8516"/>
          <polygon points="127.06 112.84 119.02 112.84 123.13 116.95 127.06 112.84" fill="#7b8516"/>
          <polygon points="136.04 112.84 128 112.84 132.11 116.95 136.04 112.84" fill="#7b8516"/>
          <polygon points="145.03 112.84 136.99 112.84 141.1 116.95 145.03 112.84" fill="#7b8516"/>
          <polygon points="154.01 112.84 145.97 112.84 150.08 116.95 154.01 112.84" fill="#7b8516"/>
          <polygon points="162.99 112.84 154.95 112.84 159.06 116.95 162.99 112.84" fill="#7b8516"/>
          <polygon points="171.97 112.84 163.94 112.84 168.04 116.95 171.97 112.84" fill="#7b8516"/>
          <polygon points="180.96 112.84 172.92 112.84 177.03 116.95 180.96 112.84" fill="#7b8516"/>
          <polygon points="118.08 112.84 110.04 112.84 114.15 116.95 118.08 112.84" fill="#7b8516"/>
          <polygon points="109.1 112.84 101.06 112.84 105.17 116.95 109.1 112.84" fill="#7b8516"/>
          <polygon points="189.94 112.84 181.9 112.84 186.01 116.95 189.94 112.84" fill="#7b8516"/>
          <polygon points="100.11 102.1 92.08 102.1 96.18 106.2 100.11 102.1" fill="#7b8516"/>
          <polygon points="118.08 102.1 110.04 102.1 114.15 106.2 118.08 102.1" fill="#7b8516"/>
          <polygon points="127.06 102.1 119.02 102.1 123.13 106.2 127.06 102.1" fill="#7b8516"/>
          <polygon points="136.04 102.1 128 102.1 132.11 106.2 136.04 102.1" fill="#7b8516"/>
          <polygon points="145.03 102.1 136.99 102.1 141.09 106.2 145.03 102.1" fill="#7b8516"/>
          <polygon points="154.01 102.1 145.97 102.1 150.08 106.2 154.01 102.1" fill="#7b8516"/>
          <polygon points="162.99 102.1 154.95 102.1 159.06 106.2 162.99 102.1" fill="#7b8516"/>
          <polygon points="171.97 102.1 163.94 102.1 168.04 106.2 171.97 102.1" fill="#7b8516"/>
          <polygon points="109.1 102.1 101.06 102.1 105.17 106.2 109.1 102.1" fill="#7b8516"/>
          <polygon points="180.96 102.1 172.92 102.1 177.03 106.2 180.96 102.1" fill="#7b8516"/>
          <polygon points="122.57 107.47 114.53 107.47 118.64 111.58 122.57 107.47" fill="#7b8516"/>
          <polygon points="131.55 107.47 123.51 107.47 127.62 111.58 131.55 107.47" fill="#7b8516"/>
          <polygon points="140.53 107.47 132.5 107.47 136.6 111.58 140.53 107.47" fill="#7b8516"/>
          <polygon points="149.52 107.47 141.48 107.47 145.59 111.58 149.52 107.47" fill="#7b8516"/>
          <polygon points="158.5 107.47 150.46 107.47 154.57 111.58 158.5 107.47" fill="#7b8516"/>
          <polygon points="167.48 107.47 159.44 107.47 163.55 111.58 167.48 107.47" fill="#7b8516"/>
          <polygon points="176.47 107.47 168.43 107.47 172.53 111.58 176.47 107.47" fill="#7b8516"/>
          <polygon points="113.59 107.47 105.55 107.47 109.66 111.58 113.59 107.47" fill="#7b8516"/>
          <polygon points="104.6 107.47 96.56 107.47 100.67 111.58 104.6 107.47" fill="#7b8516"/>
          <polygon points="194.43 107.47 186.39 107.47 190.5 111.58 194.43 107.47" fill="#007e97"/>
          <polygon points="185.45 107.47 177.41 107.47 181.52 111.58 185.45 107.47" fill="#7b8516"/>
          <polygon points="113.59 139.71 105.55 139.71 109.66 143.82 113.59 139.71" fill="#7b8516"/>
          <polygon points="122.57 139.71 114.53 139.71 118.64 143.82 122.57 139.71" fill="#7b8516"/>
          <polygon points="131.55 139.71 123.51 139.71 127.62 143.82 131.55 139.71" fill="#7b8516"/>
          <polygon points="140.53 139.71 132.5 139.71 136.6 143.82 140.53 139.71" fill="#7b8516"/>
          <polygon points="149.52 139.71 141.48 139.71 145.59 143.82 149.52 139.71" fill="#7b8516"/>
          <polygon points="158.5 139.71 150.46 139.71 154.57 143.82 158.5 139.71" fill="#7b8516"/>
          <polygon points="167.48 139.71 159.44 139.71 163.55 143.82 167.48 139.71" fill="#7b8516"/>
          <polygon points="176.47 139.71 168.43 139.71 172.53 143.82 176.47 139.71" fill="#7b8516"/>
          <polygon points="189.47 134.34 181.43 134.34 185.54 138.44 189.47 134.34" fill="#7b8516"/>
          <polygon points="118.08 134.34 110.04 134.34 114.15 138.44 118.08 134.34" fill="#7b8516"/>
          <polygon points="127.06 134.34 119.02 134.34 123.13 138.44 127.06 134.34" fill="#7b8516"/>
          <polygon points="136.04 134.34 128 134.34 132.11 138.44 136.04 134.34" fill="#7b8516"/>
          <polygon points="145.03 134.34 136.99 134.34 141.1 138.44 145.03 134.34" fill="#7b8516"/>
          <polygon points="154.01 134.34 145.97 134.34 150.08 138.44 154.01 134.34" fill="#7b8516"/>
          <polygon points="162.99 134.34 154.95 134.34 159.06 138.44 162.99 134.34" fill="#7b8516"/>
          <polygon points="171.97 134.34 163.94 134.34 168.04 138.44 171.97 134.34" fill="#7b8516"/>
          <polygon points="109.1 134.34 101.06 134.34 105.17 138.44 109.1 134.34" fill="#7b8516"/>
          <polygon points="100.11 134.34 92.08 134.34 96.18 138.44 100.11 134.34" fill="#7b8516"/>
          <polygon points="180.96 134.34 172.92 134.34 177.03 138.44 180.96 134.34" fill="#7b8516"/>
          <polygon points="189.74 123.59 181.7 123.59 185.8 127.7 189.74 123.59" fill="#7b8516"/>
          <polygon points="109.1 123.59 101.06 123.59 105.17 127.7 109.1 123.59" fill="#7b8516"/>
          <polygon points="118.08 123.59 110.04 123.59 114.15 127.7 118.08 123.59" fill="#7b8516"/>
          <polygon points="127.06 123.59 119.02 123.59 123.13 127.7 127.06 123.59" fill="#7b8516"/>
          <polygon points="136.04 123.59 128 123.59 132.11 127.7 136.04 123.59" fill="#7b8516"/>
          <polygon points="145.03 123.59 136.99 123.59 141.1 127.7 145.03 123.59" fill="#7b8516"/>
          <polygon points="154.01 123.59 145.97 123.59 150.08 127.7 154.01 123.59" fill="#7b8516"/>
          <polygon points="162.99 123.59 154.95 123.59 159.06 127.7 162.99 123.59" fill="#7b8516"/>
          <polygon points="100.11 123.59 92.08 123.59 96.18 127.7 100.11 123.59" fill="#7b8516"/>
          <polygon points="180.96 123.59 172.92 123.59 177.03 127.7 180.96 123.59" fill="#7b8516"/>
          <polygon points="171.97 123.59 163.94 123.59 168.04 127.7 171.97 123.59" fill="#7b8516"/>
          <polygon points="113.59 128.96 105.55 128.96 109.66 133.07 113.59 128.96" fill="#7b8516"/>
          <polygon points="122.57 128.96 114.53 128.96 118.64 133.07 122.57 128.96" fill="#7b8516"/>
          <polygon points="131.55 128.96 123.51 128.96 127.62 133.07 131.55 128.96" fill="#7b8516"/>
          <polygon points="140.53 128.96 132.5 128.96 136.6 133.07 140.53 128.96" fill="#7b8516"/>
          <polygon points="149.52 128.96 141.48 128.96 145.59 133.07 149.52 128.96" fill="#7b8516"/>
          <polygon points="158.5 128.96 150.46 128.96 154.57 133.07 158.5 128.96" fill="#7b8516"/>
          <polygon points="167.48 128.96 159.44 128.96 163.55 133.07 167.48 128.96" fill="#7b8516"/>
          <polygon points="104.61 128.96 96.57 128.96 100.67 133.07 104.61 128.96" fill="#7b8516"/>
          <polygon points="193.96 128.96 185.92 128.96 190.03 133.07 193.96 128.96" fill="#007e97"/>
          <polygon points="185.45 128.96 177.41 128.96 181.52 133.07 185.45 128.96" fill="#7b8516"/>
          <polygon points="176.47 128.96 168.43 128.96 172.53 133.07 176.47 128.96" fill="#7b8516"/>
        </g>
      </g>
    </g>
  </g>
</svg>
