<svg id="Layer_1" data-name="Layer 1" xmlns="http://www.w3.org/2000/svg" viewBox="0 0 64.17 44.73"><title>dinersclub</title><path d="M35.09,25.93c7.09,0,13.56-5.78,13.56-12.85C48.65,5.35,42.18,0,35.09,0H29A12.79,12.79,0,0,0,15.91,12.49q0,.29,0,.59A13,13,0,0,0,29,25.93Z" fill="#004a97"/><path d="M31.71,20V6a7.52,7.52,0,0,1,0,14M21.5,13a7.54,7.54,0,0,1,4.83-7V20a7.53,7.53,0,0,1-4.83-7M29,1.1A11.87,11.87,0,1,0,40.89,13h0A11.87,11.87,0,0,0,29,1.1" fill="#fff"/><path d="M2.65,34.8A1.15,1.15,0,0,0,4.08,36C7.08,36,8,33.75,8,31.7a4.12,4.12,0,0,0-3.82-4.4H3.72a4.74,4.74,0,0,0-1.07.06V34.8ZM1.31,28.37c0-1.23-.64-1.15-1.26-1.16V26.8H4c3.55,0,5.48,2.37,5.48,4.8,0,1.36-.8,4.77-5.65,4.77H0V36c.82-.08,1.22-.11,1.26-1V28.36Z" fill="#004a97"/><path d="M11.47,28a.68.68,0,1,1,.67-.69.69.69,0,0,1-.67.69M10,36h.26c.38,0,.66,0,.66-.45V31.86a.9.9,0,0,0-.71-1v-.22c.64-.19,1.41-.45,1.47-.49a.47.47,0,0,1,.25-.07c.07,0,.1.08.1.19v5.26c0,.45.3.45.69.45H13v.36H10V36Z" fill="#004a97"/><path d="M14.24,31.95c0-.51-.15-.64-.79-.9V30.8a18.26,18.26,0,0,0,1.81-.66s.08,0,.08.14v.89a4,4,0,0,1,2.37-1c1.16,0,1.58.85,1.58,1.92v3.54c0,.45.3.45.69.45h.25v.36H17.3v-.36h.25c.38,0,.66,0,.66-.45V32.08a1.1,1.1,0,0,0-1-1.18h-.25a3.65,3.65,0,0,0-1.59.66v4.06c0,.45.3.45.69.45h.25v.36H13.37v-.36h.25c.38,0,.66,0,.66-.45V32Z" fill="#004a97"/><path d="M23.68,32.17a.31.31,0,0,0,.38-.34A1.16,1.16,0,0,0,23,30.57h-.13a1.65,1.65,0,0,0-1.58,1.6h2.39Zm-2.43.44a3.45,3.45,0,0,0,0,.79,2.29,2.29,0,0,0,2,2.37,2.63,2.63,0,0,0,1.85-.92l.19.19a3.21,3.21,0,0,1-2.53,1.56c-2.18,0-2.62-2.11-2.62-3,0-2.69,1.81-3.48,2.77-3.48a2.18,2.18,0,0,1,2.32,2s0,.08,0,.11a1.74,1.74,0,0,1,0,.25l-.12.08H21.25Z" fill="#004a97"/><path d="M25.56,36h.37c.38,0,.66,0,.66-.45V31.74a.86.86,0,0,0-.71-.62v-.21c1-.43,1.55-.78,1.67-.78s.12,0,.12.18v1.23h0a2.46,2.46,0,0,1,1.75-1.41.75.75,0,0,1,.78.72h0a.67.67,0,0,1-.64.7h0c-.42,0-.42-.33-.9-.33a1.16,1.16,0,0,0-1,1.14v3.22c0,.45.27.45.66.45h.77v.36H25.54V36Z" fill="#004a97"/><path d="M30.84,34.49a1.81,1.81,0,0,0,1.73,1.67,1,1,0,0,0,1.11-1c0-1.62-3-1.1-3-3.3a1.88,1.88,0,0,1,2-1.76h.14a3.61,3.61,0,0,1,1.56.4l.1,1.4h-.31a1.41,1.41,0,0,0-1.47-1.35h0a1,1,0,0,0-1.07.9c0,1.6,3.18,1.11,3.18,3.26,0,.91-.73,1.86-2.36,1.86a3.61,3.61,0,0,1-1.67-.46l-.15-1.58Z" fill="#004a97"/><path d="M47.15,29.31h-.39a2.61,2.61,0,0,0-2.93-2.25h0c-1.58,0-3.87,1-3.87,4.35,0,2.77,2,4.76,4.08,4.76A2.79,2.79,0,0,0,46.8,33.8l.31.08-.31,2a7.69,7.69,0,0,1-3,.73,4.88,4.88,0,0,1-5.23-5.15,5,5,0,0,1,5.16-4.83h0a9.9,9.9,0,0,1,3.24.73Z" fill="#004a97"/><path d="M47.65,36h.26c.39,0,.66,0,.66-.45V28c0-.89-.21-.92-.73-1.07v-.22a8.58,8.58,0,0,0,1.41-.59,1.39,1.39,0,0,1,.3-.15c.08,0,.11.08.11.19v9.47c0,.45.3.45.69.45h.23v.36H47.65Z" fill="#004a97"/><path d="M56.45,35.64c0,.25.15.26.38.26h.55v.29a14.22,14.22,0,0,0-2,.42h-.07V35.5a3.69,3.69,0,0,1-2.43,1.15A1.48,1.48,0,0,1,51.37,35V31.51c0-.36,0-.7-.82-.77v-.26c.49,0,1.59-.1,1.77-.1s.15.1.15.4v3.54a1.31,1.31,0,0,0,1,1.56l.19,0a3.07,3.07,0,0,0,1.66-.83V31.39c0-.27-.66-.42-1.15-.56v-.25c1.23-.08,2-.19,2.14-.19s.11.1.11.25V35.7Z" fill="#004a97"/><path d="M59.17,34.8a1.47,1.47,0,0,0,1.41,1.4c1.47,0,2.08-1.44,2.08-2.66a2.61,2.61,0,0,0-2.19-2.71,2.11,2.11,0,0,0-1.3.65Zm0-3.73a3.46,3.46,0,0,1,2-1,2.67,2.67,0,0,1,2.56,2.78s0,.07,0,.1a3.46,3.46,0,0,1-3.28,3.59,4,4,0,0,1-1.9-.48l-.41.31-.29-.15A16.1,16.1,0,0,0,58,33.78V27.89c0-.89-.21-.92-.73-1.07V26.6A8.56,8.56,0,0,0,58.71,26a1.38,1.38,0,0,1,.3-.15c.08,0,.11.08.11.19v5Z" fill="#004a97"/><path d="M0,44.37H.14c.27,0,.55,0,.55-.43V40c0-.39-.28-.43-.55-.43H0v-.22H2.31v.22h-.1c-.27,0-.55,0-.55.43v3.91c0,.39.29.43.55.43h.1v.22H0Z" fill="#004a97"/><path d="M7.43,43.12V40.31a.62.62,0,0,0-.53-.7H6.62v-.22H8.54v.22H8.43c-.31,0-.67.06-.67,1V44a4.89,4.89,0,0,0,0,.75H7.48L3.76,40.42v3.07c0,.65.13.87.7.87h.13v.22h-2v-.22h.1c.52,0,.67-.35.67-1V40.27a.67.67,0,0,0-.67-.67H2.58v-.22H4.1Z" fill="#004a97"/><path d="M9.76,39.8c-.56,0-.58.13-.69.68H8.76c0-.21.07-.42.09-.63a4.69,4.69,0,0,0,0-.63H9a.36.36,0,0,0,.45.22h3.85c.2,0,.39,0,.4-.23h.18c0,.2-.06.4-.08.6s0,.4,0,.6l-.22.08a.6.6,0,0,0-.47-.71h-1.3v4a.52.52,0,0,0,.62.64h.14v.22H10.12v-.22h.14c.41,0,.62,0,.62-.63v-4H9.76Z" fill="#004a97"/><path d="M14.23,44.37h.1c.27,0,.55,0,.55-.43V40c0-.39-.28-.43-.55-.43h-.1v-.22H18v1.14l-.22.06a.77.77,0,0,0-.91-.87h-1v2h.9c.45,0,.54-.25.59-.66h.22v1.72h-.22c0-.45-.07-.74-.58-.74h-.89V43.8c0,.49.43.49.91.49.9,0,1.29-.06,1.52-.91l.21,0c-.1.4-.19.79-.25,1.19h-4V44.4Z" fill="#004a97"/><path d="M20.43,41.9h.33A1.14,1.14,0,0,0,21,39.65H20.4v2.22Zm-1-1.73a.46.46,0,0,0-.53-.57h-.13v-.22h2.36c.94,0,1.77.25,1.77,1.31a1.41,1.41,0,0,1-1,1.31l1.27,1.91a.83.83,0,0,0,.72.45v.22H22.46a20.75,20.75,0,0,1-1.55-2.42h-.49V43.8a.49.49,0,0,0,.61.6h.13v.22H18.8V44.4h.13a.45.45,0,0,0,.52-.36V40.21Z" fill="#004a97"/><path d="M29,43.12V40.31a.62.62,0,0,0-.53-.7h-.28v-.22h1.92v.22H30c-.31,0-.66.06-.66,1V44a5,5,0,0,0,0,.75H29l-3.84-4.28v3.07c0,.65.13.87.7.87H26v.22H24v-.22h.1c.52,0,.67-.35.67-1V40.27a.67.67,0,0,0-.67-.67H24v-.22h1.52Z" fill="#004a97"/><path d="M32.42,40.22h0l-.66,2.11h1.39Zm-1.09,3.3a2.89,2.89,0,0,0-.17.58c0,.22.31.26.56.26h.08v.22H30.09v-.22h0a.68.68,0,0,0,.65-.49l1.19-3.42a6,6,0,0,0,.28-.93,3.79,3.79,0,0,0,.68-.32H33l.07.19,1.37,3.9c.09.26.18.54.27.76a.48.48,0,0,0,.49.3h0v.22H33.08v-.22h.08c.17,0,.46,0,.46-.22a2.31,2.31,0,0,0-.15-.54l-.29-.86H31.49Z" fill="#004a97"/><path d="M35.64,39.8c-.56,0-.58.13-.69.68h-.19c0-.21.07-.42.09-.63a4.53,4.53,0,0,0,0-.63H35a.36.36,0,0,0,.45.22h3.85c.2,0,.39,0,.4-.23h.18c0,.2-.06.4-.08.6s0,.4,0,.6l-.22.08a.6.6,0,0,0-.47-.71h-1.3v4a.52.52,0,0,0,.62.64h.14v.22H36.12v-.22h.14c.41,0,.62,0,.62-.63v-4H35.66Z" fill="#004a97"/><path d="M40.19,44.37h.1c.27,0,.55,0,.55-.43V40c0-.39-.28-.43-.55-.43h-.1v-.22h2.27v.22h-.1c-.27,0-.55,0-.55.43v3.91c0,.39.28.43.55.43h.1v.22H40.18v-.22Z" fill="#004a97"/><path d="M45.55,44.37c1.45,0,1.7-1.28,1.7-2.36s-.59-2.41-1.83-2.41-1.66,1.2-1.66,2.2c0,1.34.61,2.61,1.82,2.61m-.11-5.1a2.62,2.62,0,0,1,2.85,2.37q0,.1,0,.2a2.73,2.73,0,0,1-2.6,2.86h-.22a2.64,2.64,0,0,1-2.79-2.49q0-.1,0-.19a2.71,2.71,0,0,1,2.67-2.75h.08" fill="#004a97"/><path d="M53.32,43.12h0v-2.8a.62.62,0,0,0-.53-.7h-.28V39.4h1.92v.22h-.11c-.31,0-.66.06-.66,1V44a4.66,4.66,0,0,0,0,.75h-.28l-3.84-4.28V43.5c0,.65.13.87.7.87h.13v.22h-2v-.22h.11c.52,0,.67-.35.67-1V40.28a.67.67,0,0,0-.67-.67h-.11v-.22h1.52Z" fill="#004a97"/><path d="M56.76,40.22h0l-.7,2.11h1.4Zm-1.09,3.3a3.07,3.07,0,0,0-.16.58c0,.22.31.26.56.26h.08v.22h-1.7v-.22h0a.67.67,0,0,0,.65-.49l1.19-3.42a5.92,5.92,0,0,0,.27-.93,3.88,3.88,0,0,0,.68-.32h.06l.07.19,1.37,3.9c.09.26.18.54.28.76a.47.47,0,0,0,.49.3h0v.22H57.39v-.22h.08c.17,0,.46,0,.46-.22a2.35,2.35,0,0,0-.15-.54l-.29-.86H55.8Z" fill="#004a97"/><path d="M61.54,43.86a.41.41,0,0,0,.4.42H62a5.32,5.32,0,0,0,1,0,1.06,1.06,0,0,0,.72-.4,1.69,1.69,0,0,0,.23-.54h.22c-.08.43-.19.84-.28,1.27h-4v-.22H60a.46.46,0,0,0,.56-.5V40.06c0-.39-.29-.43-.56-.43h-.1v-.22h2.31v.22H62c-.28,0-.51,0-.51.4v3.85Z" fill="#004a97"/></svg>