<svg id="Layer_1" data-name="Layer 1" xmlns="http://www.w3.org/2000/svg" viewBox="0 0 100.08 45.35">
    <defs>
        <radialGradient id="radial-gradient" cx="418.44" cy="27.64" r="6.18"
                        gradientTransform="matrix(1, 0, 0, -1, -379.54, 33.8)" gradientUnits="userSpaceOnUse">
            <stop offset="0.01" stop-color="#ffeee0"/>
            <stop offset="0.11" stop-color="#fee9d7"/>
            <stop offset="0.28" stop-color="#fddbbf"/>
            <stop offset="0.49" stop-color="#fbc597"/>
            <stop offset="0.74" stop-color="#f8a560"/>
            <stop offset="1" stop-color="#f48120"/>
        </radialGradient>
    </defs>
    <title>discover</title>
    <path d="M9.13,45.35H95.9a4.18,4.18,0,0,0,4.18-4.18V11.82C91.76,17.1,60.36,35.3,9.13,45.35Z" fill="#f58220"/>
    <path d="M38.9,0a6.15,6.15,0,0,0-6.26,6,6.25,6.25,0,1,0,6.49-6Z" fill="url(#radial-gradient)"/>
    <path d="M3.37.27H0V12H3.39a6.13,6.13,0,0,0,4.19-1.35A5.91,5.91,0,0,0,9.71,6.15C9.67,2.72,7,.27,3.37.27ZM6,9.09A4.34,4.34,0,0,1,2.91,10H2.29V2.26h.62A4.25,4.25,0,0,1,6,3.21,3.94,3.94,0,0,1,7.31,6.13,4,4,0,0,1,6,9.08Z"
          fill="#001722"/>
    <rect x="10.72" y="0.26" width="2.29" height="11.74" fill="#001722"/>
    <path d="M18.61,4.72c-1.37-.51-1.78-.84-1.78-1.48A1.5,1.5,0,0,1,18.5,1.93h0a2.38,2.38,0,0,1,1.85,1l1.2-1.56A5.13,5.13,0,0,0,18.14,0a3.45,3.45,0,0,0-3.65,3.23s0,.08,0,.13c0,1.62.74,2.45,2.89,3.22A9,9,0,0,1,19,7.28a1.41,1.41,0,0,1,.69,1.21A1.67,1.67,0,0,1,18,10.14h-.09a2.7,2.7,0,0,1-2.5-1.56L13.88,10a4.56,4.56,0,0,0,4.06,2.23,3.79,3.79,0,0,0,4-3.57q0-.14,0-.29C22,6.57,21.21,5.72,18.61,4.72Z"
          fill="#001722"/>
    <path d="M22.71,6.14a6.08,6.08,0,0,0,6,6.13h.17a6.3,6.3,0,0,0,2.87-.69V8.89A3.66,3.66,0,0,1,29,10.17a3.84,3.84,0,0,1-3.94-3.74q0-.13,0-.26a3.9,3.9,0,0,1,3.8-4h0a3.84,3.84,0,0,1,2.87,1.32V.72A5.84,5.84,0,0,0,29,0a6.17,6.17,0,0,0-6.25,6.09Z"
          fill="#001722"/>
    <polygon points="50.32 8.15 47.19 0.26 44.69 0.26 49.67 12.3 50.9 12.3 55.97 0.26 53.49 0.26 50.32 8.15"
             fill="#001722"/>
    <polygon
            points="57.01 12 63.51 12 63.51 10.01 59.3 10.01 59.3 6.84 63.35 6.84 63.35 4.86 59.3 4.86 59.3 2.25 63.51 2.25 63.51 0.26 57.01 0.26 57.01 12"
            fill="#001722"/>
    <path d="M72.57,3.72c0-2.2-1.51-3.46-4.15-3.46H65V12h2.29V7.28h.3L70.8,12h2.82l-3.7-5A3.12,3.12,0,0,0,72.57,3.72ZM68,5.66h-.67V2.1H68c1.43,0,2.2.6,2.2,1.74S69.44,5.67,68,5.67Z"
          fill="#001722"/>
    <path d="M74.19,1.14a.32.32,0,0,0-.31-.33h-.41v1h.25v-.4l.29.4h.31L74,1.39A.28.28,0,0,0,74.19,1.14Zm-.43.14h0V1h0c.12,0,.18,0,.18.13s-.07.14-.19.14Z"
          fill="#231f20"/>
    <path d="M73.84.43a.9.9,0,1,0,.89.91h0A.9.9,0,0,0,73.84.43Zm0,1.64a.74.74,0,1,1,.71-.77v0a.73.73,0,0,1-.71.75h0Z"
          fill="#231f20"/>
</svg>