<svg id="Layer_1" data-name="Layer 1" xmlns="http://www.w3.org/2000/svg" viewBox="0 0 44.05 44.78"><title>jcb</title><path d="M43.86,25c.15,4.57.31,9.29.08,13.94a6.3,6.3,0,0,1-3,4.64,9,9,0,0,1-4.57,1l-6-.08V5.79A6.56,6.56,0,0,1,35,.31,84.09,84.09,0,0,1,43.8,0L44,2V24l-.08.08v1Z" fill="#00a551"/><path d="M0,23.61V5.33A6.64,6.64,0,0,1,4,.61C7-.3,10.4.23,13.44.15c.15,3,0,6.7.08,9.29l.15,23.83c-.38,3.66,1,8.61-3.58,10.66-2.89,1.45-6.78.53-10,.84L0,44.24V23.61Z" fill="#0071bb"/><path d="M0,24.37a6.63,6.63,0,0,0,4.91,2.89c2.51.23,5.79.46,7.46-1.9,1.14-1.22.46-2.89.69-4.49L13,18c-1.45-.3-2.74,0-4.42-.08C7.76,21,10,24.51,6.39,26.1a3.94,3.94,0,0,1-2.89-.46c-1.37-.3-.61-2.51-2.44-1.9L0,23.59v.78Z" fill="#fff"/><path d="M28.7,2.67l.08,37.08A6.73,6.73,0,0,1,25,44.09c-2.89,1-6.47.53-9.67.53L15.15,5.56a6,6,0,0,1,3-4.42,7.68,7.68,0,0,1,4-1.07h6.47Z" fill="#ec1c24"/><path d="M28.1,18a7.69,7.69,0,0,1,.08,1.37c-2.28-.61-5.1-1.29-7.16.38a3.79,3.79,0,0,0,1.22,6.24c2,.61,4,.08,5.86-.38a2.2,2.2,0,0,1,0,1.22H19.34a4.53,4.53,0,0,1-3.43-2.66,4.69,4.69,0,0,1,.76-4.64,4.44,4.44,0,0,1,3.65-1.6Z" fill="#fff"/><path d="M43.86,25a2.55,2.55,0,0,1-2,1.91H31.29l-.38-.15c0-3-.08-5.94.08-8.91h6.78c2.13.23,4.49-.69,5.48,1.3a2,2,0,0,1-.31,2.13c-.3.53-1,.61-1.14,1a3.15,3.15,0,0,1,2.06,1.75v1Zm-9.14-6.24a7.38,7.38,0,0,0-.08,2.89c1.6-.07,3.66.53,4.72-.68a1.51,1.51,0,0,0-.08-1.6C38.07,18.35,36.24,19,34.72,18.81ZM38.83,23a20.06,20.06,0,0,0-4.26-.08A14.15,14.15,0,0,0,34.72,26c1.52,0,3.2.23,4.57-.46a1.62,1.62,0,0,0,.46-1.52,1.59,1.59,0,0,0-.92-1.1Z" fill="#fff"/></svg>