<svg id="Layer_1" data-name="Layer 1" xmlns="http://www.w3.org/2000/svg" viewBox="0 0 75.19 45.01"><title>mastercard</title><polygon points="52.65 45.01 53.81 44.98 54.96 44.89 56.08 44.75 57.2 44.55 58.28 44.3 59.35 44 60.4 43.64 61.42 43.24 62.43 42.78 63.4 42.29 64.34 41.74 65.26 41.16 66.14 40.53 66.99 39.86 67.81 39.15 68.59 38.4 69.34 37.62 70.05 36.8 70.72 35.95 71.35 35.07 71.93 34.15 72.48 33.21 72.97 32.24 73.43 31.24 73.83 30.21 74.18 29.16 74.49 28.09 74.74 27.01 74.94 25.89 75.08 24.77 75.16 23.62 75.19 22.46 75.16 21.31 75.08 20.17 74.94 19.05 74.74 17.94 74.49 16.86 74.18 15.8 73.83 14.75 73.43 13.73 72.97 12.74 72.48 11.77 71.93 10.83 71.35 9.91 70.72 9.03 70.05 8.19 69.34 7.37 68.59 6.59 67.81 5.84 66.99 5.14 66.14 4.47 65.26 3.84 64.34 3.26 63.4 2.72 62.43 2.23 61.42 1.77 60.4 1.37 59.35 1.01 58.28 0.71 57.2 0.46 56.08 0.26 54.96 0.12 53.81 0.03 52.65 0 51.49 0.03 50.35 0.12 49.23 0.26 48.12 0.46 47.03 0.71 45.96 1.01 44.92 1.37 43.9 1.77 42.9 2.23 41.94 2.72 41 3.26 40.09 3.84 39.21 4.47 38.36 5.14 37.54 5.84 36.76 6.59 36.02 7.37 35.31 8.19 34.64 9.03 34.02 9.91 33.44 10.83 32.9 11.77 32.4 12.74 31.95 13.73 31.55 14.75 31.2 15.8 30.89 16.86 30.64 17.94 30.45 19.05 30.3 20.17 30.22 21.31 30.19 22.46 30.22 23.62 30.3 24.77 30.45 25.89 30.64 27.01 30.89 28.09 31.2 29.16 31.55 30.21 31.95 31.24 32.4 32.24 32.9 33.21 33.44 34.15 34.02 35.07 34.64 35.95 35.31 36.8 36.02 37.62 36.76 38.4 37.54 39.15 38.36 39.86 39.21 40.53 40.09 41.16 41 41.74 41.94 42.29 42.9 42.78 43.9 43.24 44.92 43.64 45.96 44 47.03 44.3 48.12 44.55 49.23 44.75 50.35 44.89 51.49 44.98 52.65 45.01 52.65 45.01 52.65 45.01" fill="#fbb231"/><polygon points="22.55 45.01 23.7 44.98 24.84 44.89 25.97 44.75 27.08 44.55 28.16 44.3 29.23 44 30.27 43.64 31.3 43.24 32.29 42.78 33.26 42.29 34.2 41.74 35.11 41.16 35.99 40.53 36.84 39.86 37.65 39.15 38.43 38.4 39.18 37.62 39.88 36.8 40.55 35.95 41.17 35.07 41.76 34.15 42.3 33.21 42.8 32.24 43.24 31.24 43.65 30.21 44 29.16 44.3 28.09 44.55 27.01 44.75 25.89 44.89 24.77 44.98 23.62 45.01 22.46 44.98 21.31 44.89 20.17 44.75 19.05 44.55 17.94 44.3 16.86 44 15.8 43.65 14.75 43.24 13.73 42.8 12.74 42.3 11.77 41.76 10.83 41.17 9.91 40.55 9.03 39.88 8.19 39.18 7.37 38.43 6.59 37.65 5.84 36.84 5.14 35.99 4.47 35.11 3.84 34.2 3.26 33.26 2.72 32.29 2.23 31.3 1.77 30.27 1.37 29.23 1.01 28.16 0.71 27.08 0.46 25.97 0.26 24.84 0.12 23.7 0.03 22.55 0 21.38 0.03 20.24 0.12 19.11 0.26 18 0.46 16.91 0.71 15.84 1.01 14.79 1.37 13.77 1.77 12.77 2.23 11.8 2.72 10.86 3.26 9.94 3.84 9.05 4.47 8.21 5.14 7.39 5.84 6.61 6.59 5.85 7.37 5.15 8.19 4.48 9.03 3.85 9.91 3.27 10.83 2.72 11.77 2.23 12.74 1.77 13.73 1.37 14.75 1.01 15.8 0.71 16.86 0.46 17.94 0.26 19.05 0.11 20.17 0.03 21.31 0 22.46 0.03 23.62 0.11 24.77 0.26 25.89 0.46 27.01 0.71 28.09 1.01 29.16 1.37 30.21 1.77 31.24 2.23 32.24 2.72 33.21 3.27 34.15 3.85 35.07 4.48 35.95 5.15 36.8 5.85 37.62 6.61 38.4 7.39 39.15 8.21 39.86 9.05 40.53 9.94 41.16 10.86 41.74 11.8 42.29 12.77 42.78 13.77 43.24 14.79 43.64 15.84 44 16.91 44.3 18 44.55 19.11 44.75 20.24 44.89 21.38 44.98 22.55 45.01 22.55 45.01 22.55 45.01" fill="#ec1c2e"/><polygon points="34.96 8.63 46.92 8.63 46.92 7.41 36 7.41 34.96 8.63 34.96 8.63 34.96 8.63" fill="#fbb231"/><polygon points="33.17 11.35 46.92 11.35 46.92 10.13 33.89 10.13 33.17 11.35 33.17 11.35 33.17 11.35" fill="#fbb231"/><polygon points="31.84 14.06 46.92 14.06 46.92 12.84 32.37 12.84 31.84 14.06 31.84 14.06 31.84 14.06" fill="#fbb231"/><polygon points="30.92 16.78 46.92 16.78 46.92 15.55 31.3 15.55 30.92 16.78 30.92 16.78 30.92 16.78" fill="#fbb231"/><polygon points="31.45 29.91 46.96 29.91 46.96 28.69 31.07 28.69 31.45 29.91 31.45 29.91 31.45 29.91" fill="#fbb231"/><polygon points="32.59 32.63 46.96 32.63 46.96 31.4 32.02 31.4 32.59 32.63 32.59 32.63 32.59 32.63" fill="#fbb231"/><polygon points="34.2 35.34 46.96 35.34 46.96 34.11 33.44 34.11 34.2 35.34 34.2 35.34 34.2 35.34" fill="#fbb231"/><polygon points="36.42 38.05 46.96 38.05 46.96 36.82 35.35 36.82 36.42 38.05 36.42 38.05 36.42 38.05" fill="#fbb231"/><polygon points="30.38 19.49 46.92 19.49 46.92 18.26 30.61 18.26 30.38 19.49 30.38 19.49 30.38 19.49" fill="#fbb231"/><polygon points="40.46 27.2 46.77 27.2 46.77 25.98 40.69 25.98 40.46 27.2 40.46 27.2 40.46 27.2" fill="#fbb231"/><polygon points="40.96 24.49 46.77 24.49 46.77 23.26 41.19 23.26 40.96 24.49 40.96 24.49 40.96 24.49" fill="#fbb231"/><polygon points="29.96 23.26 31.6 23.26 31.6 24.49 30.04 24.49 29.96 23.26 29.96 23.26 29.96 23.26" fill="#fbb231"/><polygon points="26.9 21.78 26.8 21.77 26.69 21.75 26.59 21.74 26.49 21.73 26.4 21.71 26.3 21.7 26.2 21.68 26.1 21.66 25.99 21.65 25.87 21.64 25.73 21.63 25.59 21.63 25.43 21.63 25.25 21.63 25.06 21.65 24.84 21.66 24.69 21.69 24.54 21.71 24.41 21.75 24.3 21.8 24.19 21.85 24.09 21.91 24.02 21.99 23.95 22.06 23.9 22.14 23.87 22.23 23.85 22.32 23.85 22.41 23.87 22.51 23.9 22.61 23.96 22.7 24.04 22.8 24.19 22.95 24.38 23.06 24.59 23.16 24.81 23.24 25.06 23.32 25.31 23.4 25.56 23.5 25.8 23.59 26.03 23.72 26.24 23.88 26.43 24.07 26.59 24.31 26.71 24.59 26.79 24.94 26.82 25.35 26.79 25.82 26.73 26.18 26.64 26.49 26.52 26.78 26.37 27.03 26.2 27.25 26 27.44 25.79 27.61 25.55 27.75 25.31 27.87 25.06 27.96 24.8 28.04 24.53 28.1 24.27 28.15 24.03 28.17 23.77 28.19 23.54 28.19 23.21 28.19 22.91 28.19 22.64 28.19 22.39 28.18 22.16 28.17 21.96 28.15 21.78 28.14 21.6 28.12 21.44 28.1 21.3 28.07 21.16 28.05 21.03 28.01 20.9 27.98 20.78 27.93 20.65 27.89 20.52 27.84 20.87 26.17 20.93 26.18 21.02 26.2 21.13 26.23 21.25 26.27 21.39 26.3 21.54 26.32 21.71 26.36 21.89 26.39 22.08 26.42 22.28 26.45 22.48 26.48 22.7 26.5 22.91 26.51 23.14 26.52 23.36 26.52 23.58 26.51 23.8 26.46 23.97 26.4 24.11 26.32 24.21 26.21 24.29 26.11 24.35 25.98 24.39 25.86 24.42 25.75 24.44 25.53 24.37 25.34 24.24 25.19 24.05 25.06 23.82 24.94 23.55 24.83 23.26 24.72 22.96 24.6 22.66 24.47 22.37 24.31 22.11 24.11 21.86 23.87 21.67 23.58 21.54 23.24 21.47 22.83 21.47 22.35 21.51 22.05 21.57 21.77 21.64 21.51 21.73 21.27 21.85 21.04 21.99 20.84 22.15 20.65 22.34 20.49 22.56 20.34 22.8 20.22 23.08 20.11 23.38 20.02 23.72 19.96 24.09 19.9 24.5 19.87 24.95 19.86 25.23 19.86 25.49 19.87 25.73 19.88 25.94 19.89 26.13 19.9 26.3 19.92 26.45 19.93 26.59 19.95 26.72 19.96 26.83 19.99 26.92 20 27.02 20.02 27.09 20.03 27.16 20.04 27.23 20.06 27.29 20.06 26.9 21.78 26.9 21.78 26.9 21.78" fill="#fff"/><polyline points="26.9 21.78 26.9 21.78 26.8 21.77 26.69 21.75 26.59 21.74 26.49 21.73 26.4 21.71 26.3 21.7 26.2 21.68 26.1 21.66 25.99 21.65 25.87 21.64 25.73 21.63 25.59 21.63 25.43 21.63 25.25 21.63 25.06 21.65 24.84 21.66 24.84 21.66 24.69 21.69 24.54 21.71 24.41 21.75 24.3 21.8 24.19 21.85 24.09 21.91 24.02 21.99 23.95 22.06 23.9 22.14 23.87 22.23 23.85 22.32 23.85 22.41 23.87 22.51 23.9 22.61 23.96 22.7 24.04 22.8 24.04 22.8 24.19 22.95 24.38 23.06 24.59 23.16 24.81 23.24 25.06 23.32 25.31 23.4 25.56 23.5 25.8 23.59 26.03 23.72 26.24 23.88 26.43 24.07 26.59 24.31 26.71 24.59 26.79 24.94 26.82 25.35 26.79 25.82 26.79 25.82 26.73 26.18 26.64 26.49 26.52 26.78 26.37 27.03 26.2 27.25 26 27.44 25.79 27.61 25.55 27.75 25.31 27.87 25.06 27.96 24.8 28.04 24.53 28.1 24.27 28.15 24.03 28.17 23.77 28.19 23.54 28.19 23.54 28.19 23.21 28.19 22.91 28.19 22.64 28.19 22.39 28.18 22.16 28.17 21.96 28.15 21.78 28.14 21.6 28.12 21.44 28.1 21.3 28.07 21.16 28.05 21.03 28.01 20.9 27.98 20.78 27.93 20.65 27.89 20.52 27.84 20.87 26.17 20.87 26.17 20.93 26.18 21.02 26.2 21.13 26.23 21.25 26.27 21.39 26.3 21.54 26.32 21.71 26.36 21.89 26.39 22.08 26.42 22.28 26.45 22.48 26.48 22.7 26.5 22.91 26.51 23.14 26.52 23.36 26.52 23.58 26.51 23.58 26.51 23.8 26.46 23.97 26.4 24.11 26.32 24.21 26.21 24.29 26.11 24.35 25.98 24.39 25.86 24.42 25.75 24.42 25.75 24.44 25.53 24.37 25.34 24.24 25.19 24.05 25.06 23.82 24.94 23.55 24.83 23.26 24.72 22.96 24.6 22.66 24.47 22.37 24.31 22.11 24.11 21.86 23.87 21.67 23.58 21.54 23.24 21.47 22.83 21.47 22.35 21.47 22.35 21.51 22.05 21.57 21.77 21.64 21.51 21.73 21.27 21.85 21.04 21.99 20.84 22.15 20.65 22.34 20.49 22.56 20.34 22.8 20.22 23.08 20.11 23.38 20.02 23.72 19.96 24.09 19.9 24.5 19.87 24.95 19.86 24.95 19.86 25.23 19.86 25.49 19.87 25.73 19.88 25.94 19.89 26.13 19.9 26.3 19.92 26.45 19.93 26.59 19.95 26.72 19.96 26.83 19.99 26.92 20 27.02 20.02 27.09 20.03 27.16 20.04 27.23 20.06 27.29 20.06 26.9 21.78" fill="none" stroke="#fff" stroke-miterlimit="2.61" stroke-width="0.22"/><polygon points="28.7 18.19 30.8 18.19 30.49 20.02 31.76 20.02 31.49 21.74 30.15 21.7 29.42 25.94 29.41 26.09 29.45 26.22 29.53 26.32 29.63 26.4 29.76 26.45 29.91 26.5 30.08 26.53 30.27 26.55 30.43 26.54 30.58 26.52 30.72 26.5 30.84 26.47 30.94 26.44 31.01 26.42 31.05 26.4 31.07 26.39 30.8 27.81 30.75 27.84 30.7 27.87 30.64 27.9 30.59 27.93 30.54 27.96 30.48 27.98 30.41 28 30.34 28.02 30.27 28.05 30.19 28.06 30.1 28.08 30.01 28.09 29.91 28.11 29.79 28.13 29.67 28.14 29.54 28.15 28.96 28.15 28.66 28.13 28.4 28.1 28.16 28.06 27.95 28 27.77 27.93 27.63 27.86 27.5 27.77 27.4 27.67 27.33 27.56 27.27 27.43 27.24 27.3 27.21 27.16 27.2 27 27.2 26.83 27.23 26.66 27.25 26.47 28.7 18.19 28.7 18.19 28.7 18.19" fill="#fff"/><polyline points="28.7 18.19 30.8 18.19 30.49 20.02 31.76 20.02 31.49 21.74 30.15 21.7 29.42 25.94 29.42 25.94 29.41 26.09 29.45 26.22 29.53 26.32 29.63 26.4 29.76 26.45 29.91 26.5 30.08 26.53 30.27 26.55 30.27 26.55 30.43 26.54 30.58 26.52 30.72 26.5 30.84 26.47 30.94 26.44 31.01 26.42 31.05 26.4 31.07 26.39 30.8 27.81 30.8 27.81 30.75 27.84 30.7 27.87 30.64 27.9 30.59 27.93 30.54 27.96 30.48 27.98 30.41 28 30.34 28.02 30.27 28.05 30.19 28.06 30.1 28.08 30.01 28.09 29.91 28.11 29.79 28.13 29.67 28.14 29.54 28.15 28.96 28.15 28.96 28.15 28.66 28.13 28.4 28.1 28.16 28.06 27.95 28 27.77 27.93 27.63 27.86 27.5 27.77 27.4 27.67 27.33 27.56 27.27 27.43 27.24 27.3 27.21 27.16 27.2 27 27.2 26.83 27.23 26.66 27.25 26.47 28.7 18.19" fill="none" stroke="#fff" stroke-miterlimit="2.61" stroke-width="0.22"/><polyline points="33.44 24.6 33.44 24.6 33.41 24.73 33.41 24.87 33.42 25.01 33.45 25.16 33.51 25.3 33.57 25.44 33.65 25.58 33.74 25.71 33.85 25.84 33.96 25.95 34.08 26.07 34.22 26.16 34.36 26.24 34.51 26.31 34.66 26.36 34.81 26.39 34.81 26.39 35.01 26.42 35.2 26.45 35.4 26.47 35.59 26.48 35.79 26.49 36 26.49 36.19 26.48 36.4 26.47 36.6 26.44 36.81 26.4 37.02 26.36 37.23 26.29 37.44 26.2 37.66 26.11 37.87 25.99 38.09 25.86 37.79 27.73 37.79 27.73 37.66 27.79 37.54 27.85 37.42 27.9 37.31 27.94 37.2 27.98 37.07 28.02 36.95 28.05 36.82 28.07 36.69 28.09 36.53 28.11 36.38 28.13 36.2 28.14 36 28.15 35.8 28.15 35.56 28.15 35.31 28.15 35.31 28.15 34.94 28.15 34.56 28.11 34.18 28.06 33.8 27.96 33.43 27.85 33.07 27.71 32.73 27.52 32.41 27.3 32.12 27.04 31.86 26.73 31.64 26.38 31.45 25.98 31.33 25.53 31.25 25.02 31.22 24.46 31.26 23.84 31.26 23.84 31.29 23.59 31.33 23.31 31.4 23.02 31.48 22.7 31.59 22.37 31.73 22.04 31.9 21.71 32.12 21.39 32.36 21.09 32.66 20.8 32.99 20.54 33.37 20.31 33.81 20.12 34.3 19.99 34.85 19.9 35.46 19.86 35.46 19.86 35.76 19.87 36.07 19.9 36.38 19.96 36.7 20.03 37 20.15 37.29 20.28 37.57 20.46 37.82 20.68 38.05 20.94 38.23 21.24 38.39 21.59 38.49 21.99 38.55 22.45 38.56 22.96 38.51 23.54 38.39 24.18 38.36 24.64 32.82 24.64 33.17 23.14 36.5 23.14 36.5 23.14 36.51 22.95 36.5 22.77 36.49 22.61 36.46 22.45 36.41 22.31 36.35 22.18 36.28 22.07 36.2 21.96 36.11 21.87 36.01 21.79 35.9 21.73 35.78 21.66 35.66 21.62 35.54 21.59 35.41 21.57 35.27 21.55 35.27 21.55 35.13 21.56 34.99 21.58 34.87 21.61 34.74 21.66 34.61 21.72 34.49 21.79 34.38 21.87 34.28 21.96 34.18 22.07 34.09 22.18 34.01 22.3 33.94 22.43 33.87 22.57 33.82 22.72 33.77 22.87 33.74 23.03 33.44 24.6" fill="none" stroke="#fff" stroke-miterlimit="2.61" stroke-width="0.22"/><polygon points="51.54 20.48 51.44 20.43 51.34 20.38 51.24 20.33 51.12 20.27 51.01 20.23 50.88 20.18 50.75 20.14 50.62 20.09 50.47 20.06 50.33 20.02 50.17 20 50.01 19.97 49.83 19.96 49.66 19.94 49.48 19.94 49.29 19.94 49.1 19.94 48.9 19.96 48.69 19.98 48.48 20.02 48.27 20.08 48.06 20.16 47.84 20.27 47.63 20.4 47.43 20.57 47.23 20.77 47.04 21.01 46.86 21.29 46.69 21.63 46.53 22 46.39 22.43 46.27 22.92 46.22 23.19 46.19 23.45 46.17 23.72 46.18 23.98 46.2 24.24 46.26 24.48 46.33 24.71 46.41 24.94 46.52 25.14 46.66 25.34 46.82 25.51 47 25.67 47.21 25.81 47.44 25.92 47.7 26.02 47.99 26.09 48.09 26.11 48.2 26.14 48.34 26.15 48.49 26.17 48.66 26.18 48.83 26.18 49.02 26.18 49.21 26.17 49.41 26.14 49.61 26.11 49.8 26.05 49.98 25.99 50.17 25.91 50.35 25.81 50.51 25.69 50.66 25.55 50.32 27.58 50.27 27.62 50.23 27.66 50.17 27.71 50.1 27.76 50.02 27.82 49.91 27.87 49.79 27.93 49.65 27.97 49.48 28.02 49.28 28.06 49.05 28.09 48.79 28.13 48.49 28.14 48.15 28.15 47.76 28.14 47.34 28.12 46.99 28.08 46.64 28 46.29 27.89 45.94 27.74 45.6 27.56 45.29 27.33 44.98 27.06 44.7 26.76 44.45 26.42 44.24 26.04 44.06 25.61 43.92 25.15 43.83 24.64 43.8 24.1 43.81 23.51 43.9 22.88 43.96 22.57 44.03 22.27 44.1 21.97 44.18 21.69 44.26 21.42 44.36 21.16 44.46 20.91 44.56 20.67 44.68 20.43 44.79 20.21 44.92 20 45.06 19.8 45.2 19.61 45.35 19.43 45.5 19.27 45.66 19.11 45.83 18.95 46.01 18.81 46.19 18.68 46.38 18.56 46.59 18.45 46.79 18.35 47 18.26 47.22 18.17 47.46 18.1 47.69 18.04 47.94 17.98 48.2 17.94 48.45 17.9 48.73 17.87 49 17.86 49.29 17.85 49.53 17.86 49.77 17.87 49.99 17.89 50.22 17.92 50.43 17.95 50.64 18 50.84 18.04 51.02 18.08 51.19 18.13 51.34 18.17 51.49 18.22 51.61 18.26 51.72 18.3 51.81 18.33 51.88 18.36 51.92 18.38 51.54 20.48 51.54 20.48 51.54 20.48" fill="#fff"/><polyline points="51.54 20.48 51.54 20.48 51.44 20.43 51.34 20.38 51.24 20.33 51.12 20.27 51.01 20.23 50.88 20.18 50.75 20.14 50.62 20.09 50.47 20.06 50.33 20.02 50.17 20 50.01 19.97 49.83 19.96 49.66 19.94 49.48 19.94 49.29 19.94 49.29 19.94 49.1 19.94 48.9 19.96 48.69 19.98 48.48 20.02 48.27 20.08 48.06 20.16 47.84 20.27 47.63 20.4 47.43 20.57 47.23 20.77 47.04 21.01 46.86 21.29 46.69 21.63 46.53 22 46.39 22.43 46.27 22.92 46.27 22.92 46.22 23.19 46.19 23.45 46.17 23.72 46.18 23.98 46.2 24.24 46.26 24.48 46.33 24.71 46.41 24.94 46.52 25.14 46.66 25.34 46.82 25.51 47 25.67 47.21 25.81 47.44 25.92 47.7 26.02 47.99 26.09 47.99 26.09 48.09 26.11 48.2 26.14 48.34 26.15 48.49 26.17 48.66 26.18 48.83 26.18 49.02 26.18 49.21 26.17 49.41 26.14 49.61 26.11 49.8 26.05 49.98 25.99 50.17 25.91 50.35 25.81 50.51 25.69 50.66 25.55 50.32 27.58 50.32 27.58 50.27 27.62 50.23 27.66 50.17 27.71 50.1 27.76 50.02 27.82 49.91 27.87 49.79 27.93 49.65 27.97 49.48 28.02 49.28 28.06 49.05 28.09 48.79 28.13 48.49 28.14 48.15 28.15 47.76 28.14 47.34 28.12 47.34 28.12 46.99 28.08 46.64 28 46.29 27.89 45.94 27.74 45.6 27.56 45.29 27.33 44.98 27.06 44.7 26.76 44.45 26.42 44.24 26.04 44.06 25.61 43.92 25.15 43.83 24.64 43.8 24.1 43.81 23.51 43.9 22.88 43.9 22.88 43.96 22.57 44.03 22.27 44.1 21.97 44.18 21.69 44.26 21.42 44.36 21.16 44.46 20.91 44.56 20.67 44.68 20.43 44.79 20.21 44.92 20 45.06 19.8 45.2 19.61 45.35 19.43 45.5 19.27 45.66 19.11 45.83 18.95 46.01 18.81 46.19 18.68 46.38 18.56 46.59 18.45 46.79 18.35 47 18.26 47.22 18.17 47.46 18.1 47.69 18.04 47.94 17.98 48.2 17.94 48.45 17.9 48.73 17.87 49 17.86 49.29 17.85 49.29 17.85 49.53 17.86 49.77 17.87 49.99 17.89 50.22 17.92 50.43 17.95 50.64 18 50.84 18.04 51.02 18.08 51.19 18.13 51.34 18.17 51.49 18.22 51.61 18.26 51.72 18.3 51.81 18.33 51.88 18.36 51.92 18.38 51.54 20.48" fill="none" stroke="#fff" stroke-miterlimit="2.61" stroke-width="0.22"/><polygon points="70.23 28.15 68.13 28.15 68.28 27.31 68.28 27.24 68.16 27.39 68.03 27.52 67.9 27.65 67.76 27.75 67.63 27.85 67.49 27.93 67.35 28 67.21 28.07 67.06 28.13 66.92 28.16 66.78 28.2 66.62 28.22 66.47 28.25 66.33 28.26 66.18 28.27 66.03 28.27 65.63 28.24 65.27 28.15 64.93 28.02 64.63 27.85 64.36 27.63 64.11 27.37 63.9 27.09 63.72 26.77 63.57 26.43 63.44 26.07 63.36 25.7 63.3 25.32 63.28 24.93 63.28 24.53 63.32 24.15 63.39 23.76 63.5 23.31 63.64 22.89 63.8 22.5 63.99 22.14 64.19 21.79 64.42 21.49 64.65 21.22 64.9 20.97 65.17 20.75 65.45 20.56 65.74 20.39 66.03 20.26 66.33 20.15 66.63 20.09 66.93 20.04 67.25 20.02 67.47 20.03 67.68 20.06 67.88 20.09 68.06 20.15 68.23 20.21 68.39 20.27 68.54 20.36 68.67 20.44 68.8 20.53 68.91 20.63 69.01 20.73 69.1 20.83 69.17 20.93 69.24 21.03 69.31 21.12 69.35 21.21 69.35 21.21 69.88 18.23 71.94 18.23 70.23 28.15 70.23 28.15 70.23 28.15" fill="#fff"/><polyline points="70.23 28.15 68.13 28.15 68.28 27.31 68.28 27.24 68.28 27.24 68.16 27.39 68.03 27.52 67.9 27.65 67.76 27.75 67.63 27.85 67.49 27.93 67.35 28 67.21 28.07 67.06 28.13 66.92 28.16 66.78 28.2 66.62 28.22 66.47 28.25 66.33 28.26 66.18 28.27 66.03 28.27 66.03 28.27 65.63 28.24 65.27 28.15 64.93 28.02 64.63 27.85 64.36 27.63 64.11 27.37 63.9 27.09 63.72 26.77 63.57 26.43 63.44 26.07 63.36 25.7 63.3 25.32 63.28 24.93 63.28 24.53 63.32 24.15 63.39 23.76 63.39 23.76 63.5 23.31 63.64 22.89 63.8 22.5 63.99 22.14 64.19 21.79 64.42 21.49 64.65 21.22 64.9 20.97 65.17 20.75 65.45 20.56 65.74 20.39 66.03 20.26 66.33 20.15 66.63 20.09 66.93 20.04 67.25 20.02 67.25 20.02 67.47 20.03 67.68 20.06 67.88 20.09 68.06 20.15 68.23 20.21 68.39 20.27 68.54 20.36 68.67 20.44 68.8 20.53 68.91 20.63 69.01 20.73 69.1 20.83 69.17 20.93 69.24 21.03 69.31 21.12 69.35 21.21 69.35 21.21 69.88 18.23 71.94 18.23 70.23 28.15" fill="none" stroke="#fff" stroke-miterlimit="2.61" stroke-width="0.22"/><polygon points="66.79 26.32 67 26.3 67.2 26.26 67.38 26.2 67.56 26.12 67.72 26.03 67.87 25.91 68.01 25.79 68.14 25.65 68.26 25.5 68.36 25.33 68.46 25.16 68.55 24.98 68.62 24.78 68.68 24.59 68.73 24.38 68.77 24.18 68.81 23.96 68.83 23.75 68.83 23.54 68.83 23.33 68.8 23.13 68.77 22.94 68.72 22.76 68.66 22.58 68.58 22.43 68.49 22.29 68.39 22.16 68.28 22.06 68.15 21.97 68.01 21.91 67.87 21.87 67.71 21.85 67.5 21.87 67.31 21.9 67.14 21.96 66.97 22.04 66.81 22.14 66.66 22.26 66.53 22.39 66.4 22.53 66.29 22.7 66.18 22.87 66.08 23.05 66 23.25 65.93 23.45 65.87 23.66 65.81 23.88 65.76 24.1 65.72 24.44 65.74 24.8 65.79 25.17 65.89 25.53 66.04 25.84 66.24 26.09 66.49 26.26 66.79 26.32 66.79 26.32 66.79 26.32" fill="#fbb231"/><polygon points="20.18 26.47 19.87 28.15 17.96 28.15 18.01 27.84 18.05 27.56 18.08 27.35 18.11 27.24 18.01 27.36 17.88 27.48 17.74 27.59 17.58 27.7 17.4 27.81 17.21 27.9 17.01 27.99 16.81 28.06 16.58 28.13 16.37 28.19 16.14 28.23 15.92 28.26 15.7 28.28 15.48 28.28 15.27 28.26 15.06 28.23 14.79 28.16 14.55 28.09 14.34 27.99 14.15 27.87 13.98 27.75 13.83 27.62 13.71 27.47 13.6 27.32 13.51 27.16 13.44 26.99 13.38 26.83 13.33 26.66 13.3 26.48 13.28 26.31 13.26 26.14 13.26 25.98 13.28 25.68 13.33 25.4 13.41 25.13 13.5 24.88 13.63 24.63 13.76 24.41 13.92 24.2 14.1 24.01 14.29 23.84 14.51 23.68 14.73 23.53 14.95 23.41 15.2 23.3 15.45 23.22 15.71 23.15 15.97 23.11 15.99 23.11 16.02 23.1 16.08 23.09 16.16 23.08 16.25 23.07 16.36 23.06 16.47 23.05 16.6 23.03 16.73 23.02 16.86 23 17 22.99 17.12 22.98 17.24 22.97 17.35 22.96 17.46 22.95 17.54 22.95 17.72 22.95 17.9 22.96 18.07 22.97 18.23 22.97 18.37 22.98 18.48 22.98 18.55 22.99 18.57 22.99 18.59 22.94 18.64 22.8 18.67 22.64 18.69 22.5 18.66 22.33 18.59 22.18 18.5 22.04 18.38 21.93 18.23 21.83 18.07 21.76 17.89 21.72 17.69 21.7 17.48 21.7 17.25 21.69 17.02 21.69 16.78 21.7 16.52 21.71 16.28 21.73 16.04 21.75 15.8 21.79 15.58 21.82 15.36 21.85 15.16 21.89 14.98 21.93 14.81 21.98 14.67 22.02 14.57 22.07 14.48 22.12 15.02 20.29 15.19 20.22 15.36 20.16 15.54 20.11 15.72 20.07 15.9 20.03 16.1 20 16.3 19.97 16.5 19.96 16.71 19.94 16.93 19.93 17.16 19.93 17.4 19.93 17.64 19.93 17.89 19.93 18.16 19.93 18.42 19.94 18.64 19.96 18.86 20 19.1 20.05 19.34 20.12 19.58 20.21 19.8 20.31 20.03 20.44 20.25 20.59 20.43 20.75 20.6 20.94 20.75 21.14 20.87 21.37 20.94 21.61 20.99 21.87 20.99 22.16 20.94 22.46 20.18 26.47 20.18 26.47 20.18 26.47" fill="#fff"/><polyline points="20.18 26.47 19.87 28.15 17.96 28.15 17.96 28.15 18.01 27.84 18.05 27.56 18.08 27.35 18.11 27.24 18.11 27.24 18.01 27.36 17.88 27.48 17.74 27.59 17.58 27.7 17.4 27.81 17.21 27.9 17.01 27.99 16.81 28.06 16.58 28.13 16.37 28.19 16.14 28.23 15.92 28.26 15.7 28.28 15.48 28.28 15.27 28.26 15.06 28.23 15.06 28.23 14.79 28.16 14.55 28.09 14.34 27.99 14.15 27.87 13.98 27.75 13.83 27.62 13.71 27.47 13.6 27.32 13.51 27.16 13.44 26.99 13.38 26.83 13.33 26.66 13.3 26.48 13.28 26.31 13.26 26.14 13.26 25.98 13.26 25.98 13.28 25.68 13.33 25.4 13.41 25.13 13.5 24.88 13.63 24.63 13.76 24.41 13.92 24.2 14.1 24.01 14.29 23.84 14.51 23.68 14.73 23.53 14.95 23.41 15.2 23.3 15.45 23.22 15.71 23.15 15.97 23.11 15.97 23.11 15.99 23.11 16.02 23.1 16.08 23.09 16.16 23.08 16.25 23.07 16.36 23.06 16.47 23.05 16.6 23.03 16.73 23.02 16.86 23 17 22.99 17.12 22.98 17.24 22.97 17.35 22.96 17.46 22.95 17.54 22.95 17.54 22.95 17.72 22.95 17.9 22.96 18.07 22.97 18.23 22.97 18.37 22.98 18.48 22.98 18.55 22.99 18.57 22.99 18.57 22.99 18.59 22.94 18.64 22.8 18.67 22.64 18.69 22.5 18.69 22.5 18.66 22.33 18.59 22.18 18.5 22.04 18.38 21.93 18.23 21.83 18.07 21.76 17.89 21.72 17.69 21.7 17.69 21.7 17.48 21.7 17.25 21.69 17.02 21.69 16.78 21.7 16.52 21.71 16.28 21.73 16.04 21.75 15.8 21.79 15.58 21.82 15.36 21.85 15.16 21.89 14.98 21.93 14.81 21.98 14.67 22.02 14.57 22.07 14.48 22.12 15.02 20.29 15.02 20.29 15.19 20.22 15.36 20.16 15.54 20.11 15.72 20.07 15.9 20.03 16.1 20 16.3 19.97 16.5 19.96 16.71 19.94 16.93 19.93 17.16 19.93 17.4 19.93 17.64 19.93 17.89 19.93 18.16 19.93 18.42 19.94 18.42 19.94 18.64 19.96 18.86 20 19.1 20.05 19.34 20.12 19.58 20.21 19.8 20.31 20.03 20.44 20.25 20.59 20.43 20.75 20.6 20.94 20.75 21.14 20.87 21.37 20.94 21.61 20.99 21.87 20.99 22.16 20.94 22.46 20.18 26.47" fill="none" stroke="#fff" stroke-miterlimit="2.61" stroke-width="0.22"/><polygon points="18.35 24.49 18.34 24.45 18.31 24.41 18.26 24.39 18.19 24.38 18.1 24.36 18.01 24.35 17.89 24.35 17.78 24.35 17.66 24.36 17.53 24.38 17.41 24.39 17.28 24.41 17.17 24.42 17.06 24.44 16.97 24.47 16.89 24.49 16.84 24.5 16.78 24.53 16.69 24.56 16.61 24.59 16.51 24.64 16.41 24.69 16.3 24.75 16.21 24.81 16.1 24.88 16 24.96 15.91 25.05 15.83 25.14 15.75 25.24 15.7 25.35 15.65 25.47 15.63 25.59 15.62 25.85 15.66 26.05 15.74 26.2 15.83 26.32 15.95 26.39 16.08 26.44 16.2 26.46 16.32 26.47 16.55 26.46 16.75 26.44 16.95 26.41 17.13 26.36 17.28 26.31 17.42 26.24 17.55 26.17 17.66 26.09 17.76 26.01 17.85 25.92 17.93 25.84 17.99 25.75 18.04 25.66 18.09 25.57 18.13 25.48 18.15 25.4 18.21 25.18 18.26 24.93 18.31 24.69 18.35 24.49 18.35 24.49 18.35 24.49" fill="#ec1c2e"/><polygon points="4.2 28.15 2.14 28.15 3.86 18.19 7.45 18.19 7.8 24.1 10.28 18.19 14.03 18.19 12.27 28.15 10.2 28.15 11.51 20.71 11.43 20.71 8.33 28.15 6 28.15 5.99 27.84 5.94 27.02 5.87 25.84 5.79 24.49 5.71 23.13 5.65 21.94 5.59 21.07 5.58 20.71 5.56 20.71 5.51 20.71 5.47 20.71 5.47 20.71 4.2 28.15 4.2 28.15 4.2 28.15" fill="#fff"/><polyline points="4.2 28.15 2.14 28.15 3.86 18.19 7.45 18.19 7.8 24.1 10.28 18.19 14.03 18.19 12.27 28.15 10.2 28.15 11.51 20.71 11.43 20.71 8.33 28.15 6 28.15 6 28.15 5.99 27.84 5.94 27.02 5.87 25.84 5.79 24.49 5.71 23.13 5.65 21.94 5.59 21.07 5.58 20.71 5.58 20.71 5.56 20.71 5.51 20.71 5.47 20.71 5.47 20.71 4.2 28.15" fill="none" stroke="#fff" stroke-miterlimit="2.61" stroke-width="0.22"/><polygon points="57.85 26.47 57.54 28.15 55.63 28.15 55.65 27.84 55.66 27.57 55.66 27.37 55.67 27.27 55.57 27.39 55.46 27.5 55.32 27.61 55.17 27.71 55.01 27.81 54.83 27.9 54.64 28 54.45 28.07 54.24 28.13 54.03 28.19 53.82 28.23 53.61 28.26 53.39 28.28 53.17 28.28 52.97 28.26 52.76 28.23 52.49 28.16 52.25 28.09 52.03 27.99 51.84 27.87 51.67 27.75 51.53 27.62 51.41 27.47 51.3 27.32 51.21 27.16 51.14 26.99 51.08 26.83 51.04 26.66 51.01 26.48 50.99 26.31 50.97 26.14 50.97 25.98 50.99 25.68 51.03 25.4 51.1 25.13 51.2 24.88 51.31 24.63 51.46 24.41 51.62 24.2 51.79 24.01 51.99 23.84 52.19 23.68 52.41 23.53 52.65 23.41 52.88 23.3 53.13 23.22 53.39 23.15 53.64 23.11 53.66 23.11 53.7 23.1 53.75 23.09 53.83 23.08 53.92 23.07 54.03 23.06 54.15 23.05 54.27 23.03 54.4 23.02 54.53 23 54.66 22.99 54.79 22.98 54.91 22.97 55.02 22.96 55.12 22.95 55.21 22.95 55.39 22.95 55.57 22.96 55.75 22.97 55.91 22.97 56.06 22.98 56.18 22.98 56.25 22.99 56.28 22.99 56.29 22.94 56.32 22.8 56.34 22.64 56.35 22.5 56.32 22.33 56.26 22.18 56.16 22.04 56.05 21.93 55.91 21.83 55.76 21.76 55.59 21.72 55.41 21.7 55.19 21.7 54.97 21.69 54.73 21.69 54.49 21.7 54.24 21.71 53.99 21.73 53.75 21.75 53.52 21.79 53.29 21.82 53.07 21.85 52.87 21.89 52.69 21.93 52.52 21.98 52.38 22.02 52.28 22.07 52.19 22.12 52.73 20.29 52.89 20.22 53.07 20.16 53.24 20.11 53.42 20.07 53.61 20.03 53.8 20 54 19.97 54.21 19.96 54.42 19.94 54.64 19.93 54.86 19.93 55.09 19.93 55.33 19.93 55.57 19.93 55.83 19.93 56.09 19.94 56.3 19.96 56.53 20 56.76 20.05 57.01 20.12 57.24 20.21 57.48 20.31 57.7 20.44 57.92 20.59 58.11 20.75 58.28 20.94 58.43 21.14 58.55 21.37 58.63 21.61 58.69 21.87 58.69 22.16 58.65 22.46 57.85 26.47 57.85 26.47 57.85 26.47" fill="#fff"/><polygon points="57.54 28.21 57.58 28.16 57.9 26.48 57.8 26.46 57.49 28.15 57.54 28.1 57.54 28.21 57.58 28.2 57.58 28.16 57.54 28.21 57.54 28.21 57.54 28.21" fill="#fff"/><polygon points="55.59 28.15 55.63 28.21 57.54 28.21 57.54 28.1 55.63 28.1 55.68 28.15 55.59 28.15 55.58 28.21 55.63 28.21 55.59 28.15 55.59 28.15 55.59 28.15" fill="#fff"/><polygon points="55.71 27.3 55.64 27.24 55.61 27.37 55.6 27.57 55.6 27.84 55.59 28.15 55.68 28.15 55.69 27.84 55.71 27.57 55.7 27.37 55.7 27.3 55.63 27.24 55.71 27.3 55.71 27.3 55.71 27.3" fill="#fff"/><polygon points="52.76 28.28 52.76 28.28 52.97 28.31 53.17 28.33 53.39 28.32 53.61 28.31 53.83 28.28 54.04 28.24 54.25 28.18 54.46 28.12 54.65 28.04 54.85 27.95 55.03 27.86 55.19 27.75 55.35 27.65 55.49 27.54 55.61 27.42 55.71 27.3 55.63 27.24 55.53 27.36 55.43 27.46 55.29 27.57 55.15 27.68 54.99 27.77 54.81 27.86 54.62 27.95 54.43 28.02 54.24 28.09 54.02 28.15 53.81 28.19 53.61 28.21 53.39 28.23 53.17 28.24 52.97 28.21 52.77 28.19 52.77 28.19 52.76 28.28 52.76 28.28 52.76 28.28" fill="#fff"/><polygon points="50.92 25.98 50.92 25.98 50.93 26.14 50.94 26.31 50.97 26.49 51 26.67 51.03 26.83 51.09 27.01 51.16 27.18 51.26 27.34 51.37 27.5 51.49 27.65 51.64 27.79 51.81 27.91 52.01 28.03 52.23 28.13 52.48 28.21 52.76 28.28 52.77 28.19 52.5 28.12 52.26 28.04 52.06 27.94 51.86 27.84 51.7 27.71 51.56 27.59 51.44 27.44 51.34 27.3 51.25 27.14 51.19 26.98 51.12 26.82 51.09 26.65 51.06 26.48 51.03 26.31 51.02 26.14 51.02 25.98 51.02 25.98 50.92 25.98 50.92 25.98 50.92 25.98" fill="#fff"/><polygon points="53.64 23.06 53.64 23.06 53.38 23.11 53.12 23.18 52.87 23.26 52.63 23.36 52.39 23.49 52.16 23.64 51.96 23.8 51.76 23.98 51.58 24.17 51.42 24.38 51.27 24.61 51.15 24.86 51.06 25.12 50.99 25.39 50.94 25.68 50.92 25.98 51.02 25.98 51.03 25.68 51.08 25.41 51.15 25.15 51.25 24.89 51.36 24.66 51.49 24.44 51.66 24.23 51.82 24.04 52.02 23.87 52.23 23.71 52.44 23.58 52.67 23.45 52.9 23.35 53.15 23.27 53.39 23.2 53.64 23.15 53.64 23.15 53.64 23.06 53.64 23.06 53.64 23.06" fill="#fff"/><polygon points="55.21 22.9 55.21 22.9 55.12 22.9 55.02 22.92 54.91 22.93 54.79 22.93 54.66 22.95 54.53 22.95 54.4 22.97 54.27 22.98 54.15 23 54.03 23.02 53.92 23.02 53.83 23.04 53.75 23.05 53.69 23.05 53.66 23.06 53.64 23.06 53.64 23.15 53.66 23.15 53.7 23.14 53.75 23.14 53.83 23.13 53.92 23.11 54.03 23.11 54.15 23.09 54.27 23.08 54.4 23.06 54.53 23.05 54.66 23.04 54.79 23.02 54.91 23.02 55.02 23.01 55.12 23.01 55.21 23.01 55.21 23.01 55.21 22.9 55.21 22.9 55.21 22.9" fill="#fff"/><polygon points="56.23 22.98 56.28 22.95 56.25 22.95 56.18 22.94 56.06 22.93 55.91 22.92 55.75 22.92 55.57 22.92 55.39 22.9 55.21 22.9 55.21 23.01 55.39 23.01 55.57 23.01 55.75 23.02 55.91 23.02 56.06 23.02 56.18 23.03 56.25 23.04 56.28 23.04 56.32 23 56.28 23.04 56.32 23.05 56.32 23 56.23 22.98 56.23 22.98 56.23 22.98" fill="#fff"/><polygon points="56.31 22.5 56.3 22.5 56.29 22.64 56.27 22.8 56.25 22.93 56.23 22.98 56.32 23 56.34 22.95 56.36 22.81 56.38 22.64 56.41 22.5 56.4 22.5 56.31 22.5 56.31 22.5 56.31 22.5" fill="#fff"/><polygon points="55.41 21.75 55.41 21.75 55.58 21.76 55.74 21.81 55.89 21.88 56.02 21.97 56.13 22.07 56.22 22.2 56.28 22.34 56.31 22.5 56.4 22.5 56.37 22.33 56.31 22.16 56.2 22.01 56.08 21.89 55.94 21.79 55.77 21.72 55.59 21.67 55.41 21.65 55.41 21.66 55.41 21.75 55.41 21.75 55.41 21.75" fill="#fff"/><polygon points="52.15 22.11 52.23 22.16 52.3 22.12 52.4 22.07 52.53 22.02 52.7 21.98 52.88 21.94 53.07 21.9 53.29 21.86 53.52 21.83 53.75 21.8 53.99 21.78 54.24 21.75 54.49 21.74 54.73 21.74 54.97 21.74 55.19 21.74 55.41 21.75 55.41 21.66 55.19 21.65 54.97 21.63 54.73 21.63 54.49 21.65 54.24 21.66 53.99 21.69 53.75 21.71 53.52 21.74 53.28 21.77 53.06 21.81 52.86 21.85 52.68 21.89 52.51 21.93 52.37 21.98 52.26 22.03 52.16 22.08 52.24 22.13 52.15 22.11 52.15 22.11 52.15 22.11" fill="#fff"/><polygon points="52.71 20.25 52.68 20.28 52.15 22.11 52.24 22.13 52.77 20.3 52.74 20.34 52.71 20.25 52.69 20.25 52.68 20.28 52.71 20.25 52.71 20.25 52.71 20.25" fill="#fff"/><polygon points="56.09 19.9 56.09 19.9 55.83 19.88 55.57 19.87 55.33 19.87 55.09 19.87 54.86 19.87 54.64 19.89 54.42 19.9 54.21 19.91 54 19.93 53.8 19.96 53.61 19.99 53.42 20.02 53.23 20.06 53.05 20.12 52.88 20.18 52.71 20.25 52.74 20.34 52.91 20.27 53.08 20.21 53.25 20.15 53.43 20.12 53.62 20.08 53.81 20.05 54 20.02 54.21 20 54.42 19.99 54.64 19.98 54.86 19.98 55.09 19.98 55.33 19.98 55.57 19.98 55.83 19.99 56.09 19.99 56.09 19.99 56.09 19.9 56.09 19.9 56.09 19.9" fill="#fff"/><polygon points="58.69 22.47 58.69 22.47 58.73 22.16 58.73 21.87 58.68 21.6 58.59 21.35 58.47 21.12 58.32 20.91 58.14 20.72 57.95 20.55 57.73 20.4 57.5 20.27 57.26 20.16 57.02 20.07 56.77 20 56.54 19.95 56.3 19.91 56.09 19.9 56.09 19.99 56.3 20 56.52 20.04 56.76 20.09 56.99 20.16 57.23 20.25 57.45 20.36 57.68 20.48 57.89 20.63 58.08 20.79 58.24 20.97 58.4 21.16 58.5 21.39 58.59 21.62 58.64 21.87 58.64 22.16 58.6 22.45 58.6 22.45 58.69 22.47 58.69 22.47 58.69 22.47" fill="#fff"/><polygon points="57.9 26.48 57.9 26.48 58.69 22.47 58.6 22.45 57.8 26.46 57.8 26.46 57.9 26.48 57.9 26.48 57.9 26.48" fill="#fff"/><polygon points="56.01 24.49 56 24.44 55.97 24.41 55.91 24.38 55.84 24.36 55.76 24.35 55.66 24.34 55.54 24.34 55.43 24.35 55.31 24.37 55.19 24.38 55.06 24.4 54.95 24.41 54.84 24.44 54.74 24.45 54.64 24.47 54.56 24.49 54.51 24.5 54.45 24.52 54.37 24.54 54.29 24.57 54.19 24.62 54.1 24.66 53.99 24.72 53.9 24.78 53.8 24.85 53.7 24.94 53.61 25.02 53.53 25.12 53.46 25.22 53.41 25.34 53.36 25.46 53.34 25.59 53.33 25.85 53.37 26.05 53.43 26.2 53.52 26.32 53.64 26.39 53.77 26.44 53.9 26.46 54.02 26.47 54.25 26.46 54.46 26.44 54.66 26.4 54.84 26.35 55 26.29 55.15 26.22 55.28 26.14 55.41 26.05 55.51 25.97 55.6 25.87 55.69 25.78 55.76 25.68 55.81 25.59 55.85 25.5 55.88 25.41 55.9 25.32 55.93 25.11 55.97 24.89 56 24.68 56.01 24.49 56.01 24.49 56.01 24.49" fill="#fbb231"/><polygon points="71.65 27.12 71.67 26.94 71.72 26.73 71.83 26.55 71.96 26.39 72.12 26.27 72.3 26.17 72.5 26.11 72.71 26.09 72.92 26.11 73.12 26.17 73.31 26.27 73.47 26.39 73.59 26.55 73.7 26.73 73.76 26.94 73.78 27.12 73.55 27.12 73.54 26.98 73.49 26.81 73.42 26.66 73.32 26.53 73.2 26.42 73.05 26.35 72.89 26.3 72.71 26.28 72.54 26.3 72.37 26.35 72.23 26.42 72.1 26.53 72.01 26.66 71.93 26.81 71.89 26.98 71.87 27.12 71.65 27.12 71.65 27.12 71.65 27.12" fill="#fff"/><polygon points="72.33 27.12 72.33 26.66 72.75 26.66 72.84 26.67 72.92 26.68 72.98 26.7 73.04 26.73 73.08 26.78 73.11 26.83 73.12 26.88 73.13 26.93 73.12 27 73.11 27.05 73.08 27.1 73.07 27.12 72.75 27.12 72.78 27.11 72.83 27.1 72.88 27.09 72.92 27.07 72.95 27.05 72.96 27.02 72.98 26.99 72.98 26.93 72.97 26.89 72.95 26.86 72.93 26.85 72.91 26.83 72.87 26.83 72.83 26.82 72.8 26.82 72.75 26.82 72.52 26.82 72.52 27.12 72.33 27.12 72.33 27.12 72.33 27.12" fill="#fff"/><polygon points="71.65 27.12 71.64 27.16 71.67 27.38 71.72 27.59 71.83 27.77 71.96 27.92 72.12 28.05 72.3 28.15 72.5 28.21 72.71 28.23 72.92 28.21 73.12 28.15 73.31 28.05 73.47 27.92 73.59 27.77 73.7 27.59 73.76 27.38 73.78 27.16 73.78 27.12 73.55 27.12 73.56 27.16 73.54 27.34 73.49 27.51 73.42 27.65 73.32 27.78 73.2 27.89 73.05 27.97 72.89 28.02 72.71 28.04 72.54 28.02 72.37 27.97 72.23 27.89 72.1 27.78 72.01 27.65 71.93 27.51 71.89 27.34 71.87 27.16 71.87 27.12 71.65 27.12 71.65 27.12 71.65 27.12" fill="#fff"/><polygon points="72.33 27.12 72.33 27.58 72.52 27.58 72.52 27.2 72.71 27.2 72.94 27.58 73.09 27.58 72.86 27.2 72.92 27.2 72.97 27.18 73.02 27.17 73.05 27.14 73.07 27.12 72.75 27.12 72.71 27.12 72.52 27.12 72.52 27.12 72.33 27.12 72.33 27.12 72.33 27.12" fill="#fff"/><path d="M71.64,27.16h0v-.22l.06-.21.11-.18.13-.16.16-.13.18-.09.2-.06h.42l.2.06.17.09.16.13.13.16.11.18.06.21v.22h0v.22l-.06.2-.11.18-.13.15-.16.13-.18.1-.2.06h-.42l-.2-.06-.18-.1-.16-.13-.13-.15-.11-.18-.06-.2v-.22m.88.42h-.19v-.92H73v.1h0v.12h-.15l.23.38H73l-.23-.38h-.19v.38m.19-.46h.17v-.09H72.5V27h.19m0,.92h.18l.17-.05.14-.08.12-.11.1-.13.08-.14v-.26h0v-.35l-.08-.15-.1-.13-.12-.11L73,26.34l-.17-.05h-.35l-.17.05-.14.08-.12.11-.1.13-.08.15v.35h0v.35l.08.14.1.13.12.11.14.08.17.05h.17" fill="none" stroke="#fff" stroke-miterlimit="2.61" stroke-width="0.22"/><polygon points="58.42 28.15 60.56 28.15 60.56 28.15 61.33 23.84 61.36 23.67 61.4 23.5 61.45 23.33 61.51 23.17 61.58 23 61.67 22.84 61.77 22.69 61.9 22.55 62.03 22.42 62.18 22.29 62.36 22.18 62.56 22.09 62.78 22.01 63.02 21.95 63.28 21.91 63.58 21.89 63.69 21.89 63.75 21.89 63.77 21.89 63.77 21.89 64.11 19.94 63.9 19.96 63.69 19.98 63.5 20.02 63.32 20.07 63.16 20.13 63 20.21 62.84 20.29 62.7 20.38 62.56 20.49 62.43 20.59 62.31 20.72 62.19 20.84 62.08 20.97 61.96 21.11 61.85 21.25 61.74 21.4 61.97 20.02 59.84 20.02 58.42 28.15 58.42 28.15 58.42 28.15 58.42 28.15" fill="#fff"/><polyline points="58.42 28.15 60.56 28.15 60.56 28.15 61.33 23.84 61.33 23.84 61.36 23.67 61.4 23.5 61.45 23.33 61.51 23.17 61.58 23 61.67 22.84 61.77 22.69 61.9 22.55 62.03 22.42 62.18 22.29 62.36 22.18 62.56 22.09 62.78 22.01 63.02 21.95 63.28 21.91 63.58 21.89 63.58 21.89 63.69 21.89 63.75 21.89 63.77 21.89 63.77 21.89 64.11 19.94 64.11 19.94 63.9 19.96 63.69 19.98 63.5 20.02 63.32 20.07 63.16 20.13 63 20.21 62.84 20.29 62.7 20.38 62.56 20.49 62.43 20.59 62.31 20.72 62.19 20.84 62.08 20.97 61.96 21.11 61.85 21.25 61.74 21.4 61.97 20.02 59.84 20.02 58.42 28.15 58.42 28.15" fill="none" stroke="#fff" stroke-miterlimit="2.61" stroke-width="0.22"/><polygon points="38.32 28.15 40.46 28.15 40.5 28.15 41.23 23.84 41.26 23.67 41.29 23.51 41.33 23.35 41.38 23.2 41.45 23.05 41.52 22.9 41.61 22.77 41.72 22.64 41.84 22.52 41.98 22.41 42.15 22.32 42.33 22.23 42.54 22.16 42.77 22.11 43.03 22.07 43.33 22.04 43.35 22.04 43.38 22.05 43.42 22.06 43.46 22.06 43.49 22.07 43.53 22.07 43.55 22.08 43.56 22.08 43.56 22.05 43.59 21.96 43.62 21.82 43.66 21.66 43.71 21.46 43.76 21.25 43.83 21.03 43.9 20.82 43.96 20.68 44.03 20.53 44.11 20.39 44.19 20.26 44.25 20.15 44.31 20.06 44.34 20 44.36 19.98 44.35 19.98 44.32 19.97 44.29 19.96 44.23 19.96 44.18 19.96 44.12 19.95 44.06 19.94 44.01 19.94 43.78 19.96 43.56 19.98 43.37 20.02 43.19 20.06 43.01 20.12 42.85 20.2 42.7 20.27 42.57 20.37 42.44 20.46 42.32 20.58 42.2 20.69 42.09 20.82 41.98 20.95 41.87 21.1 41.76 21.25 41.64 21.4 41.92 20.02 39.74 20.02 38.32 28.15 38.32 28.15 38.32 28.15 38.32 28.15" fill="#fff"/><polyline points="38.32 28.15 40.46 28.15 40.5 28.15 41.23 23.84 41.23 23.84 41.26 23.67 41.29 23.51 41.33 23.35 41.38 23.2 41.45 23.05 41.52 22.9 41.61 22.77 41.72 22.64 41.84 22.52 41.98 22.41 42.15 22.32 42.33 22.23 42.54 22.16 42.77 22.11 43.03 22.07 43.33 22.04 43.33 22.04 43.35 22.04 43.38 22.05 43.42 22.06 43.46 22.06 43.49 22.07 43.53 22.07 43.55 22.08 43.56 22.08 43.56 22.08 43.56 22.05 43.59 21.96 43.62 21.82 43.66 21.66 43.71 21.46 43.76 21.25 43.83 21.03 43.9 20.82 43.9 20.82 43.96 20.68 44.03 20.53 44.11 20.39 44.19 20.26 44.25 20.15 44.31 20.06 44.34 20 44.36 19.98 44.36 19.98 44.35 19.98 44.32 19.97 44.29 19.96 44.23 19.96 44.18 19.96 44.12 19.95 44.06 19.94 44.01 19.94 44.01 19.94 43.78 19.96 43.56 19.98 43.37 20.02 43.19 20.06 43.01 20.12 42.85 20.2 42.7 20.27 42.57 20.37 42.44 20.46 42.32 20.58 42.2 20.69 42.09 20.82 41.98 20.95 41.87 21.1 41.76 21.25 41.64 21.4 41.92 20.02 39.74 20.02 38.32 28.15 38.32 28.15" fill="none" stroke="#fff" stroke-miterlimit="2.61" stroke-width="0.22"/><polygon points="71.67 36.14 71.67 36.11 71.72 35.91 71.83 35.74 71.96 35.59 72.12 35.47 72.3 35.37 72.5 35.32 72.71 35.3 72.92 35.32 73.12 35.37 73.31 35.47 73.47 35.59 73.59 35.74 73.7 35.91 73.76 36.11 73.76 36.14 73.54 36.14 73.49 35.98 73.42 35.84 73.32 35.71 73.2 35.6 73.05 35.52 72.89 35.47 72.71 35.45 72.54 35.47 72.37 35.52 72.23 35.6 72.1 35.71 72.01 35.84 71.93 35.98 71.89 36.14 71.67 36.14 71.67 36.14 71.67 36.14" fill="#fbb231"/><polygon points="72.33 36.14 72.33 35.88 72.75 35.88 72.84 35.88 72.92 35.89 72.98 35.9 73.04 35.93 73.08 35.97 73.11 36.02 73.12 36.07 73.13 36.14 72.98 36.14 72.98 36.1 72.97 36.06 72.95 36.03 72.93 36.02 72.91 36 72.87 36 72.83 35.99 72.8 35.99 72.75 35.99 72.52 35.99 72.52 36.14 72.33 36.14 72.33 36.14 72.33 36.14" fill="#fbb231"/><polygon points="71.64 36.31 71.67 36.14 71.89 36.14 71.89 36.15 71.87 36.31 71.64 36.31 71.64 36.31 71.64 36.31" fill="#fbb231"/><polygon points="72.33 36.31 72.33 36.14 72.52 36.14 72.52 36.29 72.71 36.29 72.78 36.28 72.83 36.27 72.88 36.25 72.92 36.24 72.95 36.22 72.96 36.19 72.98 36.16 72.98 36.14 73.13 36.14 73.13 36.14 73.12 36.19 73.11 36.24 73.08 36.28 73.05 36.31 72.33 36.31 72.33 36.31 72.33 36.31" fill="#fbb231"/><polygon points="73.56 36.31 73.54 36.15 73.54 36.14 73.76 36.14 73.78 36.31 73.56 36.31 73.56 36.31 73.56 36.31" fill="#fbb231"/><polygon points="71.64 36.31 71.64 36.33 71.67 36.55 71.72 36.75 71.83 36.94 71.96 37.1 72.12 37.23 72.3 37.32 72.5 37.38 72.71 37.4 72.92 37.38 73.12 37.32 73.31 37.23 73.47 37.1 73.59 36.94 73.7 36.75 73.76 36.55 73.78 36.33 73.78 36.31 73.56 36.31 73.56 36.33 73.54 36.51 73.49 36.68 73.42 36.82 73.32 36.95 73.2 37.06 73.05 37.14 72.89 37.2 72.71 37.21 72.54 37.2 72.37 37.14 72.23 37.06 72.1 36.95 72.01 36.82 71.93 36.68 71.89 36.51 71.87 36.33 71.87 36.31 71.64 36.31 71.64 36.31 71.64 36.31" fill="#fbb231"/><polygon points="72.33 36.31 72.33 36.75 72.52 36.75 72.52 36.37 72.71 36.37 72.94 36.75 73.09 36.75 72.86 36.37 72.92 36.37 72.97 36.35 73.02 36.34 73.05 36.31 73.05 36.31 72.33 36.31 72.33 36.31 72.33 36.31" fill="#fbb231"/><path d="M38.56,22.44,38.5,22l-.11-.4-.15-.35-.19-.3-.23-.26-.25-.21-.27-.18-.3-.14L36.7,20,36.39,20l-.31-.05H34.85l-.54.09-.49.14-.44.19-.38.23-.34.26-.3.29-.24.3-.21.32-.17.33-.14.33-.11.32-.08.32-.06.29V25l.08.51.13.45.18.4.22.35.26.31.3.26.32.22.34.19.36.15.37.11.38.09.38.05h3l.12-.06.12-.06.3-1.87-.22.13-.21.12-.22.09-.21.08-.2.07H34.75l-.15-.05-.15-.07-.14-.08-.14-.09L34,26.2l-.11-.11L33.83,26l-.09-.13-.08-.14-.06-.14,0-.14V24.9h4.92v-.46l.11-.64,0-.58V22.7Zm-2.06.7H33.72v-.42l0-.15.07-.14.07-.13.08-.12.09-.11.1-.11.1-.09.12-.08.11-.07.13-.06h1.14l.11.06.11.07.1.08.09.09.08.1.08.11,0,.13,0,.14v.5Z" fill="#fff"/></svg>