<svg id="Layer_1" data-name="Layer 1" xmlns="http://www.w3.org/2000/svg" viewBox="0 0 75.09 24.36"><title>visa</title><polygon points="32.55 23.95 26.43 23.95 30.25 0.42 36.38 0.42 32.55 23.95" fill="#0066b2"/><path d="M21.27.42,15.43,16.61l-.69-3.49h0L12.68,2.54A2.62,2.62,0,0,0,9.77.42H.11L0,.82A22.89,22.89,0,0,1,6.41,3.51L11.73,24h6.38L27.86.43H21.27Z" fill="#0066b2"/><path d="M69.46,23.95h5.63L70.18.42H65.25a2.82,2.82,0,0,0-2.83,1.75L53.28,23.95h6.39L61,20.45h7.79Zm-6.74-8.32,3.22-8.81,1.81,8.81h-5Z" fill="#0066b2"/><path d="M53.77,6.08,54.64,1a17.7,17.7,0,0,0-5.51-1c-3,0-10.26,1.33-10.26,7.79,0,6.08,8.48,6.16,8.48,9.35s-7.6,2.62-10.11.61l-.91,5.28a17.16,17.16,0,0,0,6.92,1.33c4.18,0,10.49-2.17,10.49-8.06,0-6.12-8.55-6.69-8.55-9.35S51.15,4.63,53.77,6.08Z" fill="#0066b2"/><path d="M14.73,13.12,12.67,2.54A2.62,2.62,0,0,0,9.76.42H.1L0,.82A23.75,23.75,0,0,1,9.08,5.38,18.33,18.33,0,0,1,14.73,13.12Z" fill="#f9a533"/></svg>