<svg id="Objects" xmlns="http://www.w3.org/2000/svg" xmlns:xlink="http://www.w3.org/1999/xlink" width="712.82" height="153.17" viewBox="0 0 712.82 153.17">
  <defs>
    <clipPath id="clip-path">
      <path d="M116.27,126.37a35.44,35.44,0,0,0,1.3-9.7c0-20.8-17.3-37.7-38.7-37.7s-38.7,16.9-38.7,37.7a36.15,36.15,0,0,0,1.3,9.8c10.7,8.2,23.7,10.9,37.4,10.8C92.07,137.37,105.37,134.57,116.27,126.37Z" fill="none"/>
    </clipPath>
    <clipPath id="clip-path-2">
      <path d="M302.17,125.87a35.44,35.44,0,0,0,1.3-9.7c0-20.8-17.3-37.7-38.7-37.7S226,95.37,226,116.17a36.15,36.15,0,0,0,1.3,9.8c10.7,8.2,23.7,10.9,37.4,10.8C278,136.87,291.27,134.07,302.17,125.87Z" fill="none"/>
    </clipPath>
    <clipPath id="clip-path-3">
      <path d="M661.87,19.57a29,29,0,0,0-28.2,22.2,29,29,0,0,0-57.2,6.8c0,16-.3,70.2,28.2,83.3,16.9,7.7,43.2,4.9,57.8-1.3,27.9-11.9,28.3-65.9,28.3-81.9a28.89,28.89,0,0,0-28.68-29.1Z" fill="none"/>
    </clipPath>
    <clipPath id="clip-path-4">
      <path d="M479,19.67a29,29,0,0,0-28.2,22.2,29,29,0,0,0-57.2,6.8c0,16-.3,70.2,28.2,83.3,16.9,7.7,43.2,4.9,57.8-1.3,27.9-11.9,28.4-65.9,28.4-81.9A29.11,29.11,0,0,0,479,19.67Z" fill="none"/>
    </clipPath>
  </defs>
  <title>home-logo-owls</title>
  <path d="M70.67,147.07l-3.9-3.6v-10a2.4,2.4,0,0,0-4.8,0h0v9.6a2.65,2.65,0,0,0-.6.5l-3.5,4.2a2.27,2.27,0,1,0,3.5,2.9h0l1-1.2v1a2.3,2.3,0,1,0,4.6,0v-.8l.8.7a2.26,2.26,0,1,0,3.3-3.1h0C70.77,147.17,70.77,147.17,70.67,147.07Z" fill="#775246"/>
  <path d="M99.57,147.07l-3.9-3.6v-10a2.4,2.4,0,1,0-4.8,0h0v9.6a2.65,2.65,0,0,0-.6.5l-3.5,4.2a2.27,2.27,0,1,0,3.5,2.9h0l1-1.2v1a2.3,2.3,0,0,0,4.6,0v-.8l.8.7a2.27,2.27,0,0,0,3.5-2.9A5.92,5.92,0,0,1,99.57,147.07Z" fill="#775246"/>
  <path d="M134.47.57c-3.1-1.2-16.1,13-16.1,13-15.5-5.6-28.8-7.3-39.6-7.2-10.8-.2-24.1,1.6-39.6,7.2,0,0-13-14.1-16.1-12.9s-18.5,83.9,10.5,118.1c11.9,14,28,18.4,45.2,18.2,16.7.1,33.3-4.3,45.2-18.2C153.07,84.57,137.47,1.87,134.47.57Z" fill="#997161"/>
  <path d="M107,19.37a29.08,29.08,0,0,0-28.2,22.2,29,29,0,0,0-57.1,6.8c0,16-.3,70.2,28.2,83.3,16.9,7.7,43.2,4.9,57.8-1.3,27.9-11.9,28.4-65.9,28.4-81.9A29.19,29.19,0,0,0,107,19.37Z" fill="#e89f8b"/>
  <circle cx="49.17" cy="47.67" r="21.1" fill="#fff"/>
  <path d="M59.17,46.77a10.36,10.36,0,0,1-20,0h-5.1a15.38,15.38,0,0,0,30.3,0Z" fill="#684c42"/>
  <circle cx="107.37" cy="47.67" r="21.2" fill="#fff"/>
  <path d="M117.37,46.77a10.36,10.36,0,0,1-20,0h-5.1a15.38,15.38,0,0,0,30.3,0Z" fill="#684c42"/>
  <polygon points="71.17 56.77 78.77 67.27 78.77 49.57 71.17 56.77" fill="#684c42"/>
  <polygon points="78.77 49.57 78.77 67.27 86.37 56.77 78.77 49.57" fill="#775246"/>
  <path d="M116.27,126.37a35.44,35.44,0,0,0,1.3-9.7c0-20.8-17.3-37.7-38.7-37.7s-38.7,16.9-38.7,37.7a36.15,36.15,0,0,0,1.3,9.8c10.7,8.2,23.7,10.9,37.4,10.8C92.07,137.37,105.37,134.57,116.27,126.37Z" fill="#e89f8b"/>
  <g clip-path="url(#clip-path)">
    <g>
      <polygon points="63.07 94.47 56.37 94.47 59.77 97.87 63.07 94.47" fill="#d68063"/>
      <polygon points="70.57 94.47 63.87 94.47 67.27 97.87 70.57 94.47" fill="#d68063"/>
      <polygon points="78.07 94.47 71.37 94.47 74.77 97.87 78.07 94.47" fill="#d68063"/>
      <polygon points="85.57 94.47 78.87 94.47 82.27 97.87 85.57 94.47" fill="#d68063"/>
      <polygon points="93.07 94.47 86.37 94.47 89.77 97.87 93.07 94.47" fill="#d68063"/>
      <polygon points="100.57 94.47 93.77 94.47 97.27 97.87 100.57 94.47" fill="#d68063"/>
      <polygon points="107.97 94.47 101.27 94.47 104.77 97.87 107.97 94.47" fill="#d68063"/>
      <polygon points="55.57 94.47 48.87 94.47 52.27 97.87 55.57 94.47" fill="#d68063"/>
      <polygon points="66.87 89.97 60.17 89.97 63.57 93.37 66.87 89.97" fill="#d68063"/>
      <polygon points="74.27 89.97 67.57 89.97 71.07 93.37 74.27 89.97" fill="#d68063"/>
      <polygon points="81.77 89.97 75.07 89.97 78.57 93.37 81.77 89.97" fill="#d68063"/>
      <polygon points="89.27 89.97 82.57 89.97 86.07 93.37 89.27 89.97" fill="#d68063"/>
      <polygon points="96.77 89.97 90.07 89.97 93.47 93.37 96.77 89.97" fill="#d68063"/>
      <polygon points="104.27 89.97 97.57 89.97 100.97 93.37 104.27 89.97" fill="#d68063"/>
      <polygon points="59.37 89.97 52.67 89.97 56.07 93.37 59.37 89.97" fill="#d68063"/>
      <polygon points="119.27 89.97 112.57 89.97 115.97 93.37 119.27 89.97" fill="#d68063"/>
      <polygon points="59.37 80.97 52.67 80.97 56.07 84.37 59.37 80.97" fill="#d68063"/>
      <polygon points="66.87 80.97 60.17 80.97 63.57 84.37 66.87 80.97" fill="#d68063"/>
      <polygon points="74.27 80.97 67.67 80.97 71.07 84.37 74.27 80.97" fill="#d68063"/>
      <polygon points="81.77 80.97 75.07 80.97 78.57 84.37 81.77 80.97" fill="#d68063"/>
      <polygon points="89.27 80.97 82.57 80.97 86.07 84.37 89.27 80.97" fill="#d68063"/>
      <polygon points="96.77 80.97 90.07 80.97 93.47 84.37 96.77 80.97" fill="#d68063"/>
      <polygon points="104.27 80.97 97.57 80.97 100.97 84.37 104.27 80.97" fill="#d68063"/>
      <polygon points="51.87 80.97 45.17 80.97 48.57 84.37 51.87 80.97" fill="#d68063"/>
      <polygon points="119.27 80.97 112.57 80.97 115.97 84.37 119.27 80.97" fill="#d68063"/>
      <polygon points="111.77 80.97 105.07 80.97 108.47 84.37 111.77 80.97" fill="#d68063"/>
      <polygon points="63.07 85.47 56.37 85.47 59.77 88.87 63.07 85.47" fill="#d68063"/>
      <polygon points="70.57 85.47 63.87 85.47 67.27 88.87 70.57 85.47" fill="#d68063"/>
      <polygon points="78.07 85.47 71.37 85.47 74.77 88.87 78.07 85.47" fill="#d68063"/>
      <polygon points="85.57 85.47 78.87 85.47 82.27 88.87 85.57 85.47" fill="#d68063"/>
      <polygon points="93.07 85.47 86.37 85.47 89.77 88.87 93.07 85.47" fill="#d68063"/>
      <polygon points="100.57 85.47 93.77 85.47 97.27 88.87 100.57 85.47" fill="#d68063"/>
      <polygon points="55.57 85.47 48.87 85.47 52.27 88.87 55.57 85.47" fill="#d68063"/>
      <polygon points="122.97 85.47 116.27 85.47 119.67 88.87 122.97 85.47" fill="#d68063"/>
      <polygon points="115.47 85.47 108.77 85.47 112.27 88.87 115.47 85.47" fill="#d68063"/>
      <polygon points="62.67 112.37 55.97 112.37 59.37 115.77 62.67 112.37" fill="#d68063"/>
      <polygon points="70.17 112.37 63.47 112.37 66.87 115.77 70.17 112.37" fill="#d68063"/>
      <polygon points="77.67 112.37 70.97 112.37 74.37 115.77 77.67 112.37" fill="#d68063"/>
      <polygon points="85.17 112.37 78.47 112.37 81.87 115.77 85.17 112.37" fill="#d68063"/>
      <polygon points="92.67 112.37 85.97 112.37 89.37 115.77 92.67 112.37" fill="#d68063"/>
      <polygon points="100.17 112.37 93.47 112.37 96.87 115.77 100.17 112.37" fill="#d68063"/>
      <polygon points="107.67 112.37 100.87 112.37 104.37 115.77 107.67 112.37" fill="#d68063"/>
      <polygon points="55.17 112.37 48.47 112.37 51.97 115.77 55.17 112.37" fill="#d68063"/>
      <polygon points="47.67 112.37 40.97 112.37 44.47 115.77 47.67 112.37" fill="#d68063"/>
      <polygon points="122.57 112.37 115.87 112.37 119.27 115.77 122.57 112.37" fill="#d68063"/>
      <polygon points="115.07 112.37 108.37 112.37 111.87 115.77 115.07 112.37" fill="#d68063"/>
      <polygon points="44.37 107.87 37.67 107.87 41.07 111.27 44.37 107.87" fill="#d68063"/>
      <polygon points="66.47 107.87 59.77 107.87 63.17 111.27 66.47 107.87" fill="#d68063"/>
      <polygon points="73.87 107.87 67.27 107.87 70.67 111.27 73.87 107.87" fill="#d68063"/>
      <polygon points="81.37 107.87 74.67 107.87 78.17 111.27 81.37 107.87" fill="#d68063"/>
      <polygon points="88.87 107.87 82.17 107.87 85.67 111.27 88.87 107.87" fill="#d68063"/>
      <polygon points="96.37 107.87 89.67 107.87 93.07 111.27 96.37 107.87" fill="#d68063"/>
      <polygon points="103.87 107.87 97.17 107.87 100.57 111.27 103.87 107.87" fill="#d68063"/>
      <polygon points="111.37 107.87 104.67 107.87 108.07 111.27 111.37 107.87" fill="#d68063"/>
      <polygon points="58.97 107.87 52.27 107.87 55.67 111.27 58.97 107.87" fill="#d68063"/>
      <polygon points="51.47 107.87 44.77 107.87 48.17 111.27 51.47 107.87" fill="#d68063"/>
      <polygon points="118.87 107.87 112.17 107.87 115.57 111.27 118.87 107.87" fill="#d68063"/>
      <polygon points="43.97 98.87 37.27 98.87 40.67 102.37 43.97 98.87" fill="#d68063"/>
      <polygon points="58.97 98.87 52.27 98.87 55.67 102.37 58.97 98.87" fill="#d68063"/>
      <polygon points="66.47 98.87 59.77 98.87 63.17 102.37 66.47 98.87" fill="#d68063"/>
      <polygon points="73.87 98.87 67.27 98.87 70.67 102.37 73.87 98.87" fill="#d68063"/>
      <polygon points="81.37 98.87 74.67 98.87 78.17 102.37 81.37 98.87" fill="#d68063"/>
      <polygon points="88.87 98.87 82.17 98.87 85.67 102.37 88.87 98.87" fill="#d68063"/>
      <polygon points="96.37 98.87 89.67 98.87 93.07 102.37 96.37 98.87" fill="#d68063"/>
      <polygon points="103.87 98.87 97.17 98.87 100.57 102.37 103.87 98.87" fill="#d68063"/>
      <polygon points="51.47 98.87 44.77 98.87 48.17 102.37 51.47 98.87" fill="#d68063"/>
      <polygon points="111.37 98.87 104.67 98.87 108.07 102.37 111.37 98.87" fill="#d68063"/>
      <polygon points="62.67 103.37 55.97 103.37 59.37 106.87 62.67 103.37" fill="#d68063"/>
      <polygon points="70.17 103.37 63.47 103.37 66.87 106.87 70.17 103.37" fill="#d68063"/>
      <polygon points="77.67 103.37 70.97 103.37 74.37 106.87 77.67 103.37" fill="#d68063"/>
      <polygon points="85.17 103.37 78.47 103.37 81.87 106.87 85.17 103.37" fill="#d68063"/>
      <polygon points="92.67 103.37 85.97 103.37 89.37 106.87 92.67 103.37" fill="#d68063"/>
      <polygon points="100.17 103.37 93.47 103.37 96.87 106.87 100.17 103.37" fill="#d68063"/>
      <polygon points="107.67 103.37 100.87 103.37 104.37 106.87 107.67 103.37" fill="#d68063"/>
      <polygon points="55.17 103.37 48.47 103.37 51.97 106.87 55.17 103.37" fill="#d68063"/>
      <polygon points="47.67 103.37 40.97 103.37 44.47 106.87 47.67 103.37" fill="#d68063"/>
      <polygon points="122.57 103.37 115.87 103.37 119.27 106.87 122.57 103.37" fill="#d68063"/>
      <polygon points="115.07 103.37 108.37 103.37 111.87 106.87 115.07 103.37" fill="#d68063"/>
      <polygon points="55.17 130.27 48.47 130.27 51.97 133.67 55.17 130.27" fill="#d68063"/>
      <polygon points="62.67 130.27 55.97 130.27 59.37 133.67 62.67 130.27" fill="#d68063"/>
      <polygon points="70.17 130.27 63.47 130.27 66.87 133.67 70.17 130.27" fill="#d68063"/>
      <polygon points="77.67 130.27 70.97 130.27 74.37 133.67 77.67 130.27" fill="#d68063"/>
      <polygon points="85.17 130.27 78.47 130.27 81.87 133.67 85.17 130.27" fill="#d68063"/>
      <polygon points="92.67 130.27 85.97 130.27 89.37 133.67 92.67 130.27" fill="#d68063"/>
      <polygon points="100.17 130.27 93.47 130.27 96.87 133.67 100.17 130.27" fill="#d68063"/>
      <polygon points="107.67 130.27 100.87 130.27 104.37 133.67 107.67 130.27" fill="#d68063"/>
      <polygon points="118.47 125.77 111.77 125.77 115.17 129.17 118.47 125.77" fill="#d68063"/>
      <polygon points="58.97 125.77 52.27 125.77 55.67 129.17 58.97 125.77" fill="#d68063"/>
      <polygon points="66.47 125.77 59.77 125.77 63.17 129.17 66.47 125.77" fill="#d68063"/>
      <polygon points="73.87 125.77 67.27 125.77 70.67 129.17 73.87 125.77" fill="#d68063"/>
      <polygon points="81.37 125.77 74.67 125.77 78.17 129.17 81.37 125.77" fill="#d68063"/>
      <polygon points="88.87 125.77 82.17 125.77 85.67 129.17 88.87 125.77" fill="#d68063"/>
      <polygon points="96.37 125.77 89.67 125.77 93.07 129.17 96.37 125.77" fill="#d68063"/>
      <polygon points="103.87 125.77 97.17 125.77 100.57 129.17 103.87 125.77" fill="#d68063"/>
      <polygon points="51.47 125.77 44.77 125.77 48.17 129.17 51.47 125.77" fill="#d68063"/>
      <polygon points="43.97 125.77 37.27 125.77 40.67 129.17 43.97 125.77" fill="#d68063"/>
      <polygon points="111.37 125.77 104.67 125.77 108.07 129.17 111.37 125.77" fill="#d68063"/>
      <polygon points="118.67 116.87 111.97 116.87 115.37 120.27 118.67 116.87" fill="#d68063"/>
      <polygon points="51.47 116.87 44.77 116.87 48.17 120.27 51.47 116.87" fill="#d68063"/>
      <polygon points="58.97 116.87 52.27 116.87 55.67 120.27 58.97 116.87" fill="#d68063"/>
      <polygon points="66.47 116.87 59.77 116.87 63.17 120.27 66.47 116.87" fill="#d68063"/>
      <polygon points="73.87 116.87 67.27 116.87 70.67 120.27 73.87 116.87" fill="#d68063"/>
      <polygon points="81.37 116.87 74.67 116.87 78.17 120.27 81.37 116.87" fill="#d68063"/>
      <polygon points="88.87 116.87 82.17 116.87 85.67 120.27 88.87 116.87" fill="#d68063"/>
      <polygon points="96.37 116.87 89.67 116.87 93.07 120.27 96.37 116.87" fill="#d68063"/>
      <polygon points="43.97 116.87 37.27 116.87 40.67 120.27 43.97 116.87" fill="#d68063"/>
      <polygon points="111.37 116.87 104.67 116.87 108.07 120.27 111.37 116.87" fill="#d68063"/>
      <polygon points="103.87 116.87 97.17 116.87 100.57 120.27 103.87 116.87" fill="#d68063"/>
      <polygon points="55.17 121.27 48.47 121.27 51.97 124.77 55.17 121.27" fill="#d68063"/>
      <polygon points="62.67 121.27 55.97 121.27 59.37 124.77 62.67 121.27" fill="#d68063"/>
      <polygon points="70.17 121.27 63.47 121.27 66.87 124.77 70.17 121.27" fill="#d68063"/>
      <polygon points="77.67 121.27 70.97 121.27 74.37 124.77 77.67 121.27" fill="#d68063"/>
      <polygon points="85.17 121.27 78.47 121.27 81.87 124.77 85.17 121.27" fill="#d68063"/>
      <polygon points="92.67 121.27 85.97 121.27 89.37 124.77 92.67 121.27" fill="#d68063"/>
      <polygon points="100.17 121.27 93.47 121.27 96.87 124.77 100.17 121.27" fill="#d68063"/>
      <polygon points="47.77 121.27 40.97 121.27 44.47 124.77 47.77 121.27" fill="#d68063"/>
      <polygon points="122.17 121.27 115.47 121.27 118.87 124.77 122.17 121.27" fill="#d68063"/>
      <polygon points="115.07 121.27 108.37 121.27 111.87 124.77 115.07 121.27" fill="#d68063"/>
      <polygon points="107.67 121.27 100.87 121.27 104.37 124.77 107.67 121.27" fill="#d68063"/>
    </g>
  </g>
  <path d="M21.67,128.17s-45.3-28.3-4.9-69.7C16.77,58.37,63.47,103.37,21.67,128.17Z" fill="#684c42"/>
  <path d="M136,128.17s45.8-28.3,5.4-69.7C141.37,58.37,96.07,96.67,136,128.17Z" fill="#684c42"/>
  <path d="M256.57,146.57l-3.9-3.6V133a2.4,2.4,0,0,0-4.8,0v9.6a2.65,2.65,0,0,0-.6.5l-3.5,4.2a2.27,2.27,0,1,0,3.5,2.9h0l1-1.2v1a2.3,2.3,0,0,0,4.6,0v-.8l.8.7a2.33,2.33,0,0,0,3.2-.3A2.76,2.76,0,0,0,256.57,146.57Z" fill="#ad421d"/>
  <path d="M285.47,146.57l-3.9-3.6V133a2.4,2.4,0,0,0-4.8,0h0v9.6a2.65,2.65,0,0,0-.6.5l-3.5,4.2a2.27,2.27,0,0,0,3.5,2.9h0l1-1.2v1a2.3,2.3,0,0,0,4.6,0v-.8l.8.7a2.26,2.26,0,1,0,3.3-3.1A.52.52,0,0,1,285.47,146.57Z" fill="#ad421d"/>
  <path d="M320.37.07c-3-1.2-16,12.9-16,12.9-15.5-5.6-28.8-7.3-39.6-7.2-10.8-.1-24.1,1.6-39.6,7.2,0,0-13-14.1-16-12.9s-18.6,84,10.5,118.2c11.9,14,28,18.4,45.2,18.2,16.7.1,33.3-4.3,45.2-18.2C339,84.17,323.37,1.37,320.37.07Z" fill="#d66f4b"/>
  <path d="M292.87,18.87a29,29,0,0,0-28.2,22.2,29,29,0,0,0-57.2,6.8c0,16-.3,70.2,28.2,83.3,16.9,7.7,43.2,4.9,57.8-1.3,28-11.9,28.3-65.9,28.3-81.9a28.83,28.83,0,0,0-28.56-29.1Z" fill="#e89f8b"/>
  <circle cx="235.07" cy="47.07" r="21.1" fill="#fff"/>
  <circle cx="293.27" cy="47.07" r="21.1" fill="#fff"/>
  <circle cx="242.67" cy="49.47" r="11.8" fill="#383838"/>
  <circle cx="286.17" cy="49.47" r="11.8" fill="#383838"/>
  <polygon points="257.07 56.27 264.67 66.77 264.67 49.07 257.07 56.27" fill="#ad421d"/>
  <polygon points="264.67 49.07 264.67 66.77 272.27 56.27 264.67 49.07" fill="#d66f4b"/>
  <path d="M302.17,125.87a35.44,35.44,0,0,0,1.3-9.7c0-20.8-17.3-37.7-38.7-37.7S226,95.37,226,116.17a36.15,36.15,0,0,0,1.3,9.8c10.7,8.2,23.7,10.9,37.4,10.8C278,136.87,291.27,134.07,302.17,125.87Z" fill="#e8b5a7"/>
  <g clip-path="url(#clip-path-2)">
    <g>
      <circle cx="233.17" cy="81.97" r="4.7" fill="#d68063"/>
      <circle cx="245.37" cy="79.47" r="2.2" fill="#d68063"/>
      <circle cx="247.17" cy="88.77" r="4" fill="#d68063"/>
      <circle cx="235.07" cy="96.27" r="2" fill="#d68063"/>
      <circle cx="229.97" cy="94.27" r="1.5" fill="#d68063"/>
      <circle cx="260.47" cy="81.67" r="3.2" fill="#d68063"/>
      <circle cx="262.27" cy="99.47" r="3.3" fill="#d68063"/>
      <circle cx="251.57" cy="112.87" r="4.4" fill="#d68063"/>
      <circle cx="245.17" cy="101.47" r="2" fill="#d68063"/>
      <circle cx="242.37" cy="110.17" r="5.3" fill="#d68063"/>
      <circle cx="227.17" cy="110.77" r="2.2" fill="#d68063"/>
      <circle cx="233.27" cy="125.17" r="1.8" fill="#d68063"/>
      <circle cx="246.37" cy="124.57" r="1.2" fill="#d68063"/>
      <circle cx="265.17" cy="109.17" r="1.6" fill="#d68063"/>
      <circle cx="280.87" cy="93.07" r="2.7" fill="#d68063"/>
      <circle cx="270.17" cy="88.27" r="3.4" fill="#d68063"/>
      <circle cx="279.47" cy="84.07" r="4.1" fill="#d68063"/>
      <circle cx="292.67" cy="84.07" r="2.4" fill="#d68063"/>
      <circle cx="293.87" cy="95.17" r="6.4" fill="#d68063"/>
      <circle cx="288.07" cy="112.07" r="1.9" fill="#d68063"/>
      <circle cx="277.97" cy="107.57" r="2.6" fill="#d68063"/>
      <circle cx="274.87" cy="121.87" r="2.7" fill="#d68063"/>
      <circle cx="268.37" cy="131.97" r="7.4" fill="#d68063"/>
      <circle cx="263.17" cy="118.27" r="0.9" fill="#d68063"/>
      <circle cx="257.47" cy="124.87" r="1.5" fill="#d68063"/>
      <circle cx="283.47" cy="133.37" r="2.8" fill="#d68063"/>
      <circle cx="290.37" cy="125.67" r="2.3" fill="#d68063"/>
      <circle cx="297.67" cy="118.07" r="2.6" fill="#d68063"/>
      <circle cx="301.07" cy="110.87" r="2.3" fill="#d68063"/>
      <circle cx="273.77" cy="99.87" r="1.6" fill="#d68063"/>
      <circle cx="301.87" cy="85.67" r="1.6" fill="#d68063"/>
      <circle cx="242.97" cy="128.17" r="2.5" fill="#d68063"/>
      <circle cx="231.57" cy="119.67" r="1.6" fill="#d68063"/>
      <circle cx="256.47" cy="92.17" r="0.6" fill="#d68063"/>
      <circle cx="271.47" cy="78.57" r="1.3" fill="#d68063"/>
      <circle cx="266.97" cy="74.47" r="1.4" fill="#d68063"/>
      <circle cx="287.57" cy="77.27" r="1.4" fill="#d68063"/>
      <circle cx="253.07" cy="77.37" r="2.9" fill="#d68063"/>
      <circle cx="255.17" cy="102.27" r="0.7" fill="#d68063"/>
      <circle cx="253.37" cy="106.67" r="1.8" fill="#d68063"/>
      <circle cx="275.67" cy="117.37" r="1.9" fill="#d68063"/>
      <circle cx="283.57" cy="120.87" r="2.7" fill="#d68063"/>
      <circle cx="285.97" cy="105.97" r="2.5" fill="#d68063"/>
      <circle cx="302.27" cy="111.97" r="1.2" fill="#d68063"/>
      <circle cx="227.17" cy="88.47" r="1.2" fill="#d68063"/>
      <circle cx="238.47" cy="90.17" r="1.4" fill="#d68063"/>
      <circle cx="231.67" cy="108.47" r="1.7" fill="#d68063"/>
      <circle cx="240.37" cy="122.57" r="1.9" fill="#d68063"/>
      <circle cx="251.47" cy="133.27" r="1.2" fill="#d68063"/>
    </g>
  </g>
  <path d="M207.57,127.57s-45.3-28.3-4.9-69.7C202.67,57.87,249.37,102.87,207.57,127.57Z" fill="#ad421d"/>
  <path d="M321.87,127.57s45.8-28.3,5.4-69.7C327.27,57.87,282,96.17,321.87,127.57Z" fill="#ad421d"/>
  <path d="M625.47,147.27l-3.9-3.7v-10a2.4,2.4,0,0,0-4.8,0v9.6a2.65,2.65,0,0,0-.6.5l-3.5,4.2a2.27,2.27,0,1,0,3.5,2.9l1-1.2v1a2.33,2.33,0,0,0,2.3,2.3,2.26,2.26,0,0,0,2.3-2.22s0-.05,0-.08v-.8l.8.7a2.16,2.16,0,0,0,3-.48l.08-.12A2.46,2.46,0,0,0,625.47,147.27Z" fill="#775246"/>
  <path d="M654.47,147.27l-3.9-3.7v-10a2.4,2.4,0,0,0-4.8,0v9.6a2.65,2.65,0,0,0-.6.5l-3.5,4.2a2.27,2.27,0,1,0,3.5,2.9l1-1.2v1a2.3,2.3,0,1,0,4.6,0h0v-.8l.7.8a2.23,2.23,0,0,0,3.15-.05l0,0A2.33,2.33,0,0,0,654.47,147.27Z" fill="#775246"/>
  <path d="M689.37.77c-3.1-1.2-44.8,16.6-55.7,16.7-10.8-.1-52.6-17.9-55.6-16.7s-18.6,84,10.5,118.2c11.9,14,28,18.4,45.2,18.2,16.7.1,33.3-4.3,45.2-18.2C707.87,84.77,692.37,2,689.37.77Z" fill="#7b8516"/>
  <path d="M661.87,19.57a29,29,0,0,0-28.2,22.2,29,29,0,0,0-57.2,6.8c0,16-.3,70.2,28.2,83.3,16.9,7.7,43.2,4.9,57.8-1.3,27.9-11.9,28.3-65.9,28.3-81.9a28.89,28.89,0,0,0-28.68-29.1Z" fill="#b8c257"/>
  <g clip-path="url(#clip-path-3)">
    <g opacity="0.3">
      <polygon points="592.27 33.97 585.57 33.97 588.97 37.47 592.27 33.97" fill="#7b8516"/>
      <polygon points="599.77 33.97 593.07 33.97 596.47 37.47 599.77 33.97" fill="#7b8516"/>
      <polygon points="607.27 33.97 600.57 33.97 603.97 37.47 607.27 33.97" fill="#7b8516"/>
      <polygon points="614.77 33.97 608.07 33.97 611.47 37.47 614.77 33.97" fill="#7b8516"/>
      <polygon points="622.27 33.97 615.57 33.97 618.97 37.47 622.27 33.97" fill="#7b8516"/>
      <polygon points="629.77 33.97 622.97 33.97 626.47 37.47 629.77 33.97" fill="#7b8516"/>
      <polygon points="637.17 33.97 630.47 33.97 633.97 37.47 637.17 33.97" fill="#7b8516"/>
      <polygon points="584.77 33.97 578.07 33.97 581.47 37.47 584.77 33.97" fill="#7b8516"/>
      <polygon points="596.07 29.57 589.37 29.57 592.77 32.97 596.07 29.57" fill="#7b8516"/>
      <polygon points="603.47 29.57 596.77 29.57 600.27 32.97 603.47 29.57" fill="#7b8516"/>
      <polygon points="610.97 29.57 604.27 29.57 607.77 32.97 610.97 29.57" fill="#7b8516"/>
      <polygon points="618.47 29.57 611.77 29.57 615.17 32.97 618.47 29.57" fill="#7b8516"/>
      <polygon points="625.97 29.57 619.27 29.57 622.67 32.97 625.97 29.57" fill="#7b8516"/>
      <polygon points="588.57 29.57 581.87 29.57 585.27 32.97 588.57 29.57" fill="#7b8516"/>
      <polygon points="648.47 29.57 641.77 29.57 645.17 32.97 648.47 29.57" fill="#7b8516"/>
      <polygon points="596.07 20.57 589.37 20.57 592.77 23.97 596.07 20.57" fill="#7b8516"/>
      <polygon points="603.47 20.57 596.77 20.57 600.27 23.97 603.47 20.57" fill="#7b8516"/>
      <polygon points="610.97 20.57 604.27 20.57 607.77 23.97 610.97 20.57" fill="#7b8516"/>
      <polygon points="618.47 20.57 611.77 20.57 615.17 23.97 618.47 20.57" fill="#7b8516"/>
      <polygon points="592.27 25.07 585.57 25.07 588.97 28.47 592.27 25.07" fill="#7b8516"/>
      <polygon points="599.77 25.07 593.07 25.07 596.47 28.47 599.77 25.07" fill="#7b8516"/>
      <polygon points="607.27 25.07 600.57 25.07 603.97 28.47 607.27 25.07" fill="#7b8516"/>
      <polygon points="614.77 25.07 608.07 25.07 611.47 28.47 614.77 25.07" fill="#7b8516"/>
      <polygon points="622.27 25.07 615.57 25.07 618.97 28.47 622.27 25.07" fill="#7b8516"/>
      <polygon points="652.17 25.07 645.47 25.07 648.87 28.47 652.17 25.07" fill="#7b8516"/>
      <polygon points="591.87 51.97 585.17 51.97 588.57 55.37 591.87 51.97" fill="#7b8516"/>
      <polygon points="599.37 51.97 592.67 51.97 596.07 55.37 599.37 51.97" fill="#7b8516"/>
      <polygon points="606.87 51.97 600.17 51.97 603.57 55.37 606.87 51.97" fill="#7b8516"/>
      <polygon points="614.37 51.97 607.67 51.97 611.07 55.37 614.37 51.97" fill="#7b8516"/>
      <polygon points="621.87 51.97 615.17 51.97 618.57 55.37 621.87 51.97" fill="#7b8516"/>
      <polygon points="629.07 51.77 622.37 51.77 625.77 55.27 629.07 51.77" fill="#7b8516"/>
      <polygon points="636.77 51.97 630.07 51.97 633.57 55.37 636.77 51.97" fill="#7b8516"/>
      <polygon points="584.37 51.97 577.67 51.97 581.17 55.37 584.37 51.97" fill="#7b8516"/>
      <polygon points="651.77 51.97 645.07 51.97 648.47 55.37 651.77 51.97" fill="#7b8516"/>
      <polygon points="644.27 51.97 637.57 51.97 641.07 55.37 644.27 51.97" fill="#7b8516"/>
      <polygon points="595.67 47.47 588.97 47.47 592.37 50.87 595.67 47.47" fill="#7b8516"/>
      <polygon points="603.17 47.47 596.47 47.47 599.87 50.87 603.17 47.47" fill="#7b8516"/>
      <polygon points="610.57 47.47 603.87 47.47 607.37 50.87 610.57 47.47" fill="#7b8516"/>
      <polygon points="618.07 47.47 611.37 47.47 614.77 50.87 618.07 47.47" fill="#7b8516"/>
      <polygon points="625.57 47.47 618.87 47.47 622.27 50.87 625.57 47.47" fill="#7b8516"/>
      <polygon points="632.87 47.37 626.17 47.37 629.57 50.87 632.87 47.37" fill="#7b8516"/>
      <polygon points="640.57 47.47 633.87 47.47 637.27 50.87 640.57 47.47" fill="#7b8516"/>
      <polygon points="588.17 47.47 581.47 47.47 584.87 50.87 588.17 47.47" fill="#7b8516"/>
      <polygon points="580.67 47.47 573.97 47.47 577.37 50.87 580.67 47.47" fill="#7b8516"/>
      <polygon points="648.07 47.47 641.37 47.47 644.77 50.87 648.07 47.47" fill="#7b8516"/>
      <polygon points="588.17 38.47 581.47 38.47 584.87 41.87 588.17 38.47" fill="#7b8516"/>
      <polygon points="595.67 38.47 588.97 38.47 592.37 41.87 595.67 38.47" fill="#7b8516"/>
      <polygon points="603.17 38.47 596.47 38.47 599.87 41.87 603.17 38.47" fill="#7b8516"/>
      <polygon points="610.57 38.47 603.87 38.47 607.37 41.87 610.57 38.47" fill="#7b8516"/>
      <polygon points="618.07 38.47 611.37 38.47 614.77 41.87 618.07 38.47" fill="#7b8516"/>
      <polygon points="625.57 38.47 618.87 38.47 622.27 41.87 625.57 38.47" fill="#7b8516"/>
      <polygon points="633.07 38.47 626.37 38.47 629.77 41.87 633.07 38.47" fill="#7b8516"/>
      <polygon points="580.67 38.47 573.97 38.47 577.37 41.87 580.67 38.47" fill="#7b8516"/>
      <polygon points="640.57 38.47 633.87 38.47 637.27 41.87 640.57 38.47" fill="#7b8516"/>
      <polygon points="591.87 42.97 585.17 42.97 588.57 46.37 591.87 42.97" fill="#7b8516"/>
      <polygon points="599.37 42.97 592.67 42.97 596.07 46.37 599.37 42.97" fill="#7b8516"/>
      <polygon points="606.87 42.97 600.17 42.97 603.57 46.37 606.87 42.97" fill="#7b8516"/>
      <polygon points="614.37 42.97 607.67 42.97 611.07 46.37 614.37 42.97" fill="#7b8516"/>
      <polygon points="621.87 42.97 615.17 42.97 618.57 46.37 621.87 42.97" fill="#7b8516"/>
      <polygon points="629.37 42.97 622.67 42.97 626.07 46.37 629.37 42.97" fill="#7b8516"/>
      <polygon points="636.77 42.97 630.07 42.97 633.57 46.37 636.77 42.97" fill="#7b8516"/>
      <polygon points="584.37 42.97 577.67 42.97 581.17 46.37 584.37 42.97" fill="#7b8516"/>
      <polygon points="651.77 42.97 645.07 42.97 648.47 46.37 651.77 42.97" fill="#7b8516"/>
      <polygon points="644.27 42.97 637.57 42.97 641.07 46.37 644.27 42.97" fill="#7b8516"/>
      <polygon points="584.37 69.87 577.67 69.87 581.17 73.27 584.37 69.87" fill="#7b8516"/>
      <polygon points="591.87 69.87 585.17 69.87 588.57 73.27 591.87 69.87" fill="#7b8516"/>
      <polygon points="599.37 69.87 592.67 69.87 596.07 73.27 599.37 69.87" fill="#7b8516"/>
      <polygon points="606.87 69.87 600.17 69.87 603.57 73.27 606.87 69.87" fill="#7b8516"/>
      <polygon points="614.37 69.87 607.67 69.87 611.07 73.27 614.37 69.87" fill="#7b8516"/>
      <polygon points="621.87 69.87 615.17 69.87 618.57 73.27 621.87 69.87" fill="#7b8516"/>
      <polygon points="629.37 69.87 622.67 69.87 626.07 73.27 629.37 69.87" fill="#7b8516"/>
      <polygon points="636.77 69.87 630.07 69.87 633.57 73.27 636.77 69.87" fill="#7b8516"/>
      <polygon points="647.67 65.37 640.97 65.37 644.37 68.77 647.67 65.37" fill="#7b8516"/>
      <polygon points="588.17 65.37 581.47 65.37 584.87 68.77 588.17 65.37" fill="#7b8516"/>
      <polygon points="595.67 65.37 588.97 65.37 592.37 68.77 595.67 65.37" fill="#7b8516"/>
      <polygon points="603.17 65.37 596.47 65.37 599.87 68.77 603.17 65.37" fill="#7b8516"/>
      <polygon points="610.57 65.37 603.87 65.37 607.37 68.77 610.57 65.37" fill="#7b8516"/>
      <polygon points="618.07 65.37 611.37 65.37 614.77 68.77 618.07 65.37" fill="#7b8516"/>
      <polygon points="625.57 65.37 618.87 65.37 622.27 68.77 625.57 65.37" fill="#7b8516"/>
      <polygon points="633.07 65.37 626.37 65.37 629.77 68.77 633.07 65.37" fill="#7b8516"/>
      <polygon points="580.67 65.37 573.97 65.37 577.37 68.77 580.67 65.37" fill="#7b8516"/>
      <polygon points="640.57 65.37 633.87 65.37 637.27 68.77 640.57 65.37" fill="#7b8516"/>
      <polygon points="647.87 56.37 641.17 56.37 644.57 59.87 647.87 56.37" fill="#7b8516"/>
      <polygon points="580.67 56.37 573.97 56.37 577.37 59.87 580.67 56.37" fill="#7b8516"/>
      <polygon points="588.17 56.37 581.47 56.37 584.87 59.87 588.17 56.37" fill="#7b8516"/>
      <polygon points="595.67 56.37 588.97 56.37 592.37 59.87 595.67 56.37" fill="#7b8516"/>
      <polygon points="603.17 56.37 596.47 56.37 599.87 59.87 603.17 56.37" fill="#7b8516"/>
      <polygon points="610.57 56.37 603.87 56.37 607.37 59.87 610.57 56.37" fill="#7b8516"/>
      <polygon points="618.07 56.37 611.37 56.37 614.77 59.87 618.07 56.37" fill="#7b8516"/>
      <polygon points="625.57 56.37 618.87 56.37 622.27 59.87 625.57 56.37" fill="#7b8516"/>
      <polygon points="640.57 56.37 633.87 56.37 637.27 59.87 640.57 56.37" fill="#7b8516"/>
      <polygon points="633.07 56.37 626.37 56.37 629.77 59.87 633.07 56.37" fill="#7b8516"/>
      <polygon points="584.37 60.87 577.67 60.87 581.17 64.27 584.37 60.87" fill="#7b8516"/>
      <polygon points="591.87 60.87 585.17 60.87 588.57 64.27 591.87 60.87" fill="#7b8516"/>
      <polygon points="599.37 60.87 592.67 60.87 596.07 64.27 599.37 60.87" fill="#7b8516"/>
      <polygon points="606.87 60.87 600.17 60.87 603.57 64.27 606.87 60.87" fill="#7b8516"/>
      <polygon points="614.37 60.87 607.67 60.87 611.07 64.27 614.37 60.87" fill="#7b8516"/>
      <polygon points="621.87 60.87 615.17 60.87 618.57 64.27 621.87 60.87" fill="#7b8516"/>
      <polygon points="629.37 60.87 622.67 60.87 626.07 64.27 629.37 60.87" fill="#7b8516"/>
      <polygon points="651.37 60.87 644.67 60.87 648.17 64.27 651.37 60.87" fill="#7b8516"/>
      <polygon points="644.27 60.87 637.57 60.87 641.07 64.27 644.27 60.87" fill="#7b8516"/>
      <polygon points="636.77 60.87 630.07 60.87 633.57 64.27 636.77 60.87" fill="#7b8516"/>
      <polygon points="590.97 87.77 584.27 87.77 587.77 91.17 590.97 87.77" fill="#7b8516"/>
      <polygon points="598.47 87.77 591.77 87.77 595.17 91.17 598.47 87.77" fill="#7b8516"/>
      <polygon points="605.97 87.77 599.27 87.77 602.67 91.17 605.97 87.77" fill="#7b8516"/>
      <polygon points="613.47 87.77 606.77 87.77 610.17 91.17 613.47 87.77" fill="#7b8516"/>
      <polygon points="620.97 87.77 614.27 87.77 617.67 91.17 620.97 87.77" fill="#7b8516"/>
      <polygon points="628.47 87.77 621.77 87.77 625.17 91.17 628.47 87.77" fill="#7b8516"/>
      <polygon points="635.97 87.77 629.27 87.77 632.67 91.17 635.97 87.77" fill="#7b8516"/>
      <polygon points="583.47 87.77 576.77 87.77 580.27 91.17 583.47 87.77" fill="#7b8516"/>
      <polygon points="594.77 83.27 588.07 83.27 591.47 86.67 594.77 83.27" fill="#7b8516"/>
      <polygon points="602.27 83.27 595.57 83.27 598.97 86.67 602.27 83.27" fill="#7b8516"/>
      <polygon points="609.77 83.27 602.97 83.27 606.47 86.67 609.77 83.27" fill="#7b8516"/>
      <polygon points="617.17 83.27 610.47 83.27 613.97 86.67 617.17 83.27" fill="#7b8516"/>
      <polygon points="624.67 83.27 617.97 83.27 621.47 86.67 624.67 83.27" fill="#7b8516"/>
      <polygon points="632.17 83.27 625.47 83.27 628.87 86.67 632.17 83.27" fill="#7b8516"/>
      <polygon points="587.27 83.27 580.57 83.27 583.97 86.67 587.27 83.27" fill="#7b8516"/>
      <polygon points="647.17 83.27 640.47 83.27 643.87 86.67 647.17 83.27" fill="#7b8516"/>
      <polygon points="587.27 74.27 580.57 74.27 583.97 77.77 587.27 74.27" fill="#7b8516"/>
      <polygon points="594.77 74.27 588.07 74.27 591.47 77.77 594.77 74.27" fill="#7b8516"/>
      <polygon points="602.27 74.27 595.57 74.27 598.97 77.77 602.27 74.27" fill="#7b8516"/>
      <polygon points="609.77 74.27 602.97 74.27 606.47 77.77 609.77 74.27" fill="#7b8516"/>
      <polygon points="617.17 74.27 610.47 74.27 613.97 77.77 617.17 74.27" fill="#7b8516"/>
      <polygon points="624.67 74.27 617.97 74.27 621.47 77.77 624.67 74.27" fill="#7b8516"/>
      <polygon points="632.17 74.27 625.47 74.27 628.87 77.77 632.17 74.27" fill="#7b8516"/>
      <polygon points="579.77 74.27 573.07 74.27 576.47 77.77 579.77 74.27" fill="#7b8516"/>
      <polygon points="647.17 74.27 640.47 74.27 643.87 77.77 647.17 74.27" fill="#7b8516"/>
      <polygon points="639.67 74.27 632.97 74.27 636.37 77.77 639.67 74.27" fill="#7b8516"/>
      <polygon points="590.97 78.77 584.27 78.77 587.77 82.17 590.97 78.77" fill="#7b8516"/>
      <polygon points="598.47 78.77 591.77 78.77 595.17 82.17 598.47 78.77" fill="#7b8516"/>
      <polygon points="605.97 78.77 599.27 78.77 602.67 82.17 605.97 78.77" fill="#7b8516"/>
      <polygon points="613.47 78.77 606.77 78.77 610.17 82.17 613.47 78.77" fill="#7b8516"/>
      <polygon points="620.97 78.77 614.27 78.77 617.67 82.17 620.97 78.77" fill="#7b8516"/>
      <polygon points="628.47 78.77 621.77 78.77 625.17 82.17 628.47 78.77" fill="#7b8516"/>
      <polygon points="583.47 78.77 576.77 78.77 580.27 82.17 583.47 78.77" fill="#7b8516"/>
      <polygon points="650.87 78.77 644.17 78.77 647.67 82.17 650.87 78.77" fill="#7b8516"/>
      <polygon points="643.47 78.77 636.67 78.77 640.17 82.17 643.47 78.77" fill="#7b8516"/>
      <polygon points="590.57 105.67 583.87 105.67 587.37 109.07 590.57 105.67" fill="#7b8516"/>
      <polygon points="598.07 105.67 591.37 105.67 594.77 109.07 598.07 105.67" fill="#7b8516"/>
      <polygon points="605.57 105.67 598.87 105.67 602.27 109.07 605.57 105.67" fill="#7b8516"/>
      <polygon points="613.07 105.67 606.37 105.67 609.77 109.07 613.07 105.67" fill="#7b8516"/>
      <polygon points="620.57 105.67 613.87 105.67 617.27 109.07 620.57 105.67" fill="#7b8516"/>
      <polygon points="628.07 105.67 621.37 105.67 624.77 109.07 628.07 105.67" fill="#7b8516"/>
      <polygon points="635.57 105.67 628.87 105.67 632.27 109.07 635.57 105.67" fill="#7b8516"/>
      <polygon points="650.47 105.67 643.77 105.67 647.27 109.07 650.47 105.67" fill="#7b8516"/>
      <polygon points="642.97 105.67 636.27 105.67 639.77 109.07 642.97 105.67" fill="#7b8516"/>
      <polygon points="594.37 101.17 587.67 101.17 591.07 104.57 594.37 101.17" fill="#7b8516"/>
      <polygon points="601.87 101.17 595.17 101.17 598.57 104.57 601.87 101.17" fill="#7b8516"/>
      <polygon points="609.37 101.17 602.67 101.17 606.07 104.57 609.37 101.17" fill="#7b8516"/>
      <polygon points="616.77 101.17 610.07 101.17 613.57 104.57 616.77 101.17" fill="#7b8516"/>
      <polygon points="624.27 101.17 617.57 101.17 620.97 104.57 624.27 101.17" fill="#7b8516"/>
      <polygon points="631.77 101.17 625.07 101.17 628.47 104.57 631.77 101.17" fill="#7b8516"/>
      <polygon points="639.27 101.17 632.57 101.17 635.97 104.57 639.27 101.17" fill="#7b8516"/>
      <polygon points="586.87 101.17 580.17 101.17 583.57 104.57 586.87 101.17" fill="#7b8516"/>
      <polygon points="646.77 101.17 640.07 101.17 643.47 104.57 646.77 101.17" fill="#7b8516"/>
      <polygon points="586.87 92.27 580.17 92.27 583.57 95.67 586.87 92.27" fill="#7b8516"/>
      <polygon points="594.37 92.27 587.67 92.27 591.07 95.67 594.37 92.27" fill="#7b8516"/>
      <polygon points="601.87 92.27 595.17 92.27 598.57 95.67 601.87 92.27" fill="#7b8516"/>
      <polygon points="609.37 92.27 602.67 92.27 606.07 95.67 609.37 92.27" fill="#7b8516"/>
      <polygon points="616.77 92.27 610.07 92.27 613.57 95.67 616.77 92.27" fill="#7b8516"/>
      <polygon points="624.27 92.27 617.57 92.27 621.07 95.67 624.27 92.27" fill="#7b8516"/>
      <polygon points="631.77 92.27 625.07 92.27 628.47 95.67 631.77 92.27" fill="#7b8516"/>
      <polygon points="639.27 92.27 632.57 92.27 635.97 95.67 639.27 92.27" fill="#7b8516"/>
      <polygon points="590.57 96.67 583.87 96.67 587.37 100.17 590.57 96.67" fill="#7b8516"/>
      <polygon points="598.07 96.67 591.37 96.67 594.77 100.17 598.07 96.67" fill="#7b8516"/>
      <polygon points="605.57 96.67 598.87 96.67 602.27 100.17 605.57 96.67" fill="#7b8516"/>
      <polygon points="613.07 96.67 606.37 96.67 609.77 100.17 613.07 96.67" fill="#7b8516"/>
      <polygon points="620.57 96.67 613.87 96.67 617.27 100.17 620.57 96.67" fill="#7b8516"/>
      <polygon points="628.07 96.67 621.37 96.67 624.77 100.17 628.07 96.67" fill="#7b8516"/>
      <polygon points="635.57 96.67 628.87 96.67 632.27 100.17 635.57 96.67" fill="#7b8516"/>
      <polygon points="583.17 96.67 576.47 96.67 579.87 100.17 583.17 96.67" fill="#7b8516"/>
      <polygon points="650.47 96.67 643.77 96.67 647.27 100.17 650.47 96.67" fill="#7b8516"/>
      <polygon points="642.97 96.67 636.27 96.67 639.77 100.17 642.97 96.67" fill="#7b8516"/>
      <polygon points="598.07 123.57 591.37 123.57 594.77 126.97 598.07 123.57" fill="#7b8516"/>
      <polygon points="605.57 123.57 598.87 123.57 602.27 126.97 605.57 123.57" fill="#7b8516"/>
      <polygon points="613.07 123.57 606.37 123.57 609.77 126.97 613.07 123.57" fill="#7b8516"/>
      <polygon points="620.57 123.57 613.87 123.57 617.27 126.97 620.57 123.57" fill="#7b8516"/>
      <polygon points="628.07 123.57 621.37 123.57 624.77 126.97 628.07 123.57" fill="#7b8516"/>
      <polygon points="635.57 123.57 628.87 123.57 632.27 126.97 635.57 123.57" fill="#7b8516"/>
      <polygon points="646.37 119.07 639.67 119.07 643.07 122.47 646.37 119.07" fill="#7b8516"/>
      <polygon points="594.37 119.07 587.67 119.07 591.07 122.47 594.37 119.07" fill="#7b8516"/>
      <polygon points="601.87 119.07 595.17 119.07 598.57 122.47 601.87 119.07" fill="#7b8516"/>
      <polygon points="609.37 119.07 602.67 119.07 606.07 122.47 609.37 119.07" fill="#7b8516"/>
      <polygon points="616.77 119.07 610.07 119.07 613.57 122.47 616.77 119.07" fill="#7b8516"/>
      <polygon points="624.27 119.07 617.57 119.07 621.07 122.47 624.27 119.07" fill="#7b8516"/>
      <polygon points="631.77 119.07 625.07 119.07 628.47 122.47 631.77 119.07" fill="#7b8516"/>
      <polygon points="639.27 119.07 632.57 119.07 635.97 122.47 639.27 119.07" fill="#7b8516"/>
      <polygon points="646.57 110.17 639.87 110.17 643.27 113.57 646.57 110.17" fill="#7b8516"/>
      <polygon points="586.87 110.17 580.17 110.17 583.57 113.57 586.87 110.17" fill="#7b8516"/>
      <polygon points="594.37 110.17 587.67 110.17 591.07 113.57 594.37 110.17" fill="#7b8516"/>
      <polygon points="601.87 110.17 595.17 110.17 598.57 113.57 601.87 110.17" fill="#7b8516"/>
      <polygon points="609.37 110.17 602.67 110.17 606.07 113.57 609.37 110.17" fill="#7b8516"/>
      <polygon points="616.77 110.17 610.07 110.17 613.57 113.57 616.77 110.17" fill="#7b8516"/>
      <polygon points="624.27 110.17 617.57 110.17 621.07 113.57 624.27 110.17" fill="#7b8516"/>
      <polygon points="639.27 110.17 632.57 110.17 635.97 113.57 639.27 110.17" fill="#7b8516"/>
      <polygon points="631.77 110.17 625.07 110.17 628.47 113.57 631.77 110.17" fill="#7b8516"/>
      <polygon points="590.57 114.57 583.87 114.57 587.37 118.07 590.57 114.57" fill="#7b8516"/>
      <polygon points="598.07 114.57 591.37 114.57 594.77 118.07 598.07 114.57" fill="#7b8516"/>
      <polygon points="605.57 114.57 598.87 114.57 602.27 118.07 605.57 114.57" fill="#7b8516"/>
      <polygon points="613.07 114.57 606.37 114.57 609.77 118.07 613.07 114.57" fill="#7b8516"/>
      <polygon points="620.57 114.57 613.87 114.57 617.27 118.07 620.57 114.57" fill="#7b8516"/>
      <polygon points="628.07 114.57 621.37 114.57 624.77 118.07 628.07 114.57" fill="#7b8516"/>
      <polygon points="650.17 114.57 643.47 114.57 646.87 118.07 650.17 114.57" fill="#7b8516"/>
      <polygon points="642.97 114.57 636.27 114.57 639.77 118.07 642.97 114.57" fill="#7b8516"/>
      <polygon points="635.57 114.57 628.87 114.57 632.27 118.07 635.57 114.57" fill="#7b8516"/>
      <polygon points="647.17 92.27 640.47 92.27 643.87 95.67 647.17 92.27" fill="#7b8516"/>
      <polygon points="654.67 92.27 647.97 92.27 651.37 95.67 654.67 92.27" fill="#7b8516"/>
      <polygon points="662.17 92.27 655.47 92.27 658.87 95.67 662.17 92.27" fill="#7b8516"/>
      <polygon points="669.67 92.27 662.97 92.27 666.37 95.67 669.67 92.27" fill="#7b8516"/>
      <polygon points="677.07 92.27 670.37 92.27 673.87 95.67 677.07 92.27" fill="#7b8516"/>
      <polygon points="684.57 92.27 677.87 92.27 681.27 95.67 684.57 92.27" fill="#7b8516"/>
      <polygon points="692.07 92.27 685.37 92.27 688.77 95.67 692.07 92.27" fill="#7b8516"/>
      <polygon points="650.87 87.77 644.17 87.77 647.67 91.17 650.87 87.77" fill="#7b8516"/>
      <polygon points="658.37 87.77 651.67 87.77 655.07 91.17 658.37 87.77" fill="#7b8516"/>
      <polygon points="665.87 87.77 659.17 87.77 662.57 91.17 665.87 87.77" fill="#7b8516"/>
      <polygon points="673.37 87.77 666.67 87.77 670.07 91.17 673.37 87.77" fill="#7b8516"/>
      <polygon points="680.87 87.77 674.17 87.77 677.57 91.17 680.87 87.77" fill="#7b8516"/>
      <polygon points="688.37 87.77 681.67 87.77 685.07 91.17 688.37 87.77" fill="#7b8516"/>
      <polygon points="643.47 87.77 636.67 87.77 640.17 91.17 643.47 87.77" fill="#7b8516"/>
      <polygon points="658.37 78.77 651.67 78.77 655.07 82.17 658.37 78.77" fill="#7b8516"/>
      <polygon points="665.87 78.77 659.17 78.77 662.57 82.17 665.87 78.77" fill="#7b8516"/>
      <polygon points="673.37 78.77 666.67 78.77 670.07 82.17 673.37 78.77" fill="#7b8516"/>
      <polygon points="680.87 78.77 674.17 78.77 677.57 82.17 680.87 78.77" fill="#7b8516"/>
      <polygon points="688.37 78.77 681.67 78.77 685.07 82.17 688.37 78.77" fill="#7b8516"/>
      <polygon points="635.97 78.77 629.27 78.77 632.67 82.17 635.97 78.77" fill="#7b8516"/>
      <polygon points="654.67 83.27 647.97 83.27 651.37 86.67 654.67 83.27" fill="#7b8516"/>
      <polygon points="662.17 83.27 655.47 83.27 658.87 86.67 662.17 83.27" fill="#7b8516"/>
      <polygon points="669.67 83.27 662.97 83.27 666.37 86.67 669.67 83.27" fill="#7b8516"/>
      <polygon points="677.07 83.27 670.37 83.27 673.87 86.67 677.07 83.27" fill="#7b8516"/>
      <polygon points="684.57 83.27 677.87 83.27 681.27 86.67 684.57 83.27" fill="#7b8516"/>
      <polygon points="639.67 83.27 632.97 83.27 636.37 86.67 639.67 83.27" fill="#7b8516"/>
      <polygon points="654.27 110.17 647.57 110.17 650.97 113.57 654.27 110.17" fill="#7b8516"/>
      <polygon points="661.77 110.17 655.07 110.17 658.47 113.57 661.77 110.17" fill="#7b8516"/>
      <polygon points="669.27 110.17 662.57 110.17 665.97 113.57 669.27 110.17" fill="#7b8516"/>
      <polygon points="676.77 110.17 669.97 110.17 673.47 113.57 676.77 110.17" fill="#7b8516"/>
      <polygon points="684.17 110.17 677.47 110.17 680.97 113.57 684.17 110.17" fill="#7b8516"/>
      <polygon points="657.97 105.67 651.27 105.67 654.77 109.07 657.97 105.67" fill="#7b8516"/>
      <polygon points="665.47 105.67 658.77 105.67 662.17 109.07 665.47 105.67" fill="#7b8516"/>
      <polygon points="672.97 105.67 666.27 105.67 669.67 109.07 672.97 105.67" fill="#7b8516"/>
      <polygon points="680.47 105.67 673.77 105.67 677.17 109.07 680.47 105.67" fill="#7b8516"/>
      <polygon points="687.97 105.67 681.27 105.67 684.67 109.07 687.97 105.67" fill="#7b8516"/>
      <polygon points="657.97 96.67 651.27 96.67 654.77 100.17 657.97 96.67" fill="#7b8516"/>
      <polygon points="665.47 96.67 658.77 96.67 662.17 100.17 665.47 96.67" fill="#7b8516"/>
      <polygon points="672.97 96.67 666.27 96.67 669.67 100.17 672.97 96.67" fill="#7b8516"/>
      <polygon points="680.47 96.67 673.77 96.67 677.17 100.17 680.47 96.67" fill="#7b8516"/>
      <polygon points="687.97 96.67 681.27 96.67 684.67 100.17 687.97 96.67" fill="#7b8516"/>
      <polygon points="654.27 101.17 647.57 101.17 650.97 104.57 654.27 101.17" fill="#7b8516"/>
      <polygon points="661.77 101.17 655.07 101.17 658.47 104.57 661.77 101.17" fill="#7b8516"/>
      <polygon points="669.27 101.17 662.57 101.17 665.97 104.57 669.27 101.17" fill="#7b8516"/>
      <polygon points="676.77 101.17 669.97 101.17 673.47 104.57 676.77 101.17" fill="#7b8516"/>
      <polygon points="684.17 101.17 677.47 101.17 680.97 104.57 684.17 101.17" fill="#7b8516"/>
      <polygon points="691.67 101.17 684.97 101.17 688.47 104.57 691.67 101.17" fill="#7b8516"/>
      <polygon points="639.27 128.07 632.57 128.07 635.97 131.47 639.27 128.07" fill="#7b8516"/>
      <polygon points="646.77 128.07 640.07 128.07 643.47 131.47 646.77 128.07" fill="#7b8516"/>
      <polygon points="654.27 128.07 647.57 128.07 650.97 131.47 654.27 128.07" fill="#7b8516"/>
      <polygon points="661.77 128.07 655.07 128.07 658.47 131.47 661.77 128.07" fill="#7b8516"/>
      <polygon points="669.27 128.07 662.57 128.07 665.97 131.47 669.27 128.07" fill="#7b8516"/>
      <polygon points="676.77 128.07 669.97 128.07 673.47 131.47 676.77 128.07" fill="#7b8516"/>
      <polygon points="642.97 123.57 636.27 123.57 639.77 126.97 642.97 123.57" fill="#7b8516"/>
      <polygon points="650.47 123.57 643.77 123.57 647.27 126.97 650.47 123.57" fill="#7b8516"/>
      <polygon points="657.97 123.57 651.27 123.57 654.77 126.97 657.97 123.57" fill="#7b8516"/>
      <polygon points="665.47 123.57 658.77 123.57 662.17 126.97 665.47 123.57" fill="#7b8516"/>
      <polygon points="672.97 123.57 666.27 123.57 669.67 126.97 672.97 123.57" fill="#7b8516"/>
      <polygon points="680.47 123.57 673.77 123.57 677.17 126.97 680.47 123.57" fill="#7b8516"/>
      <polygon points="635.57 114.57 628.87 114.57 632.27 118.07 635.57 114.57" fill="#7b8516"/>
      <polygon points="657.97 114.57 651.27 114.57 654.77 118.07 657.97 114.57" fill="#7b8516"/>
      <polygon points="665.47 114.57 658.77 114.57 662.17 118.07 665.47 114.57" fill="#7b8516"/>
      <polygon points="672.97 114.57 666.27 114.57 669.67 118.07 672.97 114.57" fill="#7b8516"/>
      <polygon points="680.47 114.57 673.77 114.57 677.17 118.07 680.47 114.57" fill="#7b8516"/>
      <polygon points="687.97 114.57 681.27 114.57 684.67 118.07 687.97 114.57" fill="#7b8516"/>
      <polygon points="654.27 119.07 647.57 119.07 650.97 122.47 654.27 119.07" fill="#7b8516"/>
      <polygon points="661.77 119.07 655.07 119.07 658.47 122.47 661.77 119.07" fill="#7b8516"/>
      <polygon points="669.27 119.07 662.57 119.07 665.97 122.47 669.27 119.07" fill="#7b8516"/>
      <polygon points="676.77 119.07 669.97 119.07 673.47 122.47 676.77 119.07" fill="#7b8516"/>
      <polygon points="684.17 119.07 677.47 119.07 680.97 122.47 684.17 119.07" fill="#7b8516"/>
      <polygon points="593.97 128.07 587.27 128.07 590.67 131.47 593.97 128.07" fill="#7b8516"/>
      <polygon points="601.47 128.07 594.77 128.07 598.17 131.47 601.47 128.07" fill="#7b8516"/>
      <polygon points="608.97 128.07 602.27 128.07 605.67 131.47 608.97 128.07" fill="#7b8516"/>
      <polygon points="616.47 128.07 609.77 128.07 613.17 131.47 616.47 128.07" fill="#7b8516"/>
      <polygon points="623.87 128.07 617.17 128.07 620.67 131.47 623.87 128.07" fill="#7b8516"/>
      <polygon points="631.37 128.07 624.67 128.07 628.17 131.47 631.37 128.07" fill="#7b8516"/>
      <polygon points="613.67 131.77 606.97 131.77 610.37 135.17 613.67 131.77" fill="#7b8516"/>
      <polygon points="621.17 131.77 614.47 131.77 617.87 135.17 621.17 131.77" fill="#7b8516"/>
      <polygon points="628.67 131.77 621.97 131.77 625.37 135.17 628.67 131.77" fill="#7b8516"/>
      <polygon points="636.17 131.77 629.47 131.77 632.87 135.17 636.17 131.77" fill="#7b8516"/>
      <polygon points="643.67 131.77 636.97 131.77 640.37 135.17 643.67 131.77" fill="#7b8516"/>
      <polygon points="651.17 131.77 644.47 131.77 647.87 135.17 651.17 131.77" fill="#7b8516"/>
      <polygon points="655.07 74.27 648.37 74.27 651.77 77.77 655.07 74.27" fill="#7b8516"/>
      <polygon points="662.57 74.27 655.87 74.27 659.27 77.77 662.57 74.27" fill="#7b8516"/>
      <polygon points="669.97 74.27 663.27 74.27 666.77 77.77 669.97 74.27" fill="#7b8516"/>
      <polygon points="677.47 74.27 670.77 74.27 674.27 77.77 677.47 74.27" fill="#7b8516"/>
      <polygon points="684.97 74.27 678.27 74.27 681.77 77.77 684.97 74.27" fill="#7b8516"/>
      <polygon points="692.47 74.27 685.77 74.27 689.17 77.77 692.47 74.27" fill="#7b8516"/>
      <polygon points="643.47 69.87 636.77 69.87 640.17 73.27 643.47 69.87" fill="#7b8516"/>
      <polygon points="650.87 69.87 644.17 69.87 647.67 73.27 650.87 69.87" fill="#7b8516"/>
      <polygon points="658.37 69.87 651.67 69.87 655.07 73.27 658.37 69.87" fill="#7b8516"/>
      <polygon points="665.87 69.87 659.17 69.87 662.57 73.27 665.87 69.87" fill="#7b8516"/>
      <polygon points="673.37 69.87 666.67 69.87 670.07 73.27 673.37 69.87" fill="#7b8516"/>
      <polygon points="680.87 69.87 674.17 69.87 677.57 73.27 680.87 69.87" fill="#7b8516"/>
      <polygon points="655.07 65.67 648.37 65.67 651.77 69.07 655.07 65.67" fill="#7b8516"/>
      <polygon points="662.57 65.67 655.87 65.67 659.27 69.07 662.57 65.67" fill="#7b8516"/>
      <polygon points="669.97 65.67 663.27 65.67 666.77 69.07 669.97 65.67" fill="#7b8516"/>
      <polygon points="677.47 65.67 670.77 65.67 674.27 69.07 677.47 65.67" fill="#7b8516"/>
      <polygon points="684.97 65.67 678.27 65.67 681.77 69.07 684.97 65.67" fill="#7b8516"/>
      <polygon points="692.47 65.67 685.77 65.67 689.17 69.07 692.47 65.67" fill="#7b8516"/>
      <polygon points="657.97 60.87 651.27 60.87 654.77 64.27 657.97 60.87" fill="#7b8516"/>
      <polygon points="665.47 60.87 658.77 60.87 662.17 64.27 665.47 60.87" fill="#7b8516"/>
      <polygon points="672.97 60.87 666.27 60.87 669.67 64.27 672.97 60.87" fill="#7b8516"/>
      <polygon points="680.47 60.87 673.77 60.87 677.17 64.27 680.47 60.87" fill="#7b8516"/>
      <polygon points="687.97 60.87 681.27 60.87 684.67 64.27 687.97 60.87" fill="#7b8516"/>
      <polygon points="695.47 60.87 688.77 60.87 692.17 64.27 695.47 60.87" fill="#7b8516"/>
      <polygon points="658.97 51.97 652.27 51.97 655.77 55.37 658.97 51.97" fill="#7b8516"/>
      <polygon points="666.47 51.97 659.77 51.97 663.27 55.37 666.47 51.97" fill="#7b8516"/>
      <polygon points="673.97 51.97 667.27 51.97 670.67 55.37 673.97 51.97" fill="#7b8516"/>
      <polygon points="681.47 51.97 674.77 51.97 678.17 55.37 681.47 51.97" fill="#7b8516"/>
      <polygon points="688.97 51.97 682.27 51.97 685.67 55.37 688.97 51.97" fill="#7b8516"/>
      <polygon points="696.47 51.97 689.77 51.97 693.17 55.37 696.47 51.97" fill="#7b8516"/>
      <polygon points="653.07 56.37 646.37 56.37 649.77 59.87 653.07 56.37" fill="#7b8516"/>
      <polygon points="660.57 56.37 653.87 56.37 657.27 59.87 660.57 56.37" fill="#7b8516"/>
      <polygon points="668.07 56.37 661.37 56.37 664.77 59.87 668.07 56.37" fill="#7b8516"/>
      <polygon points="675.57 56.37 668.87 56.37 672.27 59.87 675.57 56.37" fill="#7b8516"/>
      <polygon points="682.97 56.37 676.27 56.37 679.77 59.87 682.97 56.37" fill="#7b8516"/>
      <polygon points="690.47 56.37 683.77 56.37 687.27 59.87 690.47 56.37" fill="#7b8516"/>
      <polygon points="644.47 33.97 637.77 33.97 641.17 37.47 644.47 33.97" fill="#7b8516"/>
      <polygon points="651.87 33.97 645.17 33.97 648.67 37.47 651.87 33.97" fill="#7b8516"/>
      <polygon points="659.37 33.97 652.67 33.97 656.17 37.47 659.37 33.97" fill="#7b8516"/>
      <polygon points="666.87 33.97 660.17 33.97 663.57 37.47 666.87 33.97" fill="#7b8516"/>
      <polygon points="674.37 33.97 667.67 33.97 671.07 37.47 674.37 33.97" fill="#7b8516"/>
      <polygon points="681.87 33.97 675.17 33.97 678.57 37.47 681.87 33.97" fill="#7b8516"/>
      <polygon points="659.37 25.07 652.67 25.07 656.17 28.47 659.37 25.07" fill="#7b8516"/>
      <polygon points="666.87 25.07 660.17 25.07 663.57 28.47 666.87 25.07" fill="#7b8516"/>
      <polygon points="674.37 25.07 667.67 25.07 671.07 28.47 674.37 25.07" fill="#7b8516"/>
      <polygon points="681.87 25.07 675.17 25.07 678.57 28.47 681.87 25.07" fill="#7b8516"/>
      <polygon points="689.37 25.07 682.67 25.07 686.07 28.47 689.37 25.07" fill="#7b8516"/>
      <polygon points="684.77 47.47 678.17 47.47 681.57 50.87 684.77 47.47" fill="#7b8516"/>
      <polygon points="692.27 47.47 685.57 47.47 689.07 50.87 692.27 47.47" fill="#7b8516"/>
      <polygon points="699.77 47.47 693.07 47.47 696.47 50.87 699.77 47.47" fill="#7b8516"/>
      <polygon points="681.47 42.97 674.77 42.97 678.17 46.37 681.47 42.97" fill="#7b8516"/>
      <polygon points="688.97 42.97 682.27 42.97 685.67 46.37 688.97 42.97" fill="#7b8516"/>
      <polygon points="696.47 42.97 689.77 42.97 693.17 46.37 696.47 42.97" fill="#7b8516"/>
      <polygon points="684.47 38.47 677.77 38.47 681.17 41.87 684.47 38.47" fill="#7b8516"/>
      <polygon points="691.97 38.47 685.27 38.47 688.67 41.87 691.97 38.47" fill="#7b8516"/>
      <polygon points="689.37 33.97 682.67 33.97 686.07 37.47 689.37 33.97" fill="#7b8516"/>
      <polygon points="677.77 29.57 671.07 29.57 674.47 32.97 677.77 29.57" fill="#7b8516"/>
      <polygon points="685.27 29.57 678.47 29.57 681.97 32.97 685.27 29.57" fill="#7b8516"/>
      <polygon points="692.67 29.57 685.97 29.57 689.47 32.97 692.67 29.57" fill="#7b8516"/>
      <polygon points="656.77 20.57 650.17 20.57 653.57 23.97 656.77 20.57" fill="#7b8516"/>
      <polygon points="664.27 20.57 657.57 20.57 661.07 23.97 664.27 20.57" fill="#7b8516"/>
      <polygon points="671.77 20.57 665.07 20.57 668.47 23.97 671.77 20.57" fill="#7b8516"/>
      <polygon points="679.27 20.57 672.57 20.57 675.97 23.97 679.27 20.57" fill="#7b8516"/>
      <polygon points="686.77 20.57 680.07 20.57 683.47 23.97 686.77 20.57" fill="#7b8516"/>
    </g>
  </g>
  <circle cx="603.97" cy="47.77" r="21.2" fill="#fff"/>
  <circle cx="662.17" cy="47.77" r="21.2" fill="#fff"/>
  <polygon points="625.77 55.77 633.37 67.37 633.37 47.67 625.77 55.77" fill="#684c42"/>
  <polygon points="633.37 47.67 633.37 67.37 640.97 55.77 633.37 47.67" fill="#775246"/>
  <path d="M671.07,126.57a35.43,35.43,0,0,0,1.3-9.7c0-20.8-17.3-37.7-38.7-37.7S595,96.07,595,116.87a36.15,36.15,0,0,0,1.3,9.8c10.7,8.2,23.7,10.9,37.4,10.8C647,137.57,660.27,134.77,671.07,126.57Z" fill="#b8c257"/>
  <path d="M576.47,128.27s-45.3-28.3-4.9-69.7C571.57,58.57,618.37,103.57,576.47,128.27Z" fill="#7b8516"/>
  <path d="M690.77,128.27s45.8-28.3,5.4-69.7C696.17,58.57,651,96.87,690.77,128.27Z" fill="#7b8516"/>
  <circle cx="604.37" cy="47.67" r="14.5" fill="#4b520d"/>
  <circle cx="602.97" cy="43.97" r="6.5" fill="#fff"/>
  <circle cx="661.27" cy="47.67" r="14.5" fill="#4b520d"/>
  <circle cx="659.87" cy="43.97" r="6.5" fill="#fff"/>
  <path d="M442.57,147.47l-3.9-3.6v-10a2.4,2.4,0,0,0-4.8,0v9.6a2.65,2.65,0,0,0-.6.5l-3.5,4.2a2.27,2.27,0,0,0,3.5,2.9h0l1-1.2v1a2.3,2.3,0,0,0,4.6,0v-.8l.8.7a2.27,2.27,0,0,0,3.4-3C442.87,147.57,442.77,147.47,442.57,147.47Z" fill="#a3413e"/>
  <path d="M471.57,147.47l-3.9-3.6v-10a2.4,2.4,0,0,0-4.8,0v9.6a2.65,2.65,0,0,0-.6.5l-3.5,4.2a2.27,2.27,0,0,0,3.5,2.9h0l1-1.2v1a2.3,2.3,0,0,0,4.6,0v-.8l.8.7a2.27,2.27,0,0,0,3.5-2.9A1.89,1.89,0,0,1,471.57,147.47Z" fill="#a3413e"/>
  <path d="M506.37,1c-3.1-1.2-16.1,12.9-16.1,12.9-15.5-5.6-28.8-7.3-39.6-7.2-10.8-.1-24.1,1.6-39.6,7.2,0,0-13-14.1-16-12.9s-18.6,84,10.4,118.2c11.9,14,28,18.4,45.2,18.2,16.7.1,33.3-4.3,45.2-18.2C525,85,509.47,2.17,506.37,1Z" fill="#a3413e"/>
  <path d="M479,19.67a29,29,0,0,0-28.2,22.2,29,29,0,0,0-57.2,6.8c0,16-.3,70.2,28.2,83.3,16.9,7.7,43.2,4.9,57.8-1.3,27.9-11.9,28.4-65.9,28.4-81.9A29.11,29.11,0,0,0,479,19.67Z" fill="#e89f8b"/>
  <g clip-path="url(#clip-path-4)">
    <g>
      <polygon points="409.37 34.17 402.67 34.17 406.07 37.57 409.37 34.17" fill="#d68063"/>
      <polygon points="416.87 34.17 410.17 34.17 413.57 37.57 416.87 34.17" fill="#d68063"/>
      <polygon points="424.37 34.17 417.67 34.17 421.07 37.57 424.37 34.17" fill="#d68063"/>
      <polygon points="431.87 34.17 425.17 34.17 428.57 37.57 431.87 34.17" fill="#d68063"/>
      <polygon points="439.37 34.17 432.67 34.17 436.07 37.57 439.37 34.17" fill="#d68063"/>
      <polygon points="446.87 34.17 440.07 34.17 443.57 37.57 446.87 34.17" fill="#d68063"/>
      <polygon points="454.27 34.17 447.57 34.17 451.07 37.57 454.27 34.17" fill="#d68063"/>
      <polygon points="401.87 34.17 395.17 34.17 398.57 37.57 401.87 34.17" fill="#d68063"/>
      <polygon points="413.17 29.67 406.47 29.67 409.87 33.17 413.17 29.67" fill="#d68063"/>
      <polygon points="420.57 29.67 413.87 29.67 417.37 33.17 420.57 29.67" fill="#d68063"/>
      <polygon points="428.07 29.67 421.37 29.67 424.87 33.17 428.07 29.67" fill="#d68063"/>
      <polygon points="435.57 29.67 428.87 29.67 432.37 33.17 435.57 29.67" fill="#d68063"/>
      <polygon points="443.07 29.67 436.37 29.67 439.77 33.17 443.07 29.67" fill="#d68063"/>
      <polygon points="405.67 29.67 398.97 29.67 402.37 33.17 405.67 29.67" fill="#d68063"/>
      <polygon points="465.57 29.67 458.87 29.67 462.27 33.17 465.57 29.67" fill="#d68063"/>
      <polygon points="413.17 20.77 406.47 20.77 409.87 24.17 413.17 20.77" fill="#d68063"/>
      <polygon points="420.57 20.77 413.97 20.77 417.37 24.17 420.57 20.77" fill="#d68063"/>
      <polygon points="428.07 20.77 421.37 20.77 424.87 24.17 428.07 20.77" fill="#d68063"/>
      <polygon points="435.57 20.77 428.87 20.77 432.37 24.17 435.57 20.77" fill="#d68063"/>
      <polygon points="409.37 25.17 402.67 25.17 406.07 28.67 409.37 25.17" fill="#d68063"/>
      <polygon points="416.87 25.17 410.17 25.17 413.57 28.67 416.87 25.17" fill="#d68063"/>
      <polygon points="424.37 25.17 417.67 25.17 421.07 28.67 424.37 25.17" fill="#d68063"/>
      <polygon points="431.87 25.17 425.17 25.17 428.57 28.67 431.87 25.17" fill="#d68063"/>
      <polygon points="439.37 25.17 432.67 25.17 436.07 28.67 439.37 25.17" fill="#d68063"/>
      <polygon points="469.27 25.17 462.57 25.17 465.97 28.67 469.27 25.17" fill="#d68063"/>
      <polygon points="408.97 52.07 402.27 52.07 405.77 55.57 408.97 52.07" fill="#d68063"/>
      <polygon points="416.47 52.07 409.77 52.07 413.17 55.57 416.47 52.07" fill="#d68063"/>
      <polygon points="423.97 52.07 417.27 52.07 420.67 55.57 423.97 52.07" fill="#d68063"/>
      <polygon points="431.47 52.07 424.77 52.07 428.17 55.57 431.47 52.07" fill="#d68063"/>
      <polygon points="438.97 52.07 432.27 52.07 435.67 55.57 438.97 52.07" fill="#d68063"/>
      <polygon points="446.47 52.07 439.77 52.07 443.17 55.57 446.47 52.07" fill="#d68063"/>
      <polygon points="453.97 52.07 447.27 52.07 450.67 55.57 453.97 52.07" fill="#d68063"/>
      <polygon points="401.47 52.07 394.77 52.07 398.27 55.57 401.47 52.07" fill="#d68063"/>
      <polygon points="468.87 52.07 462.17 52.07 465.57 55.57 468.87 52.07" fill="#d68063"/>
      <polygon points="461.37 52.07 454.67 52.07 458.17 55.57 461.37 52.07" fill="#d68063"/>
      <polygon points="412.77 47.57 406.07 47.57 409.47 51.07 412.77 47.57" fill="#d68063"/>
      <polygon points="420.27 47.57 413.47 47.57 416.97 51.07 420.27 47.57" fill="#d68063"/>
      <polygon points="427.67 47.57 420.97 47.57 424.47 51.07 427.67 47.57" fill="#d68063"/>
      <polygon points="435.17 47.57 428.47 47.57 431.97 51.07 435.17 47.57" fill="#d68063"/>
      <polygon points="442.67 47.57 435.97 47.57 439.37 51.07 442.67 47.57" fill="#d68063"/>
      <polygon points="450.17 47.57 443.47 47.57 446.87 51.07 450.17 47.57" fill="#d68063"/>
      <polygon points="457.67 47.57 450.97 47.57 454.37 51.07 457.67 47.57" fill="#d68063"/>
      <polygon points="405.27 47.57 398.57 47.57 401.97 51.07 405.27 47.57" fill="#d68063"/>
      <polygon points="397.77 47.57 391.07 47.57 394.47 51.07 397.77 47.57" fill="#d68063"/>
      <polygon points="465.17 47.57 458.47 47.57 461.87 51.07 465.17 47.57" fill="#d68063"/>
      <polygon points="405.27 38.67 398.57 38.67 401.97 42.07 405.27 38.67" fill="#d68063"/>
      <polygon points="412.77 38.67 406.07 38.67 409.47 42.07 412.77 38.67" fill="#d68063"/>
      <polygon points="420.27 38.67 413.47 38.67 416.97 42.07 420.27 38.67" fill="#d68063"/>
      <polygon points="427.67 38.67 420.97 38.67 424.47 42.07 427.67 38.67" fill="#d68063"/>
      <polygon points="435.17 38.67 428.47 38.67 431.97 42.07 435.17 38.67" fill="#d68063"/>
      <polygon points="442.67 38.67 435.97 38.67 439.37 42.07 442.67 38.67" fill="#d68063"/>
      <polygon points="450.17 38.67 443.47 38.67 446.87 42.07 450.17 38.67" fill="#d68063"/>
      <polygon points="397.77 38.67 391.07 38.67 394.47 42.07 397.77 38.67" fill="#d68063"/>
      <polygon points="457.67 38.67 450.97 38.67 454.37 42.07 457.67 38.67" fill="#d68063"/>
      <polygon points="408.97 43.17 402.27 43.17 405.77 46.57 408.97 43.17" fill="#d68063"/>
      <polygon points="416.47 43.17 409.77 43.17 413.17 46.57 416.47 43.17" fill="#d68063"/>
      <polygon points="423.97 43.17 417.27 43.17 420.67 46.57 423.97 43.17" fill="#d68063"/>
      <polygon points="431.47 43.17 424.77 43.17 428.17 46.57 431.47 43.17" fill="#d68063"/>
      <polygon points="438.97 43.17 432.27 43.17 435.67 46.57 438.97 43.17" fill="#d68063"/>
      <polygon points="446.47 43.17 439.77 43.17 443.17 46.57 446.47 43.17" fill="#d68063"/>
      <polygon points="453.97 43.17 447.27 43.17 450.67 46.57 453.97 43.17" fill="#d68063"/>
      <polygon points="401.47 43.17 394.77 43.17 398.27 46.57 401.47 43.17" fill="#d68063"/>
      <polygon points="468.87 43.17 462.17 43.17 465.57 46.57 468.87 43.17" fill="#d68063"/>
      <polygon points="461.37 43.17 454.67 43.17 458.17 46.57 461.37 43.17" fill="#d68063"/>
      <polygon points="401.47 69.97 394.77 69.97 398.27 73.47 401.47 69.97" fill="#d68063"/>
      <polygon points="408.97 69.97 402.27 69.97 405.77 73.47 408.97 69.97" fill="#d68063"/>
      <polygon points="416.47 69.97 409.77 69.97 413.17 73.47 416.47 69.97" fill="#d68063"/>
      <polygon points="423.97 69.97 417.27 69.97 420.67 73.47 423.97 69.97" fill="#d68063"/>
      <polygon points="431.47 69.97 424.77 69.97 428.17 73.47 431.47 69.97" fill="#d68063"/>
      <polygon points="438.97 69.97 432.27 69.97 435.67 73.47 438.97 69.97" fill="#d68063"/>
      <polygon points="446.47 69.97 439.77 69.97 443.17 73.47 446.47 69.97" fill="#d68063"/>
      <polygon points="453.97 69.97 447.27 69.97 450.67 73.47 453.97 69.97" fill="#d68063"/>
      <polygon points="464.77 65.57 458.07 65.57 461.47 68.97 464.77 65.57" fill="#d68063"/>
      <polygon points="405.27 65.57 398.57 65.57 401.97 68.97 405.27 65.57" fill="#d68063"/>
      <polygon points="412.77 65.57 406.07 65.57 409.47 68.97 412.77 65.57" fill="#d68063"/>
      <polygon points="420.27 65.57 413.47 65.57 416.97 68.97 420.27 65.57" fill="#d68063"/>
      <polygon points="427.67 65.57 420.97 65.57 424.47 68.97 427.67 65.57" fill="#d68063"/>
      <polygon points="435.17 65.57 428.47 65.57 431.97 68.97 435.17 65.57" fill="#d68063"/>
      <polygon points="442.67 65.57 435.97 65.57 439.37 68.97 442.67 65.57" fill="#d68063"/>
      <polygon points="450.17 65.57 443.47 65.57 446.87 68.97 450.17 65.57" fill="#d68063"/>
      <polygon points="397.77 65.57 391.07 65.57 394.47 68.97 397.77 65.57" fill="#d68063"/>
      <polygon points="457.67 65.57 450.97 65.57 454.37 68.97 457.67 65.57" fill="#d68063"/>
      <polygon points="464.97 56.57 458.27 56.57 461.67 59.97 464.97 56.57" fill="#d68063"/>
      <polygon points="397.77 56.57 391.07 56.57 394.47 59.97 397.77 56.57" fill="#d68063"/>
      <polygon points="405.27 56.57 398.57 56.57 401.97 59.97 405.27 56.57" fill="#d68063"/>
      <polygon points="412.77 56.57 406.07 56.57 409.47 59.97 412.77 56.57" fill="#d68063"/>
      <polygon points="420.27 56.57 413.47 56.57 416.97 59.97 420.27 56.57" fill="#d68063"/>
      <polygon points="427.67 56.57 420.97 56.57 424.47 59.97 427.67 56.57" fill="#d68063"/>
      <polygon points="435.17 56.57 428.47 56.57 431.97 59.97 435.17 56.57" fill="#d68063"/>
      <polygon points="442.67 56.57 435.97 56.57 439.37 59.97 442.67 56.57" fill="#d68063"/>
      <polygon points="457.67 56.57 450.97 56.57 454.37 59.97 457.67 56.57" fill="#d68063"/>
      <polygon points="450.17 56.57 443.47 56.57 446.87 59.97 450.17 56.57" fill="#d68063"/>
      <polygon points="401.47 61.07 394.77 61.07 398.27 64.47 401.47 61.07" fill="#d68063"/>
      <polygon points="408.97 61.07 402.27 61.07 405.77 64.47 408.97 61.07" fill="#d68063"/>
      <polygon points="416.47 61.07 409.77 61.07 413.17 64.47 416.47 61.07" fill="#d68063"/>
      <polygon points="423.97 61.07 417.27 61.07 420.67 64.47 423.97 61.07" fill="#d68063"/>
      <polygon points="431.47 61.07 424.77 61.07 428.17 64.47 431.47 61.07" fill="#d68063"/>
      <polygon points="438.97 61.07 432.27 61.07 435.67 64.47 438.97 61.07" fill="#d68063"/>
      <polygon points="446.47 61.07 439.77 61.07 443.17 64.47 446.47 61.07" fill="#d68063"/>
      <polygon points="468.47 61.07 461.77 61.07 465.27 64.47 468.47 61.07" fill="#d68063"/>
      <polygon points="461.37 61.07 454.67 61.07 458.17 64.47 461.37 61.07" fill="#d68063"/>
      <polygon points="453.97 61.07 447.27 61.07 450.67 64.47 453.97 61.07" fill="#d68063"/>
      <polygon points="408.07 87.87 401.37 87.87 404.87 91.37 408.07 87.87" fill="#d68063"/>
      <polygon points="415.57 87.87 408.87 87.87 412.27 91.37 415.57 87.87" fill="#d68063"/>
      <polygon points="423.07 87.87 416.37 87.87 419.77 91.37 423.07 87.87" fill="#d68063"/>
      <polygon points="430.57 87.87 423.87 87.87 427.27 91.37 430.57 87.87" fill="#d68063"/>
      <polygon points="438.07 87.87 431.37 87.87 434.77 91.37 438.07 87.87" fill="#d68063"/>
      <polygon points="445.57 87.87 438.87 87.87 442.27 91.37 445.57 87.87" fill="#d68063"/>
      <polygon points="453.07 87.87 446.37 87.87 449.77 91.37 453.07 87.87" fill="#d68063"/>
      <polygon points="400.57 87.87 393.87 87.87 397.37 91.37 400.57 87.87" fill="#d68063"/>
      <polygon points="411.87 83.47 405.17 83.47 408.57 86.87 411.87 83.47" fill="#d68063"/>
      <polygon points="419.37 83.47 412.67 83.47 416.07 86.87 419.37 83.47" fill="#d68063"/>
      <polygon points="426.87 83.47 420.07 83.47 423.57 86.87 426.87 83.47" fill="#d68063"/>
      <polygon points="434.27 83.47 427.57 83.47 431.07 86.87 434.27 83.47" fill="#d68063"/>
      <polygon points="441.77 83.47 435.07 83.47 438.47 86.87 441.77 83.47" fill="#d68063"/>
      <polygon points="449.27 83.47 442.57 83.47 445.97 86.87 449.27 83.47" fill="#d68063"/>
      <polygon points="404.37 83.47 397.67 83.47 401.07 86.87 404.37 83.47" fill="#d68063"/>
      <polygon points="464.27 83.47 457.57 83.47 460.97 86.87 464.27 83.47" fill="#d68063"/>
      <polygon points="404.37 74.47 397.67 74.47 401.07 77.87 404.37 74.47" fill="#d68063"/>
      <polygon points="411.87 74.47 405.17 74.47 408.57 77.87 411.87 74.47" fill="#d68063"/>
      <polygon points="419.37 74.47 412.67 74.47 416.07 77.87 419.37 74.47" fill="#d68063"/>
      <polygon points="426.87 74.47 420.07 74.47 423.57 77.87 426.87 74.47" fill="#d68063"/>
      <polygon points="434.27 74.47 427.57 74.47 431.07 77.87 434.27 74.47" fill="#d68063"/>
      <polygon points="441.77 74.47 435.07 74.47 438.47 77.87 441.77 74.47" fill="#d68063"/>
      <polygon points="449.27 74.47 442.57 74.47 445.97 77.87 449.27 74.47" fill="#d68063"/>
      <polygon points="396.87 74.47 390.17 74.47 393.57 77.87 396.87 74.47" fill="#d68063"/>
      <polygon points="464.27 74.47 457.57 74.47 460.97 77.87 464.27 74.47" fill="#d68063"/>
      <polygon points="456.77 74.47 450.07 74.47 453.47 77.87 456.77 74.47" fill="#d68063"/>
      <polygon points="408.07 78.97 401.37 78.97 404.87 82.37 408.07 78.97" fill="#d68063"/>
      <polygon points="415.57 78.97 408.87 78.97 412.27 82.37 415.57 78.97" fill="#d68063"/>
      <polygon points="423.07 78.97 416.37 78.97 419.77 82.37 423.07 78.97" fill="#d68063"/>
      <polygon points="430.57 78.97 423.87 78.97 427.27 82.37 430.57 78.97" fill="#d68063"/>
      <polygon points="438.07 78.97 431.37 78.97 434.77 82.37 438.07 78.97" fill="#d68063"/>
      <polygon points="445.57 78.97 438.87 78.97 442.27 82.37 445.57 78.97" fill="#d68063"/>
      <polygon points="400.57 78.97 393.87 78.97 397.37 82.37 400.57 78.97" fill="#d68063"/>
      <polygon points="467.97 78.97 461.27 78.97 464.77 82.37 467.97 78.97" fill="#d68063"/>
      <polygon points="460.47 78.97 453.87 78.97 457.27 82.37 460.47 78.97" fill="#d68063"/>
      <polygon points="407.67 105.87 400.97 105.87 404.47 109.27 407.67 105.87" fill="#d68063"/>
      <polygon points="415.17 105.87 408.47 105.87 411.97 109.27 415.17 105.87" fill="#d68063"/>
      <polygon points="422.67 105.87 415.97 105.87 419.37 109.27 422.67 105.87" fill="#d68063"/>
      <polygon points="430.17 105.87 423.47 105.87 426.87 109.27 430.17 105.87" fill="#d68063"/>
      <polygon points="437.67 105.87 430.97 105.87 434.37 109.27 437.67 105.87" fill="#d68063"/>
      <polygon points="445.17 105.87 438.47 105.87 441.87 109.27 445.17 105.87" fill="#d68063"/>
      <polygon points="452.67 105.87 445.97 105.87 449.37 109.27 452.67 105.87" fill="#d68063"/>
      <polygon points="467.57 105.87 460.87 105.87 464.37 109.27 467.57 105.87" fill="#d68063"/>
      <polygon points="460.07 105.87 453.47 105.87 456.87 109.27 460.07 105.87" fill="#d68063"/>
      <polygon points="411.47 101.37 404.77 101.37 408.17 104.77 411.47 101.37" fill="#d68063"/>
      <polygon points="418.97 101.37 412.27 101.37 415.67 104.77 418.97 101.37" fill="#d68063"/>
      <polygon points="426.47 101.37 419.77 101.37 423.17 104.77 426.47 101.37" fill="#d68063"/>
      <polygon points="433.97 101.37 427.27 101.37 430.67 104.77 433.97 101.37" fill="#d68063"/>
      <polygon points="441.37 101.37 434.67 101.37 438.17 104.77 441.37 101.37" fill="#d68063"/>
      <polygon points="448.87 101.37 442.17 101.37 445.57 104.77 448.87 101.37" fill="#d68063"/>
      <polygon points="456.37 101.37 449.67 101.37 453.07 104.77 456.37 101.37" fill="#d68063"/>
      <polygon points="403.97 101.37 397.27 101.37 400.67 104.77 403.97 101.37" fill="#d68063"/>
      <polygon points="463.87 101.37 457.17 101.37 460.57 104.77 463.87 101.37" fill="#d68063"/>
      <polygon points="403.97 92.37 397.27 92.37 400.67 95.77 403.97 92.37" fill="#d68063"/>
      <polygon points="411.47 92.37 404.77 92.37 408.17 95.77 411.47 92.37" fill="#d68063"/>
      <polygon points="418.97 92.37 412.27 92.37 415.67 95.77 418.97 92.37" fill="#d68063"/>
      <polygon points="426.47 92.37 419.77 92.37 423.17 95.77 426.47 92.37" fill="#d68063"/>
      <polygon points="433.97 92.37 427.27 92.37 430.67 95.77 433.97 92.37" fill="#d68063"/>
      <polygon points="441.37 92.37 434.67 92.37 438.17 95.77 441.37 92.37" fill="#d68063"/>
      <polygon points="448.87 92.37 442.17 92.37 445.57 95.77 448.87 92.37" fill="#d68063"/>
      <polygon points="456.37 92.37 449.67 92.37 453.07 95.77 456.37 92.37" fill="#d68063"/>
      <polygon points="407.67 96.87 400.97 96.87 404.47 100.27 407.67 96.87" fill="#d68063"/>
      <polygon points="415.17 96.87 408.47 96.87 411.97 100.27 415.17 96.87" fill="#d68063"/>
      <polygon points="422.67 96.87 415.97 96.87 419.37 100.27 422.67 96.87" fill="#d68063"/>
      <polygon points="430.17 96.87 423.47 96.87 426.87 100.27 430.17 96.87" fill="#d68063"/>
      <polygon points="437.67 96.87 430.97 96.87 434.37 100.27 437.67 96.87" fill="#d68063"/>
      <polygon points="445.17 96.87 438.47 96.87 441.87 100.27 445.17 96.87" fill="#d68063"/>
      <polygon points="452.67 96.87 445.97 96.87 449.37 100.27 452.67 96.87" fill="#d68063"/>
      <polygon points="400.27 96.87 393.47 96.87 396.97 100.27 400.27 96.87" fill="#d68063"/>
      <polygon points="467.57 96.87 460.87 96.87 464.37 100.27 467.57 96.87" fill="#d68063"/>
      <polygon points="460.07 96.87 453.47 96.87 456.87 100.27 460.07 96.87" fill="#d68063"/>
      <polygon points="415.17 123.77 408.47 123.77 411.97 127.17 415.17 123.77" fill="#d68063"/>
      <polygon points="422.67 123.77 415.97 123.77 419.37 127.17 422.67 123.77" fill="#d68063"/>
      <polygon points="430.17 123.77 423.47 123.77 426.87 127.17 430.17 123.77" fill="#d68063"/>
      <polygon points="437.67 123.77 430.97 123.77 434.37 127.17 437.67 123.77" fill="#d68063"/>
      <polygon points="445.17 123.77 438.47 123.77 441.87 127.17 445.17 123.77" fill="#d68063"/>
      <polygon points="452.67 123.77 445.97 123.77 449.37 127.17 452.67 123.77" fill="#d68063"/>
      <polygon points="463.47 119.27 456.77 119.27 460.17 122.67 463.47 119.27" fill="#d68063"/>
      <polygon points="411.47 119.27 404.77 119.27 408.17 122.67 411.47 119.27" fill="#d68063"/>
      <polygon points="418.97 119.27 412.27 119.27 415.67 122.67 418.97 119.27" fill="#d68063"/>
      <polygon points="426.47 119.27 419.77 119.27 423.17 122.67 426.47 119.27" fill="#d68063"/>
      <polygon points="433.97 119.27 427.27 119.27 430.67 122.67 433.97 119.27" fill="#d68063"/>
      <polygon points="441.37 119.27 434.67 119.27 438.17 122.67 441.37 119.27" fill="#d68063"/>
      <polygon points="448.87 119.27 442.17 119.27 445.57 122.67 448.87 119.27" fill="#d68063"/>
      <polygon points="456.37 119.27 449.67 119.27 453.07 122.67 456.37 119.27" fill="#d68063"/>
      <polygon points="463.67 110.27 456.97 110.27 460.47 113.77 463.67 110.27" fill="#d68063"/>
      <polygon points="403.97 110.27 397.27 110.27 400.67 113.77 403.97 110.27" fill="#d68063"/>
      <polygon points="411.47 110.27 404.77 110.27 408.17 113.77 411.47 110.27" fill="#d68063"/>
      <polygon points="418.97 110.27 412.27 110.27 415.67 113.77 418.97 110.27" fill="#d68063"/>
      <polygon points="426.47 110.27 419.77 110.27 423.17 113.77 426.47 110.27" fill="#d68063"/>
      <polygon points="433.97 110.27 427.27 110.27 430.67 113.77 433.97 110.27" fill="#d68063"/>
      <polygon points="441.37 110.27 434.67 110.27 438.17 113.77 441.37 110.27" fill="#d68063"/>
      <polygon points="456.37 110.27 449.67 110.27 453.07 113.77 456.37 110.27" fill="#d68063"/>
      <polygon points="448.87 110.27 442.17 110.27 445.57 113.77 448.87 110.27" fill="#d68063"/>
      <polygon points="407.67 114.77 400.97 114.77 404.47 118.17 407.67 114.77" fill="#d68063"/>
      <polygon points="415.17 114.77 408.47 114.77 411.97 118.17 415.17 114.77" fill="#d68063"/>
      <polygon points="422.67 114.77 415.97 114.77 419.37 118.17 422.67 114.77" fill="#d68063"/>
      <polygon points="430.17 114.77 423.47 114.77 426.87 118.17 430.17 114.77" fill="#d68063"/>
      <polygon points="437.67 114.77 430.97 114.77 434.37 118.17 437.67 114.77" fill="#d68063"/>
      <polygon points="445.17 114.77 438.47 114.77 441.87 118.17 445.17 114.77" fill="#d68063"/>
      <polygon points="467.27 114.77 460.47 114.77 463.97 118.17 467.27 114.77" fill="#d68063"/>
      <polygon points="460.07 114.77 453.47 114.77 456.87 118.17 460.07 114.77" fill="#d68063"/>
      <polygon points="452.67 114.77 445.97 114.77 449.37 118.17 452.67 114.77" fill="#d68063"/>
      <polygon points="464.27 92.37 457.57 92.37 460.97 95.77 464.27 92.37" fill="#d68063"/>
      <polygon points="471.77 92.37 465.07 92.37 468.47 95.77 471.77 92.37" fill="#d68063"/>
      <polygon points="479.27 92.37 472.57 92.37 475.97 95.77 479.27 92.37" fill="#d68063"/>
      <polygon points="486.77 92.37 480.07 92.37 483.47 95.77 486.77 92.37" fill="#d68063"/>
      <polygon points="494.27 92.37 487.47 92.37 490.97 95.77 494.27 92.37" fill="#d68063"/>
      <polygon points="501.67 92.37 494.97 92.37 498.47 95.77 501.67 92.37" fill="#d68063"/>
      <polygon points="509.17 92.37 502.47 92.37 505.87 95.77 509.17 92.37" fill="#d68063"/>
      <polygon points="467.97 87.87 461.27 87.87 464.77 91.37 467.97 87.87" fill="#d68063"/>
      <polygon points="475.47 87.87 468.77 87.87 472.27 91.37 475.47 87.87" fill="#d68063"/>
      <polygon points="482.97 87.87 476.27 87.87 479.67 91.37 482.97 87.87" fill="#d68063"/>
      <polygon points="490.47 87.87 483.77 87.87 487.17 91.37 490.47 87.87" fill="#d68063"/>
      <polygon points="497.97 87.87 491.27 87.87 494.67 91.37 497.97 87.87" fill="#d68063"/>
      <polygon points="505.47 87.87 498.77 87.87 502.17 91.37 505.47 87.87" fill="#d68063"/>
      <polygon points="460.47 87.87 453.87 87.87 457.27 91.37 460.47 87.87" fill="#d68063"/>
      <polygon points="475.47 78.97 468.77 78.97 472.27 82.37 475.47 78.97" fill="#d68063"/>
      <polygon points="482.97 78.97 476.27 78.97 479.67 82.37 482.97 78.97" fill="#d68063"/>
      <polygon points="490.47 78.97 483.77 78.97 487.17 82.37 490.47 78.97" fill="#d68063"/>
      <polygon points="497.97 78.97 491.27 78.97 494.67 82.37 497.97 78.97" fill="#d68063"/>
      <polygon points="505.47 78.97 498.77 78.97 502.17 82.37 505.47 78.97" fill="#d68063"/>
      <polygon points="453.07 78.97 446.37 78.97 449.77 82.37 453.07 78.97" fill="#d68063"/>
      <polygon points="471.77 83.47 465.07 83.47 468.47 86.87 471.77 83.47" fill="#d68063"/>
      <polygon points="479.27 83.47 472.57 83.47 475.97 86.87 479.27 83.47" fill="#d68063"/>
      <polygon points="486.77 83.47 480.07 83.47 483.47 86.87 486.77 83.47" fill="#d68063"/>
      <polygon points="494.27 83.47 487.47 83.47 490.97 86.87 494.27 83.47" fill="#d68063"/>
      <polygon points="501.67 83.47 494.97 83.47 498.47 86.87 501.67 83.47" fill="#d68063"/>
      <polygon points="456.77 83.47 450.07 83.47 453.47 86.87 456.77 83.47" fill="#d68063"/>
      <polygon points="471.37 110.27 464.67 110.27 468.07 113.77 471.37 110.27" fill="#d68063"/>
      <polygon points="478.87 110.27 472.17 110.27 475.57 113.77 478.87 110.27" fill="#d68063"/>
      <polygon points="486.37 110.27 479.67 110.27 483.07 113.77 486.37 110.27" fill="#d68063"/>
      <polygon points="493.87 110.27 487.07 110.27 490.57 113.77 493.87 110.27" fill="#d68063"/>
      <polygon points="501.27 110.27 494.57 110.27 498.07 113.77 501.27 110.27" fill="#d68063"/>
      <polygon points="475.07 105.87 468.37 105.87 471.87 109.27 475.07 105.87" fill="#d68063"/>
      <polygon points="482.57 105.87 475.87 105.87 479.27 109.27 482.57 105.87" fill="#d68063"/>
      <polygon points="490.07 105.87 483.37 105.87 486.77 109.27 490.07 105.87" fill="#d68063"/>
      <polygon points="497.57 105.87 490.87 105.87 494.27 109.27 497.57 105.87" fill="#d68063"/>
      <polygon points="505.07 105.87 498.37 105.87 501.77 109.27 505.07 105.87" fill="#d68063"/>
      <polygon points="475.07 96.87 468.37 96.87 471.87 100.27 475.07 96.87" fill="#d68063"/>
      <polygon points="482.57 96.87 475.87 96.87 479.27 100.27 482.57 96.87" fill="#d68063"/>
      <polygon points="490.07 96.87 483.37 96.87 486.77 100.27 490.07 96.87" fill="#d68063"/>
      <polygon points="497.57 96.87 490.87 96.87 494.27 100.27 497.57 96.87" fill="#d68063"/>
      <polygon points="505.07 96.87 498.37 96.87 501.77 100.27 505.07 96.87" fill="#d68063"/>
      <polygon points="471.37 101.37 464.67 101.37 468.07 104.77 471.37 101.37" fill="#d68063"/>
      <polygon points="478.87 101.37 472.17 101.37 475.57 104.77 478.87 101.37" fill="#d68063"/>
      <polygon points="486.37 101.37 479.67 101.37 483.07 104.77 486.37 101.37" fill="#d68063"/>
      <polygon points="493.87 101.37 487.07 101.37 490.57 104.77 493.87 101.37" fill="#d68063"/>
      <polygon points="501.27 101.37 494.57 101.37 498.07 104.77 501.27 101.37" fill="#d68063"/>
      <polygon points="508.77 101.37 502.07 101.37 505.47 104.77 508.77 101.37" fill="#d68063"/>
      <polygon points="456.37 128.17 449.67 128.17 453.07 131.67 456.37 128.17" fill="#d68063"/>
      <polygon points="463.87 128.17 457.17 128.17 460.57 131.67 463.87 128.17" fill="#d68063"/>
      <polygon points="471.37 128.17 464.67 128.17 468.07 131.67 471.37 128.17" fill="#d68063"/>
      <polygon points="478.87 128.17 472.17 128.17 475.57 131.67 478.87 128.17" fill="#d68063"/>
      <polygon points="486.37 128.17 479.67 128.17 483.07 131.67 486.37 128.17" fill="#d68063"/>
      <polygon points="493.87 128.17 487.07 128.17 490.57 131.67 493.87 128.17" fill="#d68063"/>
      <polygon points="460.17 123.77 453.47 123.77 456.87 127.17 460.17 123.77" fill="#d68063"/>
      <polygon points="467.57 123.77 460.87 123.77 464.37 127.17 467.57 123.77" fill="#d68063"/>
      <polygon points="475.07 123.77 468.37 123.77 471.87 127.17 475.07 123.77" fill="#d68063"/>
      <polygon points="482.57 123.77 475.87 123.77 479.27 127.17 482.57 123.77" fill="#d68063"/>
      <polygon points="490.07 123.77 483.37 123.77 486.77 127.17 490.07 123.77" fill="#d68063"/>
      <polygon points="497.57 123.77 490.87 123.77 494.27 127.17 497.57 123.77" fill="#d68063"/>
      <polygon points="452.67 114.77 445.97 114.77 449.37 118.17 452.67 114.77" fill="#d68063"/>
      <polygon points="475.07 114.77 468.37 114.77 471.87 118.17 475.07 114.77" fill="#d68063"/>
      <polygon points="482.57 114.77 475.87 114.77 479.27 118.17 482.57 114.77" fill="#d68063"/>
      <polygon points="490.07 114.77 483.37 114.77 486.77 118.17 490.07 114.77" fill="#d68063"/>
      <polygon points="497.57 114.77 490.87 114.77 494.27 118.17 497.57 114.77" fill="#d68063"/>
      <polygon points="505.07 114.77 498.37 114.77 501.77 118.17 505.07 114.77" fill="#d68063"/>
      <polygon points="471.37 119.27 464.67 119.27 468.07 122.67 471.37 119.27" fill="#d68063"/>
      <polygon points="478.87 119.27 472.17 119.27 475.57 122.67 478.87 119.27" fill="#d68063"/>
      <polygon points="486.37 119.27 479.67 119.27 483.07 122.67 486.37 119.27" fill="#d68063"/>
      <polygon points="493.87 119.27 487.07 119.27 490.57 122.67 493.87 119.27" fill="#d68063"/>
      <polygon points="501.27 119.27 494.57 119.27 498.07 122.67 501.27 119.27" fill="#d68063"/>
      <polygon points="411.07 128.17 404.37 128.17 407.77 131.67 411.07 128.17" fill="#d68063"/>
      <polygon points="418.57 128.17 411.87 128.17 415.27 131.67 418.57 128.17" fill="#d68063"/>
      <polygon points="426.07 128.17 419.37 128.17 422.77 131.67 426.07 128.17" fill="#d68063"/>
      <polygon points="433.57 128.17 426.87 128.17 430.27 131.67 433.57 128.17" fill="#d68063"/>
      <polygon points="440.97 128.17 434.27 128.17 437.77 131.67 440.97 128.17" fill="#d68063"/>
      <polygon points="448.47 128.17 441.77 128.17 445.27 131.67 448.47 128.17" fill="#d68063"/>
      <polygon points="430.77 131.97 424.07 131.97 427.47 135.37 430.77 131.97" fill="#d68063"/>
      <polygon points="438.27 131.97 431.57 131.97 434.97 135.37 438.27 131.97" fill="#d68063"/>
      <polygon points="445.77 131.97 439.07 131.97 442.47 135.37 445.77 131.97" fill="#d68063"/>
      <polygon points="453.27 131.97 446.57 131.97 449.97 135.37 453.27 131.97" fill="#d68063"/>
      <polygon points="460.77 131.97 454.07 131.97 457.47 135.37 460.77 131.97" fill="#d68063"/>
      <polygon points="468.27 131.97 461.47 131.97 464.97 135.37 468.27 131.97" fill="#d68063"/>
      <polygon points="472.17 74.47 465.47 74.47 468.87 77.87 472.17 74.47" fill="#d68063"/>
      <polygon points="479.67 74.47 472.97 74.47 476.37 77.87 479.67 74.47" fill="#d68063"/>
      <polygon points="487.07 74.47 480.47 74.47 483.87 77.87 487.07 74.47" fill="#d68063"/>
      <polygon points="494.57 74.47 487.87 74.47 491.37 77.87 494.57 74.47" fill="#d68063"/>
      <polygon points="502.07 74.47 495.37 74.47 498.87 77.87 502.07 74.47" fill="#d68063"/>
      <polygon points="509.57 74.47 502.87 74.47 506.27 77.87 509.57 74.47" fill="#d68063"/>
      <polygon points="460.47 69.97 453.87 69.97 457.27 73.47 460.47 69.97" fill="#d68063"/>
      <polygon points="467.97 69.97 461.27 69.97 464.77 73.47 467.97 69.97" fill="#d68063"/>
      <polygon points="475.47 69.97 468.77 69.97 472.27 73.47 475.47 69.97" fill="#d68063"/>
      <polygon points="482.97 69.97 476.27 69.97 479.67 73.47 482.97 69.97" fill="#d68063"/>
      <polygon points="490.47 69.97 483.77 69.97 487.17 73.47 490.47 69.97" fill="#d68063"/>
      <polygon points="497.97 69.97 491.27 69.97 494.67 73.47 497.97 69.97" fill="#d68063"/>
      <polygon points="472.17 65.87 465.47 65.87 468.87 69.27 472.17 65.87" fill="#d68063"/>
      <polygon points="479.67 65.87 472.97 65.87 476.37 69.27 479.67 65.87" fill="#d68063"/>
      <polygon points="487.07 65.87 480.47 65.87 483.87 69.27 487.07 65.87" fill="#d68063"/>
      <polygon points="494.57 65.87 487.87 65.87 491.37 69.27 494.57 65.87" fill="#d68063"/>
      <polygon points="502.07 65.87 495.37 65.87 498.87 69.27 502.07 65.87" fill="#d68063"/>
      <polygon points="509.57 65.87 502.87 65.87 506.27 69.27 509.57 65.87" fill="#d68063"/>
      <polygon points="475.07 61.07 468.37 61.07 471.87 64.47 475.07 61.07" fill="#d68063"/>
      <polygon points="482.57 61.07 475.87 61.07 479.27 64.47 482.57 61.07" fill="#d68063"/>
      <polygon points="490.07 61.07 483.37 61.07 486.77 64.47 490.07 61.07" fill="#d68063"/>
      <polygon points="497.57 61.07 490.87 61.07 494.27 64.47 497.57 61.07" fill="#d68063"/>
      <polygon points="505.07 61.07 498.37 61.07 501.77 64.47 505.07 61.07" fill="#d68063"/>
      <polygon points="512.57 61.07 505.87 61.07 509.27 64.47 512.57 61.07" fill="#d68063"/>
      <polygon points="476.07 52.07 469.37 52.07 472.87 55.57 476.07 52.07" fill="#d68063"/>
      <polygon points="483.57 52.07 476.87 52.07 480.37 55.57 483.57 52.07" fill="#d68063"/>
      <polygon points="491.07 52.07 484.37 52.07 487.77 55.57 491.07 52.07" fill="#d68063"/>
      <polygon points="498.57 52.07 491.87 52.07 495.27 55.57 498.57 52.07" fill="#d68063"/>
      <polygon points="506.07 52.07 499.37 52.07 502.77 55.57 506.07 52.07" fill="#d68063"/>
      <polygon points="513.57 52.07 506.87 52.07 510.27 55.57 513.57 52.07" fill="#d68063"/>
      <polygon points="470.17 56.57 463.47 56.57 466.87 59.97 470.17 56.57" fill="#d68063"/>
      <polygon points="477.67 56.57 470.97 56.57 474.37 59.97 477.67 56.57" fill="#d68063"/>
      <polygon points="485.17 56.57 478.47 56.57 481.87 59.97 485.17 56.57" fill="#d68063"/>
      <polygon points="492.67 56.57 485.97 56.57 489.37 59.97 492.67 56.57" fill="#d68063"/>
      <polygon points="500.17 56.57 493.47 56.57 496.87 59.97 500.17 56.57" fill="#d68063"/>
      <polygon points="507.57 56.57 500.87 56.57 504.37 59.97 507.57 56.57" fill="#d68063"/>
      <polygon points="461.57 34.17 454.87 34.17 458.27 37.57 461.57 34.17" fill="#d68063"/>
      <polygon points="468.97 34.17 462.37 34.17 465.77 37.57 468.97 34.17" fill="#d68063"/>
      <polygon points="476.47 34.17 469.77 34.17 473.27 37.57 476.47 34.17" fill="#d68063"/>
      <polygon points="483.97 34.17 477.27 34.17 480.77 37.57 483.97 34.17" fill="#d68063"/>
      <polygon points="491.47 34.17 484.77 34.17 488.17 37.57 491.47 34.17" fill="#d68063"/>
      <polygon points="498.97 34.17 492.27 34.17 495.67 37.57 498.97 34.17" fill="#d68063"/>
      <polygon points="476.47 25.17 469.77 25.17 473.27 28.67 476.47 25.17" fill="#d68063"/>
      <polygon points="483.97 25.17 477.27 25.17 480.77 28.67 483.97 25.17" fill="#d68063"/>
      <polygon points="491.47 25.17 484.77 25.17 488.17 28.67 491.47 25.17" fill="#d68063"/>
      <polygon points="498.97 25.17 492.27 25.17 495.67 28.67 498.97 25.17" fill="#d68063"/>
      <polygon points="506.47 25.17 499.77 25.17 503.17 28.67 506.47 25.17" fill="#d68063"/>
      <polygon points="501.97 47.57 495.27 47.57 498.67 51.07 501.97 47.57" fill="#d68063"/>
      <polygon points="509.37 47.57 502.67 47.57 506.17 51.07 509.37 47.57" fill="#d68063"/>
      <polygon points="516.87 47.57 510.17 47.57 513.67 51.07 516.87 47.57" fill="#d68063"/>
      <polygon points="498.57 43.17 491.87 43.17 495.27 46.57 498.57 43.17" fill="#d68063"/>
      <polygon points="506.07 43.17 499.37 43.17 502.77 46.57 506.07 43.17" fill="#d68063"/>
      <polygon points="513.57 43.17 506.87 43.17 510.27 46.57 513.57 43.17" fill="#d68063"/>
      <polygon points="501.57 38.67 494.87 38.67 498.27 42.07 501.57 38.67" fill="#d68063"/>
      <polygon points="508.97 38.67 502.37 38.67 505.77 42.07 508.97 38.67" fill="#d68063"/>
      <polygon points="506.47 34.17 499.77 34.17 503.17 37.57 506.47 34.17" fill="#d68063"/>
      <polygon points="494.87 29.67 488.17 29.67 491.57 33.17 494.87 29.67" fill="#d68063"/>
      <polygon points="502.37 29.67 495.57 29.67 499.07 33.17 502.37 29.67" fill="#d68063"/>
      <polygon points="509.77 29.67 503.07 29.67 506.57 33.17 509.77 29.67" fill="#d68063"/>
      <polygon points="473.97 20.77 467.27 20.77 470.67 24.17 473.97 20.77" fill="#d68063"/>
      <polygon points="481.37 20.77 474.67 20.77 478.17 24.17 481.37 20.77" fill="#d68063"/>
      <polygon points="488.87 20.77 482.17 20.77 485.57 24.17 488.87 20.77" fill="#d68063"/>
      <polygon points="496.37 20.77 489.67 20.77 493.07 24.17 496.37 20.77" fill="#d68063"/>
      <polygon points="503.87 20.77 497.17 20.77 500.57 24.17 503.87 20.77" fill="#d68063"/>
    </g>
  </g>
  <circle cx="421.07" cy="47.97" r="21.1" fill="#fff"/>
  <path d="M431.07,47.07a10.36,10.36,0,0,1-20,0H406a15.38,15.38,0,0,0,30.3,0Z" fill="#682f1b"/>
  <circle cx="479.27" cy="47.97" r="21.1" fill="#fff"/>
  <path d="M489.37,47.07a10.36,10.36,0,0,1-20,0h-5.1a15.34,15.34,0,0,0,30.2,0Z" fill="#682f1b"/>
  <polygon points="443.17 57.07 450.77 67.57 450.77 49.87 443.17 57.07" fill="#684c42"/>
  <polygon points="450.77 49.87 450.77 67.57 458.37 57.07 450.77 49.87" fill="#775246"/>
  <path d="M488.17,126.77a35.44,35.44,0,0,0,1.3-9.7c0-20.8-17.3-37.7-38.7-37.7s-38.7,16.9-38.7,37.7a36.15,36.15,0,0,0,1.3,9.8c10.7,8.2,23.7,10.9,37.4,10.8C464.07,137.67,477.37,135,488.17,126.77Z" fill="#e8ac9b"/>
  <path d="M393.57,128.47s-45.3-28.3-4.9-69.7C388.67,58.77,435.47,103.67,393.57,128.47Z" fill="#a3413e"/>
  <path d="M507.87,128.47s45.8-28.3,5.4-69.7C513.37,58.77,468.07,97,507.87,128.47Z" fill="#a3413e"/>
</svg>
