<svg id="it" xmlns="http://www.w3.org/2000/svg" width="484.28" height="55.33" viewBox="0 0 484.28 55.33">
  <title>home-logo-slogan-it</title>
  <path d="M14.11,4.53h-5V24.41H5V4.53H0V0H14.11Z" fill="#4d4c4d"/>
  <path d="M30.72,24.41H27a1.54,1.54,0,0,1-1.49-1.07l-3-7.07a1.82,1.82,0,0,0-.46-.66,1.13,1.13,0,0,0-.74-.21h-1v9h-4.2V0h5.79A8.89,8.89,0,0,1,25.2.59,5.77,5.77,0,0,1,27.42,2.1a6,6,0,0,1,1.25,2.29,10.1,10.1,0,0,1,.39,2.88,10.4,10.4,0,0,1-.23,2.24,8.22,8.22,0,0,1-.6,1.95,6.69,6.69,0,0,1-1.12,1.6,5.76,5.76,0,0,1-1.53,1.15,4,4,0,0,1,.76.71,4.87,4.87,0,0,1,.64,1ZM22,11.5a3.21,3.21,0,0,0,1.43-.29,2.61,2.61,0,0,0,1-.81,3.41,3.41,0,0,0,.54-1.21,6.25,6.25,0,0,0,.17-1.5,3.77,3.77,0,0,0-.77-2.51A2.93,2.93,0,0,0,22,4.28H20.29V11.5Z" fill="#4d4c4d"/>
  <path d="M49.4,12.22a17.46,17.46,0,0,1-.67,4.92,13,13,0,0,1-1.88,4,9,9,0,0,1-2.91,2.63,8,8,0,0,1-7.56,0,9,9,0,0,1-2.92-2.63,12.84,12.84,0,0,1-1.88-4,17.44,17.44,0,0,1-.67-4.92,17.44,17.44,0,0,1,.67-4.92,12.73,12.73,0,0,1,1.88-3.95A9,9,0,0,1,36.38.73a7.64,7.64,0,0,1,3.78-1,7.55,7.55,0,0,1,3.78,1,9,9,0,0,1,2.91,2.63,12.82,12.82,0,0,1,1.88,3.95A17.39,17.39,0,0,1,49.4,12.22Zm-4.22,0A14.18,14.18,0,0,0,44.79,9a7.9,7.9,0,0,0-1-2.45A4.58,4.58,0,0,0,42.24,5a4.15,4.15,0,0,0-2.11-.54A4.2,4.2,0,0,0,38,5a4.56,4.56,0,0,0-1.57,1.54,7.9,7.9,0,0,0-1,2.45,14.18,14.18,0,0,0-.34,3.25,14.26,14.26,0,0,0,.34,3.27,7.89,7.89,0,0,0,1,2.45A4.48,4.48,0,0,0,38,19.49a4.25,4.25,0,0,0,2.13.53,4.2,4.2,0,0,0,2.11-.53A4.5,4.5,0,0,0,43.81,18a7.89,7.89,0,0,0,1-2.45,14.26,14.26,0,0,0,.31-3.29Z" fill="#4d4c4d"/>
  <path d="M67.09,0,60,24.41H56.24L49.11,0h3.32a1.15,1.15,0,0,1,.87.34,2.23,2.23,0,0,1,.5.88l3.44,13q.24.85.47,1.86t.44,2.11q.17-1.1.38-2.11T59,14.22l3.42-13a2.08,2.08,0,0,1,.48-.84A1.12,1.12,0,0,1,63.75,0Z" fill="#4d4c4d"/>
  <path d="M83,24.41h-3.2a1.14,1.14,0,0,1-.87-.34,2.22,2.22,0,0,1-.5-.88l-1-4.25H70.57l-1,4.25a2.08,2.08,0,0,1-.48.84,1.12,1.12,0,0,1-.86.38H65L71.85,0h4.22ZM76.41,15.1,74.77,8.43q-.18-.64-.39-1.5T74,5.07q-.18,1-.39,1.89t-.39,1.5l-1.59,6.63Z" fill="#4d4c4d"/>
  <path d="M99.89,19.89V24.4H89.17V0H93.3V19.89Z" fill="#4d4c4d"/>
  <path d="M106.14,4.39v5.68h5.59v4.18h-5.59V20h7.3V24.4H102V0h11.45V4.35Z" fill="#4d4c4d"/>
  <path d="M136.16,24.41h-3.73a1.54,1.54,0,0,1-1.49-1.07l-3-7.07a1.82,1.82,0,0,0-.46-.66,1.13,1.13,0,0,0-.74-.21h-1v9h-4.12V0h5.79a8.89,8.89,0,0,1,3.29.54,5.77,5.77,0,0,1,2.22,1.51,6,6,0,0,1,1.25,2.29,10.1,10.1,0,0,1,.39,2.88,10.4,10.4,0,0,1-.23,2.24,8.23,8.23,0,0,1-.69,2,6.69,6.69,0,0,1-1.12,1.6A5.76,5.76,0,0,1,131,14.16a4,4,0,0,1,.76.71,4.87,4.87,0,0,1,.64,1ZM127.4,11.5a3.21,3.21,0,0,0,1.43-.29,2.61,2.61,0,0,0,1-.81,3.41,3.41,0,0,0,.54-1.21,6.25,6.25,0,0,0,.17-1.5,3.77,3.77,0,0,0-.77-2.51,2.93,2.93,0,0,0-2.36-.9h-1.66V11.5Z" fill="#4d4c4d"/>
  <path d="M141.81,24.41h-4.15V0h4.15Z" fill="#4d4c4d"/>
  <path d="M155.08,5a2.06,2.06,0,0,1-.38.6.7.7,0,0,1-.51.2,1,1,0,0,1-.6-.24L152.84,5a5.36,5.36,0,0,0-.94-.54,2.82,2.82,0,0,0-1.2-.24A2.13,2.13,0,0,0,149,4.9a2.76,2.76,0,0,0-.56,1.83A2.07,2.07,0,0,0,148.75,8a3.11,3.11,0,0,0,.9.84,8.17,8.17,0,0,0,1.27.64q.72.29,1.46.65a11.51,11.51,0,0,1,1.46.84,5.24,5.24,0,0,1,1.27,1.24A6.23,6.23,0,0,1,156,14a8.67,8.67,0,0,1,.34,2.6,11.29,11.29,0,0,1-.42,3.16,8,8,0,0,1-1.24,2.57,5.87,5.87,0,0,1-2,1.72,5.71,5.71,0,0,1-2.7.63,6.41,6.41,0,0,1-1.69-.23,8.1,8.1,0,0,1-1.66-.66,8.89,8.89,0,0,1-1.51-1,7.19,7.19,0,0,1-1.23-1.3l1.22-2.64a1.46,1.46,0,0,1,.38-.48.81.81,0,0,1,.51-.19,1.14,1.14,0,0,1,.74.32l.85.7a6.23,6.23,0,0,0,1.08.7,3,3,0,0,0,1.44.32,2.25,2.25,0,0,0,1.74-.68,3.11,3.11,0,0,0,.63-2.15,2.54,2.54,0,0,0-.34-1.39,2.87,2.87,0,0,0-.9-.89,7,7,0,0,0-1.26-.62q-.71-.27-1.45-.59a9.25,9.25,0,0,1-1.45-.8,5,5,0,0,1-1.26-1.25,6.44,6.44,0,0,1-.9-1.94A10.3,10.3,0,0,1,144.56,7a9,9,0,0,1,.4-2.68A7.35,7.35,0,0,1,146.18,2,5.91,5.91,0,0,1,148.1.37a5.41,5.41,0,0,1,2.6-.61,7.18,7.18,0,0,1,1.53.24,6.66,6.66,0,0,1,1.47.52,7.35,7.35,0,0,1,1.3.82,6.54,6.54,0,0,1,1.08,1.08Z" fill="#4d4c4d"/>
  <path d="M165,0a7.79,7.79,0,0,1,3.23.61,6,6,0,0,1,2.22,1.68,7,7,0,0,1,1.29,2.52,11.41,11.41,0,0,1,.41,3.14,12.34,12.34,0,0,1-.42,3.34,7.19,7.19,0,0,1-1.31,2.61,6,6,0,0,1-2.23,1.7,7.68,7.68,0,0,1-3.2.61h-2.15v8.14h-4.12V0Zm0,12a2.59,2.59,0,0,0,2.32-1A5.24,5.24,0,0,0,168.07,8a5.89,5.89,0,0,0-.18-1.52,3.39,3.39,0,0,0-.53-1.19,2.5,2.5,0,0,0-.94-.76,3.15,3.15,0,0,0-1.35-.27h-2.15V12Z" fill="#4d4c4d"/>
  <path d="M191.75,12.22a17.46,17.46,0,0,1-.67,4.92,13,13,0,0,1-1.88,4,9,9,0,0,1-2.91,2.63,8,8,0,0,1-7.56,0,9,9,0,0,1-2.92-2.63,12.84,12.84,0,0,1-1.88-4,17.44,17.44,0,0,1-.67-4.92,17.44,17.44,0,0,1,.67-4.92,12.73,12.73,0,0,1,1.88-3.95A9,9,0,0,1,178.74.73a7.64,7.64,0,0,1,3.78-1,7.55,7.55,0,0,1,3.78,1,9,9,0,0,1,2.91,2.63,12.82,12.82,0,0,1,1.88,3.95A17.39,17.39,0,0,1,191.75,12.22Zm-4.22,0A14.18,14.18,0,0,0,187.19,9a7.9,7.9,0,0,0-1-2.45A4.58,4.58,0,0,0,184.64,5a4.15,4.15,0,0,0-2.11-.54A4.2,4.2,0,0,0,180.4,5a4.56,4.56,0,0,0-1.57,1.54,7.9,7.9,0,0,0-1,2.45,14.18,14.18,0,0,0-.34,3.25,14.26,14.26,0,0,0,.34,3.27,7.89,7.89,0,0,0,1,2.45,4.48,4.48,0,0,0,1.57,1.53,4.25,4.25,0,0,0,2.08.51,4.2,4.2,0,0,0,2.11-.53,4.5,4.5,0,0,0,1.57-1.53,7.89,7.89,0,0,0,1-2.45,14.26,14.26,0,0,0,.35-3.27Z" fill="#4d4c4d"/>
  <path d="M204,5a2.06,2.06,0,0,1-.38.6.7.7,0,0,1-.51.2,1,1,0,0,1-.6-.24L201.77,5a5.36,5.36,0,0,0-.94-.54,2.82,2.82,0,0,0-1.2-.24,2.13,2.13,0,0,0-1.72.68,2.76,2.76,0,0,0-.56,1.83A2.07,2.07,0,0,0,197.69,8a3.11,3.11,0,0,0,.9.84,8.17,8.17,0,0,0,1.27.64q.72.29,1.46.65a11.51,11.51,0,0,1,1.46.84,5.24,5.24,0,0,1,1.27,1.24,6.23,6.23,0,0,1,.9,1.83,8.67,8.67,0,0,1,.34,2.6,11.29,11.29,0,0,1-.42,3.16,8,8,0,0,1-1.22,2.56,5.88,5.88,0,0,1-2,1.67,5.71,5.71,0,0,1-2.7.63,6.41,6.41,0,0,1-1.69-.23,8.1,8.1,0,0,1-1.66-.66,8.89,8.89,0,0,1-1.51-1,7.19,7.19,0,0,1-1.23-1.3l1.22-2.64a1.46,1.46,0,0,1,.38-.48.81.81,0,0,1,.51-.19,1.14,1.14,0,0,1,.74.32l.85.7a6.23,6.23,0,0,0,1.08.7,3,3,0,0,0,1.44.32,2.25,2.25,0,0,0,1.74-.68,3.11,3.11,0,0,0,.63-2.15,2.54,2.54,0,0,0-.34-1.39,2.87,2.87,0,0,0-.9-.89,7,7,0,0,0-1.26-.62q-.71-.27-1.45-.59a9.25,9.25,0,0,1-1.45-.8,5,5,0,0,1-1.26-1.25,6.44,6.44,0,0,1-.9-1.94A10.3,10.3,0,0,1,193.52,7a9,9,0,0,1,.4-2.68A7.35,7.35,0,0,1,195.07,2,5.91,5.91,0,0,1,197,.37a5.41,5.41,0,0,1,2.63-.59,7.18,7.18,0,0,1,1.59.18,6.66,6.66,0,0,1,1.47.52,7.35,7.35,0,0,1,1.3.82,6.54,6.54,0,0,1,1.08,1.08Z" fill="#4d4c4d"/>
  <path d="M220.49,4.53h-5V24.41h-4.12V4.53h-5V0h14.11Z" fill="#4d4c4d"/>
  <path d="M226.73,4.39v5.68h5.59v4.18h-5.59V20H234V24.4H222.57V0H234V4.35Z" fill="#4d4c4d"/>
  <path d="M257.32,24.41h-3.2a1.15,1.15,0,0,1-.87-.34,2.22,2.22,0,0,1-.5-.88l-1-4.25H245l-1,4.25a2.08,2.08,0,0,1-.48.84,1.12,1.12,0,0,1-.86.38h-3.23L246.21,0h4.22Zm-6.55-9.31-1.64-6.67q-.18-.64-.39-1.5t-.41-1.86q-.18,1-.39,1.89t-.39,1.5L245.9,15.1Z" fill="#4d4c4d"/>
  <path d="M269.44,19.89V24.4H258.73V0h4.12V19.89Z" fill="#4d4c4d"/>
  <path d="M282.29,19.89V24.4H271.54V0h4.12V19.89Z" fill="#4d4c4d"/>
  <path d="M288.51,4.39v5.68h5.59v4.18h-5.59V20h7.3V24.4H284.35V0h11.45V4.35Z" fill="#4d4c4d"/>
  <path d="M316,4.53h-5V24.41h-4.08V4.53h-5V0H316Z" fill="#4d4c4d"/>
  <path d="M325.52,19.94a2.91,2.91,0,0,0,1.48-.38,3.22,3.22,0,0,0,1.11-1.08,5.44,5.44,0,0,0,.69-1.71,10.08,10.08,0,0,0,.24-2.3V0h4.12V14.48a15,15,0,0,1-.53,4.11,10.07,10.07,0,0,1-1.52,3.23,6.87,6.87,0,0,1-11.22,0,10,10,0,0,1-1.51-3.23,15.18,15.18,0,0,1-.52-4.11V0H322V14.46a10.08,10.08,0,0,0,.24,2.3,5.55,5.55,0,0,0,.69,1.72A3.21,3.21,0,0,0,324,19.57,2.91,2.91,0,0,0,325.52,19.94Z" fill="#4d4c4d"/>
  <path d="M340.54,4.39v5.68h5.59v4.18h-5.59V20h7.28V24.4H336.38V0h11.43V4.35Z" fill="#4d4c4d"/>
  <path d="M372.14,12.22a17,17,0,0,1-.67,4.87A12.36,12.36,0,0,1,369.6,21a8.72,8.72,0,0,1-2.91,2.54,7.87,7.87,0,0,1-3.78.91H356V0h6.94a7.81,7.81,0,0,1,3.78.92,8.84,8.84,0,0,1,2.91,2.54,12.26,12.26,0,0,1,1.88,3.85A17,17,0,0,1,372.14,12.22Zm-4.22,0A14.31,14.31,0,0,0,367.58,9a8,8,0,0,0-1-2.47A4.63,4.63,0,0,0,365,5a4.06,4.06,0,0,0-2.11-.54h-2.76V20.06h2.81a4.06,4.06,0,0,0,2.11-.54A4.63,4.63,0,0,0,366.6,18a8,8,0,0,0,1-2.47A14.4,14.4,0,0,0,367.92,12.22Z" fill="#4d4c4d"/>
  <path d="M392,12.22a17.46,17.46,0,0,1-.67,4.92,13,13,0,0,1-1.88,4,9,9,0,0,1-2.91,2.63,8,8,0,0,1-7.56,0,9,9,0,0,1-2.92-2.63,12.86,12.86,0,0,1-1.88-4,17.46,17.46,0,0,1-.67-4.92,17.46,17.46,0,0,1,.67-4.92,12.75,12.75,0,0,1,1.88-3.95,9,9,0,0,1,3-2.62,7.64,7.64,0,0,1,3.78-1,7.55,7.55,0,0,1,3.78,1,9,9,0,0,1,2.91,2.63,12.83,12.83,0,0,1,1.88,3.95A17.39,17.39,0,0,1,392,12.22Zm-4.22,0A14.2,14.2,0,0,0,387.47,9a7.89,7.89,0,0,0-1-2.45A4.58,4.58,0,0,0,384.93,5a4.15,4.15,0,0,0-2.11-.54,4.2,4.2,0,0,0-2.13.54,4.56,4.56,0,0,0-1.62,1.52,7.89,7.89,0,0,0-1,2.45,14.2,14.2,0,0,0-.34,3.25,14.28,14.28,0,0,0,.34,3.27,7.88,7.88,0,0,0,1,2.45,4.48,4.48,0,0,0,1.57,1.53,4.25,4.25,0,0,0,2.13.53,4.2,4.2,0,0,0,2.11-.53,4.5,4.5,0,0,0,1.57-1.53,7.88,7.88,0,0,0,1-2.45,14.28,14.28,0,0,0,.35-3.27Z" fill="#4d4c4d"/>
  <path d="M414.46,0V24.41h-3.63v-15a6.35,6.35,0,0,1,.07-1.15l-4.71,12.5a2,2,0,0,1-.59.89,1.32,1.32,0,0,1-.85.3h-.56a1.32,1.32,0,0,1-.85-.3,2,2,0,0,1-.59-.89L398,8.16a11.36,11.36,0,0,0,.06,1.18,4.65,4.65,0,0,1,0,1.06v14h-3.64V0h3.62a.92.92,0,0,1,.36.1.84.84,0,0,1,.29.26,2.21,2.21,0,0,1,.25.49l4.58,12.36q.24.64.47,1.32t.43,1.4q.21-.74.43-1.44t.48-1.34L409.94.84a2.21,2.21,0,0,1,.25-.49.84.84,0,0,1,.29-.26.92.92,0,0,1,.36-.1h3.61Z" fill="#4d4c4d"/>
  <path d="M433.85,24.41h-3.2a1.15,1.15,0,0,1-.87-.34,2.22,2.22,0,0,1-.5-.88l-1-4.25h-6.76l-1,4.25A2.07,2.07,0,0,1,420,24a1.12,1.12,0,0,1-.86.38h-3.23L422.74,0H427ZM427.3,15.1l-1.64-6.67q-.18-.64-.39-1.5t-.41-1.86q-.18,1-.39,1.89t-.39,1.5l-1.64,6.63Z" fill="#4d4c4d"/>
  <path d="M450.78,0V24.41h-2.15a1.44,1.44,0,0,1-.8-.21,2.25,2.25,0,0,1-.65-.73L438.8,8.94a11,11,0,0,0,.07,1.26,4.7,4.7,0,0,1,0,1.15V24.41h-3.64V0h2.18a2.55,2.55,0,0,1,.45,0,.92.92,0,0,1,.33.13,1.16,1.16,0,0,1,.28.26,4.25,4.25,0,0,1,.3.45l8.46,14.63q-.06-.7-.08-1.36t0-1.25V0Z" fill="#4d4c4d"/>
  <path d="M470.36,12.22a17,17,0,0,1-.67,4.87A12.36,12.36,0,0,1,467.79,21a8.72,8.72,0,0,1-2.91,2.54,7.87,7.87,0,0,1-3.78.91h-6.91V0h6.91a7.81,7.81,0,0,1,3.78.92,8.84,8.84,0,0,1,2.91,2.59,12.26,12.26,0,0,1,1.88,3.85A17,17,0,0,1,470.36,12.22Zm-4.22,0A14.31,14.31,0,0,0,465.77,9a8,8,0,0,0-1-2.47A4.63,4.63,0,0,0,463.19,5a4.06,4.06,0,0,0-2.11-.54h-2.76V20.06h2.76a4.06,4.06,0,0,0,2.11-.54A4.63,4.63,0,0,0,464.76,18a8,8,0,0,0,1-2.47A14.4,14.4,0,0,0,466.13,12.22Z" fill="#4d4c4d"/>
  <path d="M477,4.39v5.68h5.59v4.18H477V20h7.3V24.4H472.83V0h11.45V4.35Z" fill="#4d4c4d"/>
  <path d="M13.11,48.25a.64.64,0,0,1,.3.08.85.85,0,0,1,.28.27L15.34,51a7.81,7.81,0,0,1-2.68,3,7.25,7.25,0,0,1-3.87,1,7,7,0,0,1-3.67-1,8.55,8.55,0,0,1-2.75-2.68,13.33,13.33,0,0,1-1.77-4A20.34,20.34,0,0,1,0,42.21a19.1,19.1,0,0,1,.66-5.15,13.25,13.25,0,0,1,1.84-4,8.73,8.73,0,0,1,2.84-2.65A7.21,7.21,0,0,1,9,29.47a7.11,7.11,0,0,1,1.91.25,7.51,7.51,0,0,1,1.67.69A7.28,7.28,0,0,1,14,31.47a8.82,8.82,0,0,1,1.16,1.34l-1.41,2.63a2.24,2.24,0,0,1-.32.44.68.68,0,0,1-.52.2.72.72,0,0,1-.42-.14,4.6,4.6,0,0,1-.42-.33l-.49-.43a3.48,3.48,0,0,0-.63-.43,4.14,4.14,0,0,0-.85-.33A4.22,4.22,0,0,0,9,34.28a3.52,3.52,0,0,0-1.89.53,4.6,4.6,0,0,0-1.48,1.55,8.39,8.39,0,0,0-1,2.51,15.29,15.29,0,0,0-.34,3.39,14,14,0,0,0,.42,3.36,8.62,8.62,0,0,0,1,2.52,4.79,4.79,0,0,0,1.51,1.55A3.47,3.47,0,0,0,9,50.22a6.37,6.37,0,0,0,1-.08,3.62,3.62,0,0,0,.88-.26,3.18,3.18,0,0,0,.77-.48,5.39,5.39,0,0,0,.73-.76,1.5,1.5,0,0,1,.32-.28A.65.65,0,0,1,13.11,48.25Z" fill="#7d7d7d"/>
  <path d="M34.4,42.21a18.18,18.18,0,0,1-.67,5,13.37,13.37,0,0,1-1.89,4.06,9.1,9.1,0,0,1-3,2.73,8,8,0,0,1-7.65,0,9.14,9.14,0,0,1-3-2.71,13.28,13.28,0,0,1-1.9-4.06,19.3,19.3,0,0,1,0-10.1,13.17,13.17,0,0,1,1.9-4,9.18,9.18,0,0,1,3-2.7,7.63,7.63,0,0,1,3.83-1,7.54,7.54,0,0,1,3.82,1,9.23,9.23,0,0,1,2.94,2.71,13.25,13.25,0,0,1,1.89,4A18.12,18.12,0,0,1,34.4,42.21Zm-4.27,0a14.81,14.81,0,0,0-.35-3.34,8.19,8.19,0,0,0-1-2.52,4.66,4.66,0,0,0-1.59-1.58,4.15,4.15,0,0,0-2.13-.55,4.2,4.2,0,0,0-2.15.55,4.64,4.64,0,0,0-1.59,1.58,8.19,8.19,0,0,0-1,2.52,16.4,16.4,0,0,0,0,6.7,8.18,8.18,0,0,0,1,2.52,4.57,4.57,0,0,0,1.59,1.57,4.26,4.26,0,0,0,2.15.54,4.2,4.2,0,0,0,2.13-.54,4.59,4.59,0,0,0,1.59-1.57,8.18,8.18,0,0,0,1-2.52A14.9,14.9,0,0,0,30.13,42.21Z" fill="#7d7d7d"/>
  <path d="M52.55,29.7v25H50.38a1.44,1.44,0,0,1-.81-.21,2.28,2.28,0,0,1-.65-.75l-8.47-14.9a11.77,11.77,0,0,0,.07,1.3,5,5,0,0,1,0,1.18V54.73H36.86v-25h2.2a2.6,2.6,0,0,1,.46,0,1,1,0,0,1,.33.13,1.18,1.18,0,0,1,.28.27,4.38,4.38,0,0,1,.31.46l8.55,15q-.06-.72-.09-1.4t0-1.28V29.7Z" fill="#7d7d7d"/>
  <path d="M72.35,42.21a17.71,17.71,0,0,1-.67,5,12.75,12.75,0,0,1-1.89,4,8.86,8.86,0,0,1-2.94,2.61,7.86,7.86,0,0,1-3.82.94H56v-25h7a7.81,7.81,0,0,1,3.82.94,9,9,0,0,1,2.94,2.61,12.64,12.64,0,0,1,1.89,4A17.65,17.65,0,0,1,72.35,42.21Zm-4.27,0a14.9,14.9,0,0,0-.35-3.35,8.3,8.3,0,0,0-1-2.53,4.71,4.71,0,0,0-1.59-1.6A4.09,4.09,0,0,0,63,34.17H60.23V50.26H63a4.08,4.08,0,0,0,2.13-.56,4.7,4.7,0,0,0,1.59-1.6,8.3,8.3,0,0,0,1-2.53A15,15,0,0,0,68.08,42.21Z" fill="#7d7d7d"/>
  <path d="M79,54.73h-4.2v-25H79Z" fill="#7d7d7d"/>
  <path d="M98.66,29.7l-7.21,25H87.66l-7.21-25h3.36a1.15,1.15,0,0,1,.88.35,2.29,2.29,0,0,1,.51.9l3.46,13.4q.25.88.48,1.92t.44,2.17q.17-1.13.39-2.17t.46-1.92L93.88,31a2.14,2.14,0,0,1,.49-.87,1.13,1.13,0,0,1,.87-.39Z" fill="#7d7d7d"/>
  <path d="M104.24,54.73H100v-25h4.2Z" fill="#7d7d7d"/>
  <path d="M124,42.21a17.71,17.71,0,0,1-.67,5,12.75,12.75,0,0,1-1.89,4,8.86,8.86,0,0,1-2.94,2.61,7.86,7.86,0,0,1-3.82.94h-7v-25h7a7.81,7.81,0,0,1,3.82.94,9,9,0,0,1,2.94,2.61,12.64,12.64,0,0,1,1.89,4A17.65,17.65,0,0,1,124,42.21Zm-4.27,0a14.9,14.9,0,0,0-.35-3.35,8.3,8.3,0,0,0-1-2.53,4.71,4.71,0,0,0-1.59-1.6,4.09,4.09,0,0,0-2.13-.56H111.9V50.26h2.76a4.08,4.08,0,0,0,2.13-.56,4.7,4.7,0,0,0,1.59-1.6,8.3,8.3,0,0,0,1-2.53A15,15,0,0,0,119.76,42.21Z" fill="#7d7d7d"/>
  <path d="M130.66,54.73h-4.2v-25h4.2Z" fill="#7d7d7d"/>
  <path d="M152,48.25a.64.64,0,0,1,.3.08.85.85,0,0,1,.28.27l1.65,2.4a7.81,7.81,0,0,1-2.72,3,7.25,7.25,0,0,1-3.85,1A7,7,0,0,1,144,54a8.55,8.55,0,0,1-2.75-2.68,13.33,13.33,0,0,1-1.73-4,20.34,20.34,0,0,1-.6-5.09,19.1,19.1,0,0,1,.65-5.14,13.25,13.25,0,0,1,1.84-4,8.73,8.73,0,0,1,2.84-2.65,7.21,7.21,0,0,1,3.64-.94,7.11,7.11,0,0,1,1.91.25,7.51,7.51,0,0,1,1.67.69,7.28,7.28,0,0,1,1.43,1.06,8.82,8.82,0,0,1,1.16,1.34l-1.39,2.6a2.24,2.24,0,0,1-.32.44.68.68,0,0,1-.52.2.72.72,0,0,1-.42-.14,4.6,4.6,0,0,1-.42-.33l-.49-.43a3.48,3.48,0,0,0-.63-.43,4.14,4.14,0,0,0-.85-.33,4.22,4.22,0,0,0-1.14-.14,3.52,3.52,0,0,0-1.89.53,4.6,4.6,0,0,0-1.48,1.55,8.39,8.39,0,0,0-1,2.51,15.29,15.29,0,0,0-.34,3.39,14,14,0,0,0,.38,3.42,8.62,8.62,0,0,0,1,2.52,4.79,4.79,0,0,0,1.51,1.55,3.47,3.47,0,0,0,1.85.53,6.37,6.37,0,0,0,1-.08,3.62,3.62,0,0,0,.88-.26,3.18,3.18,0,0,0,.77-.48,5.39,5.39,0,0,0,.73-.76,1.5,1.5,0,0,1,.32-.28A.65.65,0,0,1,152,48.25Z" fill="#7d7d7d"/>
  <path d="M160.26,54.73h-4.2v-25h4.2Z" fill="#7d7d7d"/>
  <path d="M181.38,42.21a18.18,18.18,0,0,1-.67,5,13.37,13.37,0,0,1-1.89,4.06A9.1,9.1,0,0,1,175.87,54a8,8,0,0,1-7.65,0,9.14,9.14,0,0,1-3-2.71,13.28,13.28,0,0,1-1.9-4.06,19.3,19.3,0,0,1,0-10.1,13.17,13.17,0,0,1,1.9-4,9.18,9.18,0,0,1,3-2.7,7.63,7.63,0,0,1,3.83-1,7.54,7.54,0,0,1,3.82,1,9.23,9.23,0,0,1,2.94,2.71,13.25,13.25,0,0,1,1.89,4A18.12,18.12,0,0,1,181.38,42.21ZM170.22,22.66a4,4,0,0,1,.49,0,1.24,1.24,0,0,1,.38.1,1,1,0,0,1,.31.23,2.58,2.58,0,0,1,.3.43l2.58,4.64h-3.17a1.06,1.06,0,0,1-.3-.06,1.1,1.1,0,0,1-.27-.15,1.46,1.46,0,0,1-.28-.28l-4-4.93Zm6.9,19.55a14.81,14.81,0,0,0-.35-3.34,8.19,8.19,0,0,0-1-2.52,4.66,4.66,0,0,0-1.59-1.58,4.15,4.15,0,0,0-2.13-.55,4.2,4.2,0,0,0-2.15.55,4.64,4.64,0,0,0-1.59,1.58,8.19,8.19,0,0,0-1,2.52,16.4,16.4,0,0,0,0,6.7,8.18,8.18,0,0,0,1,2.52,4.57,4.57,0,0,0,1.59,1.57,4.26,4.26,0,0,0,2.15.54,4.2,4.2,0,0,0,2.13-.54,4.59,4.59,0,0,0,1.59-1.57,8.18,8.18,0,0,0,1-2.52,14.9,14.9,0,0,0,.34-3.36Z" fill="#7d7d7d"/>
  <path d="M201.66,48.25a.64.64,0,0,1,.3.08.85.85,0,0,1,.28.27l1.65,2.4a7.81,7.81,0,0,1-2.72,3,7.25,7.25,0,0,1-3.87,1,7,7,0,0,1-3.64-1,8.55,8.55,0,0,1-2.75-2.68,13.33,13.33,0,0,1-1.73-4,20.34,20.34,0,0,1-.6-5.09,19.1,19.1,0,0,1,.65-5.14,13.25,13.25,0,0,1,1.84-4,8.73,8.73,0,0,1,2.84-2.65,7.21,7.21,0,0,1,3.64-.94,7.11,7.11,0,0,1,1.91.25,7.51,7.51,0,0,1,1.67.69,7.28,7.28,0,0,1,1.43,1.06,8.82,8.82,0,0,1,1.1,1.31l-1.41,2.63a2.24,2.24,0,0,1-.32.44.68.68,0,0,1-.52.2.72.72,0,0,1-.42-.14,4.6,4.6,0,0,1-.42-.33l-.49-.43a3.48,3.48,0,0,0-.63-.43,4.14,4.14,0,0,0-.85-.33,4.22,4.22,0,0,0-1.14-.14,3.52,3.52,0,0,0-1.89.53,4.6,4.6,0,0,0-1.48,1.55,8.39,8.39,0,0,0-1,2.51,15.29,15.29,0,0,0-.34,3.39,14,14,0,0,0,.38,3.42,8.62,8.62,0,0,0,1,2.52,4.79,4.79,0,0,0,1.51,1.55,3.47,3.47,0,0,0,1.85.53,6.37,6.37,0,0,0,1-.08,3.62,3.62,0,0,0,.88-.26,3.18,3.18,0,0,0,.77-.48,5.39,5.39,0,0,0,.73-.76,1.5,1.5,0,0,1,.32-.28A.65.65,0,0,1,201.66,48.25Z" fill="#7d7d7d"/>
  <path d="M221.42,29.7v25h-4.2V44.15h-7.31V54.73h-4.2v-25h4.2V40.16h7.31V29.7Z" fill="#7d7d7d"/>
  <path d="M229.1,34.17V40h5.65v4.3H229.1v6h7.38v4.47H224.9v-25h11.58v4.47Z" fill="#7d7d7d"/>
  <path d="M260,54.73h-3.23a1.15,1.15,0,0,1-.88-.35,2.3,2.3,0,0,1-.51-.9l-1.06-4.36h-6.84l-1.06,4.36a2.14,2.14,0,0,1-.49.87,1.13,1.13,0,0,1-.87.39h-3.26l7-25h4.27Zm-6.63-9.57-1.67-6.85q-.18-.65-.39-1.54t-.42-1.92q-.18,1-.39,1.94t-.39,1.55l-1.65,6.82Z" fill="#7d7d7d"/>
  <path d="M281.66,29.7v25H278V39.25a6.9,6.9,0,0,1,.07-1.19l-4.78,12.86a2.08,2.08,0,0,1-.6.91,1.32,1.32,0,0,1-.86.31h-.57a1.32,1.32,0,0,1-.86-.31,2.08,2.08,0,0,1-.6-.91L265.05,38a12,12,0,0,0,.06,1.21V54.73h-3.68v-25h3.71a.94.94,0,0,1,.36.1.88.88,0,0,1,.29.27,2.26,2.26,0,0,1,.25.51l4.62,12.68q.25.65.48,1.36t.44,1.44q.21-.76.44-1.48t.49-1.37l4.62-12.64a2.22,2.22,0,0,1,.25-.51.86.86,0,0,1,.29-.27.93.93,0,0,1,.36-.1h.48Z" fill="#7d7d7d"/>
  <path d="M289.35,54.73h-4.2v-25h4.2Z" fill="#7d7d7d"/>
  <path d="M310.66,48.25a.64.64,0,0,1,.3.08.85.85,0,0,1,.28.27l1.64,2.4a7.81,7.81,0,0,1-2.72,3,7.25,7.25,0,0,1-3.87,1,7,7,0,0,1-3.63-1,8.55,8.55,0,0,1-2.75-2.68,13.32,13.32,0,0,1-1.73-4,20.34,20.34,0,0,1-.61-5.09,19.08,19.08,0,0,1,.65-5.14,13.25,13.25,0,0,1,1.84-4,8.73,8.73,0,0,1,2.84-2.65,7.21,7.21,0,0,1,3.64-.94,7.1,7.1,0,0,1,1.91.25,7.51,7.51,0,0,1,1.67.69,7.27,7.27,0,0,1,1.43,1.06,8.85,8.85,0,0,1,1.11,1.31l-1.41,2.63a2.24,2.24,0,0,1-.32.44.67.67,0,0,1-.52.2.72.72,0,0,1-.42-.14,4.67,4.67,0,0,1-.42-.33l-.49-.43a3.49,3.49,0,0,0-.63-.43,4.17,4.17,0,0,0-.85-.33,4.23,4.23,0,0,0-1.14-.14,3.52,3.52,0,0,0-1.89.53,4.6,4.6,0,0,0-1.48,1.55,8.42,8.42,0,0,0-1,2.51,15.35,15.35,0,0,0-.34,3.39,14,14,0,0,0,.38,3.42,8.63,8.63,0,0,0,1,2.52,4.81,4.81,0,0,0,1.51,1.55,3.47,3.47,0,0,0,1.85.53,6.38,6.38,0,0,0,1-.08,3.62,3.62,0,0,0,.88-.26,3.17,3.17,0,0,0,.76-.48,5.36,5.36,0,0,0,.73-.76,1.5,1.5,0,0,1,.32-.28A.64.64,0,0,1,310.66,48.25Z" fill="#7d7d7d"/>
  <path d="M331.94,42.21a18.18,18.18,0,0,1-.67,5,13.38,13.38,0,0,1-1.89,4.06A9.11,9.11,0,0,1,326.43,54a8,8,0,0,1-7.65,0,9.15,9.15,0,0,1-3-2.71,13.29,13.29,0,0,1-1.9-4.06,19.28,19.28,0,0,1,0-10.1,13.18,13.18,0,0,1,1.9-4,9.18,9.18,0,0,1,3-2.7,7.63,7.63,0,0,1,3.83-1,7.54,7.54,0,0,1,3.82,1,9.24,9.24,0,0,1,2.94,2.71,13.26,13.26,0,0,1,1.89,4A18.12,18.12,0,0,1,331.94,42.21Zm-4.27,0a14.78,14.78,0,0,0-.35-3.34,8.2,8.2,0,0,0-1-2.52,4.66,4.66,0,0,0-1.59-1.58,4.14,4.14,0,0,0-2.13-.55,4.21,4.21,0,0,0-2.15.55,4.65,4.65,0,0,0-1.59,1.58,8.2,8.2,0,0,0-1,2.52,16.4,16.4,0,0,0,0,6.7,8.19,8.19,0,0,0,1,2.52,4.58,4.58,0,0,0,1.59,1.57,4.26,4.26,0,0,0,2.15.54,4.2,4.2,0,0,0,2.13-.54,4.59,4.59,0,0,0,1.59-1.57,8.19,8.19,0,0,0,1-2.52,14.87,14.87,0,0,0,.34-3.36Z" fill="#7d7d7d"/>
  <path d="M350.09,29.7v25h-2.17a1.44,1.44,0,0,1-.81-.21,2.28,2.28,0,0,1-.65-.75L338,38.81a11.76,11.76,0,0,0,.07,1.3,5,5,0,0,1,0,1.18V54.73h-3.68v-25h2.2a2.6,2.6,0,0,1,.46,0,1,1,0,0,1,.33.13,1.19,1.19,0,0,1,.28.27,4.31,4.31,0,0,1,.31.46l8.55,15q-.06-.72-.09-1.4t0-1.28V29.7Z" fill="#7d7d7d"/>
  <path d="M363.47,54.73h-4.2v-25h4.2Z" fill="#7d7d7d"/>
  <path d="M377.79,50.09v4.64H367v-25h4.17V50.09Z" fill="#7d7d7d"/>
  <path d="M405.08,29.7v25H401.4V39.25a6.9,6.9,0,0,1,.07-1.19l-4.78,12.86a2.08,2.08,0,0,1-.6.91,1.32,1.32,0,0,1-.86.31h-.57a1.32,1.32,0,0,1-.86-.31,2.08,2.08,0,0,1-.6-.91L388.46,38a11.94,11.94,0,0,0,.06,1.21V54.73h-3.68v-25h3.66a.94.94,0,0,1,.36.1.88.88,0,0,1,.29.27,2.26,2.26,0,0,1,.25.51L394,43.3q.25.65.48,1.36T395,46.1q.21-.76.44-1.48t.49-1.37l4.62-12.64a2.22,2.22,0,0,1,.25-.51.86.86,0,0,1,.29-.27.93.93,0,0,1,.36-.1h.48Z" fill="#7d7d7d"/>
  <path d="M426.21,42.21a18.18,18.18,0,0,1-.67,5,13.38,13.38,0,0,1-1.88,4.11,9.11,9.11,0,0,1-3,2.68A8,8,0,0,1,413,54a9.15,9.15,0,0,1-3-2.71,13.29,13.29,0,0,1-1.9-4.06,19.28,19.28,0,0,1,0-10.1,13.18,13.18,0,0,1,1.9-4,9.18,9.18,0,0,1,3-2.7,7.63,7.63,0,0,1,3.83-1,7.54,7.54,0,0,1,3.82,1,9.24,9.24,0,0,1,3,2.74,13.26,13.26,0,0,1,1.89,4A18.12,18.12,0,0,1,426.21,42.21Zm-4.27,0a14.78,14.78,0,0,0-.35-3.34,8.2,8.2,0,0,0-1-2.52A4.66,4.66,0,0,0,419,34.77a4.14,4.14,0,0,0-2.13-.55,4.21,4.21,0,0,0-2.15.55,4.65,4.65,0,0,0-1.59,1.58,8.2,8.2,0,0,0-1,2.52,16.4,16.4,0,0,0,0,6.7,8.19,8.19,0,0,0,1,2.52,4.58,4.58,0,0,0,1.59,1.57,4.26,4.26,0,0,0,2.15.54,4.2,4.2,0,0,0,2.13-.54,4.59,4.59,0,0,0,1.59-1.57,8.19,8.19,0,0,0,1-2.52A14.87,14.87,0,0,0,421.94,42.21Z" fill="#7d7d7d"/>
  <path d="M444.37,29.7v25H442.2a1.44,1.44,0,0,1-.81-.21,2.28,2.28,0,0,1-.65-.75l-8.48-14.9a11.76,11.76,0,0,0,.07,1.3,5,5,0,0,1,0,1.18V54.73h-3.67v-25h2.2a2.6,2.6,0,0,1,.46,0,1,1,0,0,1,.33.13,1.19,1.19,0,0,1,.28.27,4.31,4.31,0,0,1,.31.46l8.55,15q-.06-.72-.09-1.4t0-1.28V29.7Z" fill="#7d7d7d"/>
  <path d="M464.16,42.21a17.73,17.73,0,0,1-.67,5,12.75,12.75,0,0,1-1.89,4,8.86,8.86,0,0,1-2.94,2.58,7.85,7.85,0,0,1-3.82.94h-7v-25h7a7.81,7.81,0,0,1,3.82.94,9,9,0,0,1,2.94,2.61,12.64,12.64,0,0,1,1.89,4A17.67,17.67,0,0,1,464.16,42.21Zm-4.27,0a14.9,14.9,0,0,0-.35-3.35,8.29,8.29,0,0,0-1-2.53,4.71,4.71,0,0,0-1.59-1.6,4.09,4.09,0,0,0-2.13-.56H452V50.26h2.79A4.08,4.08,0,0,0,457,49.7a4.71,4.71,0,0,0,1.59-1.6,8.29,8.29,0,0,0,1-2.53A15,15,0,0,0,459.89,42.21Z" fill="#7d7d7d"/>
  <path d="M484.28,42.21a18.18,18.18,0,0,1-.67,5,13.38,13.38,0,0,1-1.89,4.06A9.11,9.11,0,0,1,478.77,54a8,8,0,0,1-7.65,0,9.15,9.15,0,0,1-3-2.71,13.29,13.29,0,0,1-1.9-4.06,19.28,19.28,0,0,1,0-10.1,13.18,13.18,0,0,1,1.9-4,9.18,9.18,0,0,1,3-2.7,7.63,7.63,0,0,1,3.83-1,7.54,7.54,0,0,1,3.82,1,9.24,9.24,0,0,1,2.94,2.71,13.26,13.26,0,0,1,1.89,4A18.12,18.12,0,0,1,484.28,42.21Zm-4.27,0a14.78,14.78,0,0,0-.35-3.34,8.2,8.2,0,0,0-1-2.52,4.66,4.66,0,0,0-1.59-1.58,4.14,4.14,0,0,0-2.13-.55,4.21,4.21,0,0,0-2.15.55,4.65,4.65,0,0,0-1.59,1.58,8.2,8.2,0,0,0-1,2.52,16.4,16.4,0,0,0,0,6.7,8.19,8.19,0,0,0,1,2.52,4.58,4.58,0,0,0,1.59,1.57,4.26,4.26,0,0,0,2.15.54,4.2,4.2,0,0,0,2.13-.54,4.59,4.59,0,0,0,1.59-1.58,8.19,8.19,0,0,0,1-2.52A14.87,14.87,0,0,0,480,42.21Z" fill="#7d7d7d"/>
</svg>
