<svg id="en" xmlns="http://www.w3.org/2000/svg" width="483.36" height="55.22" viewBox="0 0 483.36 55.22">
  <title>home-logo-slogan-en</title>
  <path d="M4.59,4.61v6.17h6.68v4.36H4.59v9.48H0V.22H12.59V4.57h-8Z" fill="#4d4c4d"/>
  <path d="M19.73,24.63H15.2V.22h4.53Z" fill="#4d4c4d"/>
  <path d="M40.59.22V24.63H38.23a1.71,1.71,0,0,1-.88-.21,2.33,2.33,0,0,1-.71-.73L27.44,9.16q.05.65.07,1.26t0,1.15V24.63h-4V.22h2.38a3.06,3.06,0,0,1,.49,0,1.08,1.08,0,0,1,.36.13A1.23,1.23,0,0,1,27,.61a4.26,4.26,0,0,1,.33.45l9.3,14.63q-.07-.7-.09-1.36t0-1.25V.22h4Z" fill="#4d4c4d"/>
  <path d="M62.12,12.44a15.59,15.59,0,0,1-.73,4.87,12,12,0,0,1-2,3.86,9.64,9.64,0,0,1-7.46,3.46H44.38V.22H52a9.27,9.27,0,0,1,4.1,1,9.5,9.5,0,0,1,3.2,2.54,11.83,11.83,0,0,1,2,3.85A15.54,15.54,0,0,1,62.12,12.44Zm-4.64,0a13.06,13.06,0,0,0-.4-3.22A7.61,7.61,0,0,0,56,6.75a4.7,4.7,0,0,0-4-2.1h-3V20.28h3A4.83,4.83,0,0,0,56,18.22a7.61,7.61,0,0,0,1.07-2.5,13.13,13.13,0,0,0,.38-3.28Z" fill="#4d4c4d"/>
  <path d="M87.58,24.63H84.07a1.33,1.33,0,0,1-.95-.34,2.18,2.18,0,0,1-.55-.88l-1.15-4.25H74l-1.15,4.25a2,2,0,0,1-.52.84,1.3,1.3,0,0,1-.95.38H67.82L75.38.22H80Zm-7.2-9.32L78.57,8.64q-.2-.64-.42-1.5t-.45-1.86q-.2,1-.43,1.89t-.42,1.5L75,15.31h5.35Z" fill="#4d4c4d"/>
  <path d="M106.17.22V24.63h-2.36a1.71,1.71,0,0,1-.88-.21,2.33,2.33,0,0,1-.71-.73L93,9.16q.05.65.07,1.26t0,1.15V24.63H89V.22h2.38a3.06,3.06,0,0,1,.49,0,1.08,1.08,0,0,1,.36.13,1.23,1.23,0,0,1,.31.26,4.26,4.26,0,0,1,.33.45l9.3,14.63q-.07-.7-.09-1.36t0-1.25V.22Z" fill="#4d4c4d"/>
  <path d="M120.75,5.22a2,2,0,0,1-.42.6.81.81,0,0,1-.57.2,1.2,1.2,0,0,1-.67-.24l-.81-.54a6.07,6.07,0,0,0-1-.54A3.37,3.37,0,0,0,116,4.46a2.46,2.46,0,0,0-1.9.68A2.59,2.59,0,0,0,113.44,7a2,2,0,0,0,.37,1.22,3.32,3.32,0,0,0,1,.84,9.34,9.34,0,0,0,1.39.64q.79.29,1.6.65a13,13,0,0,1,1.6.84,5.54,5.54,0,0,1,1.39,1.24,6,6,0,0,1,1,1.83,7.93,7.93,0,0,1,.37,2.6,10.34,10.34,0,0,1-.46,3.16,7.75,7.75,0,0,1-1.36,2.57,6.32,6.32,0,0,1-2.26,1.66,6.78,6.78,0,0,1-3,.63,7.7,7.7,0,0,1-1.86-.23,9.4,9.4,0,0,1-1.83-.66,9.89,9.89,0,0,1-1.67-1,7.5,7.5,0,0,1-1.35-1.3L109.79,19a1.5,1.5,0,0,1,.42-.48.94.94,0,0,1,.57-.19,1.33,1.33,0,0,1,.81.32l.93.7a6.94,6.94,0,0,0,1.19.7,3.65,3.65,0,0,0,1.58.32,2.61,2.61,0,0,0,1.92-.68,2.92,2.92,0,0,0,.69-2.15,2.36,2.36,0,0,0-.37-1.39,3,3,0,0,0-1-.89,8,8,0,0,0-1.38-.62q-.78-.27-1.59-.59a10.5,10.5,0,0,1-1.59-.8A5.25,5.25,0,0,1,110.57,12a6.2,6.2,0,0,1-1-1.94,9.43,9.43,0,0,1-.37-2.87,8.27,8.27,0,0,1,.44-2.68,7.12,7.12,0,0,1,1.31-2.34,6.28,6.28,0,0,1,5-2.24,8.63,8.63,0,0,1,1.74.24,7.79,7.79,0,0,1,1.61.52,8.23,8.23,0,0,1,1.43.82,6.89,6.89,0,0,1,1.19,1.08Z" fill="#4d4c4d"/>
  <path d="M151.26.22,145.2,24.58h-4.1l-3.67-15.1q-.11-.35-.2-.78L137,7.81q-.09.47-.19.89t-.2.78l-3.72,15.1h-4.1l-6-24.36h3.8a1.47,1.47,0,0,1,1,.33,1.57,1.57,0,0,1,.51.89l2.65,12.78q.12.6.24,1.31t.24,1.48a22.82,22.82,0,0,1,.59-2.79L135,1.51a1.77,1.77,0,0,1,.51-.84,1.34,1.34,0,0,1,1-.45h1.3a1.33,1.33,0,0,1,.95.34,2.19,2.19,0,0,1,.54.88l3.19,12.78a21.26,21.26,0,0,1,.59,2.66q.11-.75.22-1.41t.23-1.25l2.68-12.71a1.62,1.62,0,0,1,.5-.85,1.38,1.38,0,0,1,1-.37h3.56Z" fill="#4d4c4d"/>
  <path d="M157.76,4.61v5.68h6.14v4.18h-6.14v5.8h8v4.35H153.21V.22h12.58V4.57h-8Z" fill="#4d4c4d"/>
  <path d="M184.54,24.63h-4.1a1.69,1.69,0,0,1-1.64-1.07l-3.24-7.07a1.83,1.83,0,0,0-.5-.66,1.33,1.33,0,0,0-.81-.21h-1.12v9h-4.53V.22H175a10.63,10.63,0,0,1,3.61.54A6.4,6.4,0,0,1,181,2.27a5.8,5.8,0,0,1,1.37,2.29,9.25,9.25,0,0,1,.43,2.88,9.52,9.52,0,0,1-.25,2.24,7.77,7.77,0,0,1-.75,2,6.73,6.73,0,0,1-1.23,1.6,6.32,6.32,0,0,1-1.69,1.15,4.2,4.2,0,0,1,.83.71,4.85,4.85,0,0,1,.7,1Zm-9.62-12.91a3.83,3.83,0,0,0,1.57-.29,2.83,2.83,0,0,0,1.07-.81,3.28,3.28,0,0,0,.61-1.21,5.71,5.71,0,0,0,.19-1.5,3.54,3.54,0,0,0-.84-2.51,3.38,3.38,0,0,0-2.59-.9h-1.8v7.22h1.79Z" fill="#4d4c4d"/>
  <path d="M197,5.22a2,2,0,0,1-.42.6A.81.81,0,0,1,196,6a1.2,1.2,0,0,1-.67-.24l-.81-.54a6.07,6.07,0,0,0-1-.54,3.37,3.37,0,0,0-1.31-.24,2.46,2.46,0,0,0-1.9.68A2.59,2.59,0,0,0,189.68,7a2,2,0,0,0,.37,1.22,3.32,3.32,0,0,0,1,.84,9.34,9.34,0,0,0,1.39.64q.79.29,1.6.65a13,13,0,0,1,1.6.84,5.54,5.54,0,0,1,1.39,1.24,6,6,0,0,1,1,1.83,7.93,7.93,0,0,1,.37,2.6A10.34,10.34,0,0,1,198,20a7.75,7.75,0,0,1-1.36,2.57,6.33,6.33,0,0,1-2.28,1.66,6.78,6.78,0,0,1-3,.63,7.7,7.7,0,0,1-1.86-.23,9.4,9.4,0,0,1-1.83-.66A9.89,9.89,0,0,1,186,23a7.5,7.5,0,0,1-1.35-1.3L186,19a1.5,1.5,0,0,1,.42-.48.94.94,0,0,1,.57-.19,1.33,1.33,0,0,1,.81.32l.93.7a6.94,6.94,0,0,0,1.19.7,3.65,3.65,0,0,0,1.58.32,2.61,2.61,0,0,0,1.92-.68,2.92,2.92,0,0,0,.69-2.15,2.36,2.36,0,0,0-.37-1.39,3,3,0,0,0-1-.89,8,8,0,0,0-1.38-.62q-.78-.27-1.59-.59a10.5,10.5,0,0,1-1.59-.8A5.25,5.25,0,0,1,186.77,12a6.2,6.2,0,0,1-1-1.94,9.43,9.43,0,0,1-.37-2.87,8.27,8.27,0,0,1,.44-2.68,7.12,7.12,0,0,1,1.34-2.31,6.28,6.28,0,0,1,5-2.24,8.63,8.63,0,0,1,1.75.18,7.79,7.79,0,0,1,1.61.52,8.23,8.23,0,0,1,1.43.82,6.89,6.89,0,0,1,1.19,1.08Z" fill="#4d4c4d"/>
  <path d="M220.46,4.75H215V24.63h-4.48V4.75H205V.22H220.5V4.7Z" fill="#4d4c4d"/>
  <path d="M241.47,12.44a16,16,0,0,1-.73,4.92,12.46,12.46,0,0,1-2,4,9.31,9.31,0,0,1-14.72,0,12.39,12.39,0,0,1-2-4,16,16,0,0,1-.73-4.92A16,16,0,0,1,222,7.52a12.28,12.28,0,0,1,2-3.95A9.67,9.67,0,0,1,227.22.95a9,9,0,0,1,4.16-1,9,9,0,0,1,4.15,1,9.72,9.72,0,0,1,3.2,2.63,12.36,12.36,0,0,1,2,3.95A15.93,15.93,0,0,1,241.47,12.44Zm-4.64,0a13,13,0,0,0-.37-3.25,7.52,7.52,0,0,0-1.08-2.45,4.72,4.72,0,0,0-4-2.07,5,5,0,0,0-2.34.54,4.82,4.82,0,0,0-1.73,1.54,7.51,7.51,0,0,0-1.08,2.47,13,13,0,0,0-.37,3.25,13,13,0,0,0,.37,3.27,7.51,7.51,0,0,0,1.08,2.45A4.75,4.75,0,0,0,229,19.72a5.08,5.08,0,0,0,2.34.53,5,5,0,0,0,2.32-.53,4.76,4.76,0,0,0,1.73-1.53,7.51,7.51,0,0,0,1.08-2.45,13,13,0,0,0,.37-3.3Z" fill="#4d4c4d"/>
  <path d="M258.56,15.36v9.26H254V15.36L247,.26h4a1.26,1.26,0,0,1,.93.34,2.76,2.76,0,0,1,.58.88l2.77,7.09q.34.84.63,1.56t.49,1.43q.2-.72.46-1.45t.61-1.55l2.74-7.09a3.41,3.41,0,0,1,.23-.43,2.06,2.06,0,0,1,.31-.39,1.48,1.48,0,0,1,.41-.28,1.21,1.21,0,0,1,.46-.15h4Z" fill="#4d4c4d"/>
  <path d="M285.11,12.44a16,16,0,0,1-.73,4.92,12.47,12.47,0,0,1-2,4,9.38,9.38,0,0,1-14.77,0,12.38,12.38,0,0,1-2-4,16,16,0,0,1-.73-4.92,16,16,0,0,1,.73-4.92,12.28,12.28,0,0,1,2-3.95A9.67,9.67,0,0,1,270.81.9,9,9,0,0,1,275-.1a8.94,8.94,0,0,1,4.15,1,9.72,9.72,0,0,1,3.2,2.63,12.37,12.37,0,0,1,2,3.95A15.87,15.87,0,0,1,285.11,12.44Zm-4.64,0a13,13,0,0,0-.34-3.22A7.52,7.52,0,0,0,279,6.77a4.72,4.72,0,0,0-4-2.07,5,5,0,0,0-2.34.54,4.82,4.82,0,0,0-1.73,1.54,7.53,7.53,0,0,0-1.11,2.44,13,13,0,0,0-.37,3.25,13,13,0,0,0,.37,3.27,7.52,7.52,0,0,0,1.08,2.45,4.74,4.74,0,0,0,1.73,1.53,5.08,5.08,0,0,0,2.34.53,5,5,0,0,0,2.32-.53A4.76,4.76,0,0,0,279,18.19a7.52,7.52,0,0,0,1.1-2.48A13.07,13.07,0,0,0,280.46,12.44Z" fill="#4d4c4d"/>
  <path d="M295.93,20.16a3.33,3.33,0,0,0,2.85-1.45,5.21,5.21,0,0,0,.76-1.71,9.2,9.2,0,0,0,.26-2.3V.22h4.55V14.7a13.76,13.76,0,0,1-.59,4.11A9.71,9.71,0,0,1,302.09,22a7.57,7.57,0,0,1-2.64,2.11,8.54,8.54,0,0,1-7,0A7.56,7.56,0,0,1,289.79,22a9.61,9.61,0,0,1-1.67-3.23,13.88,13.88,0,0,1-.58-4.11V.22h4.53V14.68a9.2,9.2,0,0,0,.26,2.3,5.31,5.31,0,0,0,.76,1.72A3.31,3.31,0,0,0,295.93,20.16Z" fill="#4d4c4d"/>
  <path d="M323.84,24.63h-4.1a1.69,1.69,0,0,1-1.64-1.07l-3.24-7.07a1.82,1.82,0,0,0-.5-.66,1.33,1.33,0,0,0-.81-.21h-1.14v9h-4.53V.22h6.36a10.63,10.63,0,0,1,3.61.54,6.4,6.4,0,0,1,2.44,1.51,5.82,5.82,0,0,1,1.37,2.29,9.27,9.27,0,0,1,.42,2.88,9.52,9.52,0,0,1-.25,2.24,7.79,7.79,0,0,1-.75,2,6.74,6.74,0,0,1-1.23,1.6,6.31,6.31,0,0,1-1.69,1.15,4.24,4.24,0,0,1,.83.71,4.89,4.89,0,0,1,.7,1Zm-9.63-12.91a3.82,3.82,0,0,0,1.57-.29,2.82,2.82,0,0,0,1.07-.81,3.28,3.28,0,0,0,.61-1.21,5.71,5.71,0,0,0,.19-1.5,3.54,3.54,0,0,0-.84-2.51,3.38,3.38,0,0,0-2.59-.9h-1.81v7.22h1.8Z" fill="#4d4c4d"/>
  <path d="M352,29.22h-3.72a3.8,3.8,0,0,1-1.44-.26,3,3,0,0,1-1.19-1l-2.42-3.39a9.3,9.3,0,0,1-9.82-3.27,12.39,12.39,0,0,1-2-4,16,16,0,0,1-.73-4.92,16,16,0,0,1,.73-4.92,12.28,12.28,0,0,1,2-3.95A9.66,9.66,0,0,1,336.57.89a9,9,0,0,1,4.16-1,8.94,8.94,0,0,1,4.15,1,9.72,9.72,0,0,1,3.2,2.63,12.35,12.35,0,0,1,2,3.95,15.93,15.93,0,0,1,.73,4.9,16.92,16.92,0,0,1-.26,3,15,15,0,0,1-.75,2.72,12.28,12.28,0,0,1-1.21,2.36A10.28,10.28,0,0,1,347,22.37ZM335.21,12.47a13,13,0,0,0,.37,3.27,7.51,7.51,0,0,0,1.06,2.42,4.74,4.74,0,0,0,1.73,1.53,5.08,5.08,0,0,0,2.34.53,5,5,0,0,0,2.32-.53,4.76,4.76,0,0,0,1.73-1.53,7.52,7.52,0,0,0,1.08-2.45,13,13,0,0,0,.37-3.27,13,13,0,0,0-.37-3.25,7.52,7.52,0,0,0-1.08-2.45,4.72,4.72,0,0,0-4-2.07,5,5,0,0,0-2.34.54,4.82,4.82,0,0,0-1.74,1.53,7.52,7.52,0,0,0-1,2.48,13,13,0,0,0-.42,3.22Z" fill="#4d4c4d"/>
  <path d="M361.68,20.16a3.33,3.33,0,0,0,2.85-1.45,5.21,5.21,0,0,0,.76-1.71,9.2,9.2,0,0,0,.26-2.3V.22h4.53V14.7a13.76,13.76,0,0,1-.59,4.11A9.71,9.71,0,0,1,367.83,22a7.57,7.57,0,0,1-2.64,2.11,8.54,8.54,0,0,1-7,0A7.56,7.56,0,0,1,355.52,22a9.61,9.61,0,0,1-1.67-3.23,13.88,13.88,0,0,1-.58-4.11V.22h4.55V14.68a9.2,9.2,0,0,0,.26,2.3,5.31,5.31,0,0,0,.76,1.72A3.31,3.31,0,0,0,361.68,20.16Z" fill="#4d4c4d"/>
  <path d="M378.17,4.61v5.68h6.14v4.18h-6.14v5.8h8v4.35H373.61V.22h12.58V4.57h-8Z" fill="#4d4c4d"/>
  <path d="M399.77,5.22a2,2,0,0,1-.42.6.81.81,0,0,1-.57.2,1.2,1.2,0,0,1-.67-.24l-.81-.54a6.07,6.07,0,0,0-1-.54A3.37,3.37,0,0,0,395,4.46a2.46,2.46,0,0,0-1.9.68A2.59,2.59,0,0,0,392.46,7a2,2,0,0,0,.37,1.22,3.31,3.31,0,0,0,1,.84,9.39,9.39,0,0,0,1.39.64q.79.29,1.6.65a13,13,0,0,1,1.6.84,5.53,5.53,0,0,1,1.39,1.24,6,6,0,0,1,1,1.83,7.93,7.93,0,0,1,.37,2.6,10.35,10.35,0,0,1-.46,3.16,7.74,7.74,0,0,1-1.36,2.57,6.32,6.32,0,0,1-2.26,1.66,6.78,6.78,0,0,1-3,.63,7.7,7.7,0,0,1-1.86-.23,9.43,9.43,0,0,1-1.83-.66,9.86,9.86,0,0,1-1.67-1,7.52,7.52,0,0,1-1.35-1.3L388.81,19a1.51,1.51,0,0,1,.42-.48.94.94,0,0,1,.57-.19,1.33,1.33,0,0,1,.81.32l.93.7a6.92,6.92,0,0,0,1.19.7,3.65,3.65,0,0,0,1.58.32,2.61,2.61,0,0,0,1.92-.68,2.92,2.92,0,0,0,.69-2.15,2.36,2.36,0,0,0-.37-1.39,3,3,0,0,0-1-.89,8,8,0,0,0-1.38-.62q-.78-.27-1.59-.59a10.46,10.46,0,0,1-1.59-.8A5.26,5.26,0,0,1,389.58,12a6.2,6.2,0,0,1-1-1.94,9.44,9.44,0,0,1-.35-2.86,8.28,8.28,0,0,1,.44-2.68A7.13,7.13,0,0,1,390,2.22a6.27,6.27,0,0,1,5-2.24,8.63,8.63,0,0,1,1.75.18,7.82,7.82,0,0,1,1.61.52,8.22,8.22,0,0,1,1.42.82,6.89,6.89,0,0,1,1.19,1.08Z" fill="#4d4c4d"/>
  <path d="M417.87,4.75h-5.53V24.63H407.8V4.75h-5.46V.22h15.52V4.75Z" fill="#4d4c4d"/>
  <path d="M424.72,24.63h-4.56V.22h4.56Z" fill="#4d4c4d"/>
  <path d="M447.66,12.44a16,16,0,0,1-.73,4.92,12.47,12.47,0,0,1-2,4,9.31,9.31,0,0,1-14.72,0,12.38,12.38,0,0,1-2-4,16,16,0,0,1-.73-4.92,16,16,0,0,1,.73-4.92,12.28,12.28,0,0,1,2-3.95A9.67,9.67,0,0,1,433.41.95a9,9,0,0,1,4.16-1,8.94,8.94,0,0,1,4.15,1,9.72,9.72,0,0,1,3.2,2.63,12.37,12.37,0,0,1,2,3.95A15.86,15.86,0,0,1,447.66,12.44Zm-4.64,0a13,13,0,0,0-.4-3.22,7.52,7.52,0,0,0-1-2.48,4.72,4.72,0,0,0-4-2.07,5,5,0,0,0-2.34.54,4.82,4.82,0,0,0-1.73,1.54,7.53,7.53,0,0,0-1.11,2.47,13,13,0,0,0-.37,3.25,13,13,0,0,0,.37,3.27,7.52,7.52,0,0,0,1.08,2.45,4.74,4.74,0,0,0,1.73,1.53,5.09,5.09,0,0,0,2.37.5,5,5,0,0,0,2.32-.53,4.76,4.76,0,0,0,1.72-1.53,7.51,7.51,0,0,0,1-2.45,13.08,13.08,0,0,0,.41-3.27Z" fill="#4d4c4d"/>
  <path d="M467.39.22V24.63H465a1.7,1.7,0,0,1-.88-.21,2.31,2.31,0,0,1-.71-.73L454.23,9.16q.05.65.07,1.26t0,1.15V24.63h-4V.22h2.44a3.06,3.06,0,0,1,.49,0,1.09,1.09,0,0,1,.36.13,1.23,1.23,0,0,1,.3.26,4.19,4.19,0,0,1,.33.45l9.3,14.63c0-.47-.08-.92-.09-1.36s0-.86,0-1.25V.22h4Z" fill="#4d4c4d"/>
  <path d="M482,5.22a2,2,0,0,1-.42.6A.81.81,0,0,1,481,6a1.2,1.2,0,0,1-.67-.24l-.81-.54a6.07,6.07,0,0,0-1-.54,3.37,3.37,0,0,0-1.31-.24,2.46,2.46,0,0,0-1.9.68A2.59,2.59,0,0,0,474.67,7,2,2,0,0,0,475,8.19a3.31,3.31,0,0,0,1,.84,9.39,9.39,0,0,0,1.39.64q.79.29,1.6.65a13,13,0,0,1,1.6.84A5.53,5.53,0,0,1,482,12.39a6,6,0,0,1,1,1.83,7.93,7.93,0,0,1,.37,2.6,10.35,10.35,0,0,1-.46,3.16,7.74,7.74,0,0,1-1.36,2.57,6.32,6.32,0,0,1-2.2,1.67,6.78,6.78,0,0,1-3,.63,7.7,7.7,0,0,1-1.86-.23,9.43,9.43,0,0,1-1.83-.66A9.86,9.86,0,0,1,471,23a7.52,7.52,0,0,1-1.35-1.3L471,19a1.51,1.51,0,0,1,.42-.48.94.94,0,0,1,.57-.19,1.33,1.33,0,0,1,.81.32l.93.7a6.92,6.92,0,0,0,1.19.7,3.65,3.65,0,0,0,1.58.32,2.61,2.61,0,0,0,1.92-.68,2.92,2.92,0,0,0,.69-2.15,2.36,2.36,0,0,0-.37-1.39,3,3,0,0,0-1-.89,8,8,0,0,0-1.38-.62q-.78-.27-1.59-.59a10.46,10.46,0,0,1-1.59-.8A5.26,5.26,0,0,1,471.77,12a6.2,6.2,0,0,1-1-1.94,9.44,9.44,0,0,1-.37-2.87,8.28,8.28,0,0,1,.44-2.68,7.13,7.13,0,0,1,1.32-2.31,6.27,6.27,0,0,1,5-2.24,8.63,8.63,0,0,1,1.75.18,7.82,7.82,0,0,1,1.61.52,8.22,8.22,0,0,1,1.42.82,6.89,6.89,0,0,1,1.19,1.08Z" fill="#4d4c4d"/>
  <path d="M10.59,35a2.15,2.15,0,0,1-.36.62.64.64,0,0,1-.49.21.93.93,0,0,1-.57-.25L8.48,35a5,5,0,0,0-.88-.56,2.49,2.49,0,0,0-1.14-.25,1.93,1.93,0,0,0-1.63.7,3,3,0,0,0-.54,1.88,2.26,2.26,0,0,0,.32,1.25,3.05,3.05,0,0,0,.85.86,7.46,7.46,0,0,0,1.2.66q.67.3,1.38.67a10.73,10.73,0,0,1,1.38.87,5.17,5.17,0,0,1,1.2,1.27,6.64,6.64,0,0,1,.84,1.84,9.64,9.64,0,0,1,.32,2.67,12.54,12.54,0,0,1-.4,3.25,8.56,8.56,0,0,1-1.17,2.64,5.71,5.71,0,0,1-1.89,1.77,5,5,0,0,1-2.55.64,5.62,5.62,0,0,1-1.6-.24,7.3,7.3,0,0,1-1.57-.68,8.38,8.38,0,0,1-1.43-1A7.13,7.13,0,0,1,0,51.93l1.15-2.71a1.5,1.5,0,0,1,.36-.49.73.73,0,0,1,.49-.2,1,1,0,0,1,.7.33l.8.72a5.89,5.89,0,0,0,1,.72,2.72,2.72,0,0,0,1.36.33,2,2,0,0,0,1.65-.7,3.39,3.39,0,0,0,.57-2.21,2.79,2.79,0,0,0-.32-1.42,2.84,2.84,0,0,0-.85-.91,6.35,6.35,0,0,0-1.19-.63q-.67-.28-1.37-.61A8.48,8.48,0,0,1,3,43.33,4.91,4.91,0,0,1,1.82,42,6.91,6.91,0,0,1,1,40a11.45,11.45,0,0,1-.32-3A10,10,0,0,1,1,34.32a7.83,7.83,0,0,1,1.12-2.39A5.75,5.75,0,0,1,4,30.26a4.77,4.77,0,0,1,2.46-.63,6.25,6.25,0,0,1,1.5.18,6,6,0,0,1,1.39.53,6.84,6.84,0,0,1,1.23.84,6.42,6.42,0,0,1,1,1.11Z" fill="#7d7d7d"/>
  <path d="M28.74,29.92v25H24.82V44.37H18V54.95H14.09v-25H18V40.38h6.82V29.92h3.91Z" fill="#7d7d7d"/>
  <path d="M47.09,54.95h-3a1,1,0,0,1-.82-.35,2.33,2.33,0,0,1-.47-.9l-1-4.36H35.37l-1,4.36a2.19,2.19,0,0,1-.46.87,1,1,0,0,1-.81.39h-3l6.5-25h4ZM40.9,45.38l-1.56-6.85Q39.17,37.88,39,37t-.39-1.92q-.17,1-.37,1.94t-.37,1.55L36.3,45.38Z" fill="#7d7d7d"/>
  <path d="M62.09,54.95H58.6a1.47,1.47,0,0,1-1.41-1.1L54.4,46.59a1.88,1.88,0,0,0-.44-.68,1,1,0,0,0-.69-.21h-1V55h-3.9V30h5.46a7.79,7.79,0,0,1,3.11.56A5.47,5.47,0,0,1,59.09,32a6.27,6.27,0,0,1,1.18,2.35,11.25,11.25,0,0,1,.37,3,11.59,11.59,0,0,1-.22,2.3,9,9,0,0,1-.65,2,7,7,0,0,1-1.05,1.64,5.51,5.51,0,0,1-1.45,1.18,3.9,3.9,0,0,1,.71.73,5.07,5.07,0,0,1,.6,1ZM53.85,41.69a2.82,2.82,0,0,0,1.35-.3,2.53,2.53,0,0,0,.89-.84,3.66,3.66,0,0,0,.52-1.25,7,7,0,0,0,.16-1.54,4.11,4.11,0,0,0-.68-2.54,2.65,2.65,0,0,0-2.24-1H52.28v7.42h1.57Z" fill="#7d7d7d"/>
  <path d="M67.46,34.39v5.83h5.28v4.3H67.46v6h6.89V55H63.54V30H74.35v4.47H67.46Z" fill="#7d7d7d"/>
  <path d="M105,29.92l-5.19,25H96.24L93.09,39.44q-.09-.36-.17-.8t-.16-.92q-.08.48-.16.92t-.17.8L89.23,55H85.69L80.5,30h3.27a1.14,1.14,0,0,1,.85.34,1.69,1.69,0,0,1,.47.93l2.28,13q.1.62.21,1.35t.21,1.52a27.41,27.41,0,0,1,.5-2.87l2.72-13a1.91,1.91,0,0,1,.44-.87,1.06,1.06,0,0,1,.82-.39h1.15a1,1,0,0,1,.82.35,2.34,2.34,0,0,1,.47.9l2.71,13a25.6,25.6,0,0,1,.51,2.73q.09-.77.19-1.45t.2-1.28l2.31-13a1.75,1.75,0,0,1,.44-.88,1.09,1.09,0,0,1,.83-.38H105Z" fill="#7d7d7d"/>
  <path d="M121.29,29.92v25h-3.92V44.37h-6.82V54.95h-3.92v-25h3.92V40.38h6.82V29.92Z" fill="#7d7d7d"/>
  <path d="M139.61,54.95h-3a1,1,0,0,1-.82-.35,2.33,2.33,0,0,1-.47-.9l-1-4.36h-6.39l-1,4.36a2.19,2.19,0,0,1-.46.87,1,1,0,0,1-.81.39h-3l6.5-25h4Zm-6.19-9.57-1.56-6.85q-.17-.65-.37-1.54t-.4-1.91q-.17,1-.37,1.94t-.37,1.55l-1.54,6.82h4.61Z" fill="#7d7d7d"/>
  <path d="M153,34.53h-4.73V54.95h-3.9V34.53h-4.73V29.92H153v4.6Z" fill="#7d7d7d"/>
  <path d="M166.68,45.43v9.52h-3.9V45.43l-6.09-15.51h3.4a1,1,0,0,1,.8.35,2.94,2.94,0,0,1,.49.9l2.37,7.28q.3.86.54,1.61t.43,1.47q.17-.74.4-1.49t.52-1.59l2.4-7.23a3.78,3.78,0,0,1,.2-.45,2.07,2.07,0,0,1,.27-.4,1.3,1.3,0,0,1,.36-.29.9.9,0,0,1,.44-.11h3.46Z" fill="#7d7d7d"/>
  <path d="M189.5,42.43a19.4,19.4,0,0,1-.63,5,13.83,13.83,0,0,1-1.78,4.11,8.75,8.75,0,0,1-2.74,2.68,7,7,0,0,1-7.14,0,8.78,8.78,0,0,1-2.76-2.71,13.73,13.73,0,0,1-1.78-4.06,20.62,20.62,0,0,1,0-10.1,13.61,13.61,0,0,1,1.78-4,8.82,8.82,0,0,1,2.76-2.7,6.76,6.76,0,0,1,3.57-1,6.68,6.68,0,0,1,3.57,1,8.88,8.88,0,0,1,2.74,2.74,13.71,13.71,0,0,1,1.77,4A19.33,19.33,0,0,1,189.5,42.43Zm-4,0a15.81,15.81,0,0,0-.32-3.34,8.53,8.53,0,0,0-.93-2.52A4.52,4.52,0,0,0,182.77,35a3.68,3.68,0,0,0-2-.55,3.73,3.73,0,0,0-2,.55,4.49,4.49,0,0,0-1.49,1.58,8.53,8.53,0,0,0-.93,2.52,17.54,17.54,0,0,0,0,6.7,8.52,8.52,0,0,0,.93,2.52,4.42,4.42,0,0,0,1.49,1.57,3.77,3.77,0,0,0,2,.54,3.72,3.72,0,0,0,2-.54,4.44,4.44,0,0,0,1.48-1.57,8.52,8.52,0,0,0,.93-2.52,15.91,15.91,0,0,0,.33-3.36Z" fill="#7d7d7d"/>
  <path d="M198.8,50.36a2.58,2.58,0,0,0,1.4-.39,3.19,3.19,0,0,0,1-1.11,5.91,5.91,0,0,0,.65-1.76,11.21,11.21,0,0,0,.23-2.36V29.92H206V44.75a16.72,16.72,0,0,1-.5,4.22,10.77,10.77,0,0,1-1.39,3.32,6.87,6.87,0,0,1-2.27,2.16,6.27,6.27,0,0,1-6,0,6.87,6.87,0,0,1-2.27-2.16A10.68,10.68,0,0,1,192.09,49a16.91,16.91,0,0,1-.5-4.22V29.92h3.9V44.73a11.21,11.21,0,0,0,.23,2.36,6,6,0,0,0,.65,1.77,3.16,3.16,0,0,0,1,1.12A2.58,2.58,0,0,0,198.8,50.36Z" fill="#7d7d7d"/>
  <path d="M224.51,50.31v4.64H214.39v-25h3.9V50.31h6.22Z" fill="#7d7d7d"/>
  <path d="M242.56,42.43a19.4,19.4,0,0,1-.63,5,13.83,13.83,0,0,1-1.77,4.06,8.75,8.75,0,0,1-2.75,2.73,7,7,0,0,1-7.14,0,8.78,8.78,0,0,1-2.76-2.71,13.73,13.73,0,0,1-1.78-4.06,20.62,20.62,0,0,1,0-10.1,13.61,13.61,0,0,1,1.78-4,8.82,8.82,0,0,1,2.76-2.7,6.76,6.76,0,0,1,3.57-1,6.68,6.68,0,0,1,3.57,1,8.88,8.88,0,0,1,2.75,2.71,13.71,13.71,0,0,1,1.77,4A19.33,19.33,0,0,1,242.56,42.43Zm-4,0a15.81,15.81,0,0,0-.32-3.34,8.53,8.53,0,0,0-.93-2.52A4.52,4.52,0,0,0,235.83,35a3.68,3.68,0,0,0-2-.55,3.73,3.73,0,0,0-2,.55,4.49,4.49,0,0,0-1.49,1.58,8.53,8.53,0,0,0-.93,2.52,17.54,17.54,0,0,0,0,6.7,8.52,8.52,0,0,0,.93,2.52,4.42,4.42,0,0,0,1.49,1.57,3.77,3.77,0,0,0,2,.54,3.72,3.72,0,0,0,2-.54,4.44,4.44,0,0,0,1.48-1.57,8.52,8.52,0,0,0,.93-2.52,15.91,15.91,0,0,0,.33-3.36Z" fill="#7d7d7d"/>
  <path d="M259.31,29.92l-6.73,25h-3.49l-6.73-25h3.14a1,1,0,0,1,.82.35,2.34,2.34,0,0,1,.47.9L250,44.57q.23.88.45,1.92t.42,2.17q.16-1.13.36-2.17t.43-1.92l3.18-13.35a2.15,2.15,0,0,1,.46-.87,1,1,0,0,1,.81-.39h3.16Z" fill="#7d7d7d"/>
  <path d="M264.56,34.39v5.83h5.28v4.3h-5.28v6h6.89V55H260.64V30h10.81v4.47h-6.89Z" fill="#7d7d7d"/>
  <path d="M302.09,29.92l-5.19,25h-3.53l-3.16-15.51q-.09-.36-.17-.8t-.16-.92q-.08.48-.16.92c0,.29-.11.56-.17.8l-3.21,15.51h-3.53l-5.19-25h3.27a1.14,1.14,0,0,1,.85.34,1.69,1.69,0,0,1,.44.91l2.28,13q.1.62.21,1.35t.21,1.52a27.53,27.53,0,0,1,.51-2.87l2.7-13a1.9,1.9,0,0,1,.44-.87,1.06,1.06,0,0,1,.82-.39h1.15a1,1,0,0,1,.82.35,2.33,2.33,0,0,1,.47.9l2.73,13a25.86,25.86,0,0,1,.51,2.73q.09-.77.19-1.45t.2-1.28l2.3-13a1.75,1.75,0,0,1,.44-.88A1.09,1.09,0,0,1,299,30h3.1Z" fill="#7d7d7d"/>
  <path d="M307.64,54.95h-3.92v-25h3.92Z" fill="#7d7d7d"/>
  <path d="M323,34.53h-4.73V54.95h-3.9V34.53H309.6V29.92h13.35v4.6Z" fill="#7d7d7d"/>
  <path d="M339.6,29.92v25h-3.92V44.37h-6.82V54.95h-3.92v-25h3.92V40.38h6.82V29.92Z" fill="#7d7d7d"/>
  <path d="M359.54,34.53h-4.73V54.95h-3.9V34.53h-4.72V29.92h13.35v4.6Z" fill="#7d7d7d"/>
  <path d="M376.17,29.92v25h-3.92V44.37h-6.82V54.95h-3.92v-25h3.92V40.38h6.82V29.92Z" fill="#7d7d7d"/>
  <path d="M383.34,34.39v5.83h5.28v4.3h-5.28v6h6.89V55H379.42V30h10.81v4.47h-6.89Z" fill="#7d7d7d"/>
  <path d="M420.84,29.92l-5.19,25h-3.56l-3.16-15.51q-.09-.36-.17-.8t-.16-.92q-.08.48-.16.92c0,.29-.11.56-.17.8l-3.18,15.54h-3.53l-5.19-25h3.27a1.14,1.14,0,0,1,.85.34,1.69,1.69,0,0,1,.44.91l2.32,13q.1.62.21,1.35t.21,1.52a27.53,27.53,0,0,1,.51-2.87l2.71-13a1.9,1.9,0,0,1,.44-.87,1.06,1.06,0,0,1,.82-.39h1.15a1,1,0,0,1,.82.35,2.33,2.33,0,0,1,.47.9l2.71,13a25.86,25.86,0,0,1,.51,2.73q.09-.77.19-1.45t.2-1.28l2.31-13a1.75,1.75,0,0,1,.44-.88,1.09,1.09,0,0,1,.83-.38h3.07Z" fill="#7d7d7d"/>
  <path d="M438.57,42.43a19.38,19.38,0,0,1-.63,5,13.83,13.83,0,0,1-1.77,4.06,8.76,8.76,0,0,1-2.75,2.73,7,7,0,0,1-7.14,0,8.78,8.78,0,0,1-2.76-2.71,13.73,13.73,0,0,1-1.78-4.06,20.62,20.62,0,0,1,0-10.1,13.61,13.61,0,0,1,1.78-4,8.82,8.82,0,0,1,2.76-2.7,6.76,6.76,0,0,1,3.57-1,6.69,6.69,0,0,1,3.57,1,8.89,8.89,0,0,1,2.75,2.71,13.71,13.71,0,0,1,1.77,4A19.31,19.31,0,0,1,438.57,42.43Zm-4,0a15.74,15.74,0,0,0-.32-3.34,8.53,8.53,0,0,0-.93-2.52A4.52,4.52,0,0,0,431.84,35a3.67,3.67,0,0,0-2-.55,3.73,3.73,0,0,0-2,.55,4.49,4.49,0,0,0-1.49,1.58,8.53,8.53,0,0,0-.93,2.52,17.51,17.51,0,0,0,0,6.7,8.52,8.52,0,0,0,.93,2.52,4.42,4.42,0,0,0,1.49,1.57,3.77,3.77,0,0,0,2,.54,3.72,3.72,0,0,0,2-.54,4.44,4.44,0,0,0,1.48-1.57,8.52,8.52,0,0,0,.93-2.52,15.84,15.84,0,0,0,.33-3.36Z" fill="#7d7d7d"/>
  <path d="M454.61,54.95h-3.52a1.47,1.47,0,0,1-1.41-1.1l-2.79-7.26a1.88,1.88,0,0,0-.44-.68,1,1,0,0,0-.69-.21h-1V55h-3.9V30h5.46a7.79,7.79,0,0,1,3.11.56,5.47,5.47,0,0,1,2.1,1.55,6.27,6.27,0,0,1,1.18,2.35,11.23,11.23,0,0,1,.37,3,11.55,11.55,0,0,1-.22,2.3,8.94,8.94,0,0,1-.65,2,6.92,6.92,0,0,1-1,1.64,5.5,5.5,0,0,1-1.45,1.18,3.91,3.91,0,0,1,.71.73,5.13,5.13,0,0,1,.6,1Zm-8.28-13.26a2.82,2.82,0,0,0,1.35-.3,2.53,2.53,0,0,0,.92-.83,3.65,3.65,0,0,0,.52-1.25,7,7,0,0,0,.16-1.54,4.11,4.11,0,0,0-.72-2.58,2.65,2.65,0,0,0-2.23-.93h-1.57v7.42h1.57Z" fill="#7d7d7d"/>
  <path d="M466.14,50.31v4.64H456v-25h3.9V50.31Z" fill="#7d7d7d"/>
  <path d="M483.37,42.43a18.9,18.9,0,0,1-.63,5,13.16,13.16,0,0,1-1.77,4A8.49,8.49,0,0,1,478.22,54a7,7,0,0,1-3.57.94h-6.56V30h6.52a6.91,6.91,0,0,1,3.57.94,8.61,8.61,0,0,1,2.75,2.61,13,13,0,0,1,1.77,4A18.83,18.83,0,0,1,483.37,42.43Zm-4,0a15.94,15.94,0,0,0-.32-3.35,8.65,8.65,0,0,0-.93-2.53,4.57,4.57,0,0,0-1.48-1.6,3.64,3.64,0,0,0-2-.56h-2.55V50.48h2.6a3.63,3.63,0,0,0,2-.56,4.56,4.56,0,0,0,1.48-1.6,8.65,8.65,0,0,0,.93-2.53,16,16,0,0,0,.28-3.36Z" fill="#7d7d7d"/>
</svg>
