<svg id="Layer_1" data-name="Layer 1" xmlns="http://www.w3.org/2000/svg" xmlns:xlink="http://www.w3.org/1999/xlink" width="640" height="480" viewBox="0 0 640 480">
  <defs>
    <clipPath id="clip-path">
      <rect width="640" height="480" fill="none"/>
    </clipPath>
  </defs>
  <title>us</title>
  <g clip-path="url(#clip-path)">
    <g>
      <path d="M0,0H912V36.92H0ZM0,73.85H912v36.92H0ZM0,147.7H912v36.92H0Zm0,73.85H912v36.92H0ZM0,295.4H912v36.92H0Zm0,73.85H912v36.92H0ZM0,443.1H912V480H0Z" fill="#bd3d44"/>
      <path d="M0,36.92H912V73.85H0Zm0,73.85H912v36.92H0Zm0,73.85H912v36.92H0Zm0,73.85H912v36.92H0Zm0,73.85H912v36.92H0Zm0,73.85H912v36.92H0Z" fill="#fff"/>
      <path d="M0,0H364.8V258.46H0Z" fill="#192f5d"/>
      <path d="M30.4,11.06l3.32,10.21H44.46l-8.69,6.31,3.32,10.21-8.69-6.3L21.71,37.8,25,27.59l-8.69-6.31H27.08Zm60.8,0,3.32,10.21h10.74l-8.69,6.31,3.32,10.21-8.69-6.3L82.51,37.8l3.32-10.21-8.69-6.31H87.88Zm60.8,0,3.32,10.21h10.74l-8.69,6.31,3.32,10.21L152,31.49l-8.69,6.31,3.32-10.21-8.69-6.31h10.74Zm60.8,0,3.32,10.21h10.74l-8.69,6.31,3.32,10.21-8.69-6.31-8.69,6.31,3.32-10.21-8.69-6.31h10.74Zm60.8,0,3.32,10.21h10.74L279,27.59l3.32,10.21-8.69-6.31-8.69,6.31,3.32-10.21-8.69-6.31h10.74Zm60.8,0,3.32,10.21h10.74l-8.69,6.31,3.32,10.21-8.69-6.31-8.69,6.31L329,27.59l-8.69-6.31H331Z" fill="#fff"/>
      <path d="M60.8,36.91l3.32,10.21H74.86l-8.69,6.31,3.32,10.22L60.8,57.34l-8.69,6.31,3.32-10.22-8.69-6.31H57.48Zm60.8,0,3.32,10.21h10.74L127,53.44l3.32,10.22-8.69-6.31-8.69,6.31,3.32-10.22-8.69-6.31h10.74Zm60.8,0,3.32,10.21h10.74l-8.69,6.31,3.32,10.22-8.69-6.31-8.69,6.31L177,53.44l-8.69-6.31h10.74Zm60.8,0,3.32,10.21h10.74l-8.69,6.31,3.32,10.22-8.69-6.31-8.69,6.31,3.32-10.22-8.69-6.31h10.74Zm60.8,0,3.32,10.21h10.74l-8.69,6.31,3.32,10.22L304,57.34l-8.69,6.31,3.32-10.22-8.69-6.31h10.74Z" fill="#fff"/>
      <path d="M30.4,62.76,33.72,73H44.46l-8.69,6.31L39.09,89.5,30.4,83.19,21.71,89.5,25,79.28,16.34,73H27.08Zm60.8,0L94.52,73h10.74l-8.69,6.31L99.89,89.5,91.2,83.19,82.51,89.5l3.32-10.21L77.14,73H87.88Zm60.8,0L155.32,73h10.74l-8.69,6.31,3.32,10.21L152,83.19l-8.69,6.31,3.32-10.21L137.94,73h10.74Zm60.8,0L216.12,73h10.74l-8.69,6.31,3.32,10.21-8.69-6.31-8.69,6.31,3.32-10.21L198.74,73h10.74Zm60.8,0L276.92,73h10.74L279,79.28l3.32,10.21-8.69-6.31-8.69,6.31,3.32-10.21L259.54,73h10.74Zm60.8,0L337.72,73h10.74l-8.69,6.31,3.32,10.21-8.69-6.31-8.69,6.31L329,79.28,320.34,73h10.74Z" fill="#fff"/>
      <path d="M60.8,88.6l3.32,10.22H74.86l-8.69,6.31,3.32,10.22L60.8,109l-8.69,6.31,3.32-10.22-8.69-6.31H57.48Zm60.8,0,3.32,10.22h10.74L127,105.13l3.32,10.22L121.6,109l-8.69,6.31,3.32-10.22-8.69-6.31h10.74Zm60.8,0,3.32,10.22h10.74l-8.69,6.31,3.32,10.22L182.4,109l-8.69,6.31L177,105.13l-8.69-6.31h10.74Zm60.8,0,3.32,10.22h10.74l-8.69,6.31,3.32,10.22L243.2,109l-8.69,6.31,3.32-10.22-8.69-6.31h10.74Zm60.8,0,3.32,10.22h10.74l-8.69,6.31,3.32,10.22L304,109l-8.69,6.31,3.32-10.22-8.69-6.31h10.74Z" fill="#fff"/>
      <path d="M30.4,114.45l3.32,10.21H44.46L35.77,131l3.32,10.21L30.4,134.9l-8.69,6.31L25,131l-8.69-6.31H27.08Zm60.8,0,3.32,10.21h10.74L96.57,131l3.32,10.21L91.2,134.9l-8.69,6.31L85.83,131l-8.69-6.31H87.88Zm60.8,0,3.32,10.21h10.74L157.37,131l3.32,10.21L152,134.88l-8.69,6.31L146.63,131l-8.69-6.31h10.74Zm60.8,0,3.32,10.21h10.74L218.17,131l3.32,10.21-8.69-6.31-8.69,6.31L207.43,131l-8.69-6.31h10.74Zm60.8,0,3.32,10.21h10.74L279,131l3.32,10.21-8.69-6.31-8.69,6.31L268.23,131l-8.69-6.31h10.74Zm60.8,0,3.32,10.21h10.74L339.77,131l3.32,10.21-8.69-6.31-8.69,6.31L329,131l-8.69-6.31H331Z" fill="#fff"/>
      <path d="M60.8,140.29l3.32,10.22H74.86l-8.69,6.31L69.49,167l-8.69-6.31L52.11,167l3.32-10.22-8.69-6.31H57.48Zm60.8,0,3.32,10.22h10.74L127,156.82,130.29,167l-8.69-6.31L112.91,167l3.32-10.22-8.69-6.31h10.74Zm60.8,0,3.32,10.22h10.74l-8.69,6.31L191.09,167l-8.69-6.31L173.71,167,177,156.82l-8.69-6.31h10.74Zm60.8,0,3.32,10.22h10.74l-8.69,6.31L251.89,167l-8.69-6.31L234.51,167l3.32-10.22-8.69-6.31h10.74Zm60.8,0,3.32,10.22h10.74l-8.69,6.31L312.69,167,304,160.73,295.31,167l3.32-10.22-8.69-6.31h10.74Z" fill="#fff"/>
      <path d="M30.4,166.14l3.32,10.21H44.46l-8.69,6.31,3.32,10.21-8.69-6.31-8.69,6.31L25,182.67l-8.69-6.31H27.08Zm60.8,0,3.32,10.21h10.74l-8.69,6.31,3.32,10.21-8.69-6.31-8.69,6.31,3.32-10.21-8.69-6.31H87.88Zm60.8,0,3.32,10.21h10.74l-8.69,6.31,3.32,10.21-8.69-6.3-8.69,6.31,3.32-10.21-8.69-6.31h10.74Zm60.8,0,3.32,10.21h10.74l-8.69,6.31,3.32,10.21-8.69-6.31-8.69,6.31,3.32-10.21-8.69-6.31h10.74Zm60.8,0,3.32,10.21h10.74L279,182.67l3.32,10.21-8.69-6.31-8.69,6.31,3.32-10.21-8.69-6.31h10.74Zm60.8,0,3.32,10.21h10.74l-8.69,6.31,3.32,10.21-8.69-6.31-8.69,6.31,3.29-10.2-8.69-6.31H331Z" fill="#fff"/>
      <path d="M60.8,192l3.32,10.22H74.86l-8.69,6.31,3.32,10.22-8.69-6.31-8.69,6.31,3.32-10.22-8.69-6.31H57.48Zm60.8,0,3.32,10.22h10.74l-8.66,6.3,3.32,10.22-8.69-6.31-8.69,6.31,3.32-10.22-8.69-6.31h10.74Zm60.8,0,3.32,10.22h10.74l-8.69,6.31,3.32,10.22-8.69-6.31-8.69,6.31L177,208.52l-8.69-6.31h10.74Zm60.8,0,3.32,10.22h10.74l-8.69,6.31,3.32,10.22-8.69-6.31-8.69,6.31,3.32-10.22-8.69-6.31h10.74Zm60.8,0,3.32,10.22h10.74l-8.69,6.31,3.32,10.22L304,212.42l-8.69,6.31,3.32-10.22-8.69-6.31h10.74Z" fill="#fff"/>
      <path d="M30.4,217.83,33.72,228H44.46l-8.69,6.31,3.32,10.21-8.69-6.31-8.69,6.31L25,234.36,16.34,228H27.08Zm60.8,0L94.52,228h10.74l-8.69,6.31,3.32,10.21-8.69-6.31-8.69,6.31,3.32-10.21L77.14,228H87.88Zm60.8,0L155.32,228h10.74l-8.69,6.31,3.32,10.21L152,238.26l-8.69,6.31,3.32-10.21L137.94,228h10.74Zm60.8,0L216.12,228h10.74l-8.69,6.31,3.32,10.21-8.69-6.31-8.69,6.31,3.32-10.21L198.74,228h10.74Zm60.8,0L276.92,228h10.74L279,234.36l3.32,10.21-8.69-6.31-8.69,6.31,3.32-10.21L259.54,228h10.74Zm60.8,0L337.72,228h10.74l-8.69,6.31,3.32,10.21-8.69-6.31-8.69,6.31L329,234.36,320.34,228h10.74Z" fill="#fff"/>
    </g>
  </g>
</svg>
