<svg id="Layer_1" data-name="Layer 1" xmlns="http://www.w3.org/2000/svg" xmlns:xlink="http://www.w3.org/1999/xlink" width="82" height="86" viewBox="0 0 82 86">
  <defs>
    <linearGradient id="linear-gradient" x1="41.18" y1="2.91" x2="41.18" y2="87.13" gradientTransform="matrix(1, 0, 0, -1, 0, 88)" gradientUnits="userSpaceOnUse">
      <stop offset="0" stop-color="#f15a24"/>
      <stop offset="1" stop-color="#dfbe3b"/>
    </linearGradient>
  </defs>
  <title>goToMeeting</title>
  <g id="_Group_" data-name=" Group ">
    <g id="_Group_2" data-name=" Group 2">
      <path id="_Compound_Path_" data-name=" Compound Path " d="M22.37,75c-7.86-.65-14.19-4-18.28-10.91s-4-14-.59-21C-3.91,28.71,6,11.92,22.4,10.93,26.92,4.45,33.19.87,41.2.87s14.2,3.56,18.74,10A22.06,22.06,0,0,1,78.85,43c3.38,7.09,3.53,14.24-.57,21.15S67.83,74.38,60,75a22.64,22.64,0,0,1-37.68,0Z" fill="url(#linear-gradient)"/>
      <path id="_Compound_Path_2" data-name=" Compound Path 2" d="M27.07,67c-7.14,1.21-12.77-.82-16.52-7C8,55.76,7.63,48.74,12.88,43,8.21,37.45,7.1,31.39,11.1,25c3.15-5,7.8-6.73,15.92-6.16,2.4-6.53,7-10.47,14.14-10.48s11.7,3.84,14.18,10.47c7.56-1.17,13.67,1,17,8.24,2.7,5.76,1.27,11.1-2.91,15.87,4.76,5.64,5.79,11.72,1.69,18.13-3.14,4.92-8,6.68-15.86,6-2.36,6.59-7,10.49-14.13,10.49S29.47,73.7,27.07,67Zm14.1,3.2a6.93,6.93,0,0,0,6.68-4.71,6.84,6.84,0,0,0-2.41-7.68A10.91,10.91,0,0,1,44,56.64a4.5,4.5,0,0,1,2.32-7.51c2.9-.72,5.41,1.26,5.8,4.59a7,7,0,0,0,8.45,6.22A6.92,6.92,0,0,0,66,51.79q-.05-.27-.13-.53A7.05,7.05,0,0,0,57,46.6l-.59.21a16,16,0,0,1-1.64.59,4.79,4.79,0,0,1-5.1-1.88,4.37,4.37,0,0,1,0-5,4.7,4.7,0,0,1,5.1-1.86c.65.17,1.26.45,1.9.67a7,7,0,0,0,8.42-3,6.78,6.78,0,0,0-1.23-8.48A7.05,7.05,0,0,0,52.1,32.67,4.76,4.76,0,0,1,47.81,37a4.67,4.67,0,0,1-4.67-2.73,4.73,4.73,0,0,1,1.67-5.73A14.6,14.6,0,0,0,46,27.61a6.75,6.75,0,0,0,.44-9.54l-.3-.3a7.08,7.08,0,0,0-10,.2l-.21.23a6.78,6.78,0,0,0,.61,9.57l.39.32a11,11,0,0,1,1.6,1.42,4.55,4.55,0,0,1-4.65,7.34c-2.56-.68-3.4-2.6-3.76-5a7,7,0,1,0-13.54,3A7,7,0,0,0,26,39.16a10.43,10.43,0,0,1,1.91-.64,4.65,4.65,0,0,1,5.48,3.63q0,.11,0,.23a4.42,4.42,0,0,1-3.77,5l-.13,0a9.61,9.61,0,0,1-3.75-.72,7.08,7.08,0,0,0-9.09,4.19l-.1.29a6.88,6.88,0,0,0,4.6,8.57l.48.13a7,7,0,0,0,8.44-5.17q0-.2.09-.41c.1-.53.14-1.07.26-1.59A4.8,4.8,0,0,1,35.35,49a4.52,4.52,0,0,1,4.21,4.17c.17,2-.88,3.45-2.47,4.62a6.67,6.67,0,0,0-2.57,7.72,7,7,0,0,0,6.65,4.73Z" fill="#fff"/>
    </g>
  </g>
</svg>
