<svg id="Layer_1" data-name="Layer 1" xmlns="http://www.w3.org/2000/svg" width="360" height="358" viewBox="0 0 360 358">
  <title>skype</title>
  <path id="_Path_" data-name=" Path " d="M343.15,209.74c.12-.61.2-1.23.31-1.85-.31-.56-.58-1.13-.9-1.67Z" fill="#fff"/>
  <path id="_Path_2" data-name=" Path 2" d="M342.62,208.15h0a167,167,0,0,0,2.74-30,165.13,165.13,0,0,0-165-165.23h-.24a166.69,166.69,0,0,0-31.3,3h-.08A97.79,97.79,0,0,0,17.3,149.7h0A165.19,165.19,0,0,0,209,340.9h0A97.8,97.8,0,0,0,342.62,208.15Z" fill="#00adee"/>
  <path id="_Path_3" data-name=" Path 3" d="M180.75,279.41c-58.72,0-85-28.86-85-50.5,0-11.1,8.19-18.87,19.49-18.87,25.12,0,18.62,36.08,65.5,36.08,24,0,37.25-13,37.25-26.37,0-8-4-16.91-19.76-20.8L146,185.9c-42.07-10.54-49.7-33.28-49.7-54.66,0-44.38,41.78-61,81-61,36.14,0,78.75,20,78.75,46.6,0,11.41-9.88,18-21.16,18-21.45,0-17.5-29.68-60.69-29.68-21.44,0-33.32,9.71-33.32,23.6s17,18.24,31.68,21.64l38.66,8.6c42.34,9.43,53.08,34.15,53.08,57.44C264.3,252.48,236.62,279.41,180.75,279.41Z" fill="#fff"/>
</svg>
