<svg xmlns="http://www.w3.org/2000/svg" viewBox="0 0 324 369"><title>hangouts</title><g style="isolation:isolate"><g id="Layer_1" data-name="Layer 1"><g id="_Group_" data-name="&lt;Group&gt;"><g id="_Group_2" data-name="&lt;Group&gt;"><g id="_Group_3" data-name="&lt;Group&gt;"><path id="_Path_" data-name="&lt;Path&gt;" d="M162,2.5A159.69,159.69,0,0,0,2.31,162.19c0,84,75.69,152.08,159.69,152.08V367.5c96.72-47.17,159.69-125,159.69-205.31A159.69,159.69,0,0,0,162,2.5Z" fill="#0f9d58"/><path id="_Path_2" data-name="&lt;Path&gt;" d="M162,4.4A159.67,159.67,0,0,1,321.66,163.15c0-.32,0-.64,0-1a159.69,159.69,0,1,0-319.37,0c0,.3,0,.6,0,.9A159.67,159.67,0,0,1,162,4.4Z" fill="#fff" fill-opacity="0.32"/><g id="_Group_4" data-name="&lt;Group&gt;"><g opacity="0.24" style="mix-blend-mode:multiply"><path d="M162,312.37c-83.69,0-159.12-67.61-159.66-151.18,0,.33,0,.66,0,1,0,84,75.69,152.08,159.69,152.08ZM321.66,161.25c-.5,80-63.34,157.37-159.66,204.35v1.9c96.72-47.17,159.69-125,159.69-205.31C321.69,161.87,321.67,161.57,321.66,161.25Z" fill="#263238"/></g></g></g><g id="_Group_5" data-name="&lt;Group&gt;"><g id="_Group_6" data-name="&lt;Group&gt;"><g id="_Group_7" data-name="&lt;Group&gt;"><path id="_Compound_Path_" data-name="&lt;Compound Path&gt;" d="M86,185h38v38c16.8,0,30.42-17,30.42-38V116.56H86Zm91.25-68.44V185h38v38c16.8,0,30.42-17,30.42-38V116.56Z" fill="#f1f1f1"/></g></g></g><path id="_Compound_Path_2" data-name="&lt;Compound Path&gt;" d="M177.21,116.56v1.9h68.44v-1.9ZM86,118.46H154.4v-1.9H86Z" fill="#fff" fill-opacity="0.48"/><g id="_Group_8" data-name="&lt;Group&gt;"><g opacity="0.16" style="mix-blend-mode:multiply"><path d="M124,185H86l1.88,1.9H124Zm0,38v1.9c16.8,0,30.42-17,30.42-38V185C154.4,206,140.78,223,124,223Zm91.25-38h-38v1.9h38Zm0,38v1.9c16.8,0,30.42-17,30.42-38V185C245.65,206,232,223,215.23,223Z" fill="#263238"/></g></g><g id="_Group_9" data-name="&lt;Group&gt;"><g opacity="0.08" style="mix-blend-mode:multiply"><path d="M124,185H86l1.88,1.9H124Zm0,38v1.9c16.8,0,30.42-17,30.42-38V185C154.4,206,140.78,223,124,223Zm91.25-38h-38v1.9h38Zm0,38v1.9c16.8,0,30.42-17,30.42-38V185C245.65,206,232,223,215.23,223Z" fill="#263238"/></g></g></g></g></g></g></svg>